<?xml version="1.0" encoding="utf-8"?>
<!-- Generator: Adobe Illustrator 24.2.1, SVG Export Plug-In . SVG Version: 6.00 Build 0)  -->
<svg version="1.1" id="Layer_1" xmlns="http://www.w3.org/2000/svg" xmlns:xlink="http://www.w3.org/1999/xlink" x="0px" y="0px"
	 viewBox="0 0 9.6 10.4" style="enable-background:new 0 0 9.6 10.4;" xml:space="preserve">
<style type="text/css">
	.st0{fill:#a62091;}
</style>
<path class="st0" d="M9.5,3.4C9.4,2.5,8.9,1.8,8.2,1.2c-0.5-0.4-1-0.6-1.6-0.8C6,0.1,5.4,0,4.8,0C4.3,0,4,0,3.5,0.1
	C2.9,0.2,2.3,0.5,1.8,0.8c-0.6,0.4-1,0.8-1.3,1.4C0.2,2.7,0,3.2,0,3.8C0,4.1,0,4.6,0.1,5C0.2,5.8,0.6,6.6,1,7.4v0.1V8
	c0,0.2,0.1,0.5,0.4,0.5h0.2c0.4,0,0.7,0.1,1,0.5c0.2,0.2,0.4,0.6,0.4,0.9c0,0.2,0.2,0.5,0.5,0.5h1.4h1.4c0.2,0,0.5-0.1,0.5-0.4
	c0-0.1,0-0.2,0-0.4c0.1-0.5,0.4-0.8,0.8-1.1C7.8,8.5,8,8.5,8.2,8.5S8.7,8.4,8.7,8V7.9V7.4C9,6.7,9.3,5.9,9.4,5.2
	C9.6,4.6,9.6,4,9.5,3.4z M2.6,6.8c-0.7,0-1.2-0.5-1.2-1.2s0.5-1.2,1.2-1.2c0.7,0,1.2,0.5,1.2,1.2S3.3,6.8,2.6,6.8z M5.3,8
	C5.1,8.1,4.9,8.1,4.6,8C4.3,8.1,4.1,8.1,4,8C3.7,7.9,4,7.4,4.6,6.5C5.3,7.4,5.5,7.9,5.3,8z M6.6,6.8c-0.7,0-1.2-0.5-1.2-1.2
	s0.5-1.2,1.2-1.2c0.7,0,1.2,0.5,1.2,1.2S7.3,6.8,6.6,6.8z"/>
</svg>
