<svg xmlns="http://www.w3.org/2000/svg" style="display:none">
  <symbol xmlns="http://www.w3.org/2000/svg" id="sbx-icon-search-6" viewBox="0 0 40 40">
    <path d="M28.295 32.517c-2.93 2.086-6.51 3.312-10.38 3.312C8.02 35.83 0 27.81 0 17.914 0 8.02 8.02 0 17.915 0 27.81 0 35.83 8.02 35.83 17.915c0 3.87-1.227 7.45-3.313 10.38l6.61 6.61c1.166 1.165 1.163 3.057 0 4.22-1.167 1.167-3.057 1.167-4.226-.002l-6.605-6.606zm-10.38.326c8.245 0 14.928-6.683 14.928-14.928 0-8.245-6.683-14.93-14.928-14.93-8.245 0-14.93 6.685-14.93 14.93 0 8.245 6.685 14.928 14.93 14.928zm0-26.573c-6.43 0-11.645 5.214-11.645 11.645 0 .494.4.895.896.895.495 0 .896-.4.896-.895 0-5.442 4.41-9.853 9.853-9.853.494 0 .895-.4.895-.896 0-.495-.4-.896-.895-.896z"
    fill-rule="evenodd" />
  </symbol>
</svg>