<?xml version="1.0" encoding="utf-8"?>
<!-- Generator: Adobe Illustrator 25.2.1, SVG Export Plug-In . SVG Version: 6.00 Build 0)  -->
<svg version="1.1" id="Layer_1" xmlns="http://www.w3.org/2000/svg" xmlns:xlink="http://www.w3.org/1999/xlink" x="0px" y="0px"
	 viewBox="0 0 326.8 372.5" style="enable-background:new 0 0 326.8 372.5;" xml:space="preserve">
<style type="text/css">
	.st0{fill:#201600;}
	.st1{fill:#00AD9A;}
	.st2{fill:#E8F3F1;}
	.st3{fill:#FFFFFF;}
	.st4{fill:#438367;}
</style>
<g id="Layer_2_1_">
	<g id="Слой_1">
		<path class="st0" d="M270,110c8.4-5.6,15.1-13.5,14.5-24.5c-0.3-7.2-4.5-13.6-11-16.6c-4.6-2.1-9.9-2.1-14.6-0.2
			c0-1.3-0.1-2.6-0.2-4c-1.3-12.3-9.5-20-19.6-23c4.7-12.5,0.8-26.6-9.7-34.8c-11.7-9-28.3-9-40.4-0.8c-5.3,3.6-9.7,8.5-12.7,14.2
			c-1.1-0.7-2.3-1.4-3.5-2c-9.5-4.4-20.6-4.1-29.9,0.8c-2.6,1.4-5.1,3.2-7.3,5.2c-8.3-12.9-24.8-19.7-39.7-14.9
			c-15.3,4.9-26.2,19.9-24.6,36.1c0.7,7.9,4,15.3,9.3,21.2c-4.7,4.3-8.1,9.8-9.9,15.9c-18.9-2-35.4,13.6-35.6,32.7
			c0,4.1,0.7,8.3,2,12.2C13.8,152.1,0,184.1,0,220.1c0,84,73.3,152.4,163.4,152.4s163.4-68.4,163.4-152.4
			C326.9,174.8,305.2,135.8,270,110z"/>
		<path class="st1" d="M118,138.1c-10.3-0.9-21.1-0.2-30.2,5c-8.2,4.7-14.6,12.8-13.8,22.7s8.7,17.5,17.4,21.2
			c8.8,3.7,18.7,4.3,27.9,1.7c5.2-1.3,10.2-3.1,15.1-5.3c2.4-1.1,4.8-2.4,7.1-3.7c1-0.5,6-4.4,6.8-4.1c-0.7-0.2-1.4-0.5-2.1-0.7
			c-3.5-1.1-6.8-2.7-9.9-4.6c-5.5,5.7-13.4,9.2-21.1,10.4c-5,0.8-10.2,0.8-15.2-0.2c-2.5-0.4-5-1.2-7.3-2.2c-2-1-4.6-2-6.3-3.5
			c-0.3-0.3-0.3-0.9,0.1-1.2c0.1-0.1,0.3-0.2,0.5-0.2c1,0.1,1.9,0.3,2.8,0.6c1.3,0.3,2.6,0.5,3.9,0.6c2.3,0.3,4.6,0.8,6.9,1
			c4.4,0.6,8.8,0.5,13.1-0.2c6.7-1.2,12.8-4.4,17.6-9.2l-0.4-0.4c-5-5.5-7.2-14-2.9-20.6c0.1-0.1,0.2-0.2,0.3-0.4
			c-3.9-1-7.5-3.3-10.1-6.4C118.1,138.2,118.1,138.1,118,138.1z"/>
		<path class="st1" d="M162.4,156.8c2.4,0.9,4.6,2,6.7,3.4c-0.9-2.3-1.5-4.8-1.5-7.3c-6.2-4.2-13.4-6.8-20.9-7.5
			c-5.1-0.4-12.1-0.2-13.6,5.8c-1.4,5.6,2.7,10.6,7.2,13.3c3.7,2.3,8,3.7,12.1,5c5.7,1.8,11.6,2.7,17.5,2.8c0.6-1.2,1.2-2.4,1.9-3.5
			c0-0.1,0-0.1-0.1-0.2c-0.3-0.6-0.6-1.1-1-1.6c-0.3-0.5-0.7-1-1.1-1.5c-0.5-0.5-1-1.1-1.5-1.6c-1.9-2-4.1-3.7-6.5-5.1
			c-0.5-0.3-0.7-1-0.4-1.5C161.5,156.8,161.9,156.6,162.4,156.8z"/>
		<path class="st1" d="M141.6,120.1c-2,6.1-0.9,12.5,1.7,18.2c1.6,0,3.2,0.1,4.8,0.2c7.3,0.8,14.4,3.2,20.8,6.9
			c0.1-0.3,0.3-0.5,0.4-0.8L169,141l-0.6-5.4c-0.5-3.7-1.5-7.4-2.2-11c-0.2-1,1.2-1.7,1.7-0.7c1.6,3.5,3,7.1,4.1,10.8
			c0.5,1.4,0.9,2.8,1.3,4.2c1.8-1.9,4-3.4,6.4-4.4c-2.7-12.3-10.2-27.1-25-25.8C148.5,109.3,143.6,114.2,141.6,120.1z"/>
		<path class="st1" d="M131,101.3c-5.6,1.3-10.1,5.8-11.4,11.4c-1.5,6.4-0.7,13.1,2.4,18.9c2.7,4.8,8.1,8.1,13.6,6.4
			c-2.1-5.6-2.6-11.7-1.4-17.6c1.4-6.2,5.1-11.6,10.3-15.2C140.9,101.8,135.9,100.3,131,101.3z"/>
		<path class="st1" d="M177.7,76.6c-7.1-0.5-13.8,2.8-17.9,8.6c-3.2,4.9-4.8,10.7-4.5,16.6c2.9-0.1,5.8,0.2,8.6,1.1
			c9.8,3.2,16,10.9,19.7,19.9c6.6-3.2,11.6-8.9,14-15.8C201.9,93.2,192.8,77.2,177.7,76.6z"/>
		<path class="st1" d="M261.4,123.1c-3.2-7.7-9.7-13.4-17.7-15.6c-7.3-1.9-15-0.4-21.1,3.9c2.4,3.7,3.4,8.2,2.8,12.6
			c-1.3,9.4-8.5,16.3-17.2,19.2c1.5,2.4,2.6,5.1,3.1,7.9c1,0.8,2,1.5,3.1,2.1c2.2,1.2,4.5,2.1,7,2.4c2.9,0.8,5.8,1.3,8.8,1.5
			c1.2,0.1,2.4,0,3.6-0.3c1.4-0.3,2.7-0.8,4-1.4c0.3-0.2,0.7-0.2,1,0.1c0.2,0.3,0.2,0.7-0.2,1l0,0c-0.9,1.1-2,2-3.3,2.6
			c-1.3,0.6-2.7,1.1-4.1,1.5c-3.2,0.7-6.6,1-9.9,0.6c-3.2-0.1-6.3-0.9-9.2-2.3c-0.3-0.2-0.6-0.3-0.9-0.5c-0.5,1.9-1.2,3.8-2.3,5.5
			c3.3,1,6.5,2.5,9.4,4.5c8.7,1.7,17.7,0.5,25.7-3.2C259.3,157.8,268.5,139.4,261.4,123.1z"/>
		<path class="st1" d="M218.4,119c-0.7-3.6-3.3-6.6-6.8-7.9c-4.6-1.4-8,1.5-10.8,4.9c-2.8,3.5-6.1,6.6-9.7,9.2
			c-0.6,0.4-5.6,3.5-5.4,4.3c0.3,1.1,0.6,2.2,0.8,3.3c5.9-0.7,11.8,1,16.4,4.7h0.1c4.7-0.9,8.9-3.3,12.1-6.8
			C217.9,127.5,219.1,123.2,218.4,119z"/>
		<path class="st1" d="M240.3,100c1.4,0.1,2.9,0.4,4.3,0.7c0.8-0.1,1.7-0.1,2.5-0.2c2.4-0.3,4.8-0.8,7.1-1.6c2.1-0.6,4-1.6,5.6-3
			c1.6-1.5,2.8-3.3,3.7-5.3c0.3-0.7,1.4-0.3,1.4,0.4c-0.3,2.5-1.2,4.8-2.8,6.7c-1.5,2.1-3.3,3.8-5.4,5.3c-0.9,0.6-1.8,1.1-2.8,1.5
			c1.6,1,3.1,2,4.5,3.2c9-3.8,18.6-10.1,19.4-20.7c0.4-4.9-1.4-9.7-5.8-12.2c-4.4-2.5-9.9-1.9-13.7,1.5c-0.1,0.1-0.2,0.1-0.2,0.2
			C255.4,86,248.6,93.7,240.3,100z"/>
		<path class="st1" d="M244,187.9c-0.5,0.2-0.9,0.3-1.4,0.4c-0.4,0.1-0.9,0.1-1.3,0.2c-1,0.2-2,0.1-2.9-0.1c-1.9-0.3-3.7-1-5.3-2.1
			c-0.5-0.3-0.9-0.7-1.3-1.1c0,0.1,0.1,0.1,0.1,0.2c0.5,1.3,0.8,2.7,1,4.1c6.2,6.4,17,7.9,22.9,0.2c2.7-3.2,3.3-7.6,1.7-11.4
			c-1.8-3.9-5.6-6.7-9.7-6.7c-0.3,0-0.7-0.1-0.9-0.1c-4.8,2.2-9.9,3.6-15.1,4.2c0.6,0.9,1,1.9,1.4,2.6c0.8,1.4,1.7,2.8,2.8,4
			c1,1.2,2.2,2.3,3.5,3.1c1.3,0.9,2.9,1.4,4.5,1.3C244.5,186.6,244.6,187.6,244,187.9z"/>
		<path class="st1" d="M190.3,139.6c-6.3-0.6-12.9,2.9-15.1,9.1c-2,5.8,1,11.9,5.3,15.8c4.1,3.7,10,4.6,15,2.2
			c4.9-2.2,9.1-6.7,9.2-12.2C204.6,146.8,197.9,140.4,190.3,139.6z"/>
		<path class="st1" d="M94.6,58c9.8-2.7,20.3-0.4,28,6.3c-1.1-6.9-0.7-13.9,1-20.7l0,0c-0.9-1-1.6-2.2-2.2-3.4
			c-0.5-0.9-1.1-1.7-1.7-2.5c-1.4-1.7-3.1-3.2-4.9-4.4c-2.2-1.3-4.7-2.2-7.2-2.8c-1.2-0.4-2.4-0.6-3.7-0.7c-1.2,0-2.4,0.3-3.5-0.2
			c-0.3-0.2-0.4-0.5-0.2-0.8c0-0.1,0.1-0.1,0.1-0.2c0.9-1.2,2.6-1.2,3.9-1.6c0.7-0.3,1.4-0.5,2.1-0.6c0.8-0.1,1.6-0.2,2.4-0.2
			c3.1,0,6.2,0.8,9,2.3c2.5,1.3,4.7,3.1,6.6,5.2c0.7,0.9,1.4,1.8,2.1,2.7c1.3-2.8,2.9-5.4,4.8-7.9c-0.1-0.1-0.2-0.2-0.2-0.3
			c-8.5-14.8-28.6-19.1-42-8.1C77.1,30,75.4,47.7,85.3,59.6c0.5,0.6,1,1.2,1.6,1.8C89.3,59.9,91.9,58.8,94.6,58z"/>
		<path class="st1" d="M136.7,223.1c13.2,4.1,31.1,2.9,38.5-10.5c0-0.1,0.1-0.1,0.1-0.2c-3.1-3.5-5.5-7.6-7.1-12
			c-2.3-6.8-2.7-14.1-0.9-21.1c-3.7-0.2-7.5-0.7-11.1-1.5c-0.3,0.7-0.8,1.3-1.4,1.7c-3.3,2.2-6.6,4.3-10.1,6.3
			c-0.1,0.3-0.3,0.7-0.6,0.9c-1.5,1.6-3.4,2.8-5,4.6c-1.2,1.4-2.2,3-2.9,4.8c-1.2,3.5-1.2,7.4,1.6,10.2c0.5,0.6,0.5,1.5-0.1,2
			c-0.4,0.4-1.1,0.5-1.6,0.2c-4.3-2.8-6.2-8.3-5.5-13.2c0.2-1,0.5-2,0.8-3c-3.7,1.5-7.6,2.7-11.5,3.6c-2.4,5.1-2.1,11,0.8,15.8
			C124.2,217.4,130.4,221.1,136.7,223.1z"/>
		<path class="st1" d="M98.8,131.9c5-0.9,10.1-1.3,15.2-1c-3.8-10.1-2.7-22.9,4.8-30.3c3.4-3.3,7.7-5.5,12.4-6.1
			c-2.2-9.6-5.9-19.1-13.8-25.4c-6.9-5.5-16.3-6.7-24.3-3.1c-9.4,4-15.4,13.2-16.9,23.1c-1,8.5,0.7,17.1,5.1,24.4
			c2.2,3.7,4.7,7.1,7.7,10.2c1.5,1.5,3.1,3,4.7,4.4C94.6,128.8,97.9,132,98.8,131.9z M90.8,108.6c-0.1,0.7-1,1.4-1.6,0.7
			c-1.3-1.5-1.6-3.8-2.1-5.6c-0.6-2-1-4.2-1.1-6.3c-0.2-4.1,0.6-8.1,2.2-11.8c1.4-3.5,3.6-6.6,6.2-9.3c1.4-1.4,3.1-2.5,4.9-3.2
			c1.8-0.7,3.6-1.1,5.5-1.3c0.8,0,1.5,0.8,1.4,1.6c0,0.5-0.3,1-0.7,1.2c-0.7,0.5-1.6,0.8-2.3,1.4c-0.7,0.6-1.3,1.2-1.8,1.9
			c-1,1.1-2.1,2-3.1,3.1c-2.1,2.1-3.8,4.6-5,7.3c-1.4,3.1-2.2,6.4-2.6,9.8c-0.2,1.7-0.4,3.5-0.4,5.2C90.3,105,91,106.8,90.8,108.6z"
			/>
		<path class="st2" d="M263.6,112.8c-0.1,0-0.1,0.1-0.2,0.1c2.9,4,5,8.5,6.2,13.3c15.2,9.5,24.1,21.3,24.1,34.8
			c0,24.4-29.2,45.5-71.8,55.7c-8.2,7-19.9,9.2-30.2,6.3c-0.9-0.3-1.9-0.6-2.8-0.9c-4.3,0.4-8.6,0.7-13,0.9
			c-10.9,10.3-28.9,11.2-42.8,6.2c-5.8-2-11.1-5.4-15.2-10c-48.8-8.9-83.5-31.6-83.5-58.2c0-8.4,3.5-16.2,9.8-23.2
			c-1.2-1.5-2.3-3-3.3-4.6c-21.5,23.3-33.4,54-33.3,85.7C7.6,299,77.7,359,163.9,359s156.3-60,156.3-140.2
			C320.2,175,298.5,137.2,263.6,112.8z"/>
		<path class="st1" d="M73.9,145.6c1-1.1,2-2.2,3.1-3.2c-1.5-0.4-3-0.9-4.5-1.5c-3.7-1.6-6.9-3.9-9.6-6.9c-2.6-3.1-4.4-6.7-5.3-10.6
			c-0.4-1.9-0.5-3.8-0.3-5.7c0.1-1.9,0.7-3.8,1.5-5.6c0.3-0.4,1-0.5,1.4-0.2c0.2,0.2,0.4,0.4,0.4,0.7c0,1.7,0.2,3.3,0.4,5
			c0.3,1.7,0.8,3.3,1.4,4.9c1.1,2.9,2.9,5.5,5.2,7.6c2.3,2.2,5,3.8,8,4.9c1.6,0.6,3.2,1,4.9,1.3c1.3,0.1,2.6,0.4,3.8,0.7
			c0.6-0.3,1.1-0.7,1.7-1c1.4-0.7,2.8-1.3,4.2-1.8c-7.6-6.1-14-13.7-17.8-22.8c-3-7.3-4-15.3-2.9-23.1c-14.9-1.2-27.3,12-27,26.9
			C42.9,132.1,57.6,144.4,73.9,145.6z"/>
		<path class="st1" d="M196.2,216.9c9.1,1.6,18.8-1.6,24.5-9c5-6.5,7.1-16,3-23.5c-3.3-5.9-8.5-10.4-14.8-12.9
			c0.1,0.1,0.1,0.2,0.2,0.3c1.5,2.1,2.6,4.4,3.4,6.9c0.9,2.9,1,5.9,0.5,8.8c-0.6,2.8-1.7,5.4-3.3,7.7c-0.3,0.4-0.8,0.6-1.3,0.3
			c-0.3-0.2-0.5-0.6-0.4-1c1.1-4.5,0.4-9.8-1.1-14.2c-0.7-1.9-1.7-3.8-2.9-5.4c-0.8-1.1-2-2.1-2.9-3.2c-1.7,1.1-3.6,1.9-5.6,2.5
			c-5.8,1.7-12.1,0.8-17.2-2.6c-5.5,8.7-6.8,19.5-2.5,29C179.7,209,187.1,215.2,196.2,216.9z"/>
		<path class="st1" d="M130.3,67.1c1,4.6,3,9.1,4.1,13.7c0.3,1.3,3.5,13.8,4,13.9c3.6,0.7,7,2.3,9.8,4.7c0.3-8.1,3.2-16.3,9-22.1
			c6.6-6.6,16.1-8.9,25.1-7.2c1.5,0.3,3,0.7,4.4,1.3c2-10.1,1.1-20.5-2.4-30.2c-3.1-8.3-8.8-16.3-17.5-18.9
			c-8.5-2.5-17.6-0.7-24.6,4.7c-7.9,6.2-12.2,15.6-13,25.5C128.9,57.4,129.3,62.3,130.3,67.1z M141.1,51.9c1.1-2.8,2.6-5.5,4.4-7.9
			c2.5-2.9,5.7-5.1,9.3-6.3c2.4-0.8,3.9-0.7,4.5-0.2c1,0.9,0,3-2.5,4.9c-1.1,0.8-2.1,1.6-3,2.5c-2,2.1-3.7,4.4-5.2,6.9
			c-1.7,2.6-3,5.3-4,8.2c-0.7,1.9-0.2,7.5-1.4,8.9c-1.7,1.9-2.8-2-3.1-3.5C139.3,61.2,139.5,55.7,141.1,51.9z"/>
		<path class="st1" d="M194,28c2.3-4,6-7,10.3-8.5c3.8-1.2,8.9-1,12,1.7c0.9,0.8-0.1,1.9-1,1.8c-1.9-0.4-3.8-0.4-5.7,0
			c-1.7,0.4-3.3,1.1-4.7,2.1c-2.8,2-5,4.7-6.6,7.7c-1.7,3.5-2.9,7.2-3.5,11c-0.4,2.1-0.5,4.1-0.8,6.2c-0.1,0.4-0.1,0.7-0.1,1.1
			c0.4,2.6,0.7,5.3,0.7,8c4.5-6,9.8-11.4,16.4-15.1c6.5-3.6,13.8-5.2,21.2-4.5c2.8-6.1,2.8-13.2,0-19.3C229,13.7,223.1,8.9,216,7.2
			c-14-3.7-28,4.5-34.1,17.1c3.4,3.9,6.2,8.3,8.1,13.1C190.9,34.1,192.2,30.9,194,28z"/>
		<path class="st1" d="M251.9,62.7c-1.6-8.9-8.5-14.7-17.1-16.3c-19.5-3.8-33.5,13-41.6,28.5c4.2,2.9,7.5,6.9,9.6,11.6
			c2.5,5.6,3.4,11.8,2.4,17.8c1.6-0.4,3.2-0.6,4.8-0.5c2.5,0.2,4.9,0.9,7.1,2.2c9.3-4.6,18.7-9.5,25.9-17.2
			C249.2,82,253.5,72.1,251.9,62.7z M243.1,76.6c-2.9,7.8-7.7,14.1-15.6,17.3c-0.8,0.3-3.1,1.7-3.5,0.4c-0.3-0.9,2.1-2.7,2.6-3.3
			c4.2-4.6,8.2-9.7,10.2-15.7c1.3-3.5,1.9-7.2,1.9-10.9c0.2-2.2-0.1-4.5-0.9-6.6c-0.6-1.4-2.4-3.7-1-5.2s3.4,0.3,4.4,1.1
			c2.5,2.2,3.5,6.5,3.7,9.7C245.3,67.8,244.7,72.3,243.1,76.6L243.1,76.6z"/>
		<path class="st3" d="M94.6,67.1c-3.1,0.7-5.9,2.6-8.3,4.3c-5.7,3.9-8.5,10.5-9.5,16.9c-1.8,10.4,0.9,21,7.5,29.2
			c0.4,0.6,0.9,1,1.5,1.4c2.4,1.2,3.2-1.5,2.7-3.1c-1-3.3-3.1-6.3-4.1-9.7c-2.2-7.4-2.6-14.6,0.2-22c1.3-3.4,3.1-6.5,5.5-9.2
			c2.3-2.7,5.1-4.9,8.2-6.7c0.4-0.3,0.9-0.8,0.6-1.1c-0.1-0.2-0.4-0.2-0.6-0.2C97.1,66.7,95.8,66.7,94.6,67.1z"/>
		<path class="st3" d="M157.2,23.6c-1.4,0.1-2.8,0.3-4.1,0.7c-4.8,1-8.5,3.8-11.8,7.3c-3.9,4.2-6.3,9.5-8,14.8
			c-2.8,8.9-1.9,19,0.6,27.8c0.9,3,2.2,6.1,4.7,8.1c0.4,0.4,1,0.5,1.4,0.1c0.3-0.3,0.4-0.7,0.3-1.1c-0.5-2.7-1.4-5.1-1.6-7.8
			s-0.6-5.2-0.7-7.8c-0.3-5.4,0.3-10.8,1.8-16c1.4-4.9,3.5-9.5,6.3-13.7c3-4.4,6.5-7.5,11.6-8.9c1-0.3,1.5-1.3,1.3-2.2
			c-0.1-0.3-0.2-0.6-0.5-0.8C158.1,23.8,157.7,23.6,157.2,23.6z"/>
		<path class="st3" d="M144.7,103.7c-3.2-4.5-13-3.6-17-1c-6.1,4.1-9.4,11.2-8.7,18.5c0.3,3.6,1.5,7.1,3.4,10.2
			c1.6,2.6,3.4,5.3,6.4,6.4c1.3,0.5,3.7,1.2,4-0.4s-2-4-2.8-5.2c-5.8-8.7-6.3-27.9,8.3-27.7c1.9,0,3.5,1,5.3,1.1
			c0.7,0,1.3-0.5,1.3-1.2C144.9,104.1,144.8,103.9,144.7,103.7z"/>
		<path class="st3" d="M199,99.8c0-3-0.5-6-1.5-8.8c-1.4-4-3.8-7.5-7-10.3c-3.2-2.7-7.3-4.4-11.5-4.6c-3.2-0.1-6.5,0.5-9.5,1.6
			c-6.4,2.2-12.7,7.5-12.2,14.9c0,0.3,0.1,0.6,0.3,0.9c0.3,0.3,0.8,0.2,1.1-0.1c0.3-0.3,0.5-0.6,0.6-1c1.6-3.6,4.4-7.1,8.1-8.6
			c4.1-1.8,8.7-2,13-0.7c10.5,3.4,16.4,17.3,12.5,27.5c-0.1,0.2-0.2,0.5-0.1,0.8c0.2,0.4,0.6,0.6,1,0.5c0.4-0.1,0.7-0.3,1-0.6
			C197.5,108,199,104,199,99.8z"/>
		<path class="st3" d="M214.8,121.2c0.1-2.1-0.6-4.2-2.1-5.7c-1.1-1.3-2.7-2.1-4.4-2.4c-0.9-0.1-1.9-0.1-2.8,0.1
			c-0.9,0.3-3.5,2.1-1.7,3c0.6,0.2,1.2,0.3,1.8,0.2c4-0.1,5.8,5.6,6.5,8.7c0.1,0.4,0.2,0.8,0.5,1.1c0.9,0.7,1.5-1.1,1.7-1.6
			c0.3-0.6,0.4-1.3,0.5-2c0-0.2,0.1-0.5,0.1-0.7v-0.3C214.7,121.8,214.7,121.8,214.8,121.2z"/>
		<path class="st3" d="M165.4,151.8c-3.6-2.2-7.2-4.3-11.3-5.4c-2.9-0.7-19.1-3.1-18,3.4c0.2,1.5,5.3,0.6,6.2,0.6
			c10.4-0.9,19.5,3.8,27.9,9.3c0.4,0.3,0.9,0.6,1.4,0.7c3.4,0.8-0.2-4-0.8-4.6C169.2,154.2,167.4,152.8,165.4,151.8z"/>
		<path class="st3" d="M134.3,175.6c-12.6,7-27.6,8.2-41.2,3.3c-12.1-4.4-16.3-18.4-10-29.4c0.3-0.6,0.1-1.3-0.5-1.6
			c-0.4-0.2-0.9-0.2-1.3,0.2c-9.3,10.5-5.5,29,6.4,35.6c7.3,4.1,16.4,5.2,24.9,4.2c8.7-1.1,17.4-2.4,25.2-6.4
			C141.7,179.4,138.1,173.4,134.3,175.6z"/>
		<path class="st3" d="M165.4,211.8c-8.5,5.1-18.2,4.8-27.1,1c-2.3-1-6.9-5.7-9.4-4.2c-1.7,0.9-0.5,3.9,0.5,5c1.8,2.2,4.1,4,6.6,5.2
			c3.7,1.7,7.8,2.4,11.9,2.1c3.8-0.2,7.6-1,11.2-2.3c2.7-1,6.3-2.5,7.8-5.1C167.3,212.4,166.4,211.1,165.4,211.8z"/>
		<path class="st3" d="M263.9,134c-0.1-3-0.7-6-1.7-8.9c-0.7-2.3-2-4.5-3.7-6.2c-1.2-1.2-4.4-3.4-6.1-2.4c0,0.3,0.1,0.5,0.3,0.7
			c13.3,16.6-1.6,38.2-18,44.5c-3.3,1.2-6.8,1.9-10.3,2.2c-3.3,0.4-5.5-0.8-8.8-1c-2.8-0.2-0.7,2.4,0.2,3.1c2.7,2,5.8,2.5,9,2.9
			c4,0.5,8.1,0.2,11.9-1.1c7.1-2.6,13.4-6.9,18.6-12.4C260.9,149.7,264,142,263.9,134z"/>
		<path class="st3" d="M222.7,185.1c-0.8-1.7-1.8-3.2-3.1-4.5c-0.7-0.8-1.6-1.3-2.6-1.5c-1.1-0.2-2,0.6-2.2,1.6c0,0,0,0,0,0.1
			c0,2,1.2,4.8,1.7,6.8c0.8,2.5,1.3,5.2,1.5,7.8c0,6-1.9,11.9-5.6,16.7c-0.6,0.7,0.5,1.5,1.2,1.2c6-3.1,9.3-9.4,10.2-15.9
			C224.5,193.1,224.4,188.9,222.7,185.1z"/>
		<path class="st3" d="M253.9,185.1c-0.6-0.5-1.4-0.7-2.2-0.5c-2.2,0.3-3.7,2.6-5.7,3.4c-4.5,2-9.8,1.1-13.4-2.3
			c-0.9-0.7-2.2-0.1-1.8,0.8c1,1.7,2.3,3.2,3.9,4.4c1.9,1.4,4.1,2.5,6.4,3c4.7,0.8,9.9-0.3,12.3-4.6
			C254.3,188,254.8,186.1,253.9,185.1z"/>
		<path class="st3" d="M248.3,56.5c-1.7-3-4.2-5.4-7.2-6.9c-2-1.2-4.4-1.6-6.7-1.3c-0.1,0-0.2,0-0.2,0.1c-0.2,0.1-0.2,0.5-0.1,0.7
			c0.2,0.2,0.5,0.4,0.7,0.5c5,2.1,7.9,3.6,9.3,9.2c1.6,6.5,0.2,13.6-2.5,19.6c-2.3,5-5.6,9.4-9.8,12.9c-2.1,1.8-4.3,3.4-6.6,4.9
			c-2.3,1.4-4.7,2.5-6.7,4.4c-1,1-0.2,2.3,1,2.5c1.7,0.3,4.8-1.4,6.2-2.2c8.9-5.2,18.5-12.4,22.3-22.2c2.2-5.5,3-11.4,2.1-17.3
			C249.7,59.6,249.1,58,248.3,56.5z"/>
		<path class="st4" d="M150.3,352.2c-0.3-5.3-0.8-10.2-3.6-14.9c-2.7-4.5-6.7-8-11.6-9.9c-2.7-0.8-5.6-1.3-8.4-1.3
			c-5.8-0.3-11.6,1.3-16.5,4.4c-5.6,3.8-9.2,10-9.6,16.8c15.8,6,32.4,9.8,49.3,11.1C150.2,356.4,150.4,354.3,150.3,352.2z"/>
		<path class="st4" d="M25.1,229.8c4.9,1.9,10.3-0.3,12.6-5c0.5-1.4,0.9-3,0.9-4.5c0-1.5-0.2-3-0.8-4.4c-1.5-3.7-5.2-6.1-9.2-6.1
			C18.2,210,15.9,225.8,25.1,229.8z"/>
		<path class="st4" d="M87.2,292.6c0.4,5.9,5.9,12.9,12.1,13.2c7.4,0.3,11-8.5,9.3-14.6C105.5,279.8,86.3,279,87.2,292.6z"/>
		<path class="st4" d="M51.3,317c1-0.1,2-0.3,3-0.6c4.3-1.6,7.2-6,8-10.5s-0.3-9.2-2-13.5c-2-5.1-5-10-9.4-13.4s-10.1-5.2-15.5-4
			c-6.2,1.4-9.6,4.4-11,8.1C31.5,295.8,40.6,307.2,51.3,317z"/>
		<path class="st4" d="M74.4,226c5.4,3.3,14.1,2.9,18.3-0.6c4.5-3.7,4.4-8.1,2.2-11.6c-5.9-1.8-11.7-3.9-17.4-6.3
			c-1.4-0.6-5,3.9-5.6,4.8c-1.5,2.1-2.2,4.6-2,7.1C70.3,222.2,72,224.6,74.4,226z"/>
		<path class="st4" d="M317.2,191.4c-2-0.5-4.1-0.6-6.1-0.1c-14.5,3.2-13.6,27.4,2.5,22.6c2.5-0.8,4.7-2.3,6.2-4.4
			C319.4,203.4,318.5,197.3,317.2,191.4z"/>
		<path class="st4" d="M303.2,283.5c-0.7-2.2-1.8-4.2-3.2-6.1c-3.6-4.5-9.6-6.7-15.4-6.6c-4.6,0.1-9,1.2-13.1,3.3
			c-6,3.4-10.1,9.2-11.3,16c-0.3,1.5-0.4,3.1-0.5,4.6c-0.2,10.3,3.9,22.1,13.3,25.5C285.1,309.7,295.3,297.3,303.2,283.5z"/>
		<path class="st4" d="M247.1,247.9c10.3,1.3,21.7-2.7,26.8-11.9c3.1-5.7,3.7-12.5,1.8-18.7c-1.6-5.2-4.9-9.8-9.2-13.1
			c-1.3-1-2.8-1.8-4.3-2.5c-11.1,6-22.9,10.6-35.2,13.7c-0.3,1.4-0.6,2.9-0.8,4.4c-0.9,6.7,0.4,13.7,4.5,19.1
			C234.5,244.1,240.6,247.1,247.1,247.9z"/>
		<path class="st4" d="M200.3,331.9c1.6,0.8,3.3,1.4,5.1,1.5c5.6,0.3,10.8-3.9,13.1-9c4.7-10.5-5.1-23.3-16.7-19.1
			C190.5,309.1,190,326.5,200.3,331.9z"/>
		<path class="st4" d="M170,278.5c1.9-9.3,1.3-20.1-5.5-26.6c-9.3-8.8-28.8-7.4-36.6,2.7c-6.6,8.5-9,17.5-5.8,28.2
			c2,6.8,6.7,13,13.2,15.8c6.2,2.7,14.4,3.7,20.9,1.1c8.2-3.2,11.8-12,13.6-20C169.9,279.4,170,279,170,278.5z"/>
		<path class="st3" d="M195.9,145.6c-1.3-2.1-3.2-3.6-5.5-4.4c-2.6-0.7-5.5-0.3-7.8,1.1c-2.2,1.3-3.9,3.3-4.8,5.7
			c-0.3,1.1-0.5,2.3-0.6,3.4c-0.2,1.2-0.1,2.4,0.3,3.5c0.1,0.4,0.5,0.7,0.9,0.6c0.4-0.1,0.6-0.4,0.6-0.8c0.1-1.8,0.3-3.8,1.6-5.2
			c0.6-0.7,1.2-1.3,1.9-1.9c0.6-0.5,1.2-1,1.9-1.3c0.8-0.3,1.6-0.5,2.5-0.7c0.9-0.1,1.7-0.1,2.6,0c0.9,0,1.7,0,2.6,0.2
			c0.9,0.1,1.8,0.5,2.6,0.9C195.5,147.1,196.4,146.4,195.9,145.6z"/>
		<path class="st3" d="M166.2,115.1c-0.7-1.4-1.8-2.6-3.2-3.4c-1.5-0.9-3.2-1.4-4.9-1.4c-3.3-0.2-6.6,0.7-9.4,2.5
			c-2.9,1.9-5,4.7-6.1,8c-1.1,3.1-0.7,6.5,0.1,9.6c0.2,0.7,1.4,0.6,1.3-0.2c0.1-2.7,0.7-5.3,2-7.6c1-2.4,2.7-4.4,4.7-6
			c2-1.4,4.5-2,6.9-1.9c1.2,0,2.4,0.2,3.5,0.6c0.6,0.1,1.2,0.2,1.8,0.4c0.6,0.3,1.2,0.5,1.9,0.7c0.6,0.2,1.2-0.1,1.4-0.7
			C166.2,115.4,166.2,115.2,166.2,115.1z"/>
	</g>
</g>
</svg>
