<svg xmlns="http://www.w3.org/2000/svg" viewBox="0 0 218.52 349.41"><defs><style>.cls-1{fill:#eefcfa;}.cls-1,.cls-2,.cls-3,.cls-4{stroke:#000;stroke-miterlimit:10;}.cls-2{fill:#767d7c;}.cls-3{fill:#6f5c53;stroke-width:2px;}.cls-4{fill:#393d3c;stroke-width:0.5px;}</style></defs><g id="Layer_2" data-name="Layer 2"><g id="Layer_1-2" data-name="Layer 1"><path class="cls-1" d="M179.93,144.8c11.55,12.35,18.54,27,22.62,43.36,2.69,10.8,6.57,21.29,9.78,32,1.92,6.36,4.17,12.7,5.26,19.21,1.72,10.26-1.72,18.9-10.8,24.48-5.37,3.3-6.73,7.14-5.13,13.3,3.82,14.75,3.1,29.78.83,44.68-2,13.16-11,22-25,24.32-11.79,2-60.8,3.12-64.28,2.73-17.37-2-31.19-11-31.19-11-3.21-2.72-14.34-12.83-17.91-28-2.07-8.74-5.35-17.15-7.71-25.82-1-3.69-2.71-5.46-6.74-6a122.25,122.25,0,0,1-18.53-3.87c-14.91-4.34-24.57-14.43-27.68-29.43-4.35-21-4-41,1.59-59.87a116.17,116.17,0,0,1,21-39.43M43.89,272.32c-.06-.73,0-1.14-.12-1.35-9.31-11.84-11.78-25.44-10.4-40.06a4.47,4.47,0,0,0-.76-3.21C24.93,220,25.16,210.2,26,200.6c.29-3.47,2.69-7.13,5-9.95,2.81-3.41,5.56-2.62,6.89,1.59a31.94,31.94,0,0,1,1.8,9.26c.07,12.14,0,24.3-.39,36.43C38.47,261,56.46,281.71,78,276.19c6-1.55,7.51.52,8.58,6.7,1,5.91,1.94,11.84,3.21,17.69.34,1.6,1.78,3,2.72,4.45,1.35-1.08,3-1.94,4-3.28,7.49-10.16,11.22-9.88,17,1.43,2.4,4.68,3.82,4.77,6.8.45,4.71-6.83,10.5-6.72,14.9.3.62,1,1.11,2.06,1.8,3,2.46,3.33,4.65,3.32,7-.05.77-1.09,1.36-2.29,2-3.44,3.67-6.24,9.85-7,14.85-1.75,1.49,1.56,2.65,3.45,4.18,5,2.57,2.57,5,2.38,6.88-.89.58-1,.93-2.14,1.48-3.17,4.06-7.57,10.23-8,15.7-1.4,1,1.21,3.19,2.6,4.31,2.25a6.35,6.35,0,0,0,3.76-4,32.35,32.35,0,0,0,.23-9.43c-.57-6-1.5-11.89-2.28-17.83-.48-3.65.87-6.16,4-8.41,13.3-9.66,15.75-17.39,11-33.26-.76-2.56-1.76-5-2.54-7.58-3.43-11.12-7.26-22.14-10.11-33.4-4-15.91-11.25-29.89-22.94-41.42-1.42-1.39-4.09-2.57-6-2.29-40.34,6-80.83,5.23-121.24,1.76-10.76-.92-18,1.06-22.86,10.56a37.54,37.54,0,0,1-2.2,3.33C12.5,176.16,8.29,192.71,6.92,210c-1,12.44-1,25,2.93,37.12C14.26,260.65,30.69,273,43.89,272.32Zm61.54,26.44c-2,2.74-3.46,4.41-4.55,6.29-2.07,3.59-4.21,7-9.11,6.4s-6.58-4.36-7.39-8.35c-1-5.2-1.54-10.51-2.16-15.78-.73-6.28-1.2-6.65-7.49-6.21a59.94,59.94,0,0,1-9.47.15c-4.24-.36-5.19,1.45-3.77,5,4.6,11.41,8.69,23.08,14.13,34.07,6.27,12.66,17.46,18.78,31.48,19.77,6.64.48,13.29,1.36,19.93,1.39,16.79.08,33.6.21,50.36-.56,8-.36,15.08-4.62,17.87-12.53,2.47-7,3.26-14.65,5-23-8.86,4.74-9.23,4.69-15-1.78-2.5-2.8-4.45-2.5-6,.89-.55,1.21-1.09,2.43-1.7,3.61-4,7.68-11.41,8.41-16.84,1.67-7.12-8.81-7.39-8.79-13.34,1.12-3.31,5.51-9,6-13.15,1.07a37.48,37.48,0,0,1-2.79-4.14c-3.17-5.09-4.5-5.11-7.48-.09-3.89,6.56-10.68,6.47-14.4-.26C108.25,305.18,107.27,302.71,105.43,298.76Z"/><path class="cls-2" d="M43.89,272.32c-13.2.71-29.63-11.67-34-25.21C5.88,235,5.93,222.43,6.92,210c1.37-17.28,5.58-33.83,15.42-48.49a37.54,37.54,0,0,0,2.2-3.33c4.9-9.5,12.1-11.48,22.86-10.56,40.41,3.47,80.9,4.2,121.24-1.76,1.86-.28,4.53.9,6,2.29,11.69,11.53,18.9,25.51,22.94,41.42,2.85,11.26,6.68,22.28,10.11,33.4.78,2.54,1.78,5,2.54,7.58,4.77,15.87,2.32,23.6-11,33.26-3.09,2.25-4.44,4.76-4,8.41.78,5.94,1.71,11.87,2.28,17.83a32.35,32.35,0,0,1-.23,9.43,6.35,6.35,0,0,1-3.76,4c-1.12.35-3.32-1-4.31-2.25-5.47-6.64-11.64-6.17-15.7,1.4-.55,1-.9,2.16-1.48,3.17-1.88,3.27-4.31,3.46-6.88.89-1.53-1.52-2.69-3.41-4.18-5-5-5.25-11.18-4.49-14.85,1.75-.68,1.15-1.27,2.35-2,3.44-2.37,3.37-4.56,3.38-7,.05-.69-.93-1.18-2-1.8-3-4.4-7-10.19-7.13-14.9-.3-3,4.32-4.4,4.23-6.8-.45-5.8-11.31-9.53-11.59-17-1.43-1,1.34-2.66,2.2-4,3.28-.94-1.48-2.38-2.85-2.72-4.45-1.27-5.85-2.18-11.78-3.21-17.69-1.07-6.18-2.55-8.25-8.58-6.7C56.46,281.71,38.47,261,39.32,237.93c.44-12.13.46-24.29.39-36.43a31.94,31.94,0,0,0-1.8-9.26c-1.33-4.21-4.08-5-6.89-1.59-2.34,2.82-4.74,6.48-5,9.95-.83,9.6-1.06,19.39,6.62,27.1a4.47,4.47,0,0,1,.76,3.21C32,245.53,34.46,259.13,43.77,271,43.93,271.18,43.83,271.59,43.89,272.32Zm51.72-23c13,.9,31.73-12.23,35.52-24.22,6.32-20-3.67-38.07-22.8-39.35C88,184.37,80.14,191.47,78,208.58a76.41,76.41,0,0,0-.58,8.95c0,10.8,5.19,18,15.78,19.95,5.92,1.12,12.2.39,18.32.43a41.22,41.22,0,0,0,4.63-.61C110.23,244.15,102.88,246.62,95.61,249.3Zm92.75-3.43c-8.4-3.34-8.4-3.34-10-8.52,1.23.1,2.34.17,3.44.28,11.54,1.18,18-4.55,17.66-16-.33-10.52-4.41-19.8-10.85-27.94-6.78-8.56-16.3-7.15-20.91,2.82-5.09,11,2.15,40.39,11.85,47.81C182,246.19,184.67,247.81,188.36,245.87Zm-28.87,17.36,1.64-.34c1.71,2.74,3.07,5.81,5.24,8.12,1.69,1.8,4.38,2.66,6.63,3.94.61-2.4,2.08-4.95,1.69-7.17-2.62-14.8-9.37-28-16.73-40.9-.66-1.15-2.52-2.68-3.31-2.43a5.47,5.47,0,0,0-3,3.35c-2,7.22-4,14.45-5.28,21.8a126.19,126.19,0,0,0-1.66,19.33c0,3.63.94,7.63,5.67,8.18,4.9.58,5.95-3.37,7.16-6.84C158.29,268,158.84,265.58,159.49,263.23Z"/><path class="cls-2" d="M105.43,298.76c1.84,3.95,2.82,6.42,4.09,8.73,3.72,6.73,10.51,6.82,14.4.26,3-5,4.31-5,7.48.09a37.48,37.48,0,0,0,2.79,4.14c4.11,4.93,9.84,4.44,13.15-1.07,5.95-9.91,6.22-9.93,13.34-1.12,5.43,6.74,12.83,6,16.84-1.67.61-1.18,1.15-2.4,1.7-3.61,1.55-3.39,3.5-3.69,6-.89,5.8,6.47,6.17,6.52,15,1.78-1.73,8.33-2.52,16-5,23-2.79,7.91-9.87,12.17-17.87,12.53-16.76.77-33.57.64-50.36.56-6.64,0-13.29-.91-19.93-1.39-14-1-25.21-7.11-31.48-19.77-5.44-11-9.53-22.66-14.13-34.07-1.42-3.53-.47-5.34,3.77-5a59.94,59.94,0,0,0,9.47-.15c6.29-.44,6.76-.07,7.49,6.21.62,5.27,1.11,10.58,2.16,15.78.81,4,2.55,7.76,7.39,8.35s7-2.81,9.11-6.4C102,303.17,103.42,301.5,105.43,298.76Z"/><path class="cls-1" d="M95.66,249.3c7.27-2.68,14.62-5.15,20.55-12a41.22,41.22,0,0,1-4.63.61c-6.12,0-12.4.69-18.32-.43-10.59-2-15.78-9.15-15.78-19.95a76.41,76.41,0,0,1,.58-8.95c2.13-17.11,10-24.21,30.32-22.85,19.13,1.28,29.12,19.39,22.8,39.35C127.39,237.07,108.66,250.2,95.66,249.3Z"/><path class="cls-1" d="M188.41,245.87c-3.69,1.94-6.38.32-8.84-1.57-9.7-7.42-16.94-36.81-11.85-47.81,4.61-10,14.13-11.38,20.91-2.82,6.44,8.14,10.52,17.42,10.85,27.94.36,11.47-6.12,17.2-17.66,16-1.1-.11-2.21-.18-3.44-.28C180,242.53,180,242.53,188.41,245.87Z"/><path class="cls-1" d="M159.54,263.23c-.65,2.35-1.2,4.74-2,7-1.21,3.47-2.26,7.42-7.16,6.84-4.73-.55-5.72-4.55-5.67-8.18a126.19,126.19,0,0,1,1.66-19.33c1.28-7.35,3.31-14.58,5.28-21.8a5.47,5.47,0,0,1,3-3.35c.79-.25,2.65,1.28,3.31,2.43,7.36,12.9,14.11,26.1,16.73,40.9.39,2.22-1.08,4.77-1.69,7.17-2.25-1.28-4.94-2.14-6.63-3.94-2.17-2.31-3.53-5.38-5.24-8.12Z"/><ellipse class="cls-3" cx="103.03" cy="148.95" rx="76.95" ry="25.87"/><path class="cls-4" d="M101.58,84.94c-.17-1-.43-1.93-.51-2.92-.31-3.64-.7-7.28-.78-10.92a56.72,56.72,0,0,1,.67-6.85,3.22,3.22,0,0,1,.16-.61c.72-2.26,1.41-2.62,3.6-1.78.06-.7.16-1.39.19-2.07.18-3.54.36-7.08.51-10.62a2.72,2.72,0,0,0-.29-1.32c-3.6-7.08-8-13.54-13.86-18.7-3-2.61-6.19-4.74-10.12-5.28a8.42,8.42,0,0,0-1-.08,9.18,9.18,0,0,0-1,.08c.24.41.41.73.61,1,2.14,3.22,2.07,6-.42,9-1.34,1.57-2.92,2.91-4.3,4.45C73,40.62,70.88,42.91,69,45.38c-2.86,3.78-3.41,8.22-2.75,12.89.11.83.23,1.66.35,2.48l-.3.07C65.69,57.89,65,55,64.48,52a59.68,59.68,0,0,1-.43-17.9c.14-1.08.37-2.16.55-3.24a1.48,1.48,0,0,1,.88-1.25c.85-.4.78-.9.91-1.93a1.58,1.58,0,0,1,.22-.47,1.35,1.35,0,0,0-.06-.84,2.68,2.68,0,0,1,0-1.79,15.09,15.09,0,0,1,4.8-6.81A6.67,6.67,0,0,1,77,16.41c2.41.57,3.26,2.64,2,4.9-.1.18-.18.37-.36.75.7,0,1.28,0,1.85,0,3.63.25,6.63,2.11,9.43,4.35a61.5,61.5,0,0,1,14.94,18.15c.16.28.31.55.48.81,0,.05.11.06.29.13.09-1.26.15-2.49.27-3.7.67-6.7,1.4-13.4,2-20.1a34.6,34.6,0,0,0-1.67-14.57A7.45,7.45,0,0,0,96,2.68c-3.38,1.71-6.17,4.07-7.33,8.11a20.75,20.75,0,0,1-1.6,3.73c.85-2.9,1.14-6,2.76-8.59,3.71-6,11.41-7.54,16.66-3.14,2.21,1.86,3.19,4.48,3.85,7.28a52.64,52.64,0,0,1,.75,16.61c-.21,2.36-.79,6.87-.81,7.08,0,.53-.18,2.52-.18,2.52h0s-.65,6.41-.81,9.08c-.22,3.79-.3,7.59-.43,11.38a3.61,3.61,0,0,0,.05.53c.54-1.5,1-2.85,1.5-4.18a8.94,8.94,0,0,1,1-1.74,1.44,1.44,0,0,1,2.62.13,13,13,0,0,1,1.35,3.59,45.9,45.9,0,0,1,.53,12.39c-.1,1.58-.3,3.17-.46,4.75a6.56,6.56,0,0,1-.18.7l-3.14-2.67-.23.2c.79,1.74,2.62,2.88,2.68,5.13,0,.25.08.58.12,1,0,0,0,.68,0,1.36a36.13,36.13,0,0,1-3.12,11.39,1.65,1.65,0,0,0-.15.81q1,8.4,2.07,16.78a4,4,0,0,0,.17.61c1.16-3.08,2.23-6.13,3.43-9.12a40.47,40.47,0,0,1,5-9.28c1.59-2.1,2.26-2.53,4.67-3-.07-.34-.15-.67-.2-1a11.91,11.91,0,0,1-.16-1.58c0-1.51.6-2.72,1.5-3s1.9.31,2.71,1.6a22,22,0,0,1,2.58,7.77,91.15,91.15,0,0,1,1.06,22.68q-.34,5.78-1.19,11.52c.07-1.09.13-2.17.22-3.25.48-6.41-1.37-12.17-4.23-17.67-1-2-2-3.92-2.87-6a10.59,10.59,0,0,1-.14-7.38c.16-.53.33-1.07.52-1.66a2.26,2.26,0,0,0-2.21.39,13.93,13.93,0,0,0-4.16,5,58,58,0,0,0-6.06,16,11.94,11.94,0,0,0,.32,4.61,24.06,24.06,0,0,1-.77,12.06,1.92,1.92,0,0,0,.51,2.32,1.84,1.84,0,0,1-.59,3.16c-.59.25-.64.54-.52,1.11s.3.91,1,.87,1.53.16,2.29.12a14.09,14.09,0,0,0,2.74-.43,5.37,5.37,0,0,1,3-.08,29.07,29.07,0,0,0,12.91.8c.42-.07.84-.18,1.26-.28a4.32,4.32,0,0,0-3.56-3,18.32,18.32,0,0,1-8.19-3.8c-1.21-.95-2.57-3-4.2-3.23a16.54,16.54,0,0,1,4.92,1.83,23.27,23.27,0,0,0,8.2,2.29,6.41,6.41,0,0,1,4.92,3.05c1.3,2,1.45,2,3.47.95a14.18,14.18,0,0,0,2.2-1.28,8.81,8.81,0,0,1,7.92-1.44c1.29.31,2.5.85,3.81,1.09.17,0,1.45.15,1.59.4-1.21,0-3.42-.3-4.61-.43-3.27-.35-6.26.2-8.78,2.63a25.31,25.31,0,0,1-2.25,1.7c1.38,1.2,2.66,2.37,4,3.43.31.25.89.13,1.35.11,5-.25,11-1.15,16-1.3a74.82,74.82,0,0,1,8.69.55c-6.77.84-16.57,2-23.25,3.38l-.07.31,4.51,4-.09.16a29.24,29.24,0,0,1-3-1.3,17.23,17.23,0,0,1-2.85-2,2.83,2.83,0,0,0-2.71-.61c-.13,0-.26.07-.39.09-2.19.46-2.23.51-2.3,3.22a63.34,63.34,0,0,0,6.28.92c2.73.14,5.48,0,8.22-.06a8.36,8.36,0,0,1,5.45,1.78,23.8,23.8,0,0,0,3.35,1.88,5.53,5.53,0,0,1,.87.45,7,7,0,0,1-4.7-.69,7.15,7.15,0,0,0-5.07-.65,31.46,31.46,0,0,1-14.21-.47c-2.61-.6-5.38-.4-8.08-.55l-.07.31c1.74.78,3.49,1.52,5.21,2.35a21.78,21.78,0,0,1,6.47,4.74c2.9,3.07,6.6,4.63,10.51,5.66,2.23.6,3.74,2.12,6,2.68a19.46,19.46,0,0,1,2.43,1.71,52,52,0,0,1-17.14-6.58c-1.27,1.74-2.56,3.44-3.77,5.2a1.85,1.85,0,0,0-.16,1.35c.48,1.75-.12,3.26-1.77,3.82a31.06,31.06,0,0,1-3.33.64,10,10,0,0,0-3.17.85,36.73,36.73,0,0,1-8.72,3.41c-1.85.57-3.88.25-5.82.84,1-.81,2.2-.69,3.3-1.33,2-1.17,4.16-2.12,6.22-3.23a20.25,20.25,0,0,0,2.74-1.76,9.8,9.8,0,0,1,5.59-2.05,17,17,0,0,0,1.71-.27c-.59-3.13,1.5-4.76,3.14-6.64.61-.7,1.23-1.39,1.89-2.13a11.38,11.38,0,0,0-4.55-3.65,2,2,0,0,0-1.7.31c-1.42,1-2.76,2.21-4.1,3.36a11.8,11.8,0,0,0-1.08,1.2c0-1.38,1.14-3.26,3.75-6.34-1.21-.52-2.34-1.07-3.52-1.51-1.44-.55-2.92-1-4.39-1.49a1.45,1.45,0,0,0-.87-.06q-5.08,1.77-10.16,3.6a2,2,0,0,0-.84.56c-.44.46-.57.89.1,1.51a18,18,0,0,1,2.87,3.22c1.11,1.6,2.76,1.76,4.32,2.11,2.86.64,5.76,1.18,8.65,2a8.06,8.06,0,0,1-1,.13c-3.5-.06-7,0-10.5-.25-1.59-.1-2.16-.69-4.56-3-5.39,2.08-10.59,4.9-16.58,5,.88,2.73.39,4.31-1.6,5.94-2.95,2.41-6.4,3.45-10,4.17a18.15,18.15,0,0,1-6.76.38c-1.73-.31-3.84-.43-5.62-.6a10.14,10.14,0,0,1,4.45-.84c4.17.51,8-.61,11.76-2.39a33.92,33.92,0,0,0,4.51-2.91,6.7,6.7,0,0,0,1.09-1.43c-1.1-.35-2-.6-2.92-.93q-3.93-1.46-7.83-3a8.76,8.76,0,0,1-1.74-1,4,4,0,0,1,.68-7,27.14,27.14,0,0,1,4-1.24l.12.34a6.36,6.36,0,0,0-1,.48,24.58,24.58,0,0,0-3.14,2.4,1.61,1.61,0,0,0,.42,2.78,19.2,19.2,0,0,0,3.27,1.3c1.63.53,3.27,1,4.93,1.44a4.68,4.68,0,0,0,2,0c2.71-.59,5.44-1.12,8.09-1.92,2.85-.86,5.64-2,8.43-3.07.26-.1.38-.76.44-1.19,0-.22-.22-.49-.35-.74a2.52,2.52,0,0,1,1.27-3.8c2.62-1.12,5.27-2.21,7.9-3.31l.8-.38c-1.92-.87-3.66-1.64-5.38-2.47-1.46-.7-2.9-1.46-4.33-2.23a6.58,6.58,0,0,0-5-.46c-3,.81-6,1.36-9,2.28-3.78,1.19-7.48,2.65-11.22,4-5.21,1.84-9.62,5.38-14.57,7.78-1.28.62-2.57,1.21-3.84,1.83A26.56,26.56,0,0,0,65.19,161a20.72,20.72,0,0,1-5.62,3c-2.3.93-4.72,1.55-7.09,2.3-.08,0-.19,0-.58,0l9.87-5.31,0-.2a17.29,17.29,0,0,1-2.51-.41,6.32,6.32,0,0,0-5.58.68C51.91,162,49.93,162,48,162.15c-5.55.35-4.82,2.14-10.2.54-.37-.11-4.92-3.05-5.24-3.33,1.7.27,1.36,1.18,3.07,1.39a48.29,48.29,0,0,0,15-.64,8.72,8.72,0,0,0,2.94-1.28,7.1,7.1,0,0,1,5.7-.88,9.08,9.08,0,0,0,6.17-.74c3.69-1.84,7.32-3.81,11-5.73a.74.74,0,0,0,.25-.17c.28-.35.55-.71.82-1.07a4.51,4.51,0,0,0-.94-.67c-3.53-1.33-7.07-2.61-10.6-3.94-.94-.35-1.89-1.26-2.74-1.14s-1.39,1.34-2.2,1.87a7.61,7.61,0,0,1-2.82,1.27,12,12,0,0,0-6.61,3.54,10,10,0,0,1-.95.77.48.48,0,0,1-.38.1c1.69-2.32,3.2-4.85,6.1-5.75A7,7,0,0,0,60.67,143c-1.58-.51-3-1.05-4.54-1.43-3.72-.92-7.39-.25-11,.53a144.89,144.89,0,0,1-17.83,2.29c-.07,0,.78-.63.45-.77,2.16-.52,2.46-.35,4.39-.81,3.38-.81,6.78-1.58,10.15-2.48A3.16,3.16,0,0,0,44,139a6.66,6.66,0,0,1,5.05-3.71c2.34-.31,4.67-.67,7-1l.08.36c-.32.11-.64.24-1,.34-2.08.67-4.17,1.31-6.24,2a3.57,3.57,0,0,0-2.3,2.3,21.16,21.16,0,0,1,15.63,1,10.28,10.28,0,0,1,5.6-3.12,6.56,6.56,0,0,0,2.69-1.34,6.26,6.26,0,0,1,6.36-1.49,2.21,2.21,0,0,0,2.88-1.16,12.07,12.07,0,0,1,1-1.26,43.24,43.24,0,0,0-4.54-1.08c-3.83-.49-7.52.38-11.15,1.6-1.28.42-2.55.87-3.83,1.27a8.46,8.46,0,0,1-1.34.16l0-.38a19.31,19.31,0,0,0,2-.64c2-.92,4-1.93,6-2.82,1.17-.5,2.41-.81,3.61-1.25,1.48-.54,3-1.08,4.4-1.71,1.65-.73,2.44-.52,3.39,1,1.13,1.87,3,2.37,4.85,2.56,3.66.39,7.34.52,11,.74.78,0,1.57,0,2.36,0l0,.38-8.21,1.33a4.17,4.17,0,0,1,.17,3.87l-2,3.83c1,.38,1.88.75,2.76,1A10.06,10.06,0,0,0,97,141.6a59.38,59.38,0,0,1,7.62-1.78c.84-.19,1.67-.45,2.72-.73a22.43,22.43,0,0,1-2.41-1.21,19.28,19.28,0,0,1-2.74-2.12,3.31,3.31,0,0,1-.91-3.5,3.17,3.17,0,0,1,2.65-2.17c1.25-.22,2.51-.42,3.74-.73a1.26,1.26,0,0,0,.68-.83,1.09,1.09,0,0,0-.26-1,31.55,31.55,0,0,0-9.94-3.25A3.91,3.91,0,0,0,95,123.22c4.91,0,9.4.15,14,1.9.32-1.49.62-3,1-4.42a25.85,25.85,0,0,0,0-9.2c-.41-3-.82-6.11-1.24-9.16a1.2,1.2,0,0,0-.46-.8l-.34,4.17c-1.43-4.41-3-9.23-4.57-14-.24-.7-.51-1.17-.76-1.89-.11-.32-.3-1.12-.3-1.12ZM142,138.71c-1.05-.85-1.83-1.57-2.7-2.16a1.74,1.74,0,0,0-1.32-.26c-4.71,1.36-9.41,1.83-14.2.35a6.73,6.73,0,0,0-3.67-.09,10.41,10.41,0,0,1-5,.33c-.62-.15-1,0-1.2.69s0,1.16.69,1.35a5.38,5.38,0,0,1,.92.41c3.91,1.91,7.81,3.84,11.74,5.71a2.34,2.34,0,0,0,1.61.05,18.49,18.49,0,0,1,7.79-1.09c1.59.15,1.68.09,2.07-1.56C139.12,140.6,139.87,139.13,142,138.71Zm-53.6,5.84-1-.41c-2.71-1.08-3.55-3.36-2.06-6a1.81,1.81,0,0,0-.26-2.57,6.22,6.22,0,0,1-.46-.56c-1.53-1.74-1.67-1.76-2.88.2a4.43,4.43,0,0,1-4.82,2.25,4.78,4.78,0,0,0-1.48-.19,4.87,4.87,0,0,0-2.31.67,12,12,0,0,1-5.63,2.58,17.17,17.17,0,0,0-2.66,1c.48.27.65.38.83.46,4.93,2.14,10.15,3.55,14.82,6.38a1,1,0,0,0,.83,0C83.67,147.12,86,145.84,88.4,144.55Zm24.88-77.32c0-1.08-.64-2-1.35-2s-1.33,1.12-1.32,2.33c0,.75.33,1.2,1.08,1.19A1.46,1.46,0,0,0,113.28,67.23Zm-8.91,66.63,3.27,2.15.32-3.09A4.51,4.51,0,0,0,104.37,133.86Zm23.91-38.23.31.07a3,3,0,0,0-.24-3.65c-.12-.12-.42-.24-.49-.17a.83.83,0,0,0-.27.6C127.79,93.53,128.05,94.58,128.28,95.63ZM74.73,31.27c-.13-.89-.71-1.17-1-1.06-.36.53-1.15.87-1,1.61a4.38,4.38,0,0,0,.64,1C74,32.78,74.18,31.87,74.73,31.27Z"/></g></g></svg>