<?xml version="1.0" encoding="utf-8"?>
<!-- Generator: Adobe Illustrator 25.2.1, SVG Export Plug-In . SVG Version: 6.00 Build 0)  -->
<svg version="1.1" id="Layer_1" xmlns="http://www.w3.org/2000/svg" xmlns:xlink="http://www.w3.org/1999/xlink" x="0px" y="0px"
	 viewBox="0 0 405.3 396.2" style="enable-background:new 0 0 405.3 396.2;" xml:space="preserve">
<style type="text/css">
	.st0{fill:#B0F49F;stroke:#448539;stroke-width:2;stroke-miterlimit:10;}
	.st1{fill:#79BB6B;stroke:#40E0D0;stroke-width:0.75;stroke-miterlimit:10;}
	.st2{fill:#448539;stroke:#40E0D0;stroke-width:0.75;stroke-miterlimit:10;}
	.st3{fill:#448539;}
</style>
<g id="Layer_2_1_">
	<g id="Слой_1">
		<path class="st0" d="M405.3,229.7l-23.2-8.6c-6.2-2.3-10.3-12.1-13.2-20.4c-0.4-1.2-0.9-2.6-1.3-4.1c-0.6-2.1-1.4-4.4-2.2-6.8
			c18-11.1,11.9-33.3,8.5-45.5c-1.5-5.1-0.3-10.6,3.3-14.5l12.5-14.8l-19.4-0.2c-8.3-0.1-13.2-1.8-15.1-3.4c-1.1-1-2.5-3.9-3.8-6.4
			c-3.9-8.1-9.8-20.5-27.8-23c-1.7-0.2-3.3-0.4-5-0.4c-1.9,0-3.8,0.2-5.6,0.5c-3.8-13-9.7-23.6-13.6-30.7c-0.8-1.4-1.5-2.7-2.1-3.8
			l-7.3-14l-8.5,13.1c-6,9.1-12.6,12.8-20.5,14.6c0.3-7.8-2.9-15.7-9.1-22.2c-9.9-10.4-24-15.3-33.8-18c-8-2.2-12.5-6.2-14.4-8.3
			L191.9,0L188,17c-2.8,12.5-10.4,17.5-20,23.8c-4.7,3.1-9.6,6.3-13.9,10.7l-0.4,0.4c-2.2,2.2-6,5.9-7.1,10.6
			c-1.4-0.3-2.7-0.6-4-1.1c-7.9-2.8-14.9-7.6-20.3-13.9L107.2,30l-1,23c-0.2,4-1.6,12.8-9.3,26.5c-2.6,4.6-5.3,9-7.9,13.3
			c-4.5,7.4-9.2,15-12.7,22.9c-2.1-0.4-4.3-0.5-6.4-0.5c-10.2-0.1-19.9,4.4-26.4,12.2c-6.5,7.6-15.8,12.2-25.8,12.8l-17.7,1
			l11.1,13.9c7.5,9.4,6.6,20.1,5.6,31.5c-0.8,8.9-1.6,18.2,1.8,26.9c1.9,4.9,7.4,19.1,22.6,22.8c-3,10.5-6.8,20.4-12.7,24.5l-12.9,9
			l14.2,6.8c6.6,3.2,23.6,12.1,38.5,27c2.3,2.2,4.8,4.2,7.6,5.8c-1.5,9.5,1.5,18.3,8.7,25.5c3,3,6.2,6,9.3,8.9
			c9.7,9,20.7,19.2,20.7,27.4l0.1,19.4l14.9-12.4c3.3-2.7,11-7.3,26.2-7.3c2.2,0,4.4,0.1,6.7,0.3c1.6,0.1,3.1,0.2,4.7,0.2
			c22.3,0,32.1-13.4,36.2-23c0.5,0.1,1,0.2,1.5,0.4c24.2,5.9,32.2,17.6,34.8,24.1l9.3,23.3l7.9-23.8c1.8-5.5,6.9-15.8,20.1-22.6
			c1.1-0.6,2.2-1.2,3.3-1.9c3.9,2.5,8.5,3.8,13.1,3.9c6.5,0,12.7-2.7,18.4-8.1c9.9-9.2,20.1-11.1,26.9-11.1c2.3,0,4.6,0.2,6.9,0.7
			l16.7,3.3l-6.5-15.8c-1.7-4.2-0.1-12.9,1.3-20.7c2.1-11.5,4.2-23.4,1.1-34.9c-1.4-5.1-4.3-9.7-8.3-13.1
			c12.5-6,26.3-11.3,32.1-13.4L405.3,229.7z"/>
		<path class="st1" d="M215.7,216.1c-1.2,0-2.3-0.2-3.4-0.6c-4.6-2-9.8-6.5-8.5-16.1c0.9-6.6,8.1-8.4,12.2-8.4
			c1.6,0,3.1,0.2,4.6,0.7c3.6,1.4,6,4.1,8.5,7c1.2,1.4,2.4,2.7,3.7,4c2,1.8,3.6,3.2,4.8,4.2c-3.1,1.1-8,3.2-10.5,5.1
			C223.8,214.5,219.8,215.9,215.7,216.1z"/>
		<path class="st2" d="M172.2,262.6c-0.9,0-1.7-0.1-2.6-0.3c-3.8-0.8-8.3-4.5-13-8.4c-7.5-6.2-16-13.2-26.3-13.2
			c-4.4,0.1-8.6,1.3-12.4,3.5c-0.3-7.4-0.1-29.9,13.5-42c4.7-4.1,9.4-5.8,15.2-3.2c6,2.6,7.7,8,12.1,12c5,4.5,6.9,9.2,6.1,16
			c-0.4,2.8-1.1,5.5-2,8.2l-0.7,2.2c-0.3,1-0.6,1.9-1,2.9l-1.1,3.5l3.3-1.7c1.2-0.6,2.3-1.3,3.5-2c3.3-1.9,6.8-4,10.5-4.3l0.7-0.1
			c0.9-0.1,1.8-0.2,2.7-0.2c1.3-0.1,2.6,0.3,3.6,1c2.3,1.7,1.7,6.3,1.1,8.9C182.9,256.8,178.4,262.6,172.2,262.6z"/>
		<path class="st1" d="M168.9,233c0.5-1.8,0.8-3.6,1-5.4c0.2-2.1,0.3-4.1,0.2-6.2c0-4.7-0.1-9.6,3.1-13.9c1.6-2.3,4.1-3.8,6.9-4.1
			c1.7-0.3,3.3-0.4,5-0.4c2.5-0.1,4.9,0.4,7.2,1.4c0.4,0.3,0.9,0.6,1.3,0.9c2.6,2.5,1.4,9.3-0.6,14.9c-2.4,6.8-9.9,9.8-16.2,10.4
			C174,230.9,171.4,231.8,168.9,233z"/>
		<path class="st1" d="M190.3,199c-1.7,0-5.4-0.8-11.9-6.3c-8.1-6.8-6.2-22.3-4-27c1.2-2.7,2-5.6,2.5-8.5c2.3,2.3,5.2,3.6,7.9,4.9
			c5.3,2.5,10.3,4.9,12.2,13.5c2.2,12.1,0.5,19.8-4.9,22.9C191.6,198.8,190.9,199,190.3,199L190.3,199z"/>
		<path class="st2" d="M200.4,162.8c-0.7,0-1.3-0.1-2-0.2c-2.8-0.6-5.5-1.8-8-3.3c-1.1-0.6-2.3-1.3-3.4-1.8c-3.5-1.7-6.4-3-8.2-6
			c-2-3.2-2.6-5.9-2-8.3c1.3-4.6,7.3-7.8,13.2-10.9c4.3-2.3,8.7-4.6,11.4-7.6c4.4-4.8,7.1-12.4,8.3-16.4c5.7,5.8,22.7,23.9,24,36
			c0.6,5.4-6,9.4-9.2,11.3l-0.6,0.3c-4.1,2.4-8.6,4-13.3,4.8c-1.1,0.2-2.2,0.5-3.4,0.7C205,162.3,202.7,162.7,200.4,162.8z"/>
		<path class="st1" d="M166.4,209.7c-0.7-0.3-1.4-0.6-2.1-0.9c-3.3-2-5.2-5.1-7.1-8.4c-0.9-1.5-1.9-3.1-3-4.6c0,0-2.2-2.9-4-5.1
			c3.3-0.6,8.2-1.5,11.3-3.1c2.2-1.1,4.5-1.7,6.9-2c0.9,4.3,3.3,8.2,6.6,11.1c0.5,0.4,0.7,0.9,0.7,1.5c0,0.5-0.3,1-0.7,1.2
			c-2.3,1.4-4.3,3.1-5.9,5.2C168,206.2,167.1,207.9,166.4,209.7z"/>
		<path class="st1" d="M211.5,243.8c-2.5-2.1-6.7-5.4-9.6-6.6c-2-0.9-3.9-2.1-5.5-3.6c-2-1.9-2.3-5.1-0.6-7.3
			c0.9-1.3,1.6-2.7,2.2-4.2c0.4-1.3,0.6-2.7,0.7-4.1c0.3-2.5,0.6-5.7,1.8-6.8c1.4,2.7,3.4,5.1,5.9,6.9c1.9,1.3,4,2.1,6.2,2.5
			c0.8,0.2,1.6,0.4,2.5,0.6c0.3,0.1,0.6,0.3,0.9,0.5c2,1.8-0.3,8.1-1.7,11.9c-0.6,1.6-1.1,3-1.4,4.1
			C212.2,239.7,211.8,241.7,211.5,243.8z"/>
		<path class="st1" d="M202.3,191.4c0.1-0.8,0.2-1.7,0.4-2.5c0.2-0.6,0.3-1.2,0.3-1.8c0.1-2.7,0-5.3-0.3-8c-0.1-1-0.3-2.1-0.6-3.1
			c-0.9-3.8-1.3-6.6,0.6-8.1s5.6-1.7,8.9-1.9c1.8-0.1,3.5-0.2,5.3-0.5c2.6-0.6,4.7-1.1,6.2-1.5c-0.8,3.2-2,8.4-1.8,11.6
			s-0.5,8.5-2.1,9.9c-0.9,0.8-2.8,0.8-4.7,0.8c-1.4-0.1-2.8,0.1-4.2,0.4c-1.9,0.5-3.7,1.4-5.4,2.5c-0.4,0.3-0.8,0.7-1.2,1.1
			C203.2,190.6,202.7,191.2,202.3,191.4z"/>
		<path class="st1" d="M157.3,261c-1.3-1-2.6-2.1-3.9-3.1c-6.8-5.6-14.6-12-23.1-12c-3.9,0-7.7,1.3-11.7,4l-4.9,3.3l-0.6-5.9
			c-0.1-0.9-2.4-23.3,7.8-40c1.9-3.2,1.3-7.2-1.4-9.7c-5.3-4.9-9.6-10.7-12.7-17.2c-2-4.2-6.2-6.8-10.8-6.8l0,0
			c-6.5,0.1-13,1.6-18.9,4.4c-13.3,6-18.4,26.2-23.4,45.8c-4.7,18.5-9.1,36-20,43.6c15.2,7.3,29.1,17,41.1,28.8
			c6.4,6.4,16.7,9.9,29.1,9.9l0,0c19.9,0,44.9-9.7,54.1-28.1c0.9-1.7,1.7-3.5,2.4-5.1C162.1,268.7,160.8,263.9,157.3,261z
			 M99.8,232.7c-5.1,0-5.1-7.9,0-7.9S104.9,232.7,99.8,232.7z M103.6,212.3c-6.8,0-6.8-10.5,0-10.5S110.4,212.3,103.6,212.3z"/>
		<path class="st1" d="M282.5,279.5c-0.6-1.1-1.4-2.6-2.2-4.3c-3.4-6.8-9-18.3-14.8-19c-0.4-0.1-0.7-0.1-1.1-0.1
			c-1.7,0-3.3,0.7-4.5,1.9c-3,3.1-4,9.3-3.9,14.1l0.1,5.6l-5.1-2.3c-2.3-1-7-1.5-12.6-1.5c-4.6,0-9.2,0.4-13.8,1.2
			c-3,0.6-6,0.9-9.1,0.9c-8.5,0-20.4-2.4-28.7-14c-0.4-0.5-1-0.8-1.6-0.9c-0.5,0-1,0.2-1.3,0.6c-3.3,4.2-9.3,5.4-13.6,8.3
			c-4.3,3.1-7.9,7-10.7,11.5c-4.6,7.1-7.4,15.6-4.5,23.9c6.7,19.4,13.4,23.8,51.9,33.1c28.2,6.8,37.9,21.5,41.1,29.6
			c2.4-7.2,8.7-19.7,24.6-27.8c7.3-3.8,12.4-10,15-18.5C292.2,307.3,288.3,290.1,282.5,279.5z M179.6,286.6c-6.8,0-6.8-10.5,0-10.5
			S186.4,286.6,179.6,286.6z M199.1,290.1c-5.3,0-5.3-8.2,0-8.2S204.4,290.1,199.1,290.1z"/>
		<path class="st1" d="M360.3,202.7c-0.5-1.4-0.9-2.8-1.4-4.4c-3.7-12.1-8.8-28.6-36-35.1c-5.1-1.2-10.3-1.8-15.5-1.8
			c-7.5,0-13.5,1.5-17.5,4.2c-8.4,5.8-9.6,18.7-10.5,27.3c-1,9.9-4.7,17.4-10.9,21.8c-3.2,2.4-4,6.8-1.9,10.2c1,1.9,1.8,3.8,2.3,5.9
			c1.4,5.9,0.5,12-2.3,17.3c3,2.7,5.7,5.7,8.1,9c3,4.2,7.7,7,12.9,7.6c1.2,0.1,2.4,0.2,3.6,0.2l0,0c11,0,25-4.9,39.3-13.9
			s38.2-18.3,48.5-22.2C369.4,225.2,364.3,214.3,360.3,202.7z M284.9,222.5c-6.8,0-6.8-10.5,0-10.5S291.7,222.5,284.9,222.5z"/>
		<path class="st2" d="M79.4,160.2c-2-3.5-3.4-7.4-4-11.4c-1.5-8.2-0.9-16.7,1.7-24.7c-2.4-0.6-4.8-0.9-7.2-0.9
			c-7.5-0.1-14.6,3.2-19.4,9c-8.1,9.5-19.7,15.3-32.2,16c9.8,12.3,8.6,25.9,7.6,38c-0.7,8.2-1.4,16,1.2,22.8
			c4.5,11.6,10.3,16.9,19.3,17.7l1.4-1l0.9-3.4c5.3-20.7,10.7-42.2,26.4-49.2c2.4-1.1,4.3-3.1,5.1-5.6
			C81,165.1,80.7,162.4,79.4,160.2z M64.1,167c-6.8,0-6.8-10.5,0-10.5S70.9,167,64.1,167z"/>
		<path class="st2" d="M150.3,306.9c-1-3.3-4-5.6-7.5-5.6c-1.2,0-2.4,0.3-3.4,0.9c-11,5.7-23.2,8.7-35.6,8.8
			c-6.3,0.1-12.6-0.9-18.6-3c-1.6,7.2,0.4,13.6,5.9,19.1c2.9,2.9,6,5.8,9.1,8.6c11.6,10.8,23.6,21.9,23.7,34.1
			c4.6-3.8,14.3-9.4,32-9.4c2.4,0,4.9,0.1,7.5,0.3c1.3,0.1,2.6,0.2,3.9,0.2c18.6,0,25.9-11.8,28.7-19.9
			C165,332.9,157.2,327,150.3,306.9z M141.4,328.2c-6.8,0-6.8-10.5,0-10.5S148.2,328.2,141.4,328.2L141.4,328.2z"/>
		<path class="st2" d="M349.5,266.2c-1.5-5.7-5.9-10.1-12.9-13.1c-1.2,0.7-2.4,1.4-3.5,2.1c-8.8,5.5-25.9,14.7-42.2,14.7
			c-1.7,0-3.2,0.9-4.1,2.3c-0.8,1.4-0.8,3.1,0,4.5l0.2,0.3c6.4,11.6,10.6,30.4,5.8,46.3c-1.6,5.5-4.5,10.6-8.5,14.8
			c2.7,1.9,5.9,3,9.2,3.1c4.1,0,8.2-1.9,12.2-5.6c12-11.2,24.7-13.5,33.2-13.5c2.9,0,5.8,0.3,8.7,0.8c-2.7-6.6-1-16,0.7-25.8
			C350.1,286.6,352.1,275.7,349.5,266.2z M304.2,285.4c-6.8,0-6.8-10.5,0-10.5S311,285.4,304.2,285.4L304.2,285.4z"/>
		<path class="st2" d="M370.2,122.8c-5.8-0.1-15.5-1-20.9-5.6c-2.6-2.2-4.3-5.8-6.1-9.5c-3.6-7.5-7.6-16-20.9-17.9
			c-1.2-0.2-2.5-0.3-3.7-0.3c-2.6,0-5.1,0.5-7.5,1.4c3.8,19,1.1,38.8-7.7,56.1c-1.1,2-1,4.4,0.2,6.3c1.2,2,3.3,3.1,5.6,3.1h0.2
			c4.9,0,9.8,0.6,14.6,1.7c16.3,3.9,27.5,11.7,34.1,24.1c15.1-7,10.4-24,7-36.6C362.9,137.6,364.8,129.1,370.2,122.8z M323.1,147.9
			c-6.8,0-6.8-10.5,0-10.5S329.9,147.9,323.1,147.9L323.1,147.9z M327.6,129c-5.1,0-5.1-7.9,0-7.9S332.7,129,327.6,129L327.6,129z"
			/>
		<path class="st2" d="M170.2,150.1c-2-2.9-5.3-4.8-8.8-5.2c-1.2-0.2-2.4-0.3-3.6-0.3c-6.6,0.1-13,2.1-18.4,5.8
			c-9.3,6.4-18.1,9.6-26.3,9.6c-2.6,0-5.3-0.4-7.8-1.2c1.5,9,4.7,17.6,9.6,25.3c2.7,4.2,6,9.5,10.9,11.5c0.9,0.4,1.8,0.6,2.8,0.6
			c1.8-0.1,3.5-0.7,5-1.7c3.3-1.7,6.9-2.8,10.6-3.3l-4.3-4.4l7-1c3.5-0.5,9.9-1.8,12.5-3.1s5.5-2.1,8.4-2.5
			c-0.6-6.6,0.5-13.4,2.1-16.9C172.4,157.5,172.6,153.5,170.2,150.1z M157,175.7c-5.1,0-5.1-7.9,0-7.9S162.1,175.7,157,175.7z"/>
		<path class="st2" d="M263.8,231.9c-1.6-6.5-6.7-11.5-14.4-14.1c-1-0.3-2.2-0.8-3.4-1.2c-3.1-1.2-6.7-2.6-9.5-2.6
			c-2.5,0-5.7,2-7.9,3.8c-4.9,4.1-7.4,10.5-9.5,16.2c-0.6,1.5-1.1,3.1-1.5,4.7c-1.2,5.1-1.6,8.4-1.6,8.4l-0.7,7.1l-5.3-4.8
			c-2.6-2.3-7.7-6.5-10.3-7.6c-1.2-0.6-2.3-1.3-3.3-2.1c-1.6-1.2-3.5-2.6-4.7-2.6c-0.3,0-0.6,0.1-0.8,0.4c-0.7,1-0.6,2.9-0.5,4.8
			c0.2,1.4,0.1,2.9-0.1,4.3c-0.9,4.1-1.6,8.4,0.1,11.8c2,4,6.7,7.4,10.6,9.3c4.5,2.2,9.4,3.3,14.4,3.2c2.7,0,5.4-0.3,8-0.8
			c4.9-0.9,9.9-1.3,14.9-1.3c4.2-0.1,8.4,0.4,12.5,1.3c0.3-4.3,1.7-13.9,8.4-20.9C263.6,244.6,265.3,238.1,263.8,231.9z
			 M236.8,234.1c-5.1,0-5.1-7.9,0-7.9S241.9,234.1,236.8,234.1L236.8,234.1z"/>
		<path class="st2" d="M256.5,160c-4.1-4.1-7.6-7.6-13.6-7.6c-0.6,0-1.3,0-1.9,0.1c-6.9,0.8-10.4,3.7-12.3,10.2
			c-1.1,4.2-1.9,8.5-2.4,12.8c-0.1,1.2-0.2,2.4-0.3,3.5c-0.3,2.9-0.6,5.1,0.5,7.9c1,2.6,2.9,4.6,4.9,6.8c0.5,0.6,1.1,1.2,1.6,1.8
			c1.1,1.2,2.2,2.5,3.4,3.6c2.2,2,4,3.6,5.7,4.9c0.3,0.2,0.6,0.4,0.9,0.5c1.1,0.5,2.1,1.3,2.7,2.4c0.4,1.2,0.1,2.5-0.8,3.3
			c-0.1,0.2-0.3,0.3-0.4,0.5c0,0.1,0.2,0.9,2.9,1.6c2.4,0.7,5,1,7.5,1.1h0.3c3.6,0.1,7.2-1,10.2-3c6.6-4.6,8.4-13.4,8.8-18.2
			c0.6-7.3,2.2-14.5,4.8-21.3C267.3,170.9,261.6,165.1,256.5,160z M237.6,188.9c-5.1,0-5.1-7.9,0-7.9S242.7,188.9,237.6,188.9z
			 M240.1,174.9c-5.1,0-5.1-7.9,0-7.9S245.2,174.9,240.1,174.9z"/>
		<path class="st3" d="M245.3,44.3c-7.7-8.1-19.1-12.5-29.6-15.5c-7.1-1.9-13.6-5.6-18.7-10.9c-3.7,16.1-14,22.9-23.9,29.5
			c-4.5,3-8.8,5.8-12.5,9.5c-1.5,1.5-5.6,5.3-5.1,7.6c0.5,2.3,4.2,3,5.9,3.1c15.3,1.7,31.1,3.5,39.8,15.9c1,1.5,2.7,2.4,4.5,2.4
			s3.4-0.9,4.3-2.4c2.7-4.4,6.5-8,10.9-10.6c4.7-2.7,9.8-4.6,15.2-5.5c5.8-1.1,15.2,0.6,15.6-7.5C252.1,54,249.3,48.5,245.3,44.3z
			 M202.2,69.8c-6.8,0-6.8-10.5,0-10.5S209,69.8,202.2,69.8z"/>
		<path class="st1" d="M196.9,86.4c-7.3-10.4-21.9-12-36-13.6c-7.7-0.9-14.9-1.7-21.2-3.8c-9.4-3.3-17.8-9-24.3-16.6
			c-0.3,5.6-2.2,15.8-10.5,30.6c-2.6,4.7-5.4,9.2-8.1,13.6C86.1,114,76.9,129.1,80.4,148c1.6,8.6,5.7,14.8,12.3,18.4
			c0.8,0.4,1.6,0.7,2.5,0.7c5.4,0,5.1-6.1,4.5-9.9l-1.2-7.7l6.6,4.1c2.5,1.1,5.2,1.7,7.9,1.6c7,0,15.1-3,23.4-8.7
			c6.5-4.4,13.1-6.7,19.8-6.7s12.5,2.5,18.1-3c4.2-4.1,9.9-7.2,14.5-9.7c3.7-2,7.2-3.9,8.8-5.6c4-4.4,7.3-11,7.6-17.1
			S200.2,91.1,196.9,86.4z M155.8,130.4c-6.8,0-6.8-10.5,0-10.5S162.6,130.4,155.8,130.4L155.8,130.4z M168.3,108.2
			c-4.9,0-4.9-7.6,0-7.6S173.2,108.2,168.3,108.2L168.3,108.2z"/>
		<path class="st1" d="M291.4,54.7c-0.8-1.5-1.6-2.9-2.2-4c-11.6,17.7-26.3,19.1-40.5,20.5c-8.9,0.8-17.4,1.6-25.1,6.3
			c-6.1,3.4-10.5,9.3-11.9,16.2c-0.5,2.3-1.1,6.1-0.4,8.4c1,3.4,4.8,5.5,7.1,8c2.8,3.1,5.6,6.4,8.2,9.7c3.5,4.4,6.5,9,9.1,14
			c2.1,4.4,1.7,12.1,7.3,13.6c3.6,0.9,6.6,0.8,10,2.9c2.7,1.8,5.3,4,7.5,6.4c4.1,4,9.6,6.3,15.3,6.3c5.3,0,10.5-2,14.3-5.7
			c7.3-7,12.6-17.5,15.8-31.2C313.1,93.9,299,68.4,291.4,54.7z M234.6,113.1c-4.5,0-4.5-6.9,0-6.9S239.1,113.1,234.6,113.1
			L234.6,113.1z M250.4,132.9c-6.8,0-6.8-10.5,0-10.5C257.2,122.4,257.1,132.9,250.4,132.9L250.4,132.9z"/>
	</g>
</g>
</svg>
