<?xml version="1.0" encoding="utf-8"?>
<!-- Generator: Adobe Illustrator 25.2.1, SVG Export Plug-In . SVG Version: 6.00 Build 0)  -->
<svg version="1.1" id="Layer_1" xmlns="http://www.w3.org/2000/svg" xmlns:xlink="http://www.w3.org/1999/xlink" x="0px" y="0px"
	 viewBox="0 0 141 248.3" style="enable-background:new 0 0 141 248.3;" xml:space="preserve">
<style type="text/css">
	.st0{fill:#384B42;}
	.st1{fill:#C3E088;}
	.st2{fill:#2E2A25;}
	.st3{fill:#40E0D0;}
	.st4{fill:#448539;}
	.st5{fill:#A91D8D;}
</style>
<g id="Layer_2_1_">
	<g id="Layer_1-2">
		<path class="st0" d="M106.2,114.6c1.5,0,2.9,0.3,4.3,0.7c3.3,0.8,5.3,4.1,4.5,7.4c-0.3,1.8-1,3.6-1.9,5.2
			c-6.8,13.5-11,27.9-13.7,42.7c-2.1,12.1-3.4,24.4-3.9,36.7c-0.4,8.9-0.8,17.9-1,26.8c0,1.5-0.2,3-0.3,4.5c-0.4,3.4-1.8,5-5.2,5.7
			c-5.8,1.2-11.6,2.1-17.5,2.8c-9.9,1.1-19.8,1.4-29.7,1.1c-7.7-0.3-15.5-1-23.1-2.2l-9-1.2c-0.9-0.1-1.8-0.3-2.6-0.6
			c-5.7-1.6-7.8-4.9-6.8-10.7c0.7-3.6,1.5-7.2,2.2-10.8c2.6-12.5,4-25.3,4.4-38.1c0.6-20.2-1.4-40.4-6.2-60.1
			c-0.4-1.4-0.7-2.8-0.7-4.2c0.1-2,1-2.9,2.9-3.1c1.1-0.1,2.2-0.1,3.3-0.1c0.8,0,1.6,0.1,2.4,0.1c8,0.4,16,0.5,24,0.5
			c13.7,0.1,27.4-0.1,41-0.7C84.5,116.5,95.4,115.6,106.2,114.6z M99.8,157.4h-0.4c-1.3,1.4-2.7,2.7-4,4.1
			C78.9,178.7,62.5,196,46.8,214c-6.9,7.9-13.6,16-20.1,24.2c-1,1.2-1.8,2.4-2.5,3.8c-0.7,1.8-0.2,3,1.5,3.7c1,0.4,2,0.6,3,0.6
			c7.5,0.3,15,0.7,22.5,1c1.4,0.1,2.9,0,4.3,0.2c2.4,0.4,4.9-0.6,6.3-2.7c2.6-3.5,5.3-7.1,7.8-10.6c4.3-5.9,8.5-11.8,13.8-16.9
			c1.8-1.7,3.7-3.3,5.5-5c2.4-2.3,4.1-5.4,4.7-8.7c1.1-5.3,1.2-10.8,1.8-16.2c1-8.6,2.2-17.1,3.7-25.6
			C99.5,160.4,99.8,158.9,99.8,157.4z M7.9,204.6c0.6,0,0.8-0.6,1.2-0.9c2.4-2.6,4.5-5.4,6.5-8.3c2.3-3.4,4.7-6.7,7.4-9.8
			c13.6-15.7,28.6-29.9,44.3-43.5c8.3-7.2,16.6-14.3,24.9-21.5c0.6-0.5,1.5-0.9,1.7-1.9h-2.3c-14.3,0.3-28.6,0.8-42.9,0.9
			c-2.8-0.1-5.4,1.2-7.1,3.4l-2.6,3.2c-8.9,10.7-17.9,21.3-26.9,32c-2.1,2.4-3.3,5.4-3.4,8.5c-0.1,6.2-0.3,12.5-0.5,18.7
			c-0.1,3.4-0.3,6.7-0.3,10.1C7.8,198.4,7.9,201.5,7.9,204.6z"/>
		<path class="st1" d="M106.2,114.6c-10.8,0.9-21.7,1.8-32.5,2.4c-13.7,0.7-27.3,0.8-41,0.7c-8-0.1-16-0.1-24-0.5
			c-0.8,0-1.6-0.1-2.4-0.1c-1.8-5.7-3.1-11.6-3.9-17.5c-1-7-1.3-14-0.8-21c0.5-11.8,3.3-23.5,8.1-34.3c3-6.9,8-12.8,14.3-17
			c5.1-3.1,10.7-5.2,16.5-6.2c4.6-0.9,9.3-1.4,14-1.6c2.9-0.1,5.9-0.4,8.8-0.3c6.6,0.1,13.1,0.5,19.6,1.3c2.1,0.3,4.1,0.4,6.2,0.6
			c0.1,0.4,0.2,0.8,0.2,1.2c0.3,4.9,1.5,9.6,3.5,14.1c0.9,1.7,1.6,3.5,2.2,5.3c-0.1,2.4,0.5,4.8,0.7,7.1c0.9,9,0.6,18.1-0.9,27
			c-2.1,11.8-6.1,23.1-12.1,33.4c-0.7,1.3-1.4,2.7-2,4.1s-0.4,1.8,1.1,1.8c1.7,0,3.3-0.2,5-0.2c3.7,0,7.5-0.3,11.2-0.7
			c4.3-0.4,7.6-2,9.5-6.2c1.5-3.2,3.3-6.4,4.7-9.7c4.2-10,6.8-20.3,6.9-31.1c0-2.9-0.1-5.9-0.5-8.8c-0.7-5-1.6-9.9-4.4-14.3
			c0.7-0.5,1.5-0.8,2.3-0.9c0.1,0.6,0.2,1.2,0.5,1.8c4,8.7,4.6,17.9,4,27.1c-0.7,8.4-2.8,16.7-6,24.5c-1.5,3.9-3.2,7.7-4.8,11.5
			C109.2,110.4,107.9,112.6,106.2,114.6z M50,115.7c2.9-0.1,5.7-0.1,8.6-0.4c1.1-0.1,1.5-0.5,1.5-1.6c0.4-8.8,0.9-17.5,1.3-26.3
			c0.2-4.8,0.3-9.6,0.7-14.4c0.2-3.2,0.3-6.4,0.5-9.6c0.4-7.5,0.9-15,1.3-22.5c0.3-5.3,0.6-10.7,0.9-16c0.1-1.6-0.1-1.8-1.6-2
			c-3.4-0.4-6.8,0.2-9.8,1.7c-6.1,3.2-11.1,8.3-14.3,14.4c-3.3,6.6-5.2,13.8-5.4,21.2c-0.2,7.5,0,15,0.8,22.5c0.8,8,1.8,16,3,24
			c0.2,2.2,1,4.4,2.1,6.3c1,1.7,2.8,2.8,4.8,2.7L50,115.7z M37.8,115.4c0-0.2,0.1-0.4,0-0.5c-2.4-3.2-3.4-7-4.1-10.9
			c-0.9-5.3-1.3-10.6-2-15.9c-1-7.8-1.5-15.7-1.3-23.6c0.1-4.8,0.7-9.6,1.9-14.2c1.5-5.3,3.2-10.4,6.3-15c3.4-5.2,8.3-8.8,13.7-11.8
			c0.7-0.4,1.7-0.6,2.1-1.7c-1.5-0.4-3-0.5-4.5-0.2c-4.3,0.7-8.6,1.6-12.9,2.7c-9.9,2.6-17.6,8.1-22.7,17.1
			c-6.2,11.4-9.7,24-10.3,37c-0.4,8,0,16,1.4,23.9c0.6,3.6,1.4,7.2,2.4,10.7c0.5,1.9,0.9,2.2,2.6,2.2c8.7,0.2,17.4,0.3,26.1,0.4
			C36.9,115.7,37.4,115.9,37.8,115.4L37.8,115.4z M93.7,52.6v-5.8c0-4.3-1.2-8.6-3.5-12.3c-1.6-2.3-2.7-4.9-3.4-7.6
			c-0.4-2.3-2.5-4-4.8-3.8c-3.9-0.2-7.8-0.1-11.7,0.3c-2.4,0.3-2.4,0.4-2.5,2.9l-0.6,14.4c-0.4,7.7-0.9,15.5-1.3,23.2
			c-0.2,4.8-0.3,9.6-0.7,14.4c-0.2,3-0.3,6.1-0.4,9.1c-0.5,8.7-0.9,17.4-1.4,26.1c-0.1,2.5,0.2,2.8,2.7,2.8c3.4,0,6.7-0.7,10-0.9
			c0.6-0.1,1.2-0.5,1.5-1.1c2.1-2.7,3.8-5.7,5-9c3.2-8.1,6-16.4,8.2-24.8C93,71.3,93.6,61.9,93.7,52.6L93.7,52.6z"/>
		<path class="st2" d="M116.5,43.1c-0.8,0.1-1.6,0.4-2.3,0.9c-3.4,0.6-6.5,2.2-9,4.6c-0.6,0.6-1.2,1-1.9,1.4c-1.4,0.9-3.3,0.5-4.2-1
			c0,0-0.1-0.1-0.1-0.1c-0.8-1.1-1.4-2.3-1.9-3.6c-0.4-1.4-1-2.6-2-3.7c-0.6-1.8-1.3-3.6-2.2-5.3c-2-4.5-3.2-9.2-3.5-14.1
			c0-0.4-0.1-0.8-0.2-1.2c-0.2-4-0.4-8-0.7-12c-0.1-1.8-0.1-3.6,1.7-4.6c2-1,3.8-0.2,5.3,1.1c3.1,2.9,5.5,6.5,6.9,10.5
			c0.3,0.9,0.6,1.8,1,2.8c0.5-0.4,1-1,1.2-1.6c2.6-4.7,5.8-9,9.4-13c1.3-1.6,3.1-2.9,5-3.7c2.5-1.1,4.2-0.3,5,2.3
			c0.6,2,0.9,4,0.9,6.1v4.8c3.5-2.3,7.4-3,11.3-3.7c4.4-0.8,5.4,0.2,4.5,4.7c-1.9,8.9-6.8,16.1-13.8,21.9
			C123.8,39.3,120.3,41.5,116.5,43.1z M104.1,46c0.8-0.2,1.6-0.5,2.4-0.8c5.8-2.6,11.6-5.4,17.2-8.5c4.5-2.4,8.2-6.2,10.6-10.7
			c2.2-3.9,3-8.2,4.3-12.4c0.3-1-0.1-1.3-1.1-1.3c-2.4,0.1-4.7,0.6-6.9,1.7c-4.4,2.1-8.2,5.3-11,9.3c-3.5,4.8-7,9.5-11.4,13.5
			c-1.3,1.2-2.6,2.3-3.9,3.5c-1.1,1-1.8,2.3-2.1,3.7C102,45.4,102.5,46,104.1,46z M102.4,39.6c0.9-0.3,1.7-0.8,2.3-1.4
			c3.8-2.9,6.8-6.7,9.8-10.5c3.3-4.1,6.4-8.4,8.1-13.5c1.2-3.3,1-6.8-0.3-10c-1-2.2-1.7-2.4-3.6-0.9c-0.6,0.5-1.2,1-1.8,1.6
			c-8.9,8.1-14.2,19.3-15,31.3C101.7,37.4,101.9,38.5,102.4,39.6L102.4,39.6z M89.9,10.6c-0.2,1.6,0.3,3.6,0.4,5.7
			c0.2,5,1.1,10,2.5,14.8c1,3.7,2.7,7.2,5,10.3c0.3,0.4,0.7,1,1.3,0.9c0.8-0.2,0.8-0.9,0.8-1.5c0.2-2.5,0.4-4.9,0.7-7.4
			c0.4-4.5,0.9-9,0.3-13.6s-2-8.9-5.6-12.1c-0.9-1-2-1.7-3.2-2c-1.3-0.4-2,0-2.2,1.4C89.8,8,89.9,9,89.9,10.6L89.9,10.6z"/>
		<path class="st3" d="M99.8,157.4c-0.1,1.5-0.3,3-0.7,4.4c-1.5,8.5-2.7,17-3.7,25.6c-0.6,5.4-0.7,10.8-1.8,16.2
			c-0.6,3.3-2.3,6.4-4.7,8.7c-1.8,1.7-3.7,3.3-5.5,5c-5.3,5-9.5,11-13.8,16.9c-2.6,3.6-5.2,7.1-7.8,10.6c-1.4,2-3.9,3.1-6.3,2.7
			c-1.4-0.2-2.9-0.1-4.3-0.2c-7.5-0.3-15-0.7-22.5-1c-1,0-2-0.2-3-0.6c-1.7-0.7-2.2-1.9-1.5-3.7c0.7-1.4,1.5-2.6,2.5-3.8
			C33.2,230,39.9,222,46.8,214c15.6-18,32-35.3,48.6-52.5c1.3-1.4,2.7-2.8,4-4.1C99.5,157.3,99.6,157.4,99.8,157.4z"/>
		<path class="st3" d="M7.9,204.6v-9.3c0.1-3.4,0.2-6.7,0.3-10.1c0.2-6.2,0.3-12.5,0.5-18.7c0.1-3.1,1.3-6.2,3.4-8.5
			c9-10.6,17.9-21.3,26.9-32c0.9-1,1.7-2.1,2.6-3.2c1.7-2.1,4.3-3.4,7.1-3.4c14.3,0,28.6-0.5,42.9-0.9h2.3c-0.2,1-1,1.4-1.7,1.9
			c-8.3,7.2-16.6,14.3-24.9,21.5c-15.6,13.6-30.7,27.8-44.3,43.5c-2.6,3.1-5.1,6.4-7.4,9.8c-2,2.9-4.2,5.7-6.5,8.3
			C8.7,204.1,8.5,204.7,7.9,204.6z"/>
		<g>
			<path class="st4" d="M50,115.7h-5.5c-2,0-3.8-1-4.8-2.7c-1.2-1.9-1.9-4.1-2.1-6.3c-1.2-8-2.2-16-3-24c-0.8-7.5-1.1-15-0.8-22.5
				c0.2-7.4,2-14.6,5.4-21.2c3.1-6.2,8.1-11.2,14.3-14.4c3-1.5,6.4-2.1,9.8-1.7c1.6,0.2,1.7,0.5,1.6,2c-0.3,5.3-0.6,10.7-0.9,16
				c-0.4,7.5-0.9,15-1.3,22.5c-0.2,3.2-0.2,6.4-0.5,9.6c-0.4,4.8-0.4,9.6-0.7,14.4c-0.4,8.8-0.9,17.5-1.3,26.3
				c-0.1,1.1-0.4,1.5-1.5,1.6C55.8,115.6,52.9,115.7,50,115.7z"/>
			<path class="st4" d="M37.8,115.4c-0.4,0.3-0.8,0.4-1.3,0.3c-8.7-0.1-17.4-0.3-26.1-0.4c-1.7,0-2-0.4-2.6-2.2
				c-1-3.5-1.7-7.1-2.4-10.7C4,94.5,3.5,86.5,4,78.5C4.5,65.6,8.1,53,14.3,41.7c5.1-9,12.8-14.5,22.7-17.1c4.2-1.1,8.5-2,12.9-2.7
				c1.5-0.3,3-0.2,4.5,0.2c-0.5,1.1-1.4,1.3-2.1,1.7c-5.4,3-10.2,6.6-13.7,11.8c-2.9,4.7-5,9.7-6.3,15c-1.2,4.6-1.8,9.4-1.9,14.2
				c-0.2,7.9,0.3,15.8,1.3,23.6c0.6,5.3,1,10.6,2,15.9c0.7,3.9,1.7,7.6,4.1,10.9L37.8,115.4z"/>
			<path class="st4" d="M93.7,52.6c-0.1,9.4-0.7,18.7-3,27.8c-2.1,8.4-4.9,16.7-8.2,24.8c-1.2,3.2-2.9,6.3-5,9
				c-0.3,0.6-0.9,0.9-1.5,1.1c-3.3,0.3-6.6,1-10,0.9c-2.5,0-2.8-0.3-2.7-2.8c0.4-8.7,0.9-17.4,1.4-26.1c0.2-3,0.2-6.1,0.4-9.1
				c0.4-4.8,0.4-9.6,0.7-14.4c0.4-7.7,0.9-15.5,1.3-23.2l0.6-14.4c0.1-2.5,0.1-2.6,2.5-2.9c3.9-0.4,7.8-0.5,11.7-0.3
				c2.3-0.1,4.3,1.5,4.8,3.8c0.7,2.7,1.8,5.3,3.4,7.6c2.3,3.7,3.5,8,3.5,12.3C93.7,48.7,93.7,50.7,93.7,52.6z"/>
			<path class="st4" d="M95,41.7c1,1.1,1.6,2.3,2,3.7c0.5,1.3,1.1,2.5,1.9,3.6c0.8,1.5,2.7,2,4.2,1.2c0,0,0.1-0.1,0.1-0.1
				c0.7-0.4,1.4-0.8,1.9-1.4c2.5-2.4,5.6-4,9-4.6c2.8,4.4,3.7,9.3,4.4,14.3c0.4,2.9,0.5,5.9,0.5,8.8c-0.2,10.7-2.6,21.3-6.9,31.1
				c-1.4,3.3-3.2,6.5-4.7,9.7c-2,4.1-5.3,5.8-9.5,6.2c-3.7,0.3-7.5,0.7-11.2,0.7c-1.7,0-3.3,0.2-5,0.2c-1.4,0-1.7-0.4-1.1-1.8
				s1.3-2.8,2-4.1c5.9-10.4,10-21.7,12.1-33.4c1.5-8.9,1.8-18,0.9-27C95.5,46.5,94.9,44.1,95,41.7z"/>
		</g>
		<path class="st5" d="M104.1,46c-1.5,0-2.1-0.6-1.9-1.9c0.3-1.4,1-2.7,2.1-3.7c1.3-1.2,2.6-2.4,3.9-3.5c4.4-4,7.9-8.8,11.4-13.5
			c2.8-4,6.6-7.2,11-9.3c2.2-1.1,4.5-1.6,6.9-1.7c0.9,0,1.4,0.3,1.1,1.3c-1.3,4.2-2.1,8.5-4.3,12.4c-2.4,4.5-6.1,8.3-10.6,10.7
			c-5.6,3-11.3,5.9-17.2,8.5C105.6,45.6,104.7,45.8,104.1,46z"/>
		<path class="st5" d="M102.4,39.6c-0.4-1.1-0.6-2.3-0.4-3.5c1-12.3,5.8-22.8,14.9-31.3c0.6-0.5,1.2-1.1,1.8-1.6
			c1.8-1.4,2.6-1.3,3.6,0.9c1.4,3.2,1.6,6.8,0.3,10c-1.7,5.1-4.8,9.4-8.1,13.5c-3,3.7-6,7.5-9.8,10.5
			C104.1,38.8,103.3,39.3,102.4,39.6z"/>
		<path class="st5" d="M89.9,10.6c0-1.5-0.1-2.6,0-3.6c0.2-1.3,0.9-1.7,2.2-1.4c1.2,0.4,2.3,1.1,3.2,2c3.6,3.3,5,7.5,5.6,12.1
			s0.1,9.1-0.3,13.6c-0.2,2.5-0.4,4.9-0.7,7.4c-0.1,0.6,0,1.4-0.8,1.5s-1-0.4-1.3-0.9c-2.3-3.1-4-6.6-5-10.3
			c-1.4-4.8-2.3-9.8-2.5-14.8C90,14.3,89.9,12.5,89.9,10.6z"/>
	</g>
</g>
</svg>
