<svg xmlns="http://www.w3.org/2000/svg" viewBox="0 0 326.8 372.35"><defs><style>.cls-1{fill:#201600;}.cls-2{fill:#00ad9a;}.cls-3{fill:#e8f3f1;}.cls-4{fill:#fff;}.cls-5{fill:#438367;}</style></defs><g id="Layer_2" data-name="Layer 2"><g id="Layer_1-2" data-name="Layer 1"><g id="Слой_1" data-name="Слой 1"><path class="cls-1" d="M270,110c8.4-5.6,15.1-13.5,14.5-24.5a19.06,19.06,0,0,0-11-16.6,18.51,18.51,0,0,0-14.6-.2c0-1.3-.1-2.6-.2-4-1.3-12.3-9.5-20-19.6-23a30.5,30.5,0,0,0-9.7-34.8c-11.7-9-28.3-9-40.4-.8a39.43,39.43,0,0,0-12.7,14.2,39.72,39.72,0,0,0-3.5-2,33.8,33.8,0,0,0-29.9.8,37.29,37.29,0,0,0-7.3,5.2c-8.3-12.9-24.8-19.7-39.7-14.9-15.3,4.9-26.2,19.9-24.6,36.1a36.56,36.56,0,0,0,9.3,21.2,34.9,34.9,0,0,0-9.9,15.9c-18.9-2-35.4,13.6-35.6,32.7a39,39,0,0,0,2,12.2A132.93,132.93,0,0,0,0,220c0,84,73.3,152.4,163.4,152.4S326.8,304,326.8,220C326.9,174.65,305.2,135.65,270,110Z"/><path class="cls-2" d="M118,138c-10.3-.9-21.1-.2-30.2,5-8.2,4.7-14.6,12.8-13.8,22.7s8.7,17.5,17.4,21.2a42.44,42.44,0,0,0,27.9,1.7,90.17,90.17,0,0,0,15.1-5.3c2.4-1.1,4.8-2.4,7.1-3.7,1-.5,6-4.4,6.8-4.1-.7-.2-1.4-.5-2.1-.7a44.6,44.6,0,0,1-9.9-4.6c-5.5,5.7-13.4,9.2-21.1,10.4a43.13,43.13,0,0,1-15.2-.2,30.77,30.77,0,0,1-7.3-2.2c-2-1-4.6-2-6.3-3.5a.91.91,0,0,1,0-1.2h0a.76.76,0,0,1,.5-.2,12.66,12.66,0,0,1,2.8.6,26.29,26.29,0,0,0,3.9.6c2.3.3,4.6.8,6.9,1a44.21,44.21,0,0,0,13.1-.2,33.06,33.06,0,0,0,17.6-9.2l-.4-.4c-5-5.5-7.2-14-2.9-20.6a1.38,1.38,0,0,0,.3-.4,19.76,19.76,0,0,1-10.1-6.4C118.1,138.05,118.1,138,118,138Z"/><path class="cls-2" d="M162.4,156.65a32.46,32.46,0,0,1,6.7,3.4,18.35,18.35,0,0,1-1.5-7.3,44.72,44.72,0,0,0-20.9-7.5c-5.1-.4-12.1-.2-13.6,5.8-1.4,5.6,2.7,10.6,7.2,13.3,3.7,2.3,8,3.7,12.1,5a61.54,61.54,0,0,0,17.5,2.8,39,39,0,0,1,1.9-3.5c0-.1,0-.1-.1-.2a8.64,8.64,0,0,0-1-1.6,14.31,14.31,0,0,0-1.1-1.5c-.5-.5-1-1.1-1.5-1.6a29.29,29.29,0,0,0-6.5-5.1,1.13,1.13,0,0,1-.4-1.5.88.88,0,0,1,1.2-.5Z"/><path class="cls-2" d="M141.6,120c-2,6.1-.9,12.5,1.7,18.2,1.6,0,3.2.1,4.8.2a53.3,53.3,0,0,1,20.8,6.9c.1-.3.3-.5.4-.8L169,141l-.6-5.4c-.5-3.7-1.5-7.4-2.2-11-.2-1,1.2-1.7,1.7-.7a82.72,82.72,0,0,1,4.1,10.8c.5,1.4.9,2.8,1.3,4.2a18.79,18.79,0,0,1,6.4-4.4c-2.7-12.3-10.2-27.1-25-25.8C148.5,109.15,143.6,114.05,141.6,120Z"/><path class="cls-2" d="M131,101.15a15.39,15.39,0,0,0-11.4,11.4,27,27,0,0,0,2.4,18.9c2.7,4.8,8.1,8.1,13.6,6.4a32,32,0,0,1-1.4-17.6,25.27,25.27,0,0,1,10.3-15.2A15.21,15.21,0,0,0,131,101.15Z"/><path class="cls-2" d="M177.7,76.45a20,20,0,0,0-17.9,8.6,27.77,27.77,0,0,0-4.5,16.6,25.13,25.13,0,0,1,8.6,1.1c9.8,3.2,16,10.9,19.7,19.9a27.59,27.59,0,0,0,14-15.8C201.9,93.05,192.8,77.05,177.7,76.45Z"/><path class="cls-2" d="M261.4,123a26.79,26.79,0,0,0-17.7-15.6,25.49,25.49,0,0,0-21.1,3.9,18.61,18.61,0,0,1,2.8,12.6c-1.3,9.4-8.5,16.3-17.2,19.2a22.49,22.49,0,0,1,3.1,7.9,21.12,21.12,0,0,0,3.1,2.1,19.42,19.42,0,0,0,7,2.4,43.78,43.78,0,0,0,8.8,1.5,11,11,0,0,0,3.6-.3,19,19,0,0,0,4-1.4.77.77,0,0,1,1,.1.68.68,0,0,1-.2,1h0a9.31,9.31,0,0,1-3.3,2.6,28.64,28.64,0,0,1-4.1,1.5,27.46,27.46,0,0,1-9.9.6,22.72,22.72,0,0,1-9.2-2.3c-.3-.2-.6-.3-.9-.5a18.9,18.9,0,0,1-2.3,5.5,33.89,33.89,0,0,1,9.4,4.5,42.08,42.08,0,0,0,25.7-3.2C259.3,157.65,268.5,139.25,261.4,123Z"/><path class="cls-2" d="M218.4,119a10.68,10.68,0,0,0-6.8-7.9c-4.6-1.4-8,1.5-10.8,4.9a49.73,49.73,0,0,1-9.7,9.2c-.6.4-5.6,3.5-5.4,4.3.3,1.1.6,2.2.8,3.3a22,22,0,0,1,16.4,4.7h.1a22,22,0,0,0,12.1-6.8A14.22,14.22,0,0,0,218.4,119Z"/><path class="cls-2" d="M240.3,100a32.09,32.09,0,0,1,4.3.7c.8-.1,1.7-.1,2.5-.2a34.73,34.73,0,0,0,7.1-1.6,14.47,14.47,0,0,0,5.6-3,16.35,16.35,0,0,0,3.7-5.3c.3-.7,1.4-.3,1.4.4a12.55,12.55,0,0,1-2.8,6.7,22.65,22.65,0,0,1-5.4,5.3,15.09,15.09,0,0,1-2.8,1.5,36.49,36.49,0,0,1,4.5,3.2c9-3.8,18.6-10.1,19.4-20.7.4-4.9-1.4-9.7-5.8-12.2a11.79,11.79,0,0,0-13.7,1.5c-.1.1-.2.1-.2.2C255.4,86,248.6,93.55,240.3,100Z"/><path class="cls-2" d="M244,187.75a7.37,7.37,0,0,1-1.4.4c-.4.1-.9.1-1.3.2a7,7,0,0,1-2.9-.1,12.84,12.84,0,0,1-5.3-2.1,6.89,6.89,0,0,1-1.3-1.1c0,.1.1.1.1.2a18.9,18.9,0,0,1,1,4.1c6.2,6.4,17,7.9,22.9.2a11,11,0,0,0,1.7-11.4c-1.8-3.9-5.6-6.7-9.7-6.7-.3,0-.7-.1-.9-.1a50,50,0,0,1-15.1,4.2c.6.9,1,1.9,1.4,2.6a22.11,22.11,0,0,0,2.8,4,14.71,14.71,0,0,0,3.5,3.1,7.2,7.2,0,0,0,4.5,1.3C244.5,186.45,244.6,187.45,244,187.75Z"/><path class="cls-2" d="M190.3,139.45c-6.3-.6-12.9,2.9-15.1,9.1-2,5.8,1,11.9,5.3,15.8a13.58,13.58,0,0,0,15,2.2c4.9-2.2,9.1-6.7,9.2-12.2C204.6,146.65,197.9,140.25,190.3,139.45Z"/><path class="cls-2" d="M94.6,58a30.31,30.31,0,0,1,28,6.3,51.63,51.63,0,0,1,1-20.7h0a15.23,15.23,0,0,1-2.2-3.4,22,22,0,0,0-1.7-2.5,22.73,22.73,0,0,0-4.9-4.4,27.58,27.58,0,0,0-7.2-2.8,15.14,15.14,0,0,0-3.7-.7c-1.2,0-2.4.3-3.5-.2a.44.44,0,0,1-.2-.7v-.1c0-.1.1-.1.1-.2.9-1.2,2.6-1.2,3.9-1.6a8.3,8.3,0,0,1,2.1-.6,19.42,19.42,0,0,1,2.4-.2,19.12,19.12,0,0,1,9,2.3,23.73,23.73,0,0,1,6.6,5.2l2.1,2.7a42.73,42.73,0,0,1,4.8-7.9c-.1-.1-.2-.2-.2-.3-8.5-14.8-28.6-19.1-42-8.1a28,28,0,0,0-3.7,39.5c.5.6,1,1.2,1.6,1.8A31.15,31.15,0,0,1,94.6,58Z"/><path class="cls-2" d="M136.7,223c13.2,4.1,31.1,2.9,38.5-10.5,0-.1.1-.1.1-.2a36.25,36.25,0,0,1-8-33.1,70.44,70.44,0,0,1-11.1-1.5,3.91,3.91,0,0,1-1.4,1.7c-3.3,2.2-6.6,4.3-10.1,6.3a1.46,1.46,0,0,1-.6.9c-1.5,1.6-3.4,2.8-5,4.6a16.63,16.63,0,0,0-2.9,4.8c-1.2,3.5-1.2,7.4,1.6,10.2a1.42,1.42,0,0,1-.1,2,1.36,1.36,0,0,1-1.6.2c-4.3-2.8-6.2-8.3-5.5-13.2.2-1,.5-2,.8-3a76.66,76.66,0,0,1-11.5,3.6,16.71,16.71,0,0,0,.8,15.8C124.2,217.25,130.4,221,136.7,223Z"/><path class="cls-2" d="M98.8,131.75a64.47,64.47,0,0,1,15.2-1c-3.8-10.1-2.7-22.9,4.8-30.3a21.81,21.81,0,0,1,12.4-6.1c-2.2-9.6-5.9-19.1-13.8-25.4a23.52,23.52,0,0,0-24.3-3c-9.4,4-15.4,13.2-16.9,23.1a37.85,37.85,0,0,0,5.1,24.4,54.63,54.63,0,0,0,7.7,10.2c1.5,1.5,3.1,3,4.7,4.4C94.6,128.65,97.9,132,98.8,131.75Zm-8-23.3c-.1.7-1,1.4-1.6.7-1.3-1.5-1.6-3.8-2.1-5.6a26.24,26.24,0,0,1,1.1-18.1,29.14,29.14,0,0,1,6.2-9.3A14.34,14.34,0,0,1,99.3,73a21,21,0,0,1,5.5-1.3,1.48,1.48,0,0,1,1.4,1.6h0a1.39,1.39,0,0,1-.7,1.2c-.7.5-1.6.8-2.3,1.4a10.71,10.71,0,0,0-1.8,1.9c-1,1.1-2.1,2-3.1,3.1a24.33,24.33,0,0,0-5,7.3A33,33,0,0,0,90.7,98a45.5,45.5,0,0,0-.4,5.2C90.3,105,91,106.65,90.8,108.45Z"/><path class="cls-3" d="M263.6,112.65c-.1,0-.1.1-.2.1a38.56,38.56,0,0,1,6.2,13.3c15.2,9.5,24.1,21.3,24.1,34.8,0,24.4-29.2,45.5-71.8,55.7-8.2,7-19.9,9.2-30.2,6.3-.9-.3-1.9-.6-2.8-.9-4.3.4-8.6.7-13,.9-10.9,10.3-28.9,11.2-42.8,6.2a36.1,36.1,0,0,1-15.2-10c-48.8-8.9-83.5-31.6-83.5-58.2,0-8.4,3.5-16.2,9.8-23.2a48.43,48.43,0,0,1-3.3-4.6,126.11,126.11,0,0,0-33.3,85.7C7.6,299,77.7,359,163.9,359s156.3-60,156.3-140.2C320.2,175,298.5,137.05,263.6,112.65Z"/><path class="cls-2" d="M73.9,145.45c1-1.1,2-2.2,3.1-3.2a39.56,39.56,0,0,1-4.5-1.5,27.4,27.4,0,0,1-9.6-6.9,25.28,25.28,0,0,1-5.3-10.6,18.24,18.24,0,0,1-.3-5.7,18.62,18.62,0,0,1,1.5-5.6,1.08,1.08,0,0,1,1.4-.2,1,1,0,0,1,.4.7,42.1,42.1,0,0,0,.4,5,27.46,27.46,0,0,0,1.4,4.9,19.87,19.87,0,0,0,5.2,7.6,22.75,22.75,0,0,0,8,4.9,27.2,27.2,0,0,0,4.9,1.3,23.21,23.21,0,0,1,3.8.7c.6-.3,1.1-.7,1.7-1a37.89,37.89,0,0,1,4.2-1.8c-7.6-6.1-14-13.7-17.8-22.8a44.52,44.52,0,0,1-2.9-23.1c-14.9-1.2-27.3,12-27,26.9C42.9,132,57.6,144.25,73.9,145.45Z"/><path class="cls-2" d="M196.2,216.75c9.1,1.6,18.8-1.6,24.5-9,5-6.5,7.1-16,3-23.5a29.19,29.19,0,0,0-14.8-12.9c.1.1.1.2.2.3a24.66,24.66,0,0,1,3.4,6.9,18.79,18.79,0,0,1,.5,8.8,21.17,21.17,0,0,1-3.3,7.7.93.93,0,0,1-1.7-.7c1.1-4.5.4-9.8-1.1-14.2a23.5,23.5,0,0,0-2.9-5.4c-.8-1.1-2-2.1-2.9-3.2a21.76,21.76,0,0,1-5.6,2.5,20.56,20.56,0,0,1-17.2-2.6c-5.5,8.7-6.8,19.5-2.5,29A28.44,28.44,0,0,0,196.2,216.75Z"/><path class="cls-2" d="M130.3,67c1,4.6,3,9.1,4.1,13.7.3,1.3,3.5,13.8,4,13.9a21.31,21.31,0,0,1,9.8,4.7c.3-8.1,3.2-16.3,9-22.1,6.6-6.6,16.1-8.9,25.1-7.2a22.26,22.26,0,0,1,4.4,1.3,56.51,56.51,0,0,0-2.4-30.2c-3.1-8.3-8.8-16.3-17.5-18.9A27.55,27.55,0,0,0,142.2,27c-7.9,6.2-12.2,15.6-13,25.5A54.31,54.31,0,0,0,130.3,67Zm10.8-15.2a34,34,0,0,1,4.4-7.9,21.16,21.16,0,0,1,9.3-6.3c2.4-.8,3.9-.7,4.5-.2,1,.9,0,3-2.5,4.9a24.84,24.84,0,0,0-3,2.5,39,39,0,0,0-5.2,6.9,36.62,36.62,0,0,0-4,8.2c-.7,1.9-.2,7.5-1.4,8.9-1.7,1.9-2.8-2-3.1-3.5C139.3,61.05,139.5,55.55,141.1,51.75Z"/><path class="cls-2" d="M194,28a19.17,19.17,0,0,1,10.3-8.5c3.8-1.2,8.9-1,12,1.7.9.8-.1,1.9-1,1.8a13.69,13.69,0,0,0-5.7,0,13.31,13.31,0,0,0-4.7,2.1,22.24,22.24,0,0,0-6.6,7.7,39.2,39.2,0,0,0-3.5,11c-.4,2.1-.5,4.1-.8,6.2a4.1,4.1,0,0,0-.1,1.1,52.87,52.87,0,0,1,.7,8c4.5-6,9.8-11.4,16.4-15.1a36.3,36.3,0,0,1,21.2-4.5,23.22,23.22,0,0,0,0-19.3,24.41,24.41,0,0,0-16.2-13c-14-3.7-28,4.5-34.1,17.1a45.54,45.54,0,0,1,8.1,13.1A35.51,35.51,0,0,1,194,28Z"/><path class="cls-2" d="M251.9,62.55c-1.6-8.9-8.5-14.7-17.1-16.3-19.5-3.8-33.5,13-41.6,28.5a27.85,27.85,0,0,1,9.6,11.6,31.19,31.19,0,0,1,2.4,17.8,15.7,15.7,0,0,1,4.8-.5,16.38,16.38,0,0,1,7.1,2.2c9.3-4.6,18.7-9.5,25.9-17.2C249.2,82,253.5,72,251.9,62.55Zm-8.8,13.9c-2.9,7.8-7.7,14.1-15.6,17.3-.8.3-3.1,1.7-3.5.4-.3-.9,2.1-2.7,2.6-3.3,4.2-4.6,8.2-9.7,10.2-15.7a31.28,31.28,0,0,0,1.9-10.9,14.91,14.91,0,0,0-.9-6.6c-.6-1.4-2.4-3.7-1-5.2s3.4.3,4.4,1.1c2.5,2.2,3.5,6.5,3.7,9.7a29.63,29.63,0,0,1-1.8,13.2Z"/><path class="cls-4" d="M94.6,67c-3.1.7-5.9,2.6-8.3,4.3-5.7,3.9-8.5,10.5-9.5,16.9a36.52,36.52,0,0,0,7.5,29.2,5,5,0,0,0,1.5,1.4c2.4,1.2,3.2-1.5,2.7-3.1-1-3.3-3.1-6.3-4.1-9.7-2.2-7.4-2.6-14.6.2-22a29.63,29.63,0,0,1,5.5-9.2,31.29,31.29,0,0,1,8.2-6.7c.4-.3.9-.8.6-1.1-.1-.2-.4-.2-.6-.2A7.75,7.75,0,0,0,94.6,67Z"/><path class="cls-4" d="M157.2,23.45a18.51,18.51,0,0,0-4.1.7c-4.8,1-8.5,3.8-11.8,7.3-3.9,4.2-6.3,9.5-8,14.8-2.8,8.9-1.9,19,.6,27.8.9,3,2.2,6.1,4.7,8.1a1,1,0,0,0,1.4.1,1.13,1.13,0,0,0,.3-1.1c-.5-2.7-1.4-5.1-1.6-7.8s-.6-5.2-.7-7.8a48.05,48.05,0,0,1,1.8-16A49.47,49.47,0,0,1,146.1,36c3-4.4,6.5-7.5,11.6-8.9a1.91,1.91,0,0,0,1.3-2.2,1.37,1.37,0,0,0-.5-.8A2.23,2.23,0,0,0,157.2,23.45Z"/><path class="cls-4" d="M144.7,103.55c-3.2-4.5-13-3.6-17-1a20,20,0,0,0-8.7,18.5,23.31,23.31,0,0,0,3.4,10.2c1.6,2.6,3.4,5.3,6.4,6.4,1.3.5,3.7,1.2,4-.4s-2-4-2.8-5.2c-5.8-8.7-6.3-27.9,8.3-27.7,1.9,0,3.5,1,5.3,1.1a1.24,1.24,0,0,0,1.3-1.2h0A1.85,1.85,0,0,0,144.7,103.55Z"/><path class="cls-4" d="M199,99.65a26.25,26.25,0,0,0-1.5-8.8,24.3,24.3,0,0,0-7-10.3A19.5,19.5,0,0,0,179,76a25.66,25.66,0,0,0-9.5,1.6c-6.4,2.2-12.7,7.5-12.2,14.9a1.61,1.61,0,0,0,.3.9.79.79,0,0,0,1.1-.1,2.07,2.07,0,0,0,.6-1c1.6-3.6,4.4-7.1,8.1-8.6a18.77,18.77,0,0,1,13-.7c10.5,3.4,16.4,17.3,12.5,27.5a1.06,1.06,0,0,0-.1.8.88.88,0,0,0,1,.5,2.07,2.07,0,0,0,1-.6A17.89,17.89,0,0,0,199,99.65Z"/><path class="cls-4" d="M214.8,121.05a7.89,7.89,0,0,0-6.5-8.1,8.78,8.78,0,0,0-2.8.1c-.9.3-3.5,2.1-1.7,3a3.72,3.72,0,0,0,1.8.2c4-.1,5.8,5.6,6.5,8.7a2.22,2.22,0,0,0,.5,1.1c.9.7,1.5-1.1,1.7-1.6a6.53,6.53,0,0,0,.5-2c0-.2.1-.5.1-.7v-.3C214.7,121.65,214.7,121.65,214.8,121.05Z"/><path class="cls-4" d="M165.4,151.65c-3.6-2.2-7.2-4.3-11.3-5.4-2.9-.7-19.1-3.1-18,3.4.2,1.5,5.3.6,6.2.6,10.4-.9,19.5,3.8,27.9,9.3a3.69,3.69,0,0,0,1.4.7c3.4.8-.2-4-.8-4.6A21,21,0,0,0,165.4,151.65Z"/><path class="cls-4" d="M134.3,175.45a49.92,49.92,0,0,1-41.2,3.3c-12.1-4.4-16.3-18.4-10-29.4a1.17,1.17,0,0,0-.5-1.6h0a1.06,1.06,0,0,0-1.3.2c-9.3,10.5-5.5,29,6.4,35.6,7.3,4.1,16.4,5.2,24.9,4.2,8.7-1.1,17.4-2.4,25.2-6.4C141.7,179.25,138.1,173.25,134.3,175.45Z"/><path class="cls-4" d="M165.4,211.65c-8.5,5.1-18.2,4.8-27.1,1-2.3-1-6.9-5.7-9.4-4.2-1.7.9-.5,3.9.5,5a18.62,18.62,0,0,0,6.6,5.2,24.25,24.25,0,0,0,11.9,2.1,39.2,39.2,0,0,0,11.2-2.3c2.7-1,6.3-2.5,7.8-5.1C167.3,212.25,166.4,211,165.4,211.65Z"/><path class="cls-4" d="M263.9,134a30.48,30.48,0,0,0-1.7-8.9,15.12,15.12,0,0,0-3.7-6.2c-1.2-1.2-4.4-3.4-6.1-2.4a.91.91,0,0,0,.3.7c13.3,16.6-1.6,38.2-18,44.5a40.28,40.28,0,0,1-10.3,2.2c-3.3.4-5.5-.8-8.8-1-2.8-.2-.7,2.4.2,3.1,2.7,2,5.8,2.5,9,2.9a26.63,26.63,0,0,0,11.9-1.1,48.7,48.7,0,0,0,18.6-12.4A30,30,0,0,0,263.9,134Z"/><path class="cls-4" d="M222.7,185a15.7,15.7,0,0,0-3.1-4.5A4.61,4.61,0,0,0,217,179a2,2,0,0,0-2.2,1.6v.1c0,2,1.2,4.8,1.7,6.8a34.7,34.7,0,0,1,1.5,7.8,27.32,27.32,0,0,1-5.6,16.7c-.6.7.5,1.5,1.2,1.2,6-3.1,9.3-9.4,10.2-15.9C224.5,193,224.4,188.75,222.7,185Z"/><path class="cls-4" d="M253.9,185a2.47,2.47,0,0,0-2.2-.5c-2.2.3-3.7,2.6-5.7,3.4a12.28,12.28,0,0,1-13.4-2.3c-.9-.7-2.2-.1-1.8.8a14.91,14.91,0,0,0,3.9,4.4,17.1,17.1,0,0,0,6.4,3c4.7.8,9.9-.3,12.3-4.6C254.3,188,254.8,186,253.9,185Z"/><path class="cls-4" d="M248.3,56.35a17.09,17.09,0,0,0-7.2-6.9,10.44,10.44,0,0,0-6.7-1.3c-.1,0-.2,0-.2.1-.2.1-.2.5-.1.7a1.79,1.79,0,0,0,.7.5c5,2.1,7.9,3.6,9.3,9.2,1.6,6.5.2,13.6-2.5,19.6a36.6,36.6,0,0,1-9.8,12.9,62.62,62.62,0,0,1-6.6,4.9c-2.3,1.4-4.7,2.5-6.7,4.4-1,1-.2,2.3,1,2.5,1.7.3,4.8-1.4,6.2-2.2,8.9-5.2,18.5-12.4,22.3-22.2a33,33,0,0,0,2.1-17.3A20.52,20.52,0,0,0,248.3,56.35Z"/><path class="cls-4" d="M195.9,145.45a10.39,10.39,0,0,0-5.5-4.4,10.15,10.15,0,0,0-7.8,1.1,11.19,11.19,0,0,0-4.8,5.7,20.21,20.21,0,0,0-.6,3.4,6.9,6.9,0,0,0,.3,3.5.78.78,0,0,0,.9.6.76.76,0,0,0,.6-.8c.1-1.8.3-3.8,1.6-5.2a17,17,0,0,1,1.9-1.9,8,8,0,0,1,1.9-1.3,23.35,23.35,0,0,1,2.5-.7,30.17,30.17,0,0,1,5.2.2,11.42,11.42,0,0,1,2.6.9C195.5,147,196.4,146.25,195.9,145.45Z"/><path class="cls-4" d="M166.2,115a8.06,8.06,0,0,0-3.2-3.4,9.58,9.58,0,0,0-4.9-1.4,15.69,15.69,0,0,0-9.4,2.5,15.22,15.22,0,0,0-6.1,8c-1.1,3.1-.7,6.5.1,9.6.2.7,1.4.6,1.3-.2a15.4,15.4,0,0,1,2-7.6,15.36,15.36,0,0,1,4.7-6,11.29,11.29,0,0,1,6.9-1.9,10.3,10.3,0,0,1,3.5.6,11.63,11.63,0,0,1,1.8.4,10.66,10.66,0,0,0,1.9.7,1.16,1.16,0,0,0,1.4-.6h0V115Z"/><path class="cls-5" d="M150.3,352.05c-.3-5.3-.8-10.2-3.6-14.9a23.4,23.4,0,0,0-11.6-9.9,30,30,0,0,0-8.4-1.3,28.3,28.3,0,0,0-16.5,4.4,21.91,21.91,0,0,0-9.6,16.8,177.26,177.26,0,0,0,49.3,11.1A31.8,31.8,0,0,0,150.3,352.05Z"/><path class="cls-5" d="M51.3,317a15.94,15.94,0,0,0,3-.6c4.3-1.6,7.2-6,8-10.5s-.3-9.2-2-13.5c-2-5.1-5-10-9.4-13.4s-10.1-5.2-15.5-4c-6.2,1.4-9.6,4.4-11,8.1A135.91,135.91,0,0,0,51.3,317Z"/><path class="cls-5" d="M74.4,226c5.4,3.3,14.1,2.9,18.3-.6,4.5-3.7,4.4-8.1,2.2-11.6a180.66,180.66,0,0,1-17.4-6.3c-1.4-.6-5,3.9-5.6,4.8a10.72,10.72,0,0,0-2,7.1A9.17,9.17,0,0,0,74.4,226Z"/><path class="cls-5" d="M317.2,191.25a12.6,12.6,0,0,0-6.1-.1c-14.5,3.2-13.6,27.4,2.5,22.6a12.06,12.06,0,0,0,6.2-4.4A123.32,123.32,0,0,0,317.2,191.25Z"/><path class="cls-5" d="M267.2,325a13,13,0,0,0-3.7-8.4c-3.3-3.2-7.5-3.5-9.8-3.5a21.24,21.24,0,0,0-8.3,1.7,12.46,12.46,0,0,0-7.2,8.4,2,2,0,0,0-.1.7,14.08,14.08,0,0,0,.9,7.2,20,20,0,0,0,2.2,3.7,18.37,18.37,0,0,0,4.3,4.2,126.44,126.44,0,0,0,11.7-6.9C260.8,329.75,264.2,327.25,267.2,325Z"/><path class="cls-5" d="M249.1,231c7.7.7,16.2-1.5,20-6.8a11,11,0,0,0,1.4-10.7c-.8-2.6-2-6.3-5.5-8.8a15.41,15.41,0,0,0-4.6-2.1c-3.6,1.9-7.7,3.8-12.1,5.6-4.9,2-9.6,3.7-13.9,5a8.72,8.72,0,0,0-.9,1.7c-1,3,.2,5.8.7,7a14,14,0,0,0,2.6,3.9C239.6,228.75,244.2,230.45,249.1,231Z"/><path class="cls-5" d="M190.7,341.45a13.06,13.06,0,0,0,4.8,1.2,14,14,0,0,0,12.4-7.4c4.4-8.6-4.8-19.1-15.8-15.7C181.5,322.65,181,337,190.7,341.45Z"/><path class="cls-5" d="M24.3,194.65a8.06,8.06,0,0,0,9.7-3.5,8.76,8.76,0,0,0,.7-3.2,8.15,8.15,0,0,0-.6-3.1,7.76,7.76,0,0,0-7.1-4.3C19,180.65,17.3,191.85,24.3,194.65Z"/><path class="cls-5" d="M293.9,255.75a10.1,10.1,0,0,0,3.8,1.3c4.1.3,8-3.3,9.7-7.5,3.5-8.8-3.8-19.5-12.3-16C286.7,236.75,286.3,251.25,293.9,255.75Z"/><path class="cls-5" d="M20.3,239.45a9.52,9.52,0,0,0,4.2,1.4c4.6.3,8.9-3.6,10.8-8.2,3.9-9.6-4.2-21.3-13.8-17.5C12.2,218.55,11.8,234.55,20.3,239.45Z"/><path class="cls-5" d="M73.05,293.8a6.61,6.61,0,0,1,.24-1.73,1.08,1.08,0,0,1,1.15-.89,11.71,11.71,0,0,1,2.36.58c1.27.38,2.64.82,4.12,1.31s2.93.94,4.35,1.36a22.36,22.36,0,0,0,3,.73h.46a21.39,21.39,0,0,0,8.24-1.73,25.54,25.54,0,0,0,7.59-4.87,26.52,26.52,0,0,0,5.6-7.27,18.94,18.94,0,0,0,2.17-9A21.76,21.76,0,0,0,111,265a33.75,33.75,0,0,0-3.47-7,35.31,35.31,0,0,0-5.09-6.18,49.87,49.87,0,0,0-6.16-5.08,46,46,0,0,0-6.57-3.82,28.5,28.5,0,0,0-6.38-2.2,95.16,95.16,0,0,0,1,12.67q.87,6,1.76,11.46t1.34,10.73a49.52,49.52,0,0,1,0,10.47v1.31a4.27,4.27,0,0,1-.23,1.36,2.39,2.39,0,0,1-.74,1.1,1.91,1.91,0,0,1-1.25.42,1.33,1.33,0,0,1-2.13-.63,13.9,13.9,0,0,1-1.11-4.45,70,70,0,0,1-.46-7.06c-.07-2.73-.17-5.57-.33-8.54s-.35-5.87-.6-8.74a56.93,56.93,0,0,0-1.2-7.85c-.13-.84-.28-1.92-.47-3.24s-.43-2.71-.74-4.14a40.08,40.08,0,0,0-1.06-4,9.29,9.29,0,0,0-1.25-2.67,95.83,95.83,0,0,0-10.64.47,47.77,47.77,0,0,0-6.34,1.1,13,13,0,0,0-3.43,1.31,21.11,21.11,0,0,1-1.89,1.1l-.19.11a.63.63,0,0,1-.28.1c-.12,0-.18,0-.18-.1a.27.27,0,0,0-.19-.11,1.22,1.22,0,0,1-.18-.42l-.23-.78c-.1-.32-.19-.65-.28-1a3.59,3.59,0,0,1-.14-.73v-.42a3.12,3.12,0,0,1,1.34-2.51,12.44,12.44,0,0,1,3.33-1.78,28,28,0,0,1,4.4-1.2c1.6-.32,3.1-.54,4.49-.68l3.52-.37c1-.11,1.46-.16,1.52-.16a45.79,45.79,0,0,1,10.09,1.21,57.71,57.71,0,0,1,10.6,3.5,56.54,56.54,0,0,1,10,5.71,44.37,44.37,0,0,1,8.42,7.8,36.59,36.59,0,0,1,5.84,9.84,31.47,31.47,0,0,1,2.17,11.72A32,32,0,0,1,116,283a26,26,0,0,1-10.83,13.87,27.71,27.71,0,0,1-7.87,3.45,33.49,33.49,0,0,1-8.56,1.1,31.9,31.9,0,0,1-8.56-1.15c-.55-.21-1.23-.51-2-.89a22,22,0,0,1-2.36-1.31,6.91,6.91,0,0,1-1.94-1.83A4.15,4.15,0,0,1,73.05,293.8Z"/><path class="cls-5" d="M122,272.23a37.24,37.24,0,0,1,1.44-10.41,27.74,27.74,0,0,1,4.16-8.74,20.94,20.94,0,0,1,6.67-6,18,18,0,0,1,9.11-2.25,12.62,12.62,0,0,1,9,5.49,14.92,14.92,0,0,1,2.08,5,29.42,29.42,0,0,1,.55,5.87,12.3,12.3,0,0,1-1.94,6.8A17.61,17.61,0,0,1,148.2,273a24.14,24.14,0,0,1-6.38,3.14,21,21,0,0,1-6.39,1.1h-2.26a5,5,0,0,1-2.09-.42,3.48,3.48,0,0,1-1.48-1.26,4.56,4.56,0,0,1-.55-2.51,2.38,2.38,0,0,1,.14-.89,1,1,0,0,1,.78-.52,6.49,6.49,0,0,1,1.95-.05c.86.14,2,.34,3.51.62a11,11,0,0,0,3.75-1,33,33,0,0,0,5-2.57,19.83,19.83,0,0,0,4.39-3.61,6.06,6.06,0,0,0,1.86-4,14.6,14.6,0,0,0-.61-4.13,10.92,10.92,0,0,0-1.8-3.61,9.63,9.63,0,0,0-2.82-2.52,6,6,0,0,0-3.66-.73,13.16,13.16,0,0,0-5.88,2,15.67,15.67,0,0,0-4.48,4.34,21.38,21.38,0,0,0-2.87,5.92,22.53,22.53,0,0,0-1,6.8c0,1.82,0,3.63.09,5.45a28.09,28.09,0,0,0,.69,5.34,19.15,19.15,0,0,0,2,5,13,13,0,0,0,3.89,4.24,22.37,22.37,0,0,0,6.43,3,40.7,40.7,0,0,0,9.62,1.51l16.57-1.25a12.6,12.6,0,0,1-3.75,3.77,22.8,22.8,0,0,1-4.81,2.35,30.07,30.07,0,0,1-5.05,1.31,28.39,28.39,0,0,1-4.72.42,25.61,25.61,0,0,1-24.1-16.38A31.08,31.08,0,0,1,122,272.23Z"/><path class="cls-5" d="M173.75,297.25c0-.14,0-.5.09-1.1s.15-1.23.28-1.93.21-1.35.28-1.94.09-1,.09-1.1v-1.1c0-.59,0-1.27,0-2s.05-1.57.05-2.41v-3.56c0-.69,0-1.41-.05-2.14s0-1.36,0-1.89v-.89c-.19-3.21-.54-6.61-1.07-10.2s-1.08-7.17-1.66-10.73-1.14-7.05-1.67-10.47-.91-6.56-1.15-9.42c.55-1.68,1.15-2.25,1.8-1.73a8.75,8.75,0,0,1,2,3.72,74.28,74.28,0,0,1,2,7.27c.67,2.9,1.28,5.85,1.8,8.85s1,5.82,1.44,8.48.67,4.71.92,6.17a.91.91,0,0,0,.7.21h.69a4.72,4.72,0,0,0,3.24-1.25,16.2,16.2,0,0,0,2.64-3.2q1.25-1.94,2.45-4.18a42.38,42.38,0,0,1,2.5-4.14,15.33,15.33,0,0,1,2.87-3.19,5.5,5.5,0,0,1,3.61-1.31c.86,0,1.38.3,1.57.89a5.31,5.31,0,0,1,.18,2,36.59,36.59,0,0,0-3,3q-1.66,1.88-3.56,4.08c-1.27,1.46-2.53,3-3.79,4.6s-2.38,3.16-3.34,4.66a38.37,38.37,0,0,0-2.4,4.35,8.92,8.92,0,0,0-1,3.66,7,7,0,0,0,1.34,4.19,15.51,15.51,0,0,0,3.42,3.45,21.75,21.75,0,0,0,4.68,2.67,50.53,50.53,0,0,0,5.18,1.89,44.56,44.56,0,0,0,4.9,1.2,20.65,20.65,0,0,0,3.71.42,1.13,1.13,0,0,1,.92,1.05,14.74,14.74,0,0,1,.09,1.57,2.82,2.82,0,0,1-.88,2.3,5.22,5.22,0,0,1-2.12,1.05,10.64,10.64,0,0,1-2.6.31h-2.26a10,10,0,0,1-4.68-1.46,58,58,0,0,1-5.09-3.2c-1.63-1.15-3.07-2.21-4.3-3.19a5.74,5.74,0,0,0-2.59-1.47,2,2,0,0,0-2,1.63,17.78,17.78,0,0,0-.7,3.5,22.49,22.49,0,0,1-.6,3.51q-.42,1.62-1.8,1.62a3.67,3.67,0,0,1-2.22-.73A2.76,2.76,0,0,1,173.75,297.25Z"/><path class="cls-5" d="M212,297.25c0-.14,0-.5.09-1.1s.16-1.23.28-1.93.22-1.35.28-1.94.09-1,.09-1.1v-1.1c0-.59,0-1.27,0-2s0-1.57,0-2.41v-3.56c0-.69,0-1.41,0-2.14s0-1.36,0-1.89v-.89c-.18-3.21-.54-6.61-1.06-10.2s-1.08-7.17-1.67-10.73-1.14-7.05-1.66-10.47-.92-6.56-1.16-9.42c.55-1.68,1.16-2.25,1.8-1.73a8.75,8.75,0,0,1,2,3.72,74.28,74.28,0,0,1,2,7.27q1,4.35,1.8,8.85c.53,3,1,5.82,1.44,8.48s.68,4.71.92,6.17a.93.93,0,0,0,.7.21h.69a4.69,4.69,0,0,0,3.24-1.25,15.54,15.54,0,0,0,2.64-3.2q1.25-1.94,2.45-4.18a44.44,44.44,0,0,1,2.5-4.14,15.33,15.33,0,0,1,2.87-3.19,5.5,5.5,0,0,1,3.61-1.31c.86,0,1.39.3,1.57.89a5.3,5.3,0,0,1,.19,2,35.06,35.06,0,0,0-3,3q-1.67,1.88-3.57,4.08c-1.26,1.46-2.53,3-3.79,4.6a55.64,55.64,0,0,0-3.33,4.66,37,37,0,0,0-2.41,4.35,8.92,8.92,0,0,0-1,3.66,7.09,7.09,0,0,0,1.34,4.19,15.72,15.72,0,0,0,3.42,3.45,21.75,21.75,0,0,0,4.68,2.67,50.53,50.53,0,0,0,5.18,1.89,44.71,44.71,0,0,0,4.91,1.2,20.55,20.55,0,0,0,3.7.42,1.13,1.13,0,0,1,.92,1.05,14.88,14.88,0,0,1,.1,1.57,2.86,2.86,0,0,1-.88,2.3,5.32,5.32,0,0,1-2.13,1.05,10.56,10.56,0,0,1-2.59.31H237a9.91,9.91,0,0,1-4.67-1.46,56.58,56.58,0,0,1-5.09-3.2c-1.64-1.15-3.07-2.21-4.31-3.19a5.69,5.69,0,0,0-2.59-1.47,2,2,0,0,0-2,1.63,17.09,17.09,0,0,0-.69,3.5,25.12,25.12,0,0,1-.6,3.51c-.28,1.08-.88,1.62-1.81,1.62a3.71,3.71,0,0,1-2.22-.73A2.76,2.76,0,0,1,212,297.25Z"/><path class="cls-5" d="M247.32,278.93a21.64,21.64,0,0,1,2.23-10.05,22.51,22.51,0,0,1,5.83-7.22,24.2,24.2,0,0,1,8.1-4.34,29.64,29.64,0,0,1,9-1.42,10.21,10.21,0,0,1,4.49,1,16.48,16.48,0,0,1,4,2.72,21.1,21.1,0,0,1,3.38,4,32.9,32.9,0,0,1,2.54,4.65,26.5,26.5,0,0,1,1.62,4.87,21.67,21.67,0,0,1,.56,4.77,23.2,23.2,0,0,1-1.86,9.52,21,21,0,0,1-5,7.07,22.38,22.38,0,0,1-7.13,4.4,22.7,22.7,0,0,1-8.14,1.51,19.75,19.75,0,0,1-7.82-1.51,18.27,18.27,0,0,1-10.32-11A25.69,25.69,0,0,1,247.32,278.93Zm4.54-.83a18.31,18.31,0,0,0,1.06,6.22,16.15,16.15,0,0,0,3,5.19,14.46,14.46,0,0,0,4.49,3.5,12,12,0,0,0,5.55,1.31,8.6,8.6,0,0,0,3.84-.57,19.81,19.81,0,0,0,4.53-2.31,26.24,26.24,0,0,0,4.35-3.66,21.05,21.05,0,0,0,3.47-4.71,14.73,14.73,0,0,0,1.72-5.34,11,11,0,0,0-.84-5.55,14.35,14.35,0,0,0-4.21-5.34,31.71,31.71,0,0,0-8.42-4.76,21.92,21.92,0,0,0-6.34,1,19.46,19.46,0,0,0-6,3,16.3,16.3,0,0,0-4.44,5A13.78,13.78,0,0,0,251.86,278.1Z"/></g></g></g></svg>