<?xml version="1.0" encoding="utf-8"?>
<!-- Generator: Adobe Illustrator 25.2.1, SVG Export Plug-In . SVG Version: 6.00 Build 0)  -->
<svg version="1.1" id="Layer_1" xmlns="http://www.w3.org/2000/svg" xmlns:xlink="http://www.w3.org/1999/xlink" x="0px" y="0px"
	 viewBox="0 0 142.1 223.6" style="enable-background:new 0 0 142.1 223.6;" xml:space="preserve">
<style type="text/css">
	.st0{fill:#545479;}
	.st1{fill:#89B59F;}
	.st2{fill:#003E36;}
</style>
<g id="Layer_2_1_">
	<g id="Layer_1-2">
		<path class="st0" d="M25.5,200.9c-0.1-3,0-6.1,0.3-9.1c0.1-0.9,0.7-1.8,1.5-2.2c2-1.1,3.8-2.6,5.2-4.5c2-2.5,3.1-5.5,3.4-8.6
			c0.3-3.7,0.2-7.4-0.4-11c-0.6-3.7-2.6-7-5.5-9.3c-0.3-0.3-0.7-0.6-1.1-0.9c-3.2-1.6-3.8-4.3-3.8-7.5c0-5-0.2-9.9-0.5-14.9
			c-0.4-3.4,0.7-6.7,2.9-9.3c0.5-0.5,0.8-1.2,1.3-1.7c2.5-2.9,3.7-6.6,3.4-10.4v-1.7c-0.1-1.1,0.6-2,1.7-2.2
			c2.3-0.6,4.7-1.1,7.1-1.3c3.7-0.3,7.5-0.9,11.2-1.4c0.6-0.1,1.3-0.1,1.9-0.2c1.8-0.1,2,0.1,2.3,1.9c0.2,1.5,0.4,3,0.8,4.5
			c1.4,5.3,5,8.4,10.5,9c9.2,0.8,17.9-4.3,21.7-12.7c1.4-3.3,1.4-3.2,5.1-2.9s7.2,0.5,10.8,0.7c2.6,0.2,2.9,0.6,2.6,3.3
			c-0.8,7,0.2,13.7,4.4,19.6c1.6,2.2,3.7,4,6.2,5.2c2.5,1.3,2.6,1.5,2.2,4.3c-0.4,3-0.8,6-1.1,9c-0.1,1.1-0.5,1.8-1.7,1.9
			c-6.4,0.2-10.2,4-12.3,9.4c-3.4,8.6-1.9,16.6,3.9,23.8c0.6,0.8,1.4,1.5,2.1,2.3c1.6,1.6,2.1,3.9,1.5,6c-1.2,4.4-2.2,8.8-3.4,13.2
			c-0.6,2.3-1.2,4.6-1.8,7c-0.8,2.8-2.7,5.2-5.4,6.4c-3.9,1.8-8.1,3-12.4,3.3c-1.8,0.2-3.5,0.4-5.3,0.4c-2.2,0-2.6-0.4-2.8-2.6
			c-0.1-1.6-0.4-3.2-0.9-4.7c-1.5-4.6-5.2-6.8-9.9-5.9c-4.3,0.9-7.5,3.2-8.5,7.7c-0.4,1.8-0.8,3.6-1.1,5.4c-0.2,1.2-0.8,1.5-1.9,1.6
			c-8.4,0.7-16.8,0.6-25.1-0.3c-0.8-0.1-1.6-0.1-2.4-0.1c-3.1-0.1-4-0.9-5-3.9c-1-3.2-1.6-6.5-1.7-9.9
			C25.4,205.4,25.5,203.2,25.5,200.9z M87.3,167.9c0.1-5.2-1.4-10.2-4.5-14.4c-2.9-4-8.2-5.3-12.6-3c-0.7,0.3-1.3,0.6-1.9,1
			c-6,3.7-9.9,9.9-10.6,16.9c-0.8,6.7,1.3,12.5,6.7,16.8c3.6,2.9,7.4,3.4,11.3,1.1C83.1,182,86.9,175.4,87.3,167.9z M57.2,136.3
			c0-5.4-1.2-9.2-4-12.5c-2.1-2.7-5.4-4.1-8.7-3.7c-3.8,0.4-7.3,2.1-9.8,5c-6.9,7.9-5,19.3,1.1,25.2c3.6,3.9,9.7,4.1,13.6,0.6
			C54,147.4,56.8,142.1,57.2,136.3L57.2,136.3z M57.8,199.1c0.1-6.7-3.3-11.4-9.7-13.4c-1.5-0.5-3-0.7-4.5-0.8
			c-5.3-0.4-10.1,3.1-11.3,8.3c-1.2,4.7-0.4,9.2,1.5,13.6c3.6,8.2,15,7.8,19.3,3.7C56.2,207.5,57.9,203.4,57.8,199.1L57.8,199.1z
			 M82.5,134c-0.2,4.3,1.5,8.5,4.6,11.4c2.4,2.7,6.1,3.9,9.6,3.2c4.9-0.9,8.7-4.6,9.8-9.4c1.8-6.3,0.2-12.2-3.7-17.4
			c-2.7-3.5-6.3-4.4-10.5-3C86.2,120.7,82.3,126.6,82.5,134z M81.9,197.9c0.1,1,0,2.1,0.2,3.1c0.4,3.9,2.2,7.6,5.1,10.3
			c5.3,4.8,11.9,3.7,15.6-2.4c2.3-3.8,3.4-8.2,2.9-12.6c-0.4-4.4-2.8-8.3-6.6-10.5c-5.1-3.2-11.9-1.5-15,3.6c-0.3,0.5-0.6,1-0.8,1.5
			C82.3,193.1,81.8,195.5,81.9,197.9z"/>
		<g>
			<path class="st1" d="M18.6,11.6c2.1,1.4,3.1,3.4,4.1,5.3c3.1,6.1,5.4,12.6,7,19.3c1.8,8,2.8,16.2,3.9,24.4s2.1,16.3,3.1,24.5
				c0.7,5.5,1.4,10.9,2.1,16.4c0.1,0.4,0.1,0.8,0.1,1.2c0,1.6-0.2,1.9-1.9,2c-4.8,0.2-3.9,0.7-5.7-3.3c-4.2-9.2-8.3-18.3-12.5-27.5
				c-2.1-4.2-3.4-8.8-3.8-13.5c-0.1-2.2,0.1-4.3,0.2-6.5c0.2-6.1,0.4-12.1,0.6-18.2c0.1-7.2,0.8-14.4,1.9-21.5
				C17.7,13.3,18,12.4,18.6,11.6z"/>
			<path class="st1" d="M104.3,99.1c-0.1-0.8-0.1-1.6,0-2.4c0.5-4.1,0.3-8.3-0.4-12.4c-0.9-6-1.2-11.9,0.3-17.9
				c1-3.6,2.1-7.2,3.5-10.7c1.7-4.3,2.8-8.8,3.5-13.4c0.5-3.5,1.9-6.8,4.2-9.5c2.1-2.6,4.6-4.9,6.5-7.7c0.2-0.3,0.5-0.6,0.9-0.8
				c1.1-0.7,1.8-0.6,2.2,0.7c1.4,4.6,3,9.1,3.7,13.9c1.2,8.7-1.3,16.8-4.4,24.7c-0.5,1.1-1.1,2.1-1.8,3.1
				c-4.8,8.1-9.4,16.3-10.8,25.9c-0.3,2.7-0.3,5.4-0.1,8.1c0,2.8,0.1,2.8-2.8,2.4c-0.9-0.1-1.7-0.2-2.6-0.3c-1.3,0-1.7-0.6-1.6-1.8
				C104.5,100.3,104.4,99.6,104.3,99.1z"/>
			<path class="st1" d="M105.5,3.2c0.6,1.1,0.7,2.4,0.5,3.7c-0.4,6.7,0.5,13.5,2.4,19.9c2.2,7.7,1.5,15.2-0.7,22.7
				c-1.3,4.4-2.8,8.7-4.4,12.9c-1.3,3.5-2.2,7.2-2.4,10.9c0,0.6-0.1,1.3-0.3,1.9c-2.4,7.4-2.4,15.3-3.6,22.9c-0.1,0.9,0,1.7,0.1,2.6
				c0.1,0.7,0.2,1.5-0.8,1.6s-2,0.3-2.5-0.9c-0.1-0.2-0.1-0.5-0.2-0.7c-0.7-4.2-1.9-8.3-2.9-12.4c-1.4-6-0.5-11.7,1.6-17.4
				c2.5-6.4,3.5-13.2,3.1-20c-0.3-3.7-1-7.4-2.1-11c-0.7-3.1-1.5-6.2-2-9.4c-0.3-1.8-0.2-3.7,0.4-5.4c1-3.3,2.6-6.4,4.6-9.2
				c2.9-3.7,5.6-7.6,7.9-11.7C104.5,3.7,105,3.3,105.5,3.2z"/>
			<path class="st1" d="M87.6,25c0.9,1,1.4,2.2,1.6,3.5c1.9,8.2,3.9,16.5,4.1,25c0.2,5.2-0.5,10.4-2.3,15.3
				c-3.7,9.2-4.2,18.8-4.3,28.5c0.1,1,0.1,1.9,0,2.9c-0.2,1.6-1,2.2-2.6,2.1c-1.8,0-3.5-1.1-4.2-2.7c-2.6-5.2-4.5-10.8-5.6-16.5
				C71.8,70.3,73.5,58,78.2,46c2.6-6.5,5.3-12.9,8.3-19.1C86.9,26.2,87.3,25.6,87.6,25z"/>
			<path class="st1" d="M40.5,96.2c-1-4.3-1.4-8.6-2-12.8s-1.1-8.4-1.7-12.6c-0.6-3.4-0.2-6.9,0.9-10.1c2.3-6.1,4.3-12.4,6.5-18.5
				c2-5,4.5-9.8,7.5-14.4c3.6-5.9,7.3-11.7,10.9-17.5c0.2-0.3,0.4-0.7,1-0.7c0.4,0.6,0.5,1.3,0.4,2c-0.1,3.3-0.2,6.6-0.2,9.8
				c-0.1,5.3-1.2,10.5-3.1,15.4C60.4,37.6,60,38.2,59,38c-0.7-0.1-1.2,0.4-1.4,1c-3.5,10.4-8.8,20-11.4,30.7
				c-0.9,3.3-1.2,6.6-1.1,10c0.3,5.5-1.5,10.5-3.5,15.5C41.5,95.7,41.1,96.1,40.5,96.2z"/>
			<path class="st1" d="M79.8,15.5c0.1,0.2,0.3,0.3,0.3,0.5c0.1,6,0.8,11.9,0.1,17.9c-0.2,1.8-0.8,3.6-1.8,5.2
				c-3.3,5.7-5,11.9-6.5,18.2S71,70.2,71.2,76.6c0,2.7,0.3,5.5,1,8.1c0.3,0.7,0.1,1.5-0.5,2c-1.8,1.8-2.5,4-3.3,6.3
				c-0.5,1.4-1,2.7-1.5,4c-0.6,1.2-0.8,2.4-0.8,3.7c0.1,1.1-0.2,1.9-1.5,2c-1.5,0.1-2.2-0.2-2.5-1.6c-0.8-4.1-1.2-8.2-1.4-12.4
				c0.1-1.6,0.5-3.2,1.2-4.6c2.5-6.8,4-14,4.2-21.3c0.1-4-0.5-8-1.8-11.8c-1-2.7-0.9-5.7,0.2-8.4c1.3-3.3,2.9-6.4,4.8-9.4
				c3.3-5.6,6.8-11,9.4-17C78.9,15.8,79.3,15.5,79.8,15.5z"/>
			<path class="st1" d="M59.3,42.3c1.5,2.8,2.7,5.8,3.5,8.9c2.6,9.1,1.8,18-1,26.9c-2.4,7.7-5.6,15.1-7.8,22.9
				c-0.2,0.5-0.5,1-0.8,1.5c-0.6,1-1.8,1.3-2.7,0.7c-0.3-0.2-0.6-0.5-0.8-0.8c-0.4-0.6-0.6-1.3-0.8-2c-1-4.9-1.6-10-1.9-15
				c-0.3-7.5,1.3-14.7,3.7-21.8c2.4-6.9,5.4-13.6,8-20.5C58.9,42.8,59.1,42.6,59.3,42.3z"/>
			<path class="st1" d="M26.6,106.7c-1.6-0.1-3.3-0.5-4.7-1.3c-4.2-2.2-7.8-5.4-10.4-9.4c-3.4-5.2-5.6-11-6.6-17.1
				C3.8,72.7,3.5,66.4,3,60.1c-0.1-0.9-0.3-2,0.9-2.5c1-0.4,2.1-0.1,2.8,0.7c1,1,1.6,2.2,2.6,3.1c3.3,3,4.9,7,6.7,10.9
				c3.8,8.6,7.6,17.2,11.5,25.8c0.6,1.3,1.3,2.6,2,3.8c1.4,2.4,0.7,4.1-2.1,4.6C27.2,106.6,26.9,106.7,26.6,106.7z"/>
			<path class="st1" d="M140.2,60.8c-0.8,5.7-1.7,11.3-4.1,16.5c-1.1,2.2-2.6,4.2-4.5,5.8c-3.3,3.2-6.6,6.5-9.9,9.8
				c-2.8,2.8-5.4,5.7-6.9,9.4c-0.1,0.4-0.3,0.8-0.8,0.8c-0.7,0-0.6-0.6-0.7-1.1c-0.4-6.2,0.2-12.2,3-17.7c2.1-4.2,5-7.9,8.6-10.9
				c4.6-4,9.5-7.6,13.7-12C139,60.9,139.6,60.7,140.2,60.8z"/>
		</g>
		<g>
			<path class="st2" d="M87.3,167.9c-0.4,7.5-4.2,14.1-11.6,18.4c-3.9,2.3-7.7,1.9-11.3-1.1c-5.3-4.4-7.4-10.1-6.7-16.8
				c0.7-7,4.6-13.2,10.6-16.9c0.6-0.4,1.2-0.7,1.9-1c4.4-2.3,9.7-1,12.6,3C85.9,157.7,87.4,162.7,87.3,167.9z"/>
			<path class="st2" d="M57.2,136.3c-0.4,5.7-3.2,11.1-7.7,14.7c-3.9,3.6-10,3.3-13.6-0.6c-6.1-6-8-17.3-1.1-25.2
				c2.5-2.9,6-4.6,9.8-5c3.3-0.4,6.7,1,8.7,3.7C55.9,127.1,57.2,130.9,57.2,136.3z"/>
			<path class="st2" d="M57.8,199.1c0.1,4.3-1.6,8.4-4.7,11.4c-4.3,4.1-15.7,4.5-19.3-3.7c-1.9-4.4-2.7-8.9-1.5-13.6
				c1.1-5.2,6-8.8,11.3-8.3c1.5,0.1,3,0.3,4.5,0.8C54.5,187.7,57.9,192.4,57.8,199.1z"/>
			<path class="st2" d="M82.5,134c-0.1-7.4,3.8-13.2,9.8-15.2c4.2-1.4,7.8-0.5,10.5,3c4,5.1,5.5,11,3.7,17.4
				c-1.4,4.9-4.6,8.3-9.8,9.4c-3.8,0.8-6.9-0.6-9.6-3.2C83.9,142.5,82.3,138.3,82.5,134z"/>
			<path class="st2" d="M81.9,197.9c0-2.4,0.4-4.8,1.3-7c2.3-5.6,8.7-8.2,14.3-5.9c0.5,0.2,1,0.5,1.5,0.8c3.8,2.2,6.3,6.1,6.6,10.5
				c0.5,4.4-0.6,8.8-2.9,12.6c-3.7,6.1-10.3,7.1-15.6,2.4C84,208.6,82.6,205,82,201C81.9,200,81.9,198.9,81.9,197.9z"/>
			<path class="st2" d="M63.2,40.5C69.9,30,74.7,18.6,80.5,7.7c0.2-0.1,0.5-0.3,0.7-0.4c0.6,6.9,0.8,13.7,2,20.8
				c0.9-1.5,1.7-2.7,2.5-3.9c1.4-2.3,1.9-2.4,4.6-1.6c0.5-0.6,1-1.2,1.2-2c2.8-5.3,6.4-10.1,9.6-15.2c1.3-2.2,3.2-4,5.3-5.4
				c1.7,11.1,3.3,21.8,5,32.4c0.9,0,1-0.7,1.4-1.2c3.2-3.6,6.9-6.7,10.3-10c1-0.9,1.3-0.9,2,0.3c1.7,3.3,3.1,6.7,4,10.3
				c3.1,12.2,1.5,25.2-4.4,36.3c-0.3,0.6-0.6,1.1-0.9,1.7c0,0.1,0,0.3,0.1,0.4c3.1-1.9,6.1-3.9,8.9-6.2c2.2-1.9,4.4-3.9,6.6-5.9
				c0.3-0.3,0.6-0.6,0.9-0.8c1.1-0.7,1.8-0.4,1.8,0.9c0.2,5-0.6,9.9-2.3,14.6c-2.3,6.2-6,11.7-10.9,16.1c-2.5,2.3-5.1,4.6-7.4,7.1
				c-1.8,1.9-3.3,4.2-4.3,6.6c-0.2,0.4-0.1,0.8,0.1,1.2h3.1c1.1,0,2.2,0.1,3.3,0.4c2.4,0.6,3.6,2.1,3.4,4.5c-0.2,3.3-0.7,6.7-1.1,10
				c-1.4,10.9-2.9,21.7-4.6,32.5c-2.2,14-4.7,27.9-7.5,41.7c-1.2,5.7-2.1,11.5-3,17.2c-0.8,5.2-3.7,8.2-8.8,9.4
				c-7.9,1.9-16,3.1-24.1,3.7c-12,0.7-24,0.4-36,0.2c-3.4-0.1-6.7,0-10.1-0.1c-4.8-0.1-6.9-1.9-7.6-6.5c-0.9-6-0.8-12.1-0.8-18.2
				c0-19.3-0.5-38.5-0.9-57.8c-0.2-10.3-0.4-20.6-0.5-30.9c0.2-1.2-0.6-2.3-1.7-2.7c-3.4-1.7-6.3-4.1-8.5-7.2
				c-5.2-6.8-8.1-14.6-9.6-23c-0.7-4.2-0.5-8.5-1.5-12.7C0.3,62.5,0,60.7,0,58.9c0-0.7,0-1.4,0.2-2.1c0.5-2,1.7-2.8,3.7-2.1
				c3,1,5.8,2.8,7.9,5.2c0.5,0.6,1,1.1,1.5,1.7c0.6-0.5,0.4-1,0.4-1.5c-0.3-12.7,0.2-25.4,1.5-38.1c0.3-3.3,0.7-6.7,1.1-10
				c0.1-0.5,0.1-1,0.2-1.4c0.4-1.6,0.9-1.9,2.3-0.9c2.5,1.8,4.7,4.1,6.4,6.7c3.3,5,5.5,10.7,6.4,16.7c1.1,6.7,1.9,13.4,2.9,20.2
				c0.2,1.6,0.7,3.3,1.1,5.1c0.9-1.2,0.9-2.4,1.4-3.5c5.5-12.8,10.7-25.8,18.7-37.5c2.2-3.2,4.5-6.4,6.8-9.6
				c0.5-0.7,0.9-1.9,2.1-1.6c1.2,0.3,1.4,1.5,1.5,2.5c0.5,3.8,0.7,7.7,0.4,11.5c-0.7,6.8-1.9,13.5-3.8,20c-0.4,0.5-0.5,1.2-0.4,1.8
				C62.8,41.6,63.1,41.1,63.2,40.5z M25.5,200.9c0,2.2-0.1,4.5,0,6.7c0.1,3.4,0.7,6.7,1.7,9.9c1,3,1.9,3.7,5,3.9
				c0.8,0,1.6,0,2.4,0.1c8.3,0.8,16.7,1,25.1,0.3c1.1-0.1,1.7-0.4,1.9-1.6c0.3-1.8,0.7-3.6,1.1-5.4c1-4.6,4.2-6.9,8.5-7.7
				c4.7-0.9,8.4,1.3,9.9,5.9c0.5,1.5,0.8,3.1,0.9,4.7c0.2,2.2,0.6,2.7,2.8,2.6c1.8,0,3.5-0.2,5.3-0.4c4.3-0.4,8.5-1.5,12.4-3.3
				c2.7-1.2,4.6-3.6,5.4-6.4c0.6-2.3,1.2-4.6,1.8-7c1.1-4.4,2.2-8.8,3.4-13.2c0.6-2.1,0.1-4.4-1.5-6c-0.7-0.8-1.5-1.5-2.1-2.3
				c-5.8-7.2-7.3-15.2-3.9-23.8c2.1-5.4,5.9-9.3,12.3-9.4c1.2,0,1.6-0.8,1.7-1.9c0.4-3,0.7-6,1.1-9c0.4-2.8,0.3-3.1-2.2-4.3
				c-2.5-1.2-4.6-3-6.2-5.2c-4.2-5.9-5.2-12.6-4.4-19.6c0.3-2.6,0-3.1-2.6-3.3c-3.6-0.2-7.2-0.4-10.8-0.7s-3.7-0.4-5.1,2.9
				c-3.8,8.4-12.5,13.5-21.7,12.7c-5.5-0.6-9.1-3.7-10.5-9c-0.4-1.5-0.6-3-0.8-4.5c-0.3-1.8-0.5-2-2.3-1.9c-0.6,0-1.3,0.1-1.9,0.2
				c-3.7,0.5-7.4,1.1-11.2,1.4c-2.4,0.3-4.8,0.7-7.1,1.3c-1.1,0.1-1.8,1.1-1.7,2.1c0,0,0,0,0,0.1v1.7c0.3,3.8-1,7.5-3.4,10.4
				c-0.5,0.6-0.8,1.2-1.3,1.7c-2.2,2.6-3.3,5.9-2.9,9.3c0.3,4.9,0.5,9.9,0.5,14.9c0,3.2,0.6,6,3.8,7.5c0.4,0.2,0.8,0.5,1.1,0.9
				c2.9,2.3,4.9,5.6,5.5,9.3c0.6,3.6,0.8,7.3,0.4,11c-0.2,3.2-1.4,6.2-3.4,8.6c-1.4,1.9-3.2,3.4-5.2,4.5c-0.9,0.4-1.5,1.2-1.5,2.2
				C25.5,194.8,25.4,197.9,25.5,200.9z M18.6,11.6c-0.6,0.8-0.9,1.7-1,2.6c-1.1,7.1-1.7,14.3-1.9,21.5c-0.2,6.1-0.4,12.1-0.6,18.2
				c-0.1,2.2-0.3,4.3-0.2,6.5c0.4,4.7,1.7,9.3,3.8,13.5c4.2,9.2,8.3,18.3,12.5,27.5c1.8,4,0.9,3.5,5.7,3.3c1.7-0.1,1.9-0.4,1.9-2
				c0-0.4,0-0.8-0.1-1.2C38,96,37.3,90.6,36.6,85.1c-1-8.2-2.1-16.3-3.1-24.5c-0.9-8.2-2.2-16.3-3.9-24.4c-1.5-6.7-3.9-13.2-7-19.3
				C21.9,14.7,20.5,12.8,18.6,11.6z M104.3,99.1c0,0.5,0.1,1.2,0.1,1.9c-0.1,1.2,0.4,1.8,1.6,1.8c0.9,0,1.7,0.1,2.6,0.3
				c2.8,0.5,2.8,0.5,2.8-2.4c-0.1-2.7-0.1-5.4,0.1-8.1c1.4-9.6,6-17.8,10.8-25.9c0.7-1,1.3-2,1.8-3.1c3.1-7.9,5.6-16,4.4-24.7
				c-0.7-4.8-2.3-9.3-3.7-13.9c-0.4-1.3-1.1-1.4-2.2-0.7c-0.3,0.2-0.6,0.5-0.9,0.8c-1.9,2.8-4.4,5-6.5,7.7c-2.3,2.7-3.7,6-4.2,9.5
				c-0.6,4.6-1.8,9.1-3.5,13.4c-1.4,3.5-2.5,7.1-3.5,10.7c-1.5,5.9-1.2,11.9-0.3,17.9c0.7,4.1,0.9,8.3,0.4,12.4
				C104.3,97.5,104.3,98.3,104.3,99.1z M105.5,3.2c-0.7,0.1-1,0.6-1.3,1.1c-2.3,4.1-5,8-7.9,11.7c-2,2.8-3.5,5.9-4.6,9.2
				c-0.6,1.7-0.7,3.6-0.4,5.4c0.6,3.1,1.3,6.3,2,9.4c1,3.6,1.7,7.3,2.1,11c0.4,6.8-0.7,13.6-3.1,20c-2.1,5.7-3,11.4-1.6,17.4
				c1,4.1,2.1,8.2,2.9,12.4c0,0.2,0.1,0.5,0.2,0.7c0.5,1.2,1.5,1,2.5,0.9s0.9-0.9,0.8-1.6c-0.1-0.9-0.2-1.7-0.1-2.6
				c1.2-7.6,1.2-15.4,3.6-22.9c0.1-0.6,0.2-1.3,0.3-1.9c0.3-3.7,1.1-7.4,2.4-10.9c1.7-4.2,3.1-8.5,4.4-12.9c2.2-7.5,2.9-15,0.7-22.7
				c-1.9-6.5-2.7-13.2-2.4-19.9C106.1,5.7,106.3,4.3,105.5,3.2z M87.6,25c-0.4,0.7-0.7,1.2-1,1.8c-3,6.3-5.8,12.6-8.3,19.1
				c-4.7,12-6.4,24.3-3.9,37.1c1.1,5.7,3,11.3,5.6,16.5c0.7,1.6,2.4,2.7,4.2,2.7c1.6,0.1,2.4-0.5,2.6-2.1c0.1-1,0.1-1.9,0-2.9
				c0.1-9.7,0.6-19.3,4.3-28.5c1.9-4.9,2.6-10.1,2.3-15.3c-0.2-8.5-2.3-16.7-4.1-25C89.1,27.1,88.5,25.9,87.6,25z M40.5,96.2
				c0.5,0,1-0.4,1.1-0.9c2-5,3.8-10,3.5-15.5c-0.1-3.4,0.2-6.7,1.1-10c2.6-10.7,7.9-20.4,11.4-30.7c0.1-0.7,0.7-1.1,1.4-1
				c1,0.2,1.4-0.3,1.7-1.2c1.9-4.9,3-10.2,3.1-15.5c0-3.3,0.1-6.6,0.2-9.8c0.1-0.7,0-1.4-0.4-2c-0.6-0.1-0.7,0.3-1,0.7
				c-3.7,5.8-7.4,11.6-10.9,17.5c-2.8,4.6-5.7,9.3-7.5,14.4C42,48.3,40,54.6,37.7,60.7c-1.1,3.2-1.5,6.7-0.9,10.1
				c0.6,4.2,1.1,8.4,1.7,12.6S39.5,91.9,40.5,96.2z M79.8,15.5c-0.7,0-0.9,0.4-1,0.9c-2.6,6-6.1,11.4-9.4,17c-1.9,3-3.5,6.1-4.8,9.4
				c-1.1,2.7-1.2,5.7-0.2,8.4c1.4,3.8,2,7.8,1.8,11.8c-0.2,7.3-1.6,14.5-4.2,21.3c-0.7,1.4-1.1,3-1.2,4.6c0.2,4.2,0.6,8.3,1.4,12.4
				c0.2,1.4,1,1.7,2.5,1.6c1.3-0.1,1.6-0.9,1.5-2c0-1.3,0.2-2.5,0.8-3.7c0.5-1.3,1-2.7,1.5-4c0.8-2.3,1.5-4.5,3.3-6.3
				c0.5-0.5,0.7-1.3,0.5-2c-0.7-2.6-1-5.4-1-8.1C71,70.3,70.5,63.9,72,57.5s3.2-12.5,6.5-18.2c0.9-1.6,1.5-3.4,1.8-5.2
				c0.7-6,0-12-0.1-17.9C80.1,15.9,80,15.7,79.8,15.5z M59.3,42.3c-0.2,0.3-0.4,0.5-0.5,0.7c-2.6,6.9-5.6,13.6-8,20.5
				c-2.4,7.1-4.1,14.3-3.7,21.8c0.3,5,0.9,10,1.9,15c0.1,0.7,0.4,1.4,0.8,2c0.5,1,1.7,1.4,2.7,0.9c0.3-0.2,0.6-0.4,0.8-0.8
				c0.3-0.5,0.6-1,0.8-1.5c2.2-7.7,5.4-15.2,7.8-22.9c2.8-8.9,3.5-17.8,1-26.9C62.1,48,60.9,45.1,59.3,42.3z M26.6,106.7
				c0.3,0,0.5,0,0.8-0.1c2.8-0.5,3.5-2.2,2.1-4.6c-0.8-1.2-1.4-2.5-2-3.8C23.7,89.6,19.8,81,16,72.4c-1.7-4-3.4-7.9-6.7-10.9
				c-1-0.9-1.7-2.2-2.6-3.1c-0.7-0.8-1.8-1.1-2.8-0.7C2.8,58.2,3,59.3,3,60.2C3.5,66.5,3.8,72.8,4.9,79c1,6.1,3.2,11.9,6.6,17.1
				c2.6,4,6.2,7.2,10.4,9.4C23.4,106.3,25,106.7,26.6,106.7z M140.2,60.8c-0.6-0.1-1.2,0.1-1.6,0.6c-4.2,4.4-9.1,8-13.7,12
				c-3.5,3.1-6.4,6.8-8.6,10.9c-2.8,5.6-3.4,11.6-3,17.7c0,0.4,0,1,0.7,1.1c0.5,0,0.6-0.5,0.8-0.8c1.6-3.6,4-6.8,6.9-9.4
				c3.3-3.3,6.6-6.5,9.9-9.8c1.9-1.6,3.4-3.6,4.5-5.8C138.5,72.1,139.3,66.5,140.2,60.8L140.2,60.8z M73.2,88.7
				c-0.7,0.7-1.4,1.6-1.8,2.5c-1.1,2.6-2.1,5.3-2.8,8.1c-0.1,0.4-0.1,0.8-0.1,1.2c-0.1,1.1,0.5,1.6,1.5,1.7c2.1,0.2,4.3,0,6.4-0.4
				c1.5-0.3,2-1.2,1.3-2.6c-1.3-2.7-2.5-5.5-3.5-8.3C74,90.1,74,89.3,73.2,88.7z M101.5,80.4c-0.6,1.5-1,3.1-1,4.7
				c-0.7,5.2-1.3,10.4-1.7,15.7c-0.1,1.8,0.2,2.1,1.9,2c0.8,0.1,1.6-0.5,1.8-1.3c0.3-1,0.4-2.1,0.4-3.1c-0.1-2.9-0.2-5.7-0.4-8.6
				C102.6,86.6,102.2,83.5,101.5,80.4z M45,91.7c-0.4,0.2-0.6,0.5-0.6,0.9c-0.4,2.3-1.3,4.5-2.6,6.4c-0.2,0.3-0.3,0.6-0.4,0.9
				c-0.7,4.3-1.2,4.9,3.7,4.1c2.2-0.3,2.3-0.6,1.9-2.8c-0.7-2.8-1.2-5.6-1.4-8.5C45.6,92.3,45.4,91.9,45,91.7z M59.3,92.8
				c-1.4,2.8-1.8,5.5-2.7,8l-0.3,0.9c-0.1,0.3-0.1,0.6,0.2,0.8c1.2,0.8,3.9-0.1,3.8-1.4C60.2,98.5,60.5,95.7,59.3,92.8L59.3,92.8z
				 M89.8,91.8h-0.7c-0.9,2.4-1.1,5-0.5,7.5c0.1,0.7,0.4,1.4,0.9,1.9c0.3,0.4,0.8,0.6,1.3,0.5c0.4-0.1,0.7-0.6,0.5-1
				c0,0,0-0.1,0-0.1C90.8,97.7,90.3,94.7,89.8,91.8L89.8,91.8z"/>
		</g>
	</g>
</g>
</svg>
