<svg xmlns="http://www.w3.org/2000/svg" viewBox="0 0 326.8 372.4"><defs><style>.cls-1{fill:#201600;}.cls-2{fill:#00ad9a;}.cls-3{fill:#e8f3f1;}.cls-4{fill:#fff;}.cls-5{fill:#438367;}</style></defs><g id="Layer_2" data-name="Layer 2"><g id="Layer_1-2" data-name="Layer 1"><g id="Layer_2-2" data-name="Layer 2"><g id="Layer_1-2-2" data-name="Layer 1-2"><g id="Layer_2-2-2" data-name="Layer 2-2"><g id="Слой_1" data-name="Слой 1"><path class="cls-1" d="M270,110c8.4-5.6,15.1-13.5,14.5-24.5a19.05,19.05,0,0,0-11-16.6,18.56,18.56,0,0,0-14.6-.2c0-1.3-.1-2.6-.2-4-1.3-12.3-9.5-20-19.6-23a30.51,30.51,0,0,0-9.7-34.8c-11.7-9-28.3-9-40.4-.8a39.49,39.49,0,0,0-12.7,14.2c-1.13-.72-2.3-1.39-3.5-2a33.83,33.83,0,0,0-29.9.8,37.83,37.83,0,0,0-7.3,5.2c-8.3-12.9-24.8-19.7-39.7-14.9-15.3,4.9-26.2,19.9-24.6,36.1a36.56,36.56,0,0,0,9.3,21.2,34.9,34.9,0,0,0-9.9,15.9c-18.9-2-35.4,13.6-35.6,32.7a38.89,38.89,0,0,0,2,12.2A132.84,132.84,0,0,0,0,220c0,84,73.3,152.4,163.4,152.4S326.8,304,326.8,220C326.9,174.7,305.2,135.7,270,110Z"/><path class="cls-2" d="M118,138c-10.3-.9-21.1-.2-30.2,5-8.2,4.7-14.6,12.8-13.8,22.7s8.7,17.5,17.4,21.2a42.44,42.44,0,0,0,27.9,1.7,89.86,89.86,0,0,0,15.1-5.3c2.4-1.1,4.8-2.4,7.1-3.7,1-.5,6-4.4,6.8-4.1-.7-.2-1.4-.5-2.1-.7a44.12,44.12,0,0,1-9.9-4.6c-5.5,5.7-13.4,9.2-21.1,10.4a42.89,42.89,0,0,1-15.2-.2,30,30,0,0,1-7.3-2.2c-2-1-4.6-2-6.3-3.5a.82.82,0,0,1,0-1.16l0,0a.82.82,0,0,1,.5-.2,13.44,13.44,0,0,1,2.8.6,25.7,25.7,0,0,0,3.9.6c2.3.3,4.6.8,6.9,1a43.92,43.92,0,0,0,13.1-.2,33.06,33.06,0,0,0,17.6-9.2l-.4-.4c-5-5.5-7.2-14-2.9-20.6a1.31,1.31,0,0,0,.3-.4,19.7,19.7,0,0,1-10.1-6.4C118.1,138.1,118.1,138,118,138Z"/><path class="cls-2" d="M162.4,156.7a32.23,32.23,0,0,1,6.7,3.4,20.09,20.09,0,0,1-1.5-7.3,44.88,44.88,0,0,0-20.9-7.5c-5.1-.4-12.1-.2-13.6,5.8-1.4,5.6,2.7,10.6,7.2,13.3,3.7,2.3,8,3.7,12.1,5a61.15,61.15,0,0,0,17.5,2.8c.57-1.19,1.21-2.36,1.9-3.5,0-.1,0-.1-.1-.2a8.91,8.91,0,0,0-1-1.6,14.41,14.41,0,0,0-1.1-1.5c-.5-.5-1-1.1-1.5-1.6a29.23,29.23,0,0,0-6.5-5.1,1.12,1.12,0,0,1-.4-1.5.91.91,0,0,1,1.18-.5Z"/><path class="cls-2" d="M141.6,120c-2,6.1-.9,12.5,1.7,18.2,1.6,0,3.2.1,4.8.2a53.46,53.46,0,0,1,20.8,6.9c.1-.3.3-.5.4-.8L169,141l-.6-5.4c-.5-3.7-1.5-7.4-2.2-11-.2-1,1.2-1.7,1.7-.7a81.84,81.84,0,0,1,4.1,10.8c.5,1.4.9,2.8,1.3,4.2a18.88,18.88,0,0,1,6.4-4.4c-2.7-12.3-10.2-27.1-25-25.8C148.5,109.2,143.6,114.1,141.6,120Z"/><path class="cls-2" d="M131,101.2a15.4,15.4,0,0,0-11.4,11.4,27,27,0,0,0,2.4,18.9c2.7,4.8,8.1,8.1,13.6,6.4a32,32,0,0,1-1.4-17.6,25.29,25.29,0,0,1,10.3-15.2A15.22,15.22,0,0,0,131,101.2Z"/><path class="cls-2" d="M177.7,76.5a20.17,20.17,0,0,0-17.9,8.6,27.8,27.8,0,0,0-4.5,16.6,25.28,25.28,0,0,1,8.6,1.1c9.8,3.2,16,10.9,19.7,19.9a27.56,27.56,0,0,0,14-15.8C201.9,93.1,192.8,77.1,177.7,76.5Z"/><path class="cls-2" d="M261.4,123a26.82,26.82,0,0,0-17.7-15.6,25.53,25.53,0,0,0-21.1,3.9,18.59,18.59,0,0,1,2.8,12.6c-1.3,9.4-8.5,16.3-17.2,19.2a22.45,22.45,0,0,1,3.1,7.9,20.85,20.85,0,0,0,3.1,2.1,19.35,19.35,0,0,0,7,2.4,43.66,43.66,0,0,0,8.8,1.5,10.92,10.92,0,0,0,3.6-.3,18.45,18.45,0,0,0,4-1.4.78.78,0,0,1,1,.1.71.71,0,0,1-.16,1l0,0h0a9.28,9.28,0,0,1-3.3,2.6,27.59,27.59,0,0,1-4.1,1.5,29.69,29.69,0,0,1-9.9.6,22.64,22.64,0,0,1-9.2-2.3c-.3-.2-.6-.3-.9-.5a18.88,18.88,0,0,1-2.3,5.5,34.07,34.07,0,0,1,9.4,4.5,42,42,0,0,0,25.7-3.2C259.3,157.7,268.5,139.3,261.4,123Z"/><path class="cls-2" d="M218.4,119a10.69,10.69,0,0,0-6.8-7.9c-4.6-1.4-8,1.5-10.8,4.9a49.48,49.48,0,0,1-9.7,9.2c-.6.4-5.6,3.5-5.4,4.3.3,1.1.6,2.2.8,3.3a22,22,0,0,1,16.4,4.7h.1a21.94,21.94,0,0,0,12.1-6.8A14.19,14.19,0,0,0,218.4,119Z"/><path class="cls-2" d="M240.3,100a32.93,32.93,0,0,1,4.3.7c.8-.1,1.7-.1,2.5-.2a34.44,34.44,0,0,0,7.1-1.6,14.3,14.3,0,0,0,5.6-3,16.35,16.35,0,0,0,3.7-5.3c.3-.7,1.4-.3,1.4.4a12.56,12.56,0,0,1-2.8,6.7,22.65,22.65,0,0,1-5.4,5.3,15.09,15.09,0,0,1-2.8,1.5,36.33,36.33,0,0,1,4.5,3.2c9-3.8,18.6-10.1,19.4-20.7.4-4.9-1.4-9.7-5.8-12.2a11.8,11.8,0,0,0-13.7,1.5c-.1.1-.2.1-.2.2C255.4,86,248.6,93.6,240.3,100Z"/><path class="cls-2" d="M244,187.8a6.79,6.79,0,0,1-1.4.4c-.4.1-.9.1-1.3.2a6.92,6.92,0,0,1-2.9-.1,12.79,12.79,0,0,1-5.3-2.1,6.83,6.83,0,0,1-1.3-1.1c0,.1.1.1.1.2a18.74,18.74,0,0,1,1,4.1c6.2,6.4,17,7.9,22.9.2a11,11,0,0,0,1.7-11.4c-1.8-3.9-5.6-6.7-9.7-6.7-.3,0-.7-.1-.9-.1a49.66,49.66,0,0,1-15.1,4.2c.6.9,1,1.9,1.4,2.6a21.44,21.44,0,0,0,2.8,4,14.57,14.57,0,0,0,3.5,3.1,7.16,7.16,0,0,0,4.5,1.3C244.5,186.5,244.6,187.5,244,187.8Z"/><path class="cls-2" d="M190.3,139.5c-6.3-.6-12.9,2.9-15.1,9.1-2,5.8,1,11.9,5.3,15.8a13.57,13.57,0,0,0,15,2.2c4.9-2.2,9.1-6.7,9.2-12.2C204.6,146.7,197.9,140.3,190.3,139.5Z"/><path class="cls-2" d="M94.6,58a30.33,30.33,0,0,1,28,6.3,51.6,51.6,0,0,1,1-20.7h0a15.23,15.23,0,0,1-2.2-3.4,23.4,23.4,0,0,0-1.7-2.5,22.81,22.81,0,0,0-4.9-4.4,26.66,26.66,0,0,0-7.2-2.8,15.51,15.51,0,0,0-3.7-.7c-1.2,0-2.4.3-3.5-.2a.54.54,0,0,1-.25-.72l0-.08c0-.1.1-.1.1-.2.9-1.2,2.6-1.2,3.9-1.6a8.55,8.55,0,0,1,2.1-.6,21.57,21.57,0,0,1,2.4-.2,19.26,19.26,0,0,1,9,2.3,23.81,23.81,0,0,1,6.6,5.2l2.1,2.7a43,43,0,0,1,4.8-7.9c-.1-.1-.2-.2-.2-.3-8.5-14.8-28.6-19.1-42-8.1a28.07,28.07,0,0,0-3.7,39.5c.5.6,1,1.2,1.6,1.8A31.36,31.36,0,0,1,94.6,58Z"/><path class="cls-2" d="M136.7,223c13.2,4.1,31.1,2.9,38.5-10.5,0-.1.1-.1.1-.2a36.07,36.07,0,0,1-8-33.1,68.09,68.09,0,0,1-11.1-1.5,3.87,3.87,0,0,1-1.4,1.7c-3.3,2.2-6.6,4.3-10.1,6.3a1.74,1.74,0,0,1-.6.9c-1.5,1.6-3.4,2.8-5,4.6a16.82,16.82,0,0,0-2.9,4.8c-1.2,3.5-1.2,7.4,1.6,10.2a1.42,1.42,0,0,1-.1,2,1.36,1.36,0,0,1-1.6.2c-4.3-2.8-6.2-8.3-5.5-13.2.2-1,.5-2,.8-3a75.88,75.88,0,0,1-11.5,3.6,16.72,16.72,0,0,0,.8,15.8C124.2,217.3,130.4,221,136.7,223Z"/><path class="cls-2" d="M98.8,131.8a64.54,64.54,0,0,1,15.2-1c-3.8-10.1-2.7-22.9,4.8-30.3a21.84,21.84,0,0,1,12.4-6.1c-2.2-9.6-5.9-19.1-13.8-25.4a23.54,23.54,0,0,0-24.3-3c-9.4,4-15.4,13.2-16.9,23.1a38.5,38.5,0,0,0,5.1,24.4,54.31,54.31,0,0,0,7.7,10.2c1.5,1.5,3.1,3,4.7,4.4C94.6,128.7,97.9,132,98.8,131.8Zm-8-23.3c-.1.7-1,1.4-1.6.7-1.3-1.5-1.6-3.8-2.1-5.6a25.93,25.93,0,0,1,1.1-18.1,29.14,29.14,0,0,1,6.2-9.3A14.39,14.39,0,0,1,99.3,73a21.3,21.3,0,0,1,5.5-1.3,1.48,1.48,0,0,1,1.4,1.56v0a1.37,1.37,0,0,1-.7,1.2c-.7.5-1.6.8-2.3,1.4a10.79,10.79,0,0,0-1.8,1.9c-1,1.1-2.1,2-3.1,3.1a24.39,24.39,0,0,0-5,7.3A33.05,33.05,0,0,0,90.7,98a45.33,45.33,0,0,0-.4,5.2C90.3,105,91,106.7,90.8,108.5Z"/><path class="cls-3" d="M263.6,112.7c-.1,0-.1.1-.2.1a38.64,38.64,0,0,1,6.2,13.3c15.2,9.5,24.1,21.3,24.1,34.8,0,24.4-29.2,45.5-71.8,55.7-8.2,7-19.9,9.2-30.2,6.3-.9-.3-1.9-.6-2.8-.9-4.3.4-8.6.7-13,.9-10.9,10.3-28.9,11.2-42.8,6.2a36,36,0,0,1-15.2-10c-48.8-8.9-83.5-31.6-83.5-58.2,0-8.4,3.5-16.2,9.8-23.2a46.93,46.93,0,0,1-3.3-4.6A126,126,0,0,0,7.6,218.8C7.6,299,77.7,359,163.9,359s156.3-60,156.3-140.2C320.2,175,298.5,137.1,263.6,112.7Z"/><path class="cls-2" d="M73.9,145.5c1-1.1,2-2.2,3.1-3.2a39.56,39.56,0,0,1-4.5-1.5,27.4,27.4,0,0,1-9.6-6.9,25.22,25.22,0,0,1-5.3-10.6,18.17,18.17,0,0,1-.3-5.7,16.28,16.28,0,0,1,1.5-5.6,1.09,1.09,0,0,1,1.4-.2,1,1,0,0,1,.4.7,41.61,41.61,0,0,0,.4,5,26.65,26.65,0,0,0,1.4,4.9,19.83,19.83,0,0,0,5.2,7.6,22.78,22.78,0,0,0,8,4.9,26.82,26.82,0,0,0,4.9,1.3,23.32,23.32,0,0,1,3.8.7c.6-.3,1.1-.7,1.7-1a39.89,39.89,0,0,1,4.2-1.8c-7.6-6.1-14-13.7-17.8-22.8a44.49,44.49,0,0,1-2.9-23.1c-14.9-1.2-27.3,12-27,26.9C42.9,132,57.6,144.3,73.9,145.5Z"/><path class="cls-2" d="M196.2,216.8c9.1,1.6,18.8-1.6,24.5-9,5-6.5,7.1-16,3-23.5a29.26,29.26,0,0,0-14.8-12.9c.1.1.1.2.2.3a24.79,24.79,0,0,1,3.4,6.9,18.87,18.87,0,0,1,.5,8.8,21.27,21.27,0,0,1-3.3,7.7.93.93,0,0,1-1.7-.7c1.1-4.5.4-9.8-1.1-14.2a21.81,21.81,0,0,0-2.9-5.4c-.8-1.1-2-2.1-2.9-3.2a21.33,21.33,0,0,1-5.6,2.5,20.56,20.56,0,0,1-17.2-2.6c-5.5,8.7-6.8,19.5-2.5,29A28.36,28.36,0,0,0,196.2,216.8Z"/><path class="cls-2" d="M130.3,67c1,4.6,3,9.1,4.1,13.7.3,1.3,3.5,13.8,4,13.9a21.46,21.46,0,0,1,9.8,4.7c.3-8.1,3.2-16.3,9-22.1,6.6-6.6,16.1-8.9,25.1-7.2a22.46,22.46,0,0,1,4.4,1.3,56.59,56.59,0,0,0-2.4-30.2c-3.1-8.3-8.8-16.3-17.5-18.9A27.51,27.51,0,0,0,142.2,27c-7.9,6.2-12.2,15.6-13,25.5A55.09,55.09,0,0,0,130.3,67Zm10.8-15.2a34.37,34.37,0,0,1,4.4-7.9,21.24,21.24,0,0,1,9.3-6.3c2.4-.8,3.9-.7,4.5-.2,1,.9,0,3-2.5,4.9a25.65,25.65,0,0,0-3,2.5,39.24,39.24,0,0,0-5.2,6.9,36.85,36.85,0,0,0-4,8.2c-.7,1.9-.2,7.5-1.4,8.9-1.7,1.9-2.8-2-3.1-3.5C139.3,61.1,139.5,55.6,141.1,51.8Z"/><path class="cls-2" d="M194,28a19.2,19.2,0,0,1,10.3-8.5c3.8-1.2,8.9-1,12,1.7.9.8-.1,1.9-1,1.8a13.69,13.69,0,0,0-5.7,0,13.37,13.37,0,0,0-4.7,2.1,22.36,22.36,0,0,0-6.6,7.7,39.44,39.44,0,0,0-3.5,11c-.4,2.1-.5,4.1-.8,6.2a4.07,4.07,0,0,0-.1,1.1,52.37,52.37,0,0,1,.7,8c4.5-6,9.8-11.4,16.4-15.1a36.52,36.52,0,0,1,21.2-4.5,23.22,23.22,0,0,0,0-19.3,24.42,24.42,0,0,0-16.2-13c-14-3.7-28,4.5-34.1,17.1a45.84,45.84,0,0,1,8.1,13.1A35.46,35.46,0,0,1,194,28Z"/><path class="cls-2" d="M251.9,62.6c-1.6-8.9-8.5-14.7-17.1-16.3-19.5-3.8-33.5,13-41.6,28.5a27.93,27.93,0,0,1,9.6,11.6,31.2,31.2,0,0,1,2.4,17.8,15.82,15.82,0,0,1,4.8-.5,16.52,16.52,0,0,1,7.1,2.2c9.3-4.6,18.7-9.5,25.9-17.2C249.2,82,253.5,72,251.9,62.6Zm-8.8,13.9c-2.9,7.8-7.7,14.1-15.6,17.3-.8.3-3.1,1.7-3.5.4-.3-.9,2.1-2.7,2.6-3.3,4.2-4.6,8.2-9.7,10.2-15.7a31.16,31.16,0,0,0,1.9-10.9,15,15,0,0,0-.9-6.6c-.6-1.4-2.4-3.7-1-5.2s3.4.3,4.4,1.1c2.5,2.2,3.5,6.5,3.7,9.7a30,30,0,0,1-1.8,13.2Z"/><path class="cls-4" d="M94.6,67c-3.1.7-5.9,2.6-8.3,4.3-5.7,3.9-8.5,10.5-9.5,16.9a36.52,36.52,0,0,0,7.5,29.2,4.89,4.89,0,0,0,1.5,1.4c2.4,1.2,3.2-1.5,2.7-3.1-1-3.3-3.1-6.3-4.1-9.7-2.2-7.4-2.6-14.6.2-22a29.7,29.7,0,0,1,5.5-9.2,31.35,31.35,0,0,1,8.2-6.7c.4-.3.9-.8.6-1.1-.1-.2-.4-.2-.6-.2A7.86,7.86,0,0,0,94.6,67Z"/><path class="cls-4" d="M157.2,23.5a19,19,0,0,0-4.1.7c-4.8,1-8.5,3.8-11.8,7.3-3.9,4.2-6.3,9.5-8,14.8-2.8,8.9-1.9,19,.6,27.8.9,3,2.2,6.1,4.7,8.1a1,1,0,0,0,1.4.1,1.12,1.12,0,0,0,.3-1.1c-.5-2.7-1.4-5.1-1.6-7.8s-.6-5.2-.7-7.8a48.08,48.08,0,0,1,1.8-16A48.94,48.94,0,0,1,146.1,36c3-4.4,6.5-7.5,11.6-8.9a1.88,1.88,0,0,0,1.3-2.2,1.39,1.39,0,0,0-.5-.8A2.18,2.18,0,0,0,157.2,23.5Z"/><path class="cls-4" d="M144.7,103.6c-3.2-4.5-13-3.6-17-1a20,20,0,0,0-8.7,18.5,23.31,23.31,0,0,0,3.4,10.2c1.6,2.6,3.4,5.3,6.4,6.4,1.3.5,3.7,1.2,4-.4s-2-4-2.8-5.2c-5.8-8.7-6.3-27.9,8.3-27.7,1.9,0,3.5,1,5.3,1.1a1.23,1.23,0,0,0,1.3-1.17v0A1.48,1.48,0,0,0,144.7,103.6Z"/><path class="cls-4" d="M199,99.7a26.17,26.17,0,0,0-1.5-8.8,24.33,24.33,0,0,0-7-10.3A19.56,19.56,0,0,0,179,76a25.86,25.86,0,0,0-9.5,1.6c-6.4,2.2-12.7,7.5-12.2,14.9a1.59,1.59,0,0,0,.3.9.79.79,0,0,0,1.1-.1,2.06,2.06,0,0,0,.6-1c1.6-3.6,4.4-7.1,8.1-8.6a18.84,18.84,0,0,1,13-.7c10.5,3.4,16.4,17.3,12.5,27.5a1.07,1.07,0,0,0-.1.8.87.87,0,0,0,1,.5,2,2,0,0,0,1-.6A18.1,18.1,0,0,0,199,99.7Z"/><path class="cls-4" d="M214.8,121.1a7.89,7.89,0,0,0-6.5-8.1,9.07,9.07,0,0,0-2.8.1c-.9.3-3.5,2.1-1.7,3a3.56,3.56,0,0,0,1.8.2c4-.1,5.8,5.6,6.5,8.7a2.14,2.14,0,0,0,.5,1.1c.9.7,1.5-1.1,1.7-1.6a6.53,6.53,0,0,0,.5-2c0-.2.1-.5.1-.7v-.3C214.7,121.7,214.7,121.7,214.8,121.1Z"/><path class="cls-4" d="M165.4,151.7c-3.6-2.2-7.2-4.3-11.3-5.4-2.9-.7-19.1-3.1-18,3.4.2,1.5,5.3.6,6.2.6,10.4-.9,19.5,3.8,27.9,9.3a3.69,3.69,0,0,0,1.4.7c3.4.8-.2-4-.8-4.6A21.22,21.22,0,0,0,165.4,151.7Z"/><path class="cls-4" d="M134.3,175.5a49.9,49.9,0,0,1-41.2,3.3c-12.1-4.4-16.3-18.4-10-29.4a1.16,1.16,0,0,0-.47-1.58l0,0a1.09,1.09,0,0,0-1.3.2c-9.3,10.5-5.5,29,6.4,35.6,7.3,4.1,16.4,5.2,24.9,4.2,8.7-1.1,17.4-2.4,25.2-6.4C141.7,179.3,138.1,173.3,134.3,175.5Z"/><path class="cls-4" d="M165.4,211.7c-8.5,5.1-18.2,4.8-27.1,1-2.3-1-6.9-5.7-9.4-4.2-1.7.9-.5,3.9.5,5a19.55,19.55,0,0,0,6.6,5.2,24.13,24.13,0,0,0,11.9,2.1,39,39,0,0,0,11.2-2.3c2.7-1,6.3-2.5,7.8-5.1C167.3,212.3,166.4,211,165.4,211.7Z"/><path class="cls-4" d="M263.9,134a30.44,30.44,0,0,0-1.7-8.9,15.08,15.08,0,0,0-3.7-6.2c-1.2-1.2-4.4-3.4-6.1-2.4a.88.88,0,0,0,.3.7c13.3,16.6-1.6,38.2-18,44.5a40.37,40.37,0,0,1-10.3,2.2c-3.3.4-5.5-.8-8.8-1-2.8-.2-.7,2.4.2,3.1,2.7,2,5.8,2.5,9,2.9a26.53,26.53,0,0,0,11.9-1.1,48.58,48.58,0,0,0,18.6-12.4A30,30,0,0,0,263.9,134Z"/><path class="cls-4" d="M222.7,185a15.66,15.66,0,0,0-3.1-4.5A4.68,4.68,0,0,0,217,179a1.94,1.94,0,0,0-2.2,1.6v.1c0,2,1.2,4.8,1.7,6.8a34.59,34.59,0,0,1,1.5,7.8,27.28,27.28,0,0,1-5.6,16.7c-.6.7.5,1.5,1.2,1.2,6-3.1,9.3-9.4,10.2-15.9C224.5,193,224.4,188.8,222.7,185Z"/><path class="cls-4" d="M253.9,185a2.5,2.5,0,0,0-2.2-.5c-2.2.3-3.7,2.6-5.7,3.4a12.28,12.28,0,0,1-13.4-2.3c-.9-.7-2.2-.1-1.8.8a14.94,14.94,0,0,0,3.9,4.4,17,17,0,0,0,6.4,3c4.7.8,9.9-.3,12.3-4.6C254.3,188,254.8,186,253.9,185Z"/><path class="cls-4" d="M248.3,56.4a17.17,17.17,0,0,0-7.2-6.9,10.44,10.44,0,0,0-6.7-1.3c-.1,0-.2,0-.2.1-.2.1-.2.5-.1.7a2.88,2.88,0,0,0,.7.5c5,2.1,7.9,3.6,9.3,9.2,1.6,6.5.2,13.6-2.5,19.6a36.51,36.51,0,0,1-9.8,12.9,61.6,61.6,0,0,1-6.6,4.9c-2.3,1.4-4.7,2.5-6.7,4.4-1,1-.2,2.3,1,2.5,1.7.3,4.8-1.4,6.2-2.2,8.9-5.2,18.5-12.4,22.3-22.2a33,33,0,0,0,2.1-17.3A19.25,19.25,0,0,0,248.3,56.4Z"/><path class="cls-4" d="M195.9,145.5a10.46,10.46,0,0,0-5.5-4.4,10.2,10.2,0,0,0-7.8,1.1,11.23,11.23,0,0,0-4.8,5.7,19.86,19.86,0,0,0-.6,3.4,6.94,6.94,0,0,0,.3,3.5.78.78,0,0,0,.9.6.76.76,0,0,0,.6-.8c.1-1.8.3-3.8,1.6-5.2a17.94,17.94,0,0,1,1.9-1.9,8.21,8.21,0,0,1,1.9-1.3,19.73,19.73,0,0,1,2.5-.7,34.74,34.74,0,0,1,5.2.2,8.28,8.28,0,0,1,2.6.9C195.5,147,196.4,146.3,195.9,145.5Z"/><path class="cls-4" d="M166.2,115a8.13,8.13,0,0,0-3.2-3.4,9.63,9.63,0,0,0-4.9-1.4,15.77,15.77,0,0,0-9.4,2.5,15.25,15.25,0,0,0-6.1,8c-1.1,3.1-.7,6.5.1,9.6.2.7,1.4.6,1.3-.2a16.59,16.59,0,0,1,2-7.6,15.41,15.41,0,0,1,4.7-6,11.32,11.32,0,0,1,6.9-1.9,10.43,10.43,0,0,1,3.5.6,12.31,12.31,0,0,1,1.8.4,10.09,10.09,0,0,0,1.9.7,1.06,1.06,0,0,0,1.38-.65s0,0,0-.05Z"/><path class="cls-5" d="M25.66,200.53a10,10,0,0,0,12.6-5,13.86,13.86,0,0,0,.9-4.5,11.08,11.08,0,0,0-.8-4.4,10,10,0,0,0-9.2-6.1C18.76,180.73,16.46,196.53,25.66,200.53Z"/><path class="cls-5" d="M79.31,312.76c.4,5.9,5.9,12.9,12.1,13.2,7.4.3,11-8.5,9.3-14.6C97.61,300,78.41,299.16,79.31,312.76Z"/><path class="cls-5" d="M150.3,352.1c-.3-5.3-.8-10.2-3.6-14.9a23.46,23.46,0,0,0-11.6-9.9,30.23,30.23,0,0,0-8.4-1.3,28.37,28.37,0,0,0-16.5,4.4,21.93,21.93,0,0,0-9.6,16.8,176.87,176.87,0,0,0,49.3,11.1A31.38,31.38,0,0,0,150.3,352.1Z"/><path class="cls-5" d="M51.3,317a15.34,15.34,0,0,0,3-.6c4.3-1.6,7.2-6,8-10.5s-.3-9.2-2-13.5c-2-5.1-5-10-9.4-13.4s-10.1-5.2-15.5-4c-6.2,1.4-9.6,4.4-11,8.1A135.82,135.82,0,0,0,51.3,317Z"/><path class="cls-5" d="M74.4,226c5.4,3.3,14.1,2.9,18.3-.6,4.5-3.7,4.4-8.1,2.2-11.6a179.7,179.7,0,0,1-17.4-6.3c-1.4-.6-5,3.9-5.6,4.8a10.72,10.72,0,0,0-2,7.1A9.13,9.13,0,0,0,74.4,226Z"/><path class="cls-5" d="M317.2,191.3a12.72,12.72,0,0,0-6.1-.1c-14.5,3.2-13.6,27.4,2.5,22.6a12,12,0,0,0,6.2-4.4A121.42,121.42,0,0,0,317.2,191.3Z"/><path class="cls-5" d="M303.2,283.4a21,21,0,0,0-3.2-6.1c-3.6-4.5-9.6-6.7-15.4-6.6a30,30,0,0,0-13.1,3.3,22.84,22.84,0,0,0-11.3,16,35.55,35.55,0,0,0-.5,4.6c-.2,10.3,3.9,22.1,13.3,25.5A141.76,141.76,0,0,0,303.2,283.4Z"/><path class="cls-5" d="M130,261a12.91,12.91,0,0,0,5.1,1.5c5.6.3,10.8-3.9,13.1-9,4.7-10.5-5.1-23.3-16.7-19.1C120.23,238.19,119.73,255.59,130,261Z"/><path class="cls-5" d="M247.1,247.8c10.3,1.3,21.7-2.7,26.8-11.9a24.31,24.31,0,0,0,1.8-18.7,26.54,26.54,0,0,0-9.2-13.1,23.64,23.64,0,0,0-4.3-2.5A151.86,151.86,0,0,1,227,215.3c-.3,1.4-.6,2.9-.8,4.4-.9,6.7.4,13.7,4.5,19.1C234.5,244,240.6,247,247.1,247.8Z"/><path class="cls-5" d="M288.81,255.59a12.91,12.91,0,0,0,5.1,1.5c5.6.3,10.8-3.9,13.1-9,4.7-10.5-5.1-23.3-16.7-19.1C279,232.79,278.51,250.19,288.81,255.59Z"/><path class="cls-5" d="M31.32,247.26a16.85,16.85,0,0,0,6.68,2c7.3.39,14.07-5.08,17.07-11.72,6.12-13.68-6.65-30.35-21.76-24.88C18.56,217.56,17.9,240.22,31.32,247.26Z"/><path class="cls-5" d="M114.38,270.48c1.9-9.3,1.3-20.1-5.5-26.6-9.3-8.8-28.8-7.4-36.6,2.7-6.6,8.5-9,17.5-5.8,28.2,2,6.8,6.7,13,13.2,15.8,6.2,2.7,14.4,3.7,20.9,1.1,8.2-3.2,11.8-12,13.6-20A3.73,3.73,0,0,0,114.38,270.48Z"/></g><path class="cls-5" d="M157.56,295.05c.13,1.17.27,2.39.37,3.6,1.14,13.46,5.86,19.48,19,22.61A96,96,0,0,0,214.27,323c8.19-1.28,11.07-4.52,9.57-11.34a10.85,10.85,0,0,0-4.94-6.14c-14.13-8-28.51-15.59-42.66-23.59a31.55,31.55,0,0,1-8.92-7.31c-9.4-11.55-5.88-25.64,7.81-31.23,15.48-6.33,30.89-4.85,45.66,2.26,3.38,1.62,6.4,5.12,8.28,8.48,2.83,5.07.09,8.47-5.69,7.26a24,24,0,0,1-9.56-4.27c-9.4-7.29-19.79-7-30.29-4.15-3.37.9-7.53,3.38-8.88,6.28-2.07,4.42,1.77,8.19,5.39,10.39,7.06,4.32,14.51,8,21.8,11.93,8.37,4.53,16.85,8.89,25.06,13.71a29.4,29.4,0,0,1,7.34,6.8c7.39,9,6.3,21-3.55,27.22a51.77,51.77,0,0,1-20.12,7.22,77.55,77.55,0,0,1-46.33-7.91c-8-4.1-14.92-9.59-18.18-18.43A11.17,11.17,0,0,1,157.56,295.05Z"/><path class="cls-5" d="M203,275.3c-.71,20.36-1.17,39.28-2.17,58.15-.25,4.68,1,11.31-3.87,13.34-1.58.66-4.3-.48-5.52-2.16-4.17-5.72-3-13.47-2.75-20.43.55-14.66,2.12-29.26,2.44-43.92.23-10.41-1.19-20.86-1.32-31.31a95.9,95.9,0,0,1,1.77-17.5c.23-1.33,3-3,4.26-2.52a7.29,7.29,0,0,1,3.87,5C201.07,248.13,202,262.42,203,275.3Z"/></g></g></g></g></g></svg>