<?xml version="1.0" encoding="utf-8"?>
<!-- Generator: Adobe Illustrator 25.2.1, SVG Export Plug-In . SVG Version: 6.00 Build 0)  -->
<svg version="1.1" id="Layer_1" xmlns="http://www.w3.org/2000/svg" xmlns:xlink="http://www.w3.org/1999/xlink" x="0px" y="0px"
	 viewBox="0 0 119.5 204.7" style="enable-background:new 0 0 119.5 204.7;" xml:space="preserve">
<style type="text/css">
	.st0{fill:#262729;}
	.st1{fill:#79BB6B;}
	.st2{fill:#448539;}
	.st3{fill:#B0F49F;}
</style>
<g id="Layer_2_1_">
	<g id="Layer_1-2">
		<path class="st0" d="M118.5,46.3c-1.5-1.2-3.6-1.6-5.4-0.9c-1.4,0.6-2.7,1.3-4,2.1c-0.2-0.9,0.3-1.5,0.6-2.2
			c2.5-6.4,3.2-13.3,2.2-20c-0.2-1.5-0.8-2.8-1.8-3.9c-1.5-1.6-3.2-1.4-4.2,0.6c-0.3,0.6-0.5,1.3-0.8,2c-0.9,3-1.4,6.1-1.5,9.2
			c-0.3-0.1-0.6-0.1-0.8-0.2c-3.5-1.6-6.4-0.1-7.2,3.6c-0.2,1-0.2,1.9,0,2.9c0.5,2,1.3,3.9,2.4,5.7c1.2,1.8,2.2,3.7,2.8,5.8
			c0.4,1.6,0.8,3.3-0.1,5.1c-2.4-4.1-7.9-3.8-10.1,0.6c-0.5,1-0.9,2-1.1,3.1c-0.4,2.3-0.7,4.7-0.9,7.1c-0.1,1.9-0.7,3.8-1.7,5.5
			c-1-1.1-2.3-1.9-3.8-2c-3-0.2-5.7,1.8-6.5,4.7c-0.6,2.1-0.8,4.4-0.4,6.6c0.4,2.9,0.5,5.9,0.3,8.9c-0.1,1.5-0.4,3-1.1,4.4
			c-0.6,1.5-2.1,2.5-3.8,2.5c0.1-1.3,0.6-2.6,1.4-3.7c0.8-1.4,1.8-2.6,2.1-4.3c-0.1-0.3,0-0.6,0.3-0.8c0,0,0,0,0,0
			c0.3-0.8,0.3-1.7,0.1-2.6c0.1-0.8-0.2-1.6-0.9-2.1c-1.7-1.3-3.3-1.3-5.2,0.1c-0.6,0.5-1.1,1-1.7,1.6c-0.8-1.2-0.6-2.8,0.6-3.6
			c0,0,0.1-0.1,0.1-0.1c0.7-0.6,1.6-1.1,2.3-1.8c1.6-1.3,2.4-3.3,2.4-5.3c0.1-1.9-0.9-3.8-2.7-4.6c0.5-0.2,0.9-0.5,1.3-0.8
			c4.6-4.1,9.1-8.3,13.7-12.4c1.1-0.9,2-2.1,2.5-3.5c0.5-1.7-0.2-2.9-2-3c-1.3-0.1-2.7,0-4,0.3c-0.7,0.2-1.5,0.7-2.3,0.3
			c-0.1-1.1,0.8-1.5,1.3-2.1c2.8-3,4.9-6.5,6.4-10.3c1.4-3.6,1.6-7.6,0.4-11.3c-0.3-1.1-0.9-2-1.7-2.8c-1.6-1.5-3.1-1.4-4.5,0.4
			c-0.8,1-1.4,2.2-2.1,3.2c-0.6,0.8-0.9,1.8-2.1,2.4c0.6-4.7,1-9.4,1.1-14.1c0.2-2.9,0.1-5.8-0.4-8.6c0.2-2.6,0.1-5.1-1.8-7.1
			c-2.2-1.6-4.1-1.2-5.4,1.4c-4,8.2-3.8,16,2.1,23.3c0.4,0.1,0.5,0.5,0.9,1c-0.6,0.1-1.2-0.2-1.6-0.7c-0.4-0.1-0.7-0.3-1.1-0.4
			c-3.2-0.8-4.7,0.4-4.8,3.7c-0.1,2.5,0.6,4.9,2,7c1,1.5,2.1,3,3.1,4.6c1.1,1.5,1.9,3.1,2.5,4.9c0.6,1.6,0.5,3.4-0.3,5
			c-0.6-1-1.2-2-1.9-2.9c-1-1.6-3-2.3-4.8-1.6c-1.4,0.6-2,2.1-1.6,4.3c0.5,2.7,1,5.3,1.5,8c0.4,2.5,1.2,5,1.2,8.2
			c-2-3.1-4.2-4.5-7.3-2.8c-0.2,0.4-0.7,0.8-1,0.5s0-0.8,0.4-1c1-2.4,1.3-5.1,1-7.7c-0.3-2.6-2.1-3.5-4.5-2.4c-0.7,0.3-1.1,1-2,1.1
			c0.7-4.3,1.4-8.5,2-12.7c0.2-1.5,0.2-3-1.2-3.9s-3-0.7-4.5,0.2c-0.7,0.5-1.4,1-2.2,1.5c-0.4-0.7,0-1.3,0.2-1.9
			c1.2-3.9,2.5-7.7,3.7-11.6c0.6-1.7,0.8-3.5,0.5-5.2c-0.4-1.5-1.1-2-2.6-1.6c-0.9,0.3-1.7,0.6-2.5,1c0.1-0.5,0.1-1.1,0.1-1.6
			c1.4-3.2,2.5-6.5,3.3-9.9h-0.8c-0.4,3.2-2,6-2.9,9c-0.8,1.7-1.6,3.3-2.4,5c-0.2,0.4-0.5,0.9-1,0.8s-0.6-0.7-0.6-1.2
			c-0.1-3.3,0.4-6.6,1.4-9.7c0.5-1.7,1.1-3.3,2-4.8c0.3-0.5,0.6-0.9,1-1.3c0.4-0.6,1.1-0.8,1.7-0.6c0.5,0.2,0.9,0.8,0.8,1.4v1.4h0.8
			c0.1-0.4,0.2-0.8,0.3-1.1c0.4-0.9,0.1-2-0.7-2.6c-0.8-0.6-1.9-0.5-2.7,0.1c-1.2,0.7-2.2,1.6-2.8,2.9c-3.5,5.7-5,12.4-4.3,19.1
			c0.1,0.8,0.1,1.6,0.1,2.4c-2.7-0.4-4.8,0.4-6,2.8s-0.1,4.3,1.2,6.2c1.2,1.7,2.7,3.2,4.3,4.5c1.4,1.2,2.8,2.4,4.1,3.7
			c1,0.8,1.6,1.9,1.8,3.2c-3.8,0.1-5.5,4.3-3.2,7.5c1,1.4,2.2,2.5,3.7,3.3c1.3,0.7,2.7,1.4,4,2.1c2.4,1.2,4.2,3.3,5.3,5.7
			c1.7,3.7,2.2,7.9,1.7,11.9c0,0.7-0.1,1.4-0.5,2c-0.7-0.3-1.2-0.7-1.8-0.9c-2.3-0.8-3.9,0.2-4.3,2.6c-0.2,0.9-0.1,1.8,0.1,2.6
			c0.3,1.5,0.7,2.9,1,4.4c0.7,3.4-0.6,5.5-4,6.6c-1.1,0.4-2.3,0.5-3.5,0.5c-5.1,0.1-10.2,0.2-15.3,0.2c-0.5,0-1.1,0.3-1.5-0.4
			c0.3-0.7,0.7-1.4,1.3-1.9c2.5-3.2,5.1-6.4,7.6-9.6c0.6-0.7,1.1-1.5,1.5-2.4c0.4-0.8,0.3-1.8-0.2-2.5c-0.6-0.6-1.6-0.8-2.4-0.5
			c-0.8,0.2-1.5,0.5-2.2,0.9c-2.7,1.4-5.2,3-7.6,4.9c-0.6,0.7-1.3,1.3-2.1,1.8c0.1-0.8,0.5-1.5,1.1-2c3.3-5.2,6.5-10.4,9.8-15.6
			c0.7-1,1.2-2.1,1.4-3.3c0.2-1.6-0.6-2.5-2.2-2.3c-0.6,0-1.3,0.2-1.9,0.4c-4.7,1.4-8.9,4-12.4,7.4c-0.5,0.7-1.1,1.2-1.8,1.6
			c-0.7-1.8-0.1-3.2,0.7-4.6c1.1-1.8,2.5-3.4,4-4.8c2.9-3,5.4-6.3,7.4-10c1.5-2.4,3-4.8,2.8-7.9c-0.7-2.3-1.4-2.8-3.6-2
			c-0.5,0.2-1,0.5-1.5,0.7c-3.7,1.9-7.1,4.3-10.2,7c-0.5,0.5-0.9,1.2-1.7,1.2c-0.5-1.3-0.6-2.7-0.3-4c0.5-2.6,1.7-5.1,3.4-7.1
			c1.8-2.2,3.9-4.1,6.1-5.8c2.1-1.6,4-3.4,5.8-5.4c2.1-2.3,3.1-5.3,2.8-8.4c0.3-1.3-0.3-2.5-1.4-3.2c-1.7-1.8-3.8-1.9-6-1.4
			c-1.6,0.5-3.1,1.2-4.5,2.1c-0.8,0.5-1.6,1-2.3,1.5c-1.8-1.8-3.9-3.2-6.3-4.1c-4.4-1.4-8.2,0.8-9.3,5.3c-0.6,3-0.1,6.1,1.4,8.8
			c1.2,2.3,2.7,4.4,4.4,6.3c3.1,3.5,4.5,8.2,3.8,12.9c0,0.4,0.2,1-0.6,1.1c-0.4-0.6-0.9-1.2-1.4-1.9c-1.1-1.6-2.5-2.9-4.2-3.8
			c-2.4-1.3-5.5-0.5-6.8,2c-0.2,0.3-0.3,0.6-0.4,0.9c-0.5,1.5-0.6,3.1-0.2,4.7c0.5,3,2.2,5.3,4.2,7.4c2.3,2.4,4.8,4.7,7.1,7.1
			c1.8,1.6,3.2,3.6,4.3,5.7c0.4,0.2,0.7,0.8,0.5,0.9c-0.6,0.4-0.9-0.2-1.3-0.6c-0.4-0.1-0.7-0.3-1.1-0.4c-3.6-1-7,0.3-8.6,3.5
			c-1.6,3.1-0.7,7,2.2,9c1.9,1.5,4.2,2.4,6.6,2.4h2.8c-1.5,1.1-2.2,2.9-1.7,4.7c0.4,1.9,2,2.9,3.6,4.3c-2.7,0.4-5,0.8-7.2,1
			c-4.5,0.2-5.7,2.5-5.9,6v0.5l-1.5,44.1c-0.4,11.5-0.8,23-1.3,34.5c-0.2,5-0.3,9.9-0.6,14.9c-0.2,3.1,1,4.4,4.1,4.7
			c1.3,0.1,2.5,0.1,3.8,0l56.8-1.2l28.1-0.6c2.7-0.1,3.5-0.8,3.6-3.3c0.9-16,1.9-32.1,2.8-48.1c0.9-14.7,1.7-29.4,2.6-44.1
			c0.2-1.8,0.2-3.7,0-5.5c-0.2-1.8-1.5-3.3-3.3-3.7c-1.3-0.4-2.6-0.5-4-0.5c-3.8,0-7.7,0-11.5-0.1c-1.9,0.1-3.7,0-5.6-0.3
			c1.2-0.8,2.4-1.6,3.5-2.5c2.4-1.8,4.2-3.9,4.6-7c0.3-2-0.2-2.7-2-3.6c-0.4-0.2-0.9-0.2-1-0.8C90.5,81.5,96,79,101.1,76l0,0
			c0.9-0.5,1.8-0.9,2.6-1.4c1.1-0.7,2.3-1.3,2.6-2.8c0.5-2.2,0.1-3.2-1.8-4.4c-1.1-0.6-2.4-1.1-3.7-1.7c0.9-0.7,1.6-1.2,2.3-1.7
			c4.8-3.5,9.4-7.2,13.7-11.3c1.2-1.1,2-2.5,2.5-4C119.7,47.8,119.4,47,118.5,46.3z M39,38c-0.6-0.8-1.1-1.7-1.5-2.7
			c-0.6-1.8-0.3-3.1,0.9-3.8c1.4-0.6,3-0.1,3.8,1.1c0.6,0.8,1,1.7,1.2,2.6c0.6,2.4,0.8,4.8,1.5,7.3C42.6,41.5,40.6,40,39,38z
			 M47.1,36c-0.6,0.1-0.8-0.5-1-0.9c-0.5-0.9-0.7-2-0.6-3c0-1,0.2-2,0.6-3c1-2.4,2.2-4.7,3.7-6.9c0.3-0.4,0.6-0.8,0.9-1.1
			c0.4-0.4,0.8-0.8,1.5-0.5c0.5,0.2,0.5,0.8,0.5,1.2c0.1,0.9-0.1,1.8-0.4,2.6c-1.7,3.5-3.2,7.1-4.5,10.8
			C47.7,35.6,47.5,35.9,47.1,36L47.1,36z M51.5,60.4c-1.8-1.1-3.6-2.3-5.4-3.5c-0.7-0.4-1.3-1-1.6-1.8c-0.7-1.6,0.1-2.9,1.8-2.9
			c1.1,0,2.1,0.6,2.6,1.5c1.7,2.3,3.2,4.6,4.6,7.1C52.8,61.1,52.1,60.9,51.5,60.4L51.5,60.4z M53.4,53.7c-0.4,0.9-1,1-1.6,0.2
			c-0.5-0.7-0.8-1.5-1-2.4c-0.3-1.8-0.9-3.4-1.7-5c-0.6-0.9-0.6-2.1,0.1-2.9c1.1-1.5,2.2-2.9,3.4-4.3c0.5-0.5,1-1.2,1.8-0.8
			c0.7,0.4,1.1,1,1.1,1.8c0.1,0.5,0.1,0.9,0.1,1.4c0,0.9-0.2,1.8-0.4,2.6c-0.8,2.8-1.4,5.6-1.6,8.5C53.6,53.2,53.6,53.5,53.4,53.7
			L53.4,53.7z M21.3,25.4c1.9-3.7,6.3-5.6,10.3-4.3c1,0.6,1.8,1.6,2,2.8c-0.3,2.6-1.4,4.9-3.2,6.8c-3.8,4.1-7.8,8-12,11.7
			c-0.3,0.2-0.6,0.4-0.9,0.6c-0.4-0.8-0.5-1.7-0.3-2.6c0.3-3.9,1.1-7.7,2.3-11.4C20.1,27.9,20.7,26.6,21.3,25.4L21.3,25.4z M14.9,70
			c-0.6,0.3-1.2-0.4-1.7-0.8c-3.5-2.7-6.5-6-8.8-9.7c-1.6-2.4-2.4-5.3-2.3-8.2c0-2.7,1.4-3.7,4-3c1.1,0.2,2.1,0.7,2.9,1.5
			c2.5,2.8,4.9,5.6,5.3,9.6c0.3,2.9,0.6,5.7,0.9,8.5C15.2,68.8,15.8,69.7,14.9,70L14.9,70z M15.1,42.1c-1-0.5-1.9-1.4-2.4-2.4
			c-2.5-3.9-4.5-8.1-6-12.5c-1.4-4.4,1.2-7.5,5.8-7c1.5,0.2,3,0.8,4.1,1.8c1.5,1.3,2.1,2.8,1.3,4.7c-1.6,3.8-1.6,7.9-2.1,12
			C15.9,39.9,15.6,41.1,15.1,42.1L15.1,42.1z M107.1,23.2c1.2-1.6,2-1.5,2.9,0.2c0.7,1.3,1.1,2.7,1.1,4.1c-0.1,4.6,0,9.3-2.3,13.5
			c-0.2,0.4-0.2,1.2-1.1,1c-1.3-4.4-2-8.9-2.1-13.4C105.5,26.7,106,24.8,107.1,23.2L107.1,23.2z M97.1,38.1c0-0.2-0.1-0.3-0.1-0.5
			c-0.3-1.9,0.2-3,1.3-3.5c1.3-0.6,2.5-0.1,3.7,1.5c2.2,2.9,4,6,3.5,9.8c0.1,1.7-0.1,3.4-0.7,5c-0.5,1.3-1.1,1.4-1.8,0.4
			C100.5,47,97.8,43,97.1,38.1L97.1,38.1z M92.5,57.1c0.4-1.7,2.1-2.8,3.8-2.4c0.1,0,0.1,0,0.2,0c1.8,0.5,2.8,2.3,2.5,4.1
			c-0.2,1.3-0.7,2.5-1.4,3.5c-1.8,2.4-3.6,4.7-5.4,7.1c-0.2,0.3-0.4,0.7-0.9,0.6s-0.6-0.6-0.7-1.1c-0.1-0.6-0.1-1.2-0.1-1.8
			C91.2,64.1,91.7,60.5,92.5,57.1L92.5,57.1z M69.3,88c0.6-2.2,2.7-3.7,5-3.3c0.4,0.5,0.6,1.2,0.7,1.8l0,0
			c-0.6,2.7-3.7,8.2-5.9,10.1C68.9,93.6,68.6,90.7,69.3,88z M78.2,42.3c0.6-2,0.5-4.1,0.8-6.2c0.5-3.4,1.9-6.6,3.9-9.4
			c1.3-1.8,2.3-1.7,3.3,0.3c0.8,1.6,1.1,3.4,1,5.2c0.1,1.1,0,2.3-0.4,3.4c-1.3,4.2-3.5,8.1-6.4,11.4c-0.4,0.5-0.8,1.1-1.6,0.9
			s-0.7-1-0.8-1.6C77.9,44.9,77.9,43.6,78.2,42.3L78.2,42.3z M79.6,52c-0.3,0.5-0.9,0.4-1.4,0.8c0-0.5,0.3-1,0.8-1.2
			c0.2-0.1,0.3-0.4,0.6-0.2S79.6,51.8,79.6,52z M71.2,6.4c0.3-1.5,1-2.8,2-4c0.5-0.8,1.6-1.2,2.5-0.8c1.7,1.9,1.8,4.3,2,6.7l0,0
			c-0.2,3.6,0,7.2-0.5,10.7c-0.3,2.1-0.7,4.2-1.2,6.3c-1.1,0.2-1.4-0.6-1.8-1.3C71,18.5,69.6,12.6,71.2,6.4L71.2,6.4z M69.5,32.3
			c-0.3-0.6-0.5-1.3-0.7-2c-0.3-1.2,0.2-2.5,1.3-3.1c1.1-0.5,2.4-0.2,3.3,0.7c0.7,0.6,1.1,1.4,1.3,2.3c0.8,3.7,1.4,7.4,1.8,11.1
			c0.1,1,0,2.1-0.5,3c-1-0.2-1.2-1-1.5-1.6C72.8,39.2,71.1,35.7,69.5,32.3L69.5,32.3z M84.2,52.1c0.2-0.1,0.5-0.1,0.7-0.1
			c1.9-0.1,2.4,0.7,2,2.2c-0.3,0.8-0.8,1.6-1.5,2.1c-3.2,2.5-6.5,5-9.7,7.5c-0.1,0-0.1,0.1-0.2,0.1c-0.6,0.2-1.3,1-1.9,0.4
			s0-1.2,0.1-1.8C74.5,56.3,79.5,54.3,84.2,52.1L84.2,52.1z M67.7,51.8c-0.3-1.2-0.2-2.4,0.2-3.5c0.5-1.3,1.4-1.5,2.4-0.5
			c1.9,2,3.4,4.3,3.2,7.2c-0.2,3.6-1,7.2-2.4,10.5c-1.9-2.4-1.9-4.9-2.3-7.3C68.4,56,68.1,53.8,67.7,51.8L67.7,51.8z M68.9,74.7
			c1.2-1,2.1-1,3-0.2s0.7,1.8,0.2,2.8c-0.6,1.1-1.4,2.1-2.4,2.9c-2.1,1.5-4.3,2.9-6.5,4.4c-0.1-0.1-0.2-0.3-0.3-0.4
			c1.3-2.6,2.4-5.3,4.3-7.6C67.7,75.9,68.3,75.2,68.9,74.7L68.9,74.7z M60.8,69.1c0-0.5,0-1,0.2-1.4c0.7-2.5,2.5-3,4.4-1.3
			c2.7,2.4,2.9,3.5,1.2,6.6c-1,2.1-2.3,4-3.9,5.7c-0.4,0.4-0.7,0.9-1.3,0.9c-0.5-0.4-0.4-1-0.5-1.5C60.8,75.1,60.7,72.1,60.8,69.1
			L60.8,69.1z M58.3,62.2c-0.2,0.4-0.4,0.9-1,0.9c-0.4,0-0.6-0.4-0.9-0.8c-1.4-2.3-0.5-6.1,1.8-7.4c0.3-0.2,0.7-0.5,1.1-0.2
			s0.5,0.7,0.4,1.2C59.5,58,59.1,60.1,58.3,62.2L58.3,62.2z M59.9,88.2c1-1.1,2.3-2,3.6-2.7c1.2-0.6,1.7-0.2,2.1,0.9
			c-0.3,0.5-1,0.3-1.4,0.6c1.4,1,3.1,1.7,3.2,3.7c0,0.1,0,0.2,0.1,0.2c0,1.1,0.5,2.3-0.5,3.1c-0.6,0.5-2.1-0.4-3-1.6
			c-0.7-1.1-1.4-2.2-0.8-3.6c0.1-0.3,0-0.6-0.3-0.8c-1.4,2.6-1.3,3.8,0.7,5.7c0.8,0.8,1.7,1.5,2.6,2.1c0.4,0.4,0.6,1,0.4,1.5
			c-0.2,0.5-0.7,0.6-1.2,0.6H53.7c-0.2-0.9,0.1-1.9,0.8-2.6C56.2,92.8,58,90.4,59.9,88.2L59.9,88.2z M53.3,84.4c0.1-1,0.2-2,1.2-2.4
			c1.3-0.4,1.8,0.6,2.4,1.5c1.8,2.7,1.5,4.2-1.8,7.1C53.8,88.8,53.2,86.6,53.3,84.4L53.3,84.4z M36.9,100c9-0.6,18.1-0.8,27.1-0.4
			c3,0.1,6.1,0.3,9.1,0.4c0.5,0,1.1-0.1,1.5,0.3c0.1,0.8-0.4,0.9-0.8,1.2c-4.8,3.6-9.3,7.6-13.5,11.9c-1.2,1.3-2.3,2.7-3.5,3.9
			s-1.4,1.3-2.8,0.2c-2.9-2.2-5.7-4.4-8.5-6.6c-3.2-2.6-6.5-5.2-9.7-7.8c-0.9-0.6-1.5-1.4-1.9-2.3C34.9,100.4,35.9,100.1,36.9,100z
			 M27.4,88.5c2.2-2,4.3-4.1,6.9-5.4c0.5-0.3,1-0.5,1.5-0.7c0.5-0.3,1.1-0.1,1.4,0.4c0.2,0.4,0.2,0.8,0,1.1c-0.6,1.5-1.5,3-2.5,4.3
			c-1.3,1.6-2.7,3.1-4.1,4.6c-0.7,0.7-1.4,1.6-2.6,1.2c-0.8-0.3-1.7-2.1-1.6-3.4C26.5,89.8,26.8,89,27.4,88.5L27.4,88.5z M21.7,75.7
			c2.2-3.5,5.5-6.1,9.4-7.4c0.9-0.3,1.8-0.7,2.7-1c1.4-0.5,2,0.1,1.7,1.5c-0.2,0.9-0.7,1.8-1.3,2.5C30.9,76,27.1,80.4,24,85.2
			c-0.8,1.3-1.3,1.2-1.9-0.2c-0.9-1.8-1.5-3.8-1.6-5.8C20.6,77.9,21,76.7,21.7,75.7L21.7,75.7z M18.8,56.1c1-1,2.1-2,3.2-2.9
			c2.2-1.6,4.3-3.3,6.6-4.7c1.1-0.7,2.3-1.9,3.9-0.9c0.4,1.8,0,3.6-1.1,5.1c-0.4,0.7-0.9,1.3-1.3,1.9l0,0c-2.8,3.4-5.5,6.8-8.5,10.1
			c-1,1.2-2,2.5-2.8,3.9c-0.3,0.4-0.7,0.7-1.2,0.5s-0.4-0.6-0.4-1C17,66,16.8,64,16.6,61.9C16.4,59.7,17.2,57.5,18.8,56.1L18.8,56.1
			z M16.8,88.4c-1.1-0.1-2.8-0.2-4.5-0.5c-2.2-0.4-4.1-1.6-5.3-3.4c-1.2-1.6-1.3-3.8-0.1-5.4c1.1-1.8,3.2-2.6,5.2-2
			c1.6,0.6,3.2,1.4,4.8,2.2c0.7,0.5,1.3,1.2,1.5,2.1c0.6,1.6,1.2,3.1,1.7,4.7s0.3,2.1-1.4,2.3L16.8,88.4z M17.7,95.9
			c-1.7-2-1.2-3.6,1.3-4.2c3.5-0.9,5.3,0.1,6.7,3.5c0.6,1.4,0.2,2-1.4,2.3c-0.6,0.1-1.3,0.1-1.9,0.1C20.7,97.9,18.9,97.2,17.7,95.9
			L17.7,95.9z M30.8,202.6c-6.2-0.3-12.3,0.6-18.4,0.6c-1.3,0-2.5,0.5-3.8,0.4c-1.6,0.1-3-0.9-3.4-2.5c-0.5-1.4-0.7-3-0.4-4.5
			c0.3-1.8,0.4-3.7,0.4-5.5c0.2-4.8,0.5-9.7,1.1-15c9.1,9.4,19,18,29.5,25.8C34.2,202.5,32.5,202.7,30.8,202.6L30.8,202.6z
			 M98.8,177c-0.8,4.4-0.1,8.9-0.5,13.4c-0.1,3.2-0.4,6.5-0.9,9.7c0,0.9-0.8,1.6-1.7,1.6c-7.7,0.4-15.5,0.6-23.2,0.3
			c-0.1,0-0.1-0.1-0.4-0.1c-0.1-0.8,0.3-1.5,0.9-2c2-2,4-4.1,6.2-6c2.7-2.4,5.3-5,7.9-7.7c3.3-3.4,6.8-6.5,10.2-9.8
			c0.3-0.3,0.5-0.6,1-0.5C98.7,176.1,98.9,176.6,98.8,177L98.8,177z M100.7,146.2c-0.8,5.4-0.7,11-1.3,16.4c-0.3,3-0.1,6.1-0.5,9.1
			c0,1.3-0.6,2.5-1.6,3.3c-3.9,3.2-7.6,6.6-11.3,9.9s-7.3,6.9-10.9,10.5c-1.6,1.7-3.2,3.4-4.7,5.1c-0.7,0.8-1.7,1.2-2.7,1.1
			c-5-0.1-10.1,0.1-15.1,0.6c-4.1,0.3-8.1-0.4-12.2-0.2c-0.8,0-1.6-0.2-2.2-0.7c-2.2-1.5-4.2-3.1-6.2-4.8c-3.7-3.4-7.6-6.6-11.4-9.8
			l-8.4-7.2c-1.4-1.2-2.8-2.4-4.1-3.7c-1.3-1.2-2-2.9-2-4.7c0.1-5.2-0.2-10.4,0.1-15.6c0.2-3.3,0.3-6.5,0.4-9.8
			c0-0.3,0.2-0.5,0.4-0.6c0.8,0,1.1,0.7,1.6,1.2c1.8,1.8,3.6,3.6,5.5,5.4c6.3,6.2,12.9,12,19.5,17.7c5.9,5,11.9,9.9,18.1,14.6
			c0.6,0.4,1.2,0.9,1.7,1.3c0.9,0.7,2.2,0.6,3-0.3c1.7-1.6,3.4-3.1,5.1-4.7c7.6-7.1,14.9-14.5,22.3-21.8c4.4-4.3,9.1-8.3,14-12
			c0.6-0.7,1.5-1.2,2.4-1.4C100.8,145.6,100.8,146,100.7,146.2L100.7,146.2z M101.7,102.1c0.8,0.2,0.8,1.1,1,1.8
			c0.6,2.4,0.6,4.9,0.1,7.3c-0.1,0.6-0.1,1.1-0.1,1.7c0,6.4-0.8,12.7-1.1,19.1c-0.1,2.9-0.4,5.9-0.8,8.8c-0.1,1.3-0.8,2.4-1.8,3.2
			c-6.6,5-12.7,10.3-18.8,15.9c-7.1,6.6-14.1,13.2-20.9,20.1c-0.9,0.9-1.8,1.8-2.6,2.8c-1.2,1.6-2.2,1.8-3.8,0.5
			c-3.1-2.3-6-4.7-9-7.1c-6.2-5-12.2-10.2-18.2-15.5c-2.6-2.2-5.1-4.6-7.5-7c-3-3-6.2-5.7-9.2-8.7c-1.3-1.1-2-2.8-1.8-4.5
			c1-10.6,0.4-21.2,0.5-31.9c0-0.5,0.1-1,0.2-1.5c1.1,0.1,1.5,0.8,2,1.3c6.2,7,12.7,13.7,19.3,20.3c1.7,1.7,3.2,3.6,4.9,5.2
			c6,5.7,11.9,11.6,17.8,17.4c0.6,0.6,1.4,1.1,2,1.7c1.5,1.3,1.8,1.3,3.1-0.2c2.5-2.7,4.8-5.5,7.2-8.3c3.2-3.8,6.4-7.5,9.6-11.3
			l10.9-12.7c2.3-2.7,4.6-5.3,6.9-7.9c2.6-3,5.3-6,7.9-9c0.2-0.3,0.4-0.5,0.7-0.7C100.7,102.7,101,101.8,101.7,102.1L101.7,102.1z
			 M80.5,100c2.5-0.3,5.1-0.5,7.6-0.6c2.1,0.1,4.2,0,6.2-0.3c1.7-0.4,3.4,0.3,5.4,0.9c-1.8,2.9-3.9,5.5-6.3,7.9
			c-3.1,3.3-6.2,6.5-9,10c-3.1,3.9-6,7.8-9.1,11.7c-3.1,3.9-6,7.5-9.2,11s-6,6.9-9.2,10.1c-1.8,1.8-1.8,1.8-3.5,0.1
			c-14.2-14.2-28.4-28.4-42.6-42.5c-0.2-0.3-0.5-0.6-0.8-0.8c-1.1-1-1.8-2.1-1.3-3.6s2-1.7,3.3-2c3.1-0.6,6.2-0.4,9.3-0.5
			c2.3,0.2,4.6,0,6.9-0.4c1.6-0.4,2.9,0.4,4.1,1.4c6.3,5.4,12.7,10.7,19,16.1c0.6,0.5,1.3,0.9,1.9,1.5c2.2,2.1,1.9,2,4-0.3
			c6.3-6.6,13-12.7,20.2-18.3C78.3,100.6,79.4,100.1,80.5,100z M87.1,87.1c0.4,0.9-0.4,1.6-1,2.3C83.8,91.8,81,93.7,78,95
			c-0.3-4.2,2-7.9,5.2-8.8c0.4-0.1,0.8-0.2,1.2-0.2C85.4,86,86.6,86.1,87.1,87.1L87.1,87.1z M79.3,84.9c-0.1,0.1-0.3,0-0.6,0.1
			c-0.6-3-0.8-6.1-0.4-9.2c0.1-0.4,0.2-0.8,0.3-1.1c0.5-1.4,1.2-2.6,3-2.7c1.7,0,3.3,0.9,4.1,2.4c0.5,0.8,0.5,1.9-0.2,2.7
			C83.3,79.6,81.3,82.2,79.3,84.9L79.3,84.9z M103.9,69.3c1.6,0.5,1.8,1,1.6,2.9c-1.2,1.7-3.2,2.4-4.7,3.7
			c-3.8,1.5-7.5,3.1-11.3,4.6c-0.9,0.5-2,0.7-3,0.7c-1.1,0-1.4-0.6-1-1.5c0.1-0.2,0.2-0.4,0.4-0.6c3.3-3.5,6.6-6.9,11-9.1
			C99.2,68.8,101.5,68.3,103.9,69.3L103.9,69.3z M117.9,50c-0.9,1.2-1.9,2.3-3.1,3.3c-5.4,4.8-10.9,9.6-18.1,12.7
			c3.8-4.7,6.7-9.5,10.6-13.7c2.2-2.3,4.9-4.1,7.9-5.1c0.8-0.4,1.8-0.3,2.5,0.2C118.6,48,118.7,49,117.9,50z"/>
		<g>
			<path class="st1" d="M7.1,145.2c0.8,0,1.1,0.7,1.6,1.2c1.8,1.8,3.6,3.6,5.5,5.4c6.3,6.2,12.9,12,19.5,17.7
				c5.9,5,11.9,9.9,18.1,14.6c0.6,0.4,1.2,0.9,1.7,1.3c0.9,0.7,2.2,0.6,3-0.3c1.7-1.6,3.4-3.1,5.1-4.7c7.6-7.1,14.9-14.5,22.3-21.8
				c4.4-4.3,9.1-8.3,14-12c0.6-0.7,1.5-1.2,2.4-1.4c0.3,0.2,0.4,0.6,0.3,0.9c-0.8,5.4-0.7,11-1.3,16.4c-0.3,3-0.1,6.1-0.5,9.1
				c0,1.3-0.6,2.5-1.6,3.3c-3.9,3.2-7.6,6.6-11.3,9.9s-7.3,6.9-10.9,10.5c-1.6,1.7-3.2,3.4-4.7,5.1c-0.7,0.8-1.7,1.2-2.7,1.1
				c-5-0.1-10.1,0.1-15.1,0.6c-4.1,0.3-8.1-0.4-12.2-0.2c-0.8,0-1.6-0.2-2.2-0.7c-2.2-1.5-4.2-3.1-6.2-4.8
				c-3.7-3.4-7.6-6.6-11.4-9.8l-8.4-7.2c-1.4-1.2-2.8-2.4-4.1-3.7c-1.3-1.2-2-2.9-2-4.7c0.1-5.2-0.2-10.4,0.1-15.6
				c0.2-3.3,0.3-6.5,0.4-9.8C6.7,145.6,6.7,145.4,7.1,145.2z"/>
			<path class="st1" d="M99.6,100c-1.8,2.9-3.9,5.5-6.3,7.9c-3.1,3.3-6.2,6.5-9,10c-3.1,3.9-6,7.8-9.1,11.7c-3.1,3.9-6,7.5-9.2,11
				s-6,6.9-9.2,10.1c-1.8,1.8-1.8,1.8-3.5,0.1c-14.2-14.2-28.4-28.4-42.6-42.5c-0.2-0.3-0.5-0.6-0.8-0.8c-1.1-1-1.8-2.1-1.3-3.6
				s2-1.7,3.3-2c3.1-0.6,6.2-0.4,9.3-0.5c2.3,0.2,4.6,0,6.9-0.4c1.6-0.4,2.9,0.4,4.1,1.4c6.3,5.4,12.7,10.7,19,16.1
				c0.6,0.5,1.3,0.9,1.9,1.5c2.2,2.1,1.9,2,4-0.3c6.3-6.6,13-12.7,20.2-18.3c0.9-0.7,1.9-1.2,3-1.3c2.5-0.3,5.1-0.5,7.6-0.6
				c2.1,0.1,4.2,0,6.2-0.3C96,98.7,97.7,99.2,99.6,100z"/>
		</g>
		<g>
			<path class="st2" d="M7.7,107.2c1.1,0.1,1.5,0.8,2,1.3c6.2,7,12.7,13.7,19.3,20.3c1.7,1.7,3.2,3.6,4.9,5.2
				c6,5.7,11.9,11.6,17.8,17.4c0.6,0.6,1.4,1.1,2,1.7c1.5,1.3,1.8,1.3,3.1-0.2c2.5-2.7,4.8-5.5,7.2-8.3c3.2-3.8,6.4-7.5,9.6-11.3
				l10.9-12.7c2.3-2.7,4.6-5.3,6.9-7.9c2.6-3,5.3-6,7.9-9c0.2-0.3,0.4-0.5,0.7-0.7c0.5-0.4,0.8-1.2,1.5-1s0.8,1.1,1,1.8
				c0.6,2.4,0.6,4.9,0.1,7.3c-0.1,0.6-0.1,1.1-0.1,1.7c0,6.4-0.8,12.7-1.1,19.1c-0.1,2.9-0.4,5.9-0.8,8.8c-0.1,1.3-0.8,2.4-1.8,3.2
				c-6.6,5-12.7,10.3-18.8,15.9c-7.1,6.6-14.1,13.2-20.9,20.1c-0.9,0.9-1.8,1.8-2.6,2.8c-1.2,1.6-2.2,1.8-3.8,0.5
				c-3.1-2.3-6-4.7-9-7.1c-6.2-5-12.2-10.2-18.2-15.5c-2.6-2.2-5.1-4.6-7.5-7c-3-3-6.2-5.7-9.2-8.7c-1.3-1.1-2-2.8-1.8-4.5
				c1-10.6,0.4-21.2,0.5-31.9C7.5,108.3,7.6,107.8,7.7,107.2z"/>
			<path class="st2" d="M35.8,202c-1.6,0.6-3.4,0.8-5.1,0.7c-6.2-0.3-12.3,0.6-18.4,0.6c-1.3,0-2.5,0.5-3.8,0.4
				c-1.6,0.1-3-0.9-3.4-2.5c-0.5-1.4-0.7-3-0.4-4.5c0.3-1.8,0.4-3.7,0.4-5.5c0.2-4.8,0.5-9.7,1.1-15C15.4,185.6,25.3,194.2,35.8,202
				z"/>
			<path class="st2" d="M34,100.6c0.9-0.3,1.9-0.5,2.9-0.6c9-0.6,18.1-0.8,27.1-0.4c3,0.1,6.1,0.3,9.1,0.4c0.5,0,1.1-0.1,1.5,0.3
				c0.1,0.8-0.4,0.9-0.8,1.2c-4.8,3.6-9.3,7.6-13.5,11.9c-1.2,1.3-2.3,2.7-3.5,3.9s-1.4,1.3-2.8,0.2c-2.9-2.2-5.7-4.4-8.5-6.6
				c-3.2-2.6-6.5-5.2-9.7-7.8C35,102.4,34.3,101.5,34,100.6z"/>
			<path class="st2" d="M72.1,201.9c-0.1-0.8,0.3-1.5,0.9-2c2-2,4-4.1,6.2-6c2.7-2.4,5.3-5,7.9-7.7c3.3-3.4,6.8-6.5,10.2-9.8
				c0.3-0.3,0.5-0.6,1-0.5s0.4,0.7,0.4,1c-0.8,4.4-0.1,8.9-0.5,13.4c-0.1,3.2-0.4,6.5-0.9,9.7c0,0.9-0.8,1.6-1.7,1.6
				c-7.7,0.4-15.5,0.6-23.2,0.3C72.4,202.1,72.3,202,72.1,201.9z"/>
		</g>
		<g>
			<path class="st3" d="M31.5,21.2c1,0.6,1.8,1.6,2,2.8c-0.3,2.6-1.4,4.9-3.2,6.8c-3.8,4.1-7.8,8-12,11.7c-0.3,0.2-0.6,0.4-0.9,0.6
				c-0.4-0.8-0.5-1.7-0.3-2.6c0.3-3.9,1.1-7.8,2.3-11.5c0.5-1.3,1-2.5,1.7-3.7C23.2,21.7,27.5,20,31.5,21.2z"/>
			<path class="st3" d="M15.2,68.1c-0.1,0.7,0.4,1.6-0.4,2c-0.6,0.3-1.2-0.4-1.7-0.8c-3.5-2.7-6.5-6-8.8-9.7C2.8,57.1,2,54.3,2,51.3
				c0-2.7,1.4-3.7,4-3c1.1,0.2,2.1,0.7,2.9,1.5c2.5,2.8,4.9,5.6,5.3,9.6C14.6,62.5,15,65.2,15.2,68.1z"/>
			<path class="st3" d="M15,42.2c-1-0.5-1.9-1.4-2.4-2.4c-2.5-3.9-4.5-8.1-6-12.5c-1.4-4.4,1.2-7.5,5.8-7c1.5,0.2,3,0.8,4.1,1.8
				c1.5,1.3,2.1,2.8,1.3,4.7c-1.6,3.8-1.6,7.9-2.1,12C15.7,39.9,15.5,41.1,15,42.2z"/>
			<path class="st3" d="M32.5,47.7c0.4,1.8,0,3.6-1.1,5.1c-0.4,0.7-0.9,1.3-1.3,1.9c-2.8,3.4-5.5,6.8-8.5,10.1c-1,1.2-2,2.5-2.8,3.9
				c-0.3,0.4-0.7,0.7-1.2,0.5s-0.4-0.6-0.4-1c-0.2-2.1-0.4-4.1-0.6-6.2c-0.3-2.2,0.6-4.3,2.2-5.8c1-1,2.1-2,3.2-2.9
				c2.2-1.6,4.3-3.3,6.6-4.7C29.7,47.8,30.9,46.5,32.5,47.7z"/>
			<path class="st3" d="M75.7,1.5c1.7,1.9,1.8,4.3,2,6.7c-0.2,3.6,0,7.2-0.5,10.7c-0.3,2.1-0.7,4.2-1.2,6.3
				c-1.1,0.2-1.4-0.6-1.8-1.3c-3.2-5.5-4.6-11.3-3.1-17.6c0.3-1.5,1-2.8,2-4C73.7,1.5,74.8,1.2,75.7,1.5z"/>
			<path class="st3" d="M87.2,32.2c0.1,1.1,0,2.3-0.4,3.4c-1.3,4.2-3.4,8.2-6.4,11.4c-0.4,0.5-0.8,1.1-1.6,0.9s-0.7-1-0.8-1.6
				c-0.3-1.3-0.2-2.7,0.1-4c0.6-2,0.5-4.1,0.8-6.2c0.5-3.4,1.9-6.6,3.9-9.4c1.3-1.8,2.3-1.7,3.3,0.3C86.9,28.6,87.3,30.4,87.2,32.2z
				"/>
			<path class="st3" d="M20.3,79.1c0.1-1.3,0.6-2.5,1.3-3.5c2.2-3.5,5.5-6.1,9.4-7.4c0.9-0.3,1.8-0.7,2.7-1c1.4-0.5,2,0.1,1.7,1.5
				c-0.2,0.9-0.7,1.8-1.3,2.5c-3.3,4.7-7.1,9.1-10.2,13.9c-0.8,1.3-1.3,1.2-1.9-0.2C21,83.1,20.4,81.1,20.3,79.1z"/>
			<path class="st3" d="M16.7,88.3c-1.1-0.1-2.8-0.2-4.5-0.5c-2.2-0.3-4.1-1.6-5.3-3.4c-1.2-1.6-1.3-3.8-0.1-5.4
				c1.1-1.8,3.2-2.6,5.2-2c1.6,0.6,3.2,1.4,4.8,2.2c0.7,0.5,1.3,1.2,1.5,2.1c0.6,1.6,1.2,3.1,1.7,4.7s0.3,2.1-1.4,2.3L16.7,88.3z"/>
			<path class="st3" d="M105.4,72.2c-1.2,1.7-3.2,2.5-4.7,3.7c-3.8,1.5-7.5,3.1-11.3,4.6c-0.9,0.5-2,0.7-3,0.7c-1.1,0-1.4-0.6-1-1.5
				c0.1-0.2,0.2-0.4,0.4-0.6c3.3-3.5,6.6-6.9,11-9.1c2.1-1.2,4.7-1.4,7-0.7C105.4,69.8,105.6,70.2,105.4,72.2z"/>
			<path class="st3" d="M96.7,66c3.8-4.7,6.7-9.5,10.6-13.7c2.2-2.3,4.9-4.1,7.9-5.1c0.8-0.4,1.8-0.3,2.5,0.2
				c0.7,0.6,0.9,1.6,0.3,2.4c-0.1,0.1-0.1,0.2-0.2,0.2c-0.9,1.2-1.9,2.3-3.1,3.3C109.4,58.2,103.9,62.8,96.7,66z"/>
			<path class="st3" d="M105.4,45.5c0.1,1.7-0.1,3.4-0.7,5c-0.5,1.3-1.1,1.4-1.8,0.4c-2.6-3.9-5.3-7.8-5.9-12.7
				c0-0.2-0.1-0.3-0.1-0.5c-0.3-1.9,0.2-3,1.3-3.5c1.3-0.6,2.5-0.1,3.7,1.5C104.1,38.5,105.9,41.7,105.4,45.5z"/>
			<path class="st3" d="M84.8,52c1.9-0.1,2.4,0.7,2,2.2c-0.3,0.8-0.8,1.6-1.5,2.1c-3.2,2.5-6.5,5-9.7,7.5c-0.1,0-0.1,0.1-0.2,0.1
				c-0.6,0.2-1.3,1-1.9,0.4s0-1.2,0.1-1.8c0.9-6.1,5.9-8.1,10.6-10.4C84.4,52,84.6,52,84.8,52z"/>
			<path class="st3" d="M107.6,42.2c-1.3-4.4-2-8.9-2.1-13.4c-0.1-1.9,0.4-3.9,1.4-5.5c1.2-1.6,2-1.5,2.9,0.2
				c0.7,1.3,1.1,2.7,1.1,4.1c-0.1,4.6,0,9.3-2.3,13.5C108.5,41.5,108.5,42.3,107.6,42.2z"/>
			<path class="st3" d="M90.5,67.2c0.6-3.1,1.1-6.6,1.9-10c0.4-1.7,2.1-2.8,3.8-2.4c0.1,0,0.1,0,0.2,0c1.8,0.5,2.8,2.3,2.5,4.1
				c-0.2,1.3-0.7,2.5-1.4,3.5c-1.8,2.4-3.6,4.7-5.4,7.1c-0.2,0.3-0.4,0.7-0.9,0.6s-0.6-0.6-0.7-1.1C90.6,68.4,90.6,67.7,90.5,67.2z"
				/>
			<path class="st3" d="M75.9,44.2c-1-0.2-1.2-1-1.5-1.6c-1.7-3.4-3.4-6.9-5-10.3c-0.3-0.6-0.5-1.3-0.7-2C68.4,29,69,27.8,70,27.2
				c1.1-0.5,2.4-0.2,3.3,0.7c0.7,0.6,1.1,1.4,1.3,2.3c0.8,3.7,1.4,7.4,1.8,11.1C76.5,42.2,76.3,43.2,75.9,44.2z"/>
			<path class="st3" d="M70.9,65.4C69,63,69,60.5,68.6,58.1c-0.3-2.1-0.5-4.3-1-6.4c-0.3-1.2-0.2-2.4,0.2-3.5
				c0.5-1.3,1.4-1.5,2.4-0.5c1.9,2,3.4,4.3,3.2,7.2C73.1,58.6,72.3,62.1,70.9,65.4z"/>
			<path class="st3" d="M61.3,79.7c-0.5-0.4-0.4-1-0.5-1.5c-0.2-3-0.2-6.1-0.1-9.1c0-0.5,0-1,0.2-1.4c0.7-2.5,2.5-3,4.4-1.3
				c2.7,2.4,2.9,3.5,1.2,6.6c-1,2.1-2.3,4-3.9,5.7C62.3,79.2,62,79.7,61.3,79.7z"/>
			<path class="st3" d="M55.6,41.8c0,0.9-0.2,1.8-0.4,2.6c-0.8,2.8-1.4,5.6-1.6,8.5c0,0.3-0.1,0.6-0.2,0.9c-0.4,0.9-1,1-1.6,0.2
				c-0.5-0.7-0.8-1.5-1-2.4c-0.3-1.8-0.9-3.4-1.7-5c-0.6-0.9-0.6-2.1,0.1-2.9c1.1-1.5,2.2-2.9,3.4-4.3c0.5-0.5,1-1.2,1.8-0.8
				c0.7,0.4,1.1,1,1.1,1.8C55.6,40.8,55.5,41.2,55.6,41.8z"/>
			<path class="st3" d="M78.6,85c-0.6-3-0.8-6.1-0.4-9.2c0.1-0.4,0.2-0.8,0.3-1.1c0.5-1.4,1.2-2.6,3-2.7c1.7,0,3.3,0.9,4.1,2.4
				c0.5,0.8,0.5,1.9-0.2,2.7c-2.2,2.5-4.2,5.2-6.2,7.9C79,84.9,78.8,84.9,78.6,85z"/>
			<path class="st3" d="M26.3,90.8c0-0.8,0.4-1.7,1-2.2c2.2-2,4.3-4.1,6.9-5.4c0.5-0.3,1-0.5,1.5-0.7c0.5-0.3,1.1-0.1,1.4,0.4
				c0.2,0.4,0.2,0.8,0,1.1c-0.6,1.5-1.5,3-2.5,4.3c-1.3,1.6-2.7,3.1-4.1,4.6c-0.7,0.7-1.4,1.6-2.6,1.2
				C27.1,93.8,26.2,92.1,26.3,90.8z"/>
			<path class="st3" d="M50.8,8.8c-0.4,3.2-2,6-2.9,9c-0.8,1.7-1.6,3.3-2.4,5c-0.2,0.4-0.5,0.9-1,0.8s-0.6-0.7-0.6-1.2
				c-0.1-3.3,0.4-6.6,1.4-9.7c0.5-1.7,1.1-3.3,2-4.8c0.3-0.5,0.6-0.9,1-1.3C48.7,6,49.4,5.8,50,6c0.5,0.2,0.9,0.8,0.8,1.4L50.8,8.8z
				"/>
			<path class="st3" d="M45.4,32.2c0-1,0.2-2,0.6-3c1-2.4,2.2-4.7,3.7-6.9c0.3-0.4,0.6-0.8,0.9-1.1c0.4-0.4,0.8-0.8,1.5-0.5
				c0.5,0.2,0.5,0.8,0.5,1.2c0.1,0.9-0.1,1.8-0.4,2.6c-1.7,3.5-3.2,7.1-4.5,10.8c0,0.4-0.3,0.8-0.7,0.9c-0.6,0.1-0.8-0.5-1-0.9
				C45.6,34.3,45.4,33.2,45.4,32.2z"/>
			<path class="st3" d="M44.9,42.5c-2.4-0.9-4.4-2.5-5.9-4.5c-0.6-0.8-1.1-1.7-1.5-2.7c-0.6-1.8-0.3-3.1,0.9-3.8
				c1.4-0.6,3-0.1,3.8,1.1c0.6,0.8,1,1.7,1.2,2.6C44,37.7,44.2,40,44.9,42.5z"/>
			<path class="st3" d="M77.9,95.1c-0.3-4.2,2-7.9,5.2-8.8c0.4-0.1,0.8-0.2,1.2-0.2c1.1,0,2.2,0,2.7,1.1c0.4,0.9-0.4,1.6-1,2.3
				C83.7,91.7,80.9,93.6,77.9,95.1z"/>
			<path class="st3" d="M22.4,97.7c-1.8,0.2-3.6-0.5-4.8-1.8c-1.7-2-1.2-3.6,1.3-4.2c3.5-0.9,5.3,0.1,6.7,3.5c0.6,1.4,0.2,2-1.4,2.3
				C23.7,97.6,23,97.7,22.4,97.7z"/>
			<path class="st3" d="M74.2,84.7c0.4,0.5,0.6,1.2,0.7,1.8c-0.6,2.7-3.7,8.2-5.9,10.1c-0.2-3-0.5-5.8,0.2-8.6
				C69.8,85.7,72,84.3,74.2,84.7z"/>
			<path class="st3" d="M62.7,84.2c1.3-2.6,2.4-5.3,4.3-7.6c0.5-0.7,1.1-1.3,1.8-1.9c1.2-1,2.1-1,3-0.2s0.7,1.8,0.2,2.8
				c-0.6,1.1-1.4,2.1-2.4,2.9c-2.1,1.5-4.3,2.9-6.5,4.4C62.9,84.4,62.8,84.2,62.7,84.2z"/>
			<path class="st3" d="M53.5,60.8c-0.7,0.3-1.5,0.1-2-0.4c-1.8-1.1-3.6-2.3-5.4-3.5c-0.7-0.4-1.3-1-1.6-1.8
				c-0.7-1.6,0.1-2.9,1.8-2.9c1.1,0,2.1,0.6,2.6,1.5C50.4,56,52.1,58.2,53.5,60.8z"/>
			<path class="st3" d="M55,90.6c-1.3-1.8-1.9-4-1.8-6.2c0.1-1,0.2-2,1.2-2.4c1.3-0.4,1.8,0.6,2.4,1.5C58.7,86.2,58.3,87.8,55,90.6z
				"/>
			<path class="st3" d="M62.8,88.2c0.2-0.6,0.7-1,1.3-1.2c1.4,1,3.1,1.7,3.2,3.7c0,0.1,0,0.2,0.1,0.2c0,1.1,0.5,2.3-0.5,3.1
				c-0.6,0.5-2.1-0.4-3-1.6c-0.7-1.1-1.4-2.2-0.8-3.6C63.2,88.7,63.1,88.3,62.8,88.2z"/>
			<path class="st3" d="M59.7,55.8c-0.3,2.1-0.7,4.2-1.4,6.3c-0.2,0.4-0.4,0.9-1,0.9c-0.4,0-0.6-0.4-0.9-0.8
				c-1.4-2.3-0.5-6.1,1.8-7.4c0.3-0.2,0.7-0.5,1.1-0.2S59.8,55.3,59.7,55.8z"/>
		</g>
		<path class="st0" d="M64.5,86.8c-1.1,0.2-1.9,1-2.1,2.1c-0.1,0.6,0.8,0.9,1,0.3c0.1-0.7,0.7-1.3,1.4-1.4
			C65.4,87.8,65.1,86.8,64.5,86.8z"/>
	</g>
</g>
</svg>
