<svg id="Layer_1" data-name="Layer 1" xmlns="http://www.w3.org/2000/svg" viewBox="0 0 326.8 372.45"><defs><style>.cls-1{fill:#201600;}.cls-2{fill:#00ad9a;}.cls-3{fill:#e8f3f1;}.cls-4{fill:#fff;}.cls-5{fill:#438367;}</style></defs><g id="Layer_2" data-name="Layer 2"><g id="Слой_1" data-name="Слой 1"><path class="cls-1" d="M270,110c8.4-5.6,15.1-13.5,14.5-24.5a19.06,19.06,0,0,0-11-16.6,18.51,18.51,0,0,0-14.6-.2c0-1.3-.1-2.6-.2-4-1.3-12.3-9.5-20-19.6-23a30.5,30.5,0,0,0-9.7-34.8c-11.7-9-28.3-9-40.4-.8a39.43,39.43,0,0,0-12.7,14.2,39.72,39.72,0,0,0-3.5-2,33.8,33.8,0,0,0-29.9.8,37.29,37.29,0,0,0-7.3,5.2C127.3,11.4,110.8,4.6,95.9,9.4,80.6,14.3,69.7,29.3,71.3,45.5a36.56,36.56,0,0,0,9.3,21.2,34.9,34.9,0,0,0-9.9,15.9c-18.9-2-35.4,13.6-35.6,32.7a39,39,0,0,0,2,12.2C13.8,152.1,0,184.1,0,220.1c0,84,73.3,152.4,163.4,152.4s163.4-68.4,163.4-152.4C326.9,174.8,305.2,135.8,270,110Z" transform="translate(0 -0.05)"/><path class="cls-2" d="M118,138.1c-10.3-.9-21.1-.2-30.2,5-8.2,4.7-14.6,12.8-13.8,22.7s8.7,17.5,17.4,21.2a42.44,42.44,0,0,0,27.9,1.7,90.17,90.17,0,0,0,15.1-5.3c2.4-1.1,4.8-2.4,7.1-3.7,1-.5,6-4.4,6.8-4.1-.7-.2-1.4-.5-2.1-.7a44.6,44.6,0,0,1-9.9-4.6c-5.5,5.7-13.4,9.2-21.1,10.4a43.13,43.13,0,0,1-15.2-.2,30.77,30.77,0,0,1-7.3-2.2c-2-1-4.6-2-6.3-3.5a.82.82,0,0,1,.1-1.2.76.76,0,0,1,.5-.2,12.66,12.66,0,0,1,2.8.6,26.29,26.29,0,0,0,3.9.6c2.3.3,4.6.8,6.9,1a44.21,44.21,0,0,0,13.1-.2,33.06,33.06,0,0,0,17.6-9.2l-.4-.4c-5-5.5-7.2-14-2.9-20.6a1.38,1.38,0,0,0,.3-.4,19.76,19.76,0,0,1-10.1-6.4C118.1,138.2,118.1,138.1,118,138.1Z" transform="translate(0 -0.05)"/><path class="cls-2" d="M162.4,156.8a32.46,32.46,0,0,1,6.7,3.4,20.26,20.26,0,0,1-1.5-7.3,44.72,44.72,0,0,0-20.9-7.5c-5.1-.4-12.1-.2-13.6,5.8-1.4,5.6,2.7,10.6,7.2,13.3,3.7,2.3,8,3.7,12.1,5a61.54,61.54,0,0,0,17.5,2.8,39,39,0,0,1,1.9-3.5c0-.1,0-.1-.1-.2a8.64,8.64,0,0,0-1-1.6,14.31,14.31,0,0,0-1.1-1.5c-.5-.5-1-1.1-1.5-1.6a29.29,29.29,0,0,0-6.5-5.1,1.13,1.13,0,0,1-.4-1.5A.91.91,0,0,1,162.4,156.8Z" transform="translate(0 -0.05)"/><path class="cls-2" d="M141.6,120.1c-2,6.1-.9,12.5,1.7,18.2,1.6,0,3.2.1,4.8.2a53.3,53.3,0,0,1,20.8,6.9c.1-.3.3-.5.4-.8L169,141l-.6-5.4c-.5-3.7-1.5-7.4-2.2-11-.2-1,1.2-1.7,1.7-.7a82.72,82.72,0,0,1,4.1,10.8c.5,1.4.9,2.8,1.3,4.2a18.79,18.79,0,0,1,6.4-4.4c-2.7-12.3-10.2-27.1-25-25.8C148.5,109.3,143.6,114.2,141.6,120.1Z" transform="translate(0 -0.05)"/><path class="cls-2" d="M131,101.3a15.39,15.39,0,0,0-11.4,11.4,27,27,0,0,0,2.4,18.9c2.7,4.8,8.1,8.1,13.6,6.4a32,32,0,0,1-1.4-17.6,25.27,25.27,0,0,1,10.3-15.2A15.21,15.21,0,0,0,131,101.3Z" transform="translate(0 -0.05)"/><path class="cls-2" d="M177.7,76.6a20.15,20.15,0,0,0-17.9,8.6,27.77,27.77,0,0,0-4.5,16.6,25.13,25.13,0,0,1,8.6,1.1c9.8,3.2,16,10.9,19.7,19.9a27.59,27.59,0,0,0,14-15.8C201.9,93.2,192.8,77.2,177.7,76.6Z" transform="translate(0 -0.05)"/><path class="cls-2" d="M261.4,123.1a26.79,26.79,0,0,0-17.7-15.6,25.49,25.49,0,0,0-21.1,3.9,18.61,18.61,0,0,1,2.8,12.6c-1.3,9.4-8.5,16.3-17.2,19.2a22.49,22.49,0,0,1,3.1,7.9,21.12,21.12,0,0,0,3.1,2.1,19.42,19.42,0,0,0,7,2.4,43.78,43.78,0,0,0,8.8,1.5,11,11,0,0,0,3.6-.3,19,19,0,0,0,4-1.4.77.77,0,0,1,1,.1.7.7,0,0,1-.2,1h0a9.31,9.31,0,0,1-3.3,2.6,28.64,28.64,0,0,1-4.1,1.5,29.91,29.91,0,0,1-9.9.6,22.72,22.72,0,0,1-9.2-2.3c-.3-.2-.6-.3-.9-.5a18.9,18.9,0,0,1-2.3,5.5,33.89,33.89,0,0,1,9.4,4.5,42.08,42.08,0,0,0,25.7-3.2C259.3,157.8,268.5,139.4,261.4,123.1Z" transform="translate(0 -0.05)"/><path class="cls-2" d="M218.4,119a10.68,10.68,0,0,0-6.8-7.9c-4.6-1.4-8,1.5-10.8,4.9a49.73,49.73,0,0,1-9.7,9.2c-.6.4-5.6,3.5-5.4,4.3.3,1.1.6,2.2.8,3.3a22,22,0,0,1,16.4,4.7h.1a22,22,0,0,0,12.1-6.8A14.22,14.22,0,0,0,218.4,119Z" transform="translate(0 -0.05)"/><path class="cls-2" d="M240.3,100a32.09,32.09,0,0,1,4.3.7c.8-.1,1.7-.1,2.5-.2a34.73,34.73,0,0,0,7.1-1.6,14.47,14.47,0,0,0,5.6-3,16.35,16.35,0,0,0,3.7-5.3c.3-.7,1.4-.3,1.4.4a12.55,12.55,0,0,1-2.8,6.7,22.65,22.65,0,0,1-5.4,5.3,15.09,15.09,0,0,1-2.8,1.5,36.49,36.49,0,0,1,4.5,3.2c9-3.8,18.6-10.1,19.4-20.7.4-4.9-1.4-9.7-5.8-12.2a11.79,11.79,0,0,0-13.7,1.5c-.1.1-.2.1-.2.2C255.4,86,248.6,93.7,240.3,100Z" transform="translate(0 -0.05)"/><path class="cls-2" d="M244,187.9a7.37,7.37,0,0,1-1.4.4c-.4.1-.9.1-1.3.2a7,7,0,0,1-2.9-.1,12.84,12.84,0,0,1-5.3-2.1,6.89,6.89,0,0,1-1.3-1.1c0,.1.1.1.1.2a18.9,18.9,0,0,1,1,4.1c6.2,6.4,17,7.9,22.9.2a11,11,0,0,0,1.7-11.4c-1.8-3.9-5.6-6.7-9.7-6.7-.3,0-.7-.1-.9-.1a50,50,0,0,1-15.1,4.2c.6.9,1,1.9,1.4,2.6a22.11,22.11,0,0,0,2.8,4,14.71,14.71,0,0,0,3.5,3.1,7.2,7.2,0,0,0,4.5,1.3C244.5,186.6,244.6,187.6,244,187.9Z" transform="translate(0 -0.05)"/><path class="cls-2" d="M190.3,139.6c-6.3-.6-12.9,2.9-15.1,9.1-2,5.8,1,11.9,5.3,15.8a13.58,13.58,0,0,0,15,2.2c4.9-2.2,9.1-6.7,9.2-12.2C204.6,146.8,197.9,140.4,190.3,139.6Z" transform="translate(0 -0.05)"/><path class="cls-2" d="M94.6,58a30.31,30.31,0,0,1,28,6.3,51.63,51.63,0,0,1,1-20.7h0a15.23,15.23,0,0,1-2.2-3.4,22,22,0,0,0-1.7-2.5,22.73,22.73,0,0,0-4.9-4.4,26.28,26.28,0,0,0-7.2-2.8,15.14,15.14,0,0,0-3.7-.7c-1.2,0-2.4.3-3.5-.2a.54.54,0,0,1-.2-.8c0-.1.1-.1.1-.2.9-1.2,2.6-1.2,3.9-1.6a8.3,8.3,0,0,1,2.1-.6,19.42,19.42,0,0,1,2.4-.2,19.12,19.12,0,0,1,9,2.3,23.73,23.73,0,0,1,6.6,5.2l2.1,2.7a42.73,42.73,0,0,1,4.8-7.9c-.1-.1-.2-.2-.2-.3-8.5-14.8-28.6-19.1-42-8.1a28.07,28.07,0,0,0-3.7,39.5c.5.6,1,1.2,1.6,1.8A31.15,31.15,0,0,1,94.6,58Z" transform="translate(0 -0.05)"/><path class="cls-2" d="M136.7,223.1c13.2,4.1,31.1,2.9,38.5-10.5,0-.1.1-.1.1-.2a37.37,37.37,0,0,1-7.1-12,37,37,0,0,1-.9-21.1,68.9,68.9,0,0,1-11.1-1.5,3.91,3.91,0,0,1-1.4,1.7c-3.3,2.2-6.6,4.3-10.1,6.3a1.8,1.8,0,0,1-.6.9c-1.5,1.6-3.4,2.8-5,4.6a16.63,16.63,0,0,0-2.9,4.8c-1.2,3.5-1.2,7.4,1.6,10.2a1.42,1.42,0,0,1-.1,2,1.36,1.36,0,0,1-1.6.2c-4.3-2.8-6.2-8.3-5.5-13.2.2-1,.5-2,.8-3a76.66,76.66,0,0,1-11.5,3.6,16.71,16.71,0,0,0,.8,15.8C124.2,217.4,130.4,221.1,136.7,223.1Z" transform="translate(0 -0.05)"/><path class="cls-2" d="M98.8,131.9a64.47,64.47,0,0,1,15.2-1c-3.8-10.1-2.7-22.9,4.8-30.3a21.81,21.81,0,0,1,12.4-6.1c-2.2-9.6-5.9-19.1-13.8-25.4A23.54,23.54,0,0,0,93.1,66c-9.4,4-15.4,13.2-16.9,23.1a38.48,38.48,0,0,0,5.1,24.4A54.63,54.63,0,0,0,89,123.7c1.5,1.5,3.1,3,4.7,4.4C94.6,128.8,97.9,132,98.8,131.9Zm-8-23.3c-.1.7-1,1.4-1.6.7-1.3-1.5-1.6-3.8-2.1-5.6A26.84,26.84,0,0,1,86,97.4a26.41,26.41,0,0,1,2.2-11.8,29.14,29.14,0,0,1,6.2-9.3,14.34,14.34,0,0,1,4.9-3.2,21,21,0,0,1,5.5-1.3,1.48,1.48,0,0,1,1.4,1.6,1.39,1.39,0,0,1-.7,1.2c-.7.5-1.6.8-2.3,1.4a10.71,10.71,0,0,0-1.8,1.9c-1,1.1-2.1,2-3.1,3.1a24.33,24.33,0,0,0-5,7.3,33,33,0,0,0-2.6,9.8,45.5,45.5,0,0,0-.4,5.2C90.3,105,91,106.8,90.8,108.6Z" transform="translate(0 -0.05)"/><path class="cls-3" d="M263.6,112.8c-.1,0-.1.1-.2.1a38.56,38.56,0,0,1,6.2,13.3c15.2,9.5,24.1,21.3,24.1,34.8,0,24.4-29.2,45.5-71.8,55.7-8.2,7-19.9,9.2-30.2,6.3-.9-.3-1.9-.6-2.8-.9-4.3.4-8.6.7-13,.9-10.9,10.3-28.9,11.2-42.8,6.2a36.1,36.1,0,0,1-15.2-10c-48.8-8.9-83.5-31.6-83.5-58.2,0-8.4,3.5-16.2,9.8-23.2a48.43,48.43,0,0,1-3.3-4.6A125.93,125.93,0,0,0,7.6,218.9C7.6,299,77.7,359,163.9,359s156.3-60,156.3-140.2C320.2,175,298.5,137.2,263.6,112.8Z" transform="translate(0 -0.05)"/><path class="cls-2" d="M73.9,145.6c1-1.1,2-2.2,3.1-3.2a39.56,39.56,0,0,1-4.5-1.5,27.4,27.4,0,0,1-9.6-6.9,25.28,25.28,0,0,1-5.3-10.6,18.24,18.24,0,0,1-.3-5.7,16.09,16.09,0,0,1,1.5-5.6,1.08,1.08,0,0,1,1.4-.2,1,1,0,0,1,.4.7,42.1,42.1,0,0,0,.4,5,27.46,27.46,0,0,0,1.4,4.9,19.87,19.87,0,0,0,5.2,7.6,22.75,22.75,0,0,0,8,4.9,27.2,27.2,0,0,0,4.9,1.3,23.21,23.21,0,0,1,3.8.7c.6-.3,1.1-.7,1.7-1a37.89,37.89,0,0,1,4.2-1.8c-7.6-6.1-14-13.7-17.8-22.8a44.52,44.52,0,0,1-2.9-23.1c-14.9-1.2-27.3,12-27,26.9C42.9,132.1,57.6,144.4,73.9,145.6Z" transform="translate(0 -0.05)"/><path class="cls-2" d="M196.2,216.9c9.1,1.6,18.8-1.6,24.5-9,5-6.5,7.1-16,3-23.5a29.19,29.19,0,0,0-14.8-12.9c.1.1.1.2.2.3a24.66,24.66,0,0,1,3.4,6.9,18.79,18.79,0,0,1,.5,8.8,21.17,21.17,0,0,1-3.3,7.7.93.93,0,0,1-1.7-.7c1.1-4.5.4-9.8-1.1-14.2a21.61,21.61,0,0,0-2.9-5.4c-.8-1.1-2-2.1-2.9-3.2a21.76,21.76,0,0,1-5.6,2.5,20.56,20.56,0,0,1-17.2-2.6c-5.5,8.7-6.8,19.5-2.5,29A28.39,28.39,0,0,0,196.2,216.9Z" transform="translate(0 -0.05)"/><path class="cls-2" d="M130.3,67.1c1,4.6,3,9.1,4.1,13.7.3,1.3,3.5,13.8,4,13.9a21.31,21.31,0,0,1,9.8,4.7c.3-8.1,3.2-16.3,9-22.1,6.6-6.6,16.1-8.9,25.1-7.2a22.26,22.26,0,0,1,4.4,1.3,56.51,56.51,0,0,0-2.4-30.2c-3.1-8.3-8.8-16.3-17.5-18.9A27.51,27.51,0,0,0,142.2,27c-7.9,6.2-12.2,15.6-13,25.5A55,55,0,0,0,130.3,67.1Zm10.8-15.2a34,34,0,0,1,4.4-7.9,21.16,21.16,0,0,1,9.3-6.3c2.4-.8,3.9-.7,4.5-.2,1,.9,0,3-2.5,4.9a24.84,24.84,0,0,0-3,2.5,39,39,0,0,0-5.2,6.9,36.62,36.62,0,0,0-4,8.2c-.7,1.9-.2,7.5-1.4,8.9-1.7,1.9-2.8-2-3.1-3.5C139.3,61.2,139.5,55.7,141.1,51.9Z" transform="translate(0 -0.05)"/><path class="cls-2" d="M194,28a19.17,19.17,0,0,1,10.3-8.5c3.8-1.2,8.9-1,12,1.7.9.8-.1,1.9-1,1.8a13.69,13.69,0,0,0-5.7,0,13.31,13.31,0,0,0-4.7,2.1,22.24,22.24,0,0,0-6.6,7.7,39.2,39.2,0,0,0-3.5,11c-.4,2.1-.5,4.1-.8,6.2a4.1,4.1,0,0,0-.1,1.1,52.87,52.87,0,0,1,.7,8c4.5-6,9.8-11.4,16.4-15.1a36.46,36.46,0,0,1,21.2-4.5,23.22,23.22,0,0,0,0-19.3A24.41,24.41,0,0,0,216,7.2c-14-3.7-28,4.5-34.1,17.1A45.54,45.54,0,0,1,190,37.4,35.51,35.51,0,0,1,194,28Z" transform="translate(0 -0.05)"/><path class="cls-2" d="M251.9,62.7c-1.6-8.9-8.5-14.7-17.1-16.3-19.5-3.8-33.5,13-41.6,28.5a27.85,27.85,0,0,1,9.6,11.6,31.19,31.19,0,0,1,2.4,17.8,15.7,15.7,0,0,1,4.8-.5,16.38,16.38,0,0,1,7.1,2.2c9.3-4.6,18.7-9.5,25.9-17.2C249.2,82,253.5,72.1,251.9,62.7Zm-8.8,13.9c-2.9,7.8-7.7,14.1-15.6,17.3-.8.3-3.1,1.7-3.5.4-.3-.9,2.1-2.7,2.6-3.3,4.2-4.6,8.2-9.7,10.2-15.7a31.28,31.28,0,0,0,1.9-10.9,14.91,14.91,0,0,0-.9-6.6c-.6-1.4-2.4-3.7-1-5.2s3.4.3,4.4,1.1c2.5,2.2,3.5,6.5,3.7,9.7a30,30,0,0,1-1.8,13.2Z" transform="translate(0 -0.05)"/><path class="cls-4" d="M94.6,67.1c-3.1.7-5.9,2.6-8.3,4.3-5.7,3.9-8.5,10.5-9.5,16.9a36.52,36.52,0,0,0,7.5,29.2,5,5,0,0,0,1.5,1.4c2.4,1.2,3.2-1.5,2.7-3.1-1-3.3-3.1-6.3-4.1-9.7-2.2-7.4-2.6-14.6.2-22a29.63,29.63,0,0,1,5.5-9.2,31.29,31.29,0,0,1,8.2-6.7c.4-.3.9-.8.6-1.1-.1-.2-.4-.2-.6-.2A7.75,7.75,0,0,0,94.6,67.1Z" transform="translate(0 -0.05)"/><path class="cls-4" d="M157.2,23.6a18.51,18.51,0,0,0-4.1.7c-4.8,1-8.5,3.8-11.8,7.3-3.9,4.2-6.3,9.5-8,14.8-2.8,8.9-1.9,19,.6,27.8.9,3,2.2,6.1,4.7,8.1a1,1,0,0,0,1.4.1,1.13,1.13,0,0,0,.3-1.1c-.5-2.7-1.4-5.1-1.6-7.8s-.6-5.2-.7-7.8a48.05,48.05,0,0,1,1.8-16A48.74,48.74,0,0,1,146.1,36c3-4.4,6.5-7.5,11.6-8.9a1.88,1.88,0,0,0,1.3-2.2,1.37,1.37,0,0,0-.5-.8A2.11,2.11,0,0,0,157.2,23.6Z" transform="translate(0 -0.05)"/><path class="cls-4" d="M144.7,103.7c-3.2-4.5-13-3.6-17-1a20,20,0,0,0-8.7,18.5,23.31,23.31,0,0,0,3.4,10.2c1.6,2.6,3.4,5.3,6.4,6.4,1.3.5,3.7,1.2,4-.4s-2-4-2.8-5.2c-5.8-8.7-6.3-27.9,8.3-27.7,1.9,0,3.5,1,5.3,1.1a1.24,1.24,0,0,0,1.3-1.2A1.45,1.45,0,0,0,144.7,103.7Z" transform="translate(0 -0.05)"/><path class="cls-4" d="M199,99.8a26.25,26.25,0,0,0-1.5-8.8,24.3,24.3,0,0,0-7-10.3A19.5,19.5,0,0,0,179,76.1a25.66,25.66,0,0,0-9.5,1.6c-6.4,2.2-12.7,7.5-12.2,14.9a1.61,1.61,0,0,0,.3.9.79.79,0,0,0,1.1-.1,2.07,2.07,0,0,0,.6-1c1.6-3.6,4.4-7.1,8.1-8.6a18.77,18.77,0,0,1,13-.7c10.5,3.4,16.4,17.3,12.5,27.5a1.06,1.06,0,0,0-.1.8.88.88,0,0,0,1,.5,2.07,2.07,0,0,0,1-.6A18.1,18.1,0,0,0,199,99.8Z" transform="translate(0 -0.05)"/><path class="cls-4" d="M214.8,121.2a7.52,7.52,0,0,0-2.1-5.7,7.4,7.4,0,0,0-4.4-2.4,8.78,8.78,0,0,0-2.8.1c-.9.3-3.5,2.1-1.7,3a3.72,3.72,0,0,0,1.8.2c4-.1,5.8,5.6,6.5,8.7a2.22,2.22,0,0,0,.5,1.1c.9.7,1.5-1.1,1.7-1.6a6.53,6.53,0,0,0,.5-2c0-.2.1-.5.1-.7v-.3C214.7,121.8,214.7,121.8,214.8,121.2Z" transform="translate(0 -0.05)"/><path class="cls-4" d="M165.4,151.8c-3.6-2.2-7.2-4.3-11.3-5.4-2.9-.7-19.1-3.1-18,3.4.2,1.5,5.3.6,6.2.6,10.4-.9,19.5,3.8,27.9,9.3a3.69,3.69,0,0,0,1.4.7c3.4.8-.2-4-.8-4.6A21,21,0,0,0,165.4,151.8Z" transform="translate(0 -0.05)"/><path class="cls-4" d="M134.3,175.6a49.92,49.92,0,0,1-41.2,3.3c-12.1-4.4-16.3-18.4-10-29.4a1.17,1.17,0,0,0-.5-1.6,1.08,1.08,0,0,0-1.3.2c-9.3,10.5-5.5,29,6.4,35.6,7.3,4.1,16.4,5.2,24.9,4.2,8.7-1.1,17.4-2.4,25.2-6.4C141.7,179.4,138.1,173.4,134.3,175.6Z" transform="translate(0 -0.05)"/><path class="cls-4" d="M165.4,211.8c-8.5,5.1-18.2,4.8-27.1,1-2.3-1-6.9-5.7-9.4-4.2-1.7.9-.5,3.9.5,5a19.54,19.54,0,0,0,6.6,5.2,24.25,24.25,0,0,0,11.9,2.1,39.2,39.2,0,0,0,11.2-2.3c2.7-1,6.3-2.5,7.8-5.1C167.3,212.4,166.4,211.1,165.4,211.8Z" transform="translate(0 -0.05)"/><path class="cls-4" d="M263.9,134a30.48,30.48,0,0,0-1.7-8.9,15.12,15.12,0,0,0-3.7-6.2c-1.2-1.2-4.4-3.4-6.1-2.4a.91.91,0,0,0,.3.7c13.3,16.6-1.6,38.2-18,44.5a40.28,40.28,0,0,1-10.3,2.2c-3.3.4-5.5-.8-8.8-1-2.8-.2-.7,2.4.2,3.1,2.7,2,5.8,2.5,9,2.9a26.63,26.63,0,0,0,11.9-1.1,48.7,48.7,0,0,0,18.6-12.4A30,30,0,0,0,263.9,134Z" transform="translate(0 -0.05)"/><path class="cls-4" d="M222.7,185.1a15.7,15.7,0,0,0-3.1-4.5,4.61,4.61,0,0,0-2.6-1.5,1.93,1.93,0,0,0-2.2,1.6v.1c0,2,1.2,4.8,1.7,6.8a34.7,34.7,0,0,1,1.5,7.8,27.32,27.32,0,0,1-5.6,16.7c-.6.7.5,1.5,1.2,1.2,6-3.1,9.3-9.4,10.2-15.9C224.5,193.1,224.4,188.9,222.7,185.1Z" transform="translate(0 -0.05)"/><path class="cls-4" d="M253.9,185.1a2.47,2.47,0,0,0-2.2-.5c-2.2.3-3.7,2.6-5.7,3.4a12.28,12.28,0,0,1-13.4-2.3c-.9-.7-2.2-.1-1.8.8a14.91,14.91,0,0,0,3.9,4.4,17.1,17.1,0,0,0,6.4,3c4.7.8,9.9-.3,12.3-4.6C254.3,188,254.8,186.1,253.9,185.1Z" transform="translate(0 -0.05)"/><path class="cls-4" d="M248.3,56.5a17.09,17.09,0,0,0-7.2-6.9,10.44,10.44,0,0,0-6.7-1.3c-.1,0-.2,0-.2.1-.2.1-.2.5-.1.7a3,3,0,0,0,.7.5c5,2.1,7.9,3.6,9.3,9.2,1.6,6.5.2,13.6-2.5,19.6a36.6,36.6,0,0,1-9.8,12.9,62.62,62.62,0,0,1-6.6,4.9c-2.3,1.4-4.7,2.5-6.7,4.4-1,1-.2,2.3,1,2.5,1.7.3,4.8-1.4,6.2-2.2,8.9-5.2,18.5-12.4,22.3-22.2a33,33,0,0,0,2.1-17.3A19,19,0,0,0,248.3,56.5Z" transform="translate(0 -0.05)"/><path class="cls-4" d="M195.9,145.6a10.39,10.39,0,0,0-5.5-4.4,10.15,10.15,0,0,0-7.8,1.1,11.19,11.19,0,0,0-4.8,5.7,20.21,20.21,0,0,0-.6,3.4,6.9,6.9,0,0,0,.3,3.5.78.78,0,0,0,.9.6.76.76,0,0,0,.6-.8c.1-1.8.3-3.8,1.6-5.2a17,17,0,0,1,1.9-1.9,8,8,0,0,1,1.9-1.3,18.24,18.24,0,0,1,2.5-.7,33.92,33.92,0,0,1,5.2.2,8,8,0,0,1,2.6.9C195.5,147.1,196.4,146.4,195.9,145.6Z" transform="translate(0 -0.05)"/><path class="cls-4" d="M166.2,115.1a8.06,8.06,0,0,0-3.2-3.4,9.58,9.58,0,0,0-4.9-1.4,15.69,15.69,0,0,0-9.4,2.5,15.22,15.22,0,0,0-6.1,8c-1.1,3.1-.7,6.5.1,9.6.2.7,1.4.6,1.3-.2a16.54,16.54,0,0,1,2-7.6,15.36,15.36,0,0,1,4.7-6,11.29,11.29,0,0,1,6.9-1.9,10.3,10.3,0,0,1,3.5.6,11.63,11.63,0,0,1,1.8.4,10.66,10.66,0,0,0,1.9.7,1.08,1.08,0,0,0,1.4-.7Z" transform="translate(0 -0.05)"/></g></g><path class="cls-5" d="M150.32,277.85v6c2.31-.18,3.57-1.07,3.68-2.54C154.14,279.47,153.12,278.5,150.32,277.85Z" transform="translate(0 -0.05)"/><path class="cls-5" d="M141.3,263.71c-.13,1.72.92,2.68,3.75,3.37v-5.94C142.64,261.36,141.41,262.21,141.3,263.71Z" transform="translate(0 -0.05)"/><path class="cls-5" d="M164.5,251.9c-9.3-8.8-28.8-7.4-36.6,2.7-6.6,8.5-9,17.5-5.8,28.2,2,6.8,6.7,13,13.2,15.8,6.2,2.7,14.4,3.7,20.9,1.1,8.2-3.2,11.8-12,13.6-20a3.73,3.73,0,0,0,.2-1.2C171.9,269.2,171.3,258.4,164.5,251.9Zm-7.61,38.47a60.26,60.26,0,0,1-6.43,1.95c0,.58,0,1.42,0,2.26a2.77,2.77,0,0,1-2.74,2.9,2.89,2.89,0,0,1-3-2.77c-.06-.91,0-1.82,0-2.64-2-.46-4-.8-5.86-1.35a39.65,39.65,0,0,1-4.84-1.81,4,4,0,0,1-2.39-4.94,4.39,4.39,0,0,1,4.79-3.15,13.88,13.88,0,0,1,2.71.83c1.91.68,3.8,1.4,6,2.2,0-2.47,0-4.57,0-6.67,0-.16-.43-.37-.69-.47-2.22-.77-4.52-1.37-6.66-2.33-4.37-1.94-6.4-5.43-6.16-10.22a10.23,10.23,0,0,1,6.42-9.43,60.1,60.1,0,0,1,6.87-2.08,2.25,2.25,0,0,1,2-2.84h1.69c1.95.73,1.95.73,2.18,3.1,2.33.68,4.65,1.23,6.88,2,2.68.95,3.75,3.22,2.84,5.59a4.52,4.52,0,0,1-6,2.44c-1.27-.47-2.56-.92-4-1.44,0,2.18,0,4.15,0,6.12,0,.2.41.49.68.59,2,.72,4.11,1.27,6.07,2.12a10,10,0,0,1,6.5,10.15A10.32,10.32,0,0,1,156.89,290.37Z" transform="translate(0 -0.05)"/><path class="cls-5" d="M275,300.38c1.53,1.18,2.79,1.33,3.68.49,1.1-1.06,1-2.22-.34-4.18Z" transform="translate(0 -0.05)"/><path class="cls-5" d="M280.69,283c-1,1-.93,2.16.43,4.16l3.31-3.65C282.82,282.27,281.59,282.11,280.69,283Z" transform="translate(0 -0.05)"/><path class="cls-5" d="M300,277.4c-3.6-4.5-9.6-6.7-15.4-6.6a29.9,29.9,0,0,0-13.1,3.3,22.85,22.85,0,0,0-11.3,16,35.93,35.93,0,0,0-.5,4.6c-.2,10.3,3.9,22.1,13.3,25.5a142,142,0,0,0,30.2-36.7A21,21,0,0,0,300,277.4Zm-5.79,14.23a3.75,3.75,0,0,1-5.08-1.86l-1.67-3.12c-1.21,1.34-2.32,2.54-3.38,3.78-.12.13,0,.53.09.75.84,1.56,1.82,3.06,2.55,4.68a8.27,8.27,0,0,1-1.64,9.86,8.58,8.58,0,0,1-9.62,2.33,48.2,48.2,0,0,1-5-2.37c-.33.36-.78.88-1.26,1.39a2.31,2.31,0,0,1-3.3.26,2.4,2.4,0,0,1-.31-3.38c.47-.6,1-1.13,1.46-1.63-1-1.42-2-2.71-2.86-4.09a34.32,34.32,0,0,1-2-3.81,3.31,3.31,0,0,1,1.28-4.37,3.65,3.65,0,0,1,4.7.73,12.37,12.37,0,0,1,1.2,2c.8,1.48,1.57,3,2.45,4.66,1.38-1.52,2.55-2.8,3.69-4.12.09-.1-.05-.46-.16-.67-.94-1.71-2-3.36-2.81-5.14a8.09,8.09,0,0,1,1.9-9.71,8.48,8.48,0,0,1,9.19-2.24,49.11,49.11,0,0,1,5.38,2.54,1.87,1.87,0,0,1,2.8-.65l1.05.95c.79,1.53.79,1.53-.39,3.11,1.06,1.72,2.18,3.35,3.11,5.08C296.69,288.69,296.08,290.68,294.21,291.63Z" transform="translate(0 -0.05)"/><path class="cls-5" d="M26.52,217.52c.06.53.44.76,1.33.8l-.35-1.79C26.79,216.74,26.47,217.07,26.52,217.52Z" transform="translate(0 -0.05)"/><path class="cls-5" d="M30.05,221.24l.36,1.8c.68-.19,1-.53.95-1S30.93,221.27,30.05,221.24Z" transform="translate(0 -0.05)"/><path class="cls-5" d="M37.8,215.9a9.93,9.93,0,0,0-9.2-6.1c-10.4.2-12.7,16-3.5,20a10,10,0,0,0,12.6-5,13.86,13.86,0,0,0,.9-4.5A11.08,11.08,0,0,0,37.8,215.9Zm-5,8.71a19.28,19.28,0,0,1-1.82,1c0,.17.09.42.14.68a.86.86,0,0,1-.66,1,.89.89,0,0,1-1.06-.66c-.07-.27-.11-.54-.16-.79-.64,0-1.24,0-1.84-.06a13.55,13.55,0,0,1-1.55-.26,1.23,1.23,0,0,1-1-1.34,1.35,1.35,0,0,1,1.26-1.23,5.13,5.13,0,0,1,.86.09l1.91.31c-.14-.74-.26-1.37-.4-2,0,0-.15-.09-.23-.1-.71-.11-1.44-.15-2.14-.31a3,3,0,0,1-2.44-2.71A3.12,3.12,0,0,1,25,215a17.78,17.78,0,0,1,1.94-1,.68.68,0,0,1,.43-1l.51-.1c.62.1.62.1.83.8.74.07,1.47.1,2.18.2a1.26,1.26,0,0,1,1.18,1.51,1.37,1.37,0,0,1-1.67,1.09l-1.29-.2c.13.66.24,1.25.37,1.84,0,.06.15.12.24.13.65.1,1.31.14,1.94.28a3.07,3.07,0,0,1,2.55,2.67A3.18,3.18,0,0,1,32.76,224.61Z" transform="translate(0 -0.05)"/><path class="cls-5" d="M47,293.85l2.62,2.59c.91-1.09,1.07-2,.48-2.7C49.36,292.89,48.5,292.91,47,293.85Z" transform="translate(0 -0.05)"/><path class="cls-5" d="M37,291.68c.69.8,1.56.76,3.08-.18l-2.58-2.56C36.53,290.08,36.37,291,37,291.68Z" transform="translate(0 -0.05)"/><path class="cls-5" d="M60.3,292.4c-2-5.1-5-10-9.4-13.4s-10.1-5.2-15.5-4c-6.2,1.4-9.6,4.4-11,8.1A135.91,135.91,0,0,0,51.3,317a15.94,15.94,0,0,0,3-.6c4.3-1.6,7.2-6,8-10.5S62,296.7,60.3,292.4Zm-5,4A34.65,34.65,0,0,1,53.36,300c.26.26.63.61,1,1a1.71,1.71,0,0,1,.08,2.44,1.77,1.77,0,0,1-2.51.11c-.42-.36-.79-.78-1.15-1.13-1.08.69-2.06,1.39-3.11,2a23.39,23.39,0,0,1-2.88,1.32,2.44,2.44,0,0,1-3.18-1.08,2.71,2.71,0,0,1,.7-3.45,9.35,9.35,0,0,1,1.53-.82l3.53-1.64c-1.08-1.07-2-2-2.92-2.86-.07-.07-.34,0-.5.1-1.29.63-2.55,1.37-3.88,1.89a6,6,0,0,1-7.1-1.73,6.24,6.24,0,0,1-1.34-6.85,34,34,0,0,1,2.06-3.88,1.39,1.39,0,0,1-.39-2.09l.73-.74c1.16-.53,1.16-.53,2.29.39,1.3-.72,2.54-1.49,3.85-2.12A2.52,2.52,0,0,1,43.81,282a2.77,2.77,0,0,1-1.54,3.68c-.76.35-1.5.71-2.36,1.12,1,.94,1.8,1.8,2.68,2.63.09.08.39,0,.55-.05,1.18-.56,2.32-1.24,3.54-1.72a6.1,6.1,0,0,1,7.21,1.55A6.31,6.31,0,0,1,55.28,296.39Z" transform="translate(0 -0.05)"/><path class="cls-5" d="M247.23,233.87c1.53,1.39,2.88,1.68,3.89.86,1.27-1,1.28-2.28,0-4.5Z" transform="translate(0 -0.05)"/><path class="cls-5" d="M254.71,215.78c-1.19,1-1.17,2.23.11,4.49l3.84-3.6C257,215.24,255.74,215,254.71,215.78Z" transform="translate(0 -0.05)"/><path class="cls-5" d="M275.7,217.3a26.49,26.49,0,0,0-9.2-13.1,23,23,0,0,0-4.3-2.5A152.15,152.15,0,0,1,227,215.4c-.3,1.4-.6,2.9-.8,4.4-.9,6.7.4,13.7,4.5,19.1,3.8,5.2,9.9,8.2,16.4,9,10.3,1.3,21.7-2.7,26.8-11.9A24.35,24.35,0,0,0,275.7,217.3Zm-7.26,9a4.07,4.07,0,0,1-5.28-2.46c-.47-1.12-1-2.23-1.52-3.49-1.41,1.32-2.69,2.5-3.93,3.73-.13.13-.07.56,0,.8.78,1.75,1.7,3.44,2.35,5.24a8.84,8.84,0,0,1-2.57,10.39A9.14,9.14,0,0,1,247,242.1a53.31,53.31,0,0,1-5.19-3c-.38.35-.91.87-1.46,1.36a2.47,2.47,0,0,1-3.55,0,2.57,2.57,0,0,1-.05-3.64c.55-.59,1.17-1.11,1.7-1.6-1-1.61-1.92-3.08-2.72-4.64A35.08,35.08,0,0,1,234,226.3a3.52,3.52,0,0,1,1.72-4.56,4,4,0,0,1,5,1.22,13.3,13.3,0,0,1,1.12,2.27c.72,1.66,1.42,3.32,2.23,5.22,1.59-1.5,3-2.76,4.28-4.06.1-.1,0-.51-.12-.73-.86-1.92-1.88-3.78-2.57-5.76a8.65,8.65,0,0,1,2.83-10.21,9.06,9.06,0,0,1,10-1.53,52.07,52.07,0,0,1,5.54,3.22A2,2,0,0,1,267,211c.35.36.69.73,1,1.1.72,1.72.72,1.72-.68,3.3,1,1.92,2.06,3.77,2.91,5.71C271.33,223.39,270.52,225.46,268.44,226.3Z" transform="translate(0 -0.05)"/><path class="cls-5" d="M86.6,216.82c-.6-.28-1.07,0-1.67.9l2,.76C87.22,217.61,87.09,217,86.6,216.82Z" transform="translate(0 -0.05)"/><path class="cls-5" d="M78.93,219.22c.56.27,1,0,1.64-.93l-2-.75C78.31,218.44,78.43,219,78.93,219.22Z" transform="translate(0 -0.05)"/><path class="cls-5" d="M94.9,213.8a180.66,180.66,0,0,1-17.4-6.3c-1.4-.6-5,3.9-5.6,4.8a10.72,10.72,0,0,0-2,7.1,9.17,9.17,0,0,0,4.5,6.6c5.4,3.3,14.1,2.9,18.3-.6C97.2,221.7,97.1,217.3,94.9,213.8Zm-3.65,7.32a1.09,1.09,0,0,1-1.35.75c-.31-.09-.62-.23-.89-.33-.43.69-.81,1.35-1.25,2A14.22,14.22,0,0,1,86.5,225a1.43,1.43,0,0,1-2,.25,1.7,1.7,0,0,1-.42-2.13,6.18,6.18,0,0,1,.64-.88c.49-.61,1-1.21,1.55-1.89-.84-.31-1.55-.58-2.27-.82-.06,0-.18.1-.25.19-.56.71-1.07,1.46-1.68,2.12a3.52,3.52,0,0,1-4.3,1,3.73,3.73,0,0,1-2.34-3.51,24.56,24.56,0,0,1,.22-2.76c-.51-.06-.79-.42-.7-1.07.07-.21.15-.41.23-.62.51-.61.51-.61,1.34-.4.54-.76,1-1.53,1.61-2.24a1.48,1.48,0,0,1,2.28-.33,1.79,1.79,0,0,1,0,2.5c-.33.4-.65.81-1,1.28.74.27,1.4.52,2.08.75.07,0,.22-.09.29-.17.51-.65,1-1.34,1.53-1.94a3.62,3.62,0,0,1,4.32-1.09,3.74,3.74,0,0,1,2.44,3.68,21.57,21.57,0,0,1-.2,2.57l.77.29A1,1,0,0,1,91.25,221.12Z" transform="translate(0 -0.05)"/><path class="cls-5" d="M135.45,339.19c-1.14-.49-2-.06-3,1.6l3.82,1.33C136.64,340.59,136.36,339.59,135.45,339.19Z" transform="translate(0 -0.05)"/><path class="cls-5" d="M121.41,343.44c1.07.47,1.92,0,3-1.66l-3.78-1.32C120.22,342.06,120.49,343,121.41,343.44Z" transform="translate(0 -0.05)"/><path class="cls-5" d="M150.3,352.2c-.3-5.3-.8-10.2-3.6-14.9a23.4,23.4,0,0,0-11.6-9.9,30,30,0,0,0-8.4-1.3,28.3,28.3,0,0,0-16.5,4.4,21.91,21.91,0,0,0-9.6,16.8,177.26,177.26,0,0,0,49.3,11.1A31.8,31.8,0,0,0,150.3,352.2Zm-6-5.39a2,2,0,0,1-2.44,1.31c-.59-.16-1.16-.39-1.68-.57-.75,1.21-1.4,2.38-2.17,3.46a26.31,26.31,0,0,1-2.23,2.71,2.69,2.69,0,0,1-3.68.44,3,3,0,0,1-.92-3.78,9.9,9.9,0,0,1,1.13-1.55c.86-1.08,1.74-2.13,2.73-3.34-1.57-.55-2.9-1-4.24-1.46-.11,0-.34.19-.45.34-1,1.25-1.89,2.59-3,3.76a6.58,6.58,0,0,1-7.88,1.68A6.87,6.87,0,0,1,115,343.6a40.71,40.71,0,0,1,.21-4.87,1.52,1.52,0,0,1-1.36-1.9c.13-.36.25-.73.38-1.09.9-1.09.9-1.09,2.46-.7.95-1.35,1.82-2.72,2.83-4a2.77,2.77,0,0,1,4.19-.58,3.09,3.09,0,0,1,.2,4.43c-.59.71-1.16,1.43-1.82,2.25,1.39.49,2.63.94,3.9,1.34.13,0,.4-.15.52-.31.91-1.13,1.73-2.35,2.71-3.42a6.73,6.73,0,0,1,7.91-1.93,7,7,0,0,1,4.76,6.51,39.92,39.92,0,0,1-.2,4.55c.38.13.91.31,1.44.51A1.87,1.87,0,0,1,144.32,346.81Z" transform="translate(0 -0.05)"/><path class="cls-5" d="M95.14,292.33c.27.55.77.66,1.76.35l-1.08-1.83C95.12,291.36,94.9,291.85,95.14,292.33Z" transform="translate(0 -0.05)"/><path class="cls-5" d="M100.49,295l1.09,1.84c.68-.48.91-1,.67-1.45S101.47,294.72,100.49,295Z" transform="translate(0 -0.05)"/><path class="cls-5" d="M108.6,291.2c-3.1-11.4-22.3-12.2-21.4,1.4.4,5.9,5.9,12.9,12.1,13.2C106.7,306.1,110.3,297.3,108.6,291.2Zm-3.81,6.48a20,20,0,0,1-1.62,1.77l.42.7a1,1,0,0,1-.32,1.39,1,1,0,0,1-1.43-.31c-.18-.26-.33-.55-.48-.81-.71.24-1.37.49-2,.66a14.18,14.18,0,0,1-1.82.33,1.44,1.44,0,0,1-1.64-1.09,1.58,1.58,0,0,1,.9-1.84,5.5,5.5,0,0,1,1-.24l2.23-.41c-.45-.76-.83-1.41-1.23-2,0-.05-.19,0-.29,0-.83.16-1.64.4-2.48.5a3.48,3.48,0,0,1-3.75-2,3.66,3.66,0,0,1,.25-4.07,18.86,18.86,0,0,1,1.73-1.89.81.81,0,0,1,.09-1.24l.52-.31c.73-.13.73-.13,1.23.56.84-.22,1.66-.47,2.49-.63a1.47,1.47,0,0,1,1.89,1.2A1.6,1.6,0,0,1,99,289.72l-1.5.29c.4.67.75,1.28,1.13,1.87,0,.07.22.08.32.06.75-.15,1.49-.36,2.25-.45a3.56,3.56,0,0,1,3.85,1.93A3.69,3.69,0,0,1,104.79,297.68Z" transform="translate(0 -0.05)"/><path class="cls-5" d="M310.72,200.33l.86-1.94c-.81-.28-1.34-.18-1.59.29S309.89,199.69,310.72,200.33Z" transform="translate(0 -0.05)"/><path class="cls-5" d="M310.86,204.61l-.88,2c.78.28,1.32.17,1.57-.29S311.68,205.23,310.86,204.61Z" transform="translate(0 -0.05)"/><path class="cls-5" d="M317.2,191.4a12.6,12.6,0,0,0-6.1-.1c-14.5,3.2-13.6,27.4,2.5,22.6a12.06,12.06,0,0,0,6.2-4.4A121.41,121.41,0,0,0,317.2,191.4Zm-.52,9a1.62,1.62,0,0,1-2.33-.08c-.35-.35-.7-.68-1.1-1.06-.32.71-.61,1.35-.88,2,0,.07.06.22.13.29.55.53,1.16,1,1.67,1.58a3.56,3.56,0,0,1,.64,4.26,3.7,3.7,0,0,1-3.64,2.24,19.2,19.2,0,0,1-2.38-.31c-.08.19-.2.47-.33.74a1,1,0,0,1-1.32.55,1,1,0,0,1-.57-1.35c.11-.3.26-.6.38-.86-.6-.45-1.18-.85-1.72-1.3a13.4,13.4,0,0,1-1.31-1.3,1.43,1.43,0,0,1-.06-2,1.58,1.58,0,0,1,2-.32,5.21,5.21,0,0,1,.76.66c.52.5,1,1,1.62,1.59.36-.81.67-1.49,1-2.18,0-.05-.09-.18-.16-.25-.61-.58-1.27-1.11-1.83-1.74a3.49,3.49,0,0,1-.52-4.23,3.66,3.66,0,0,1,3.47-2.14,21.21,21.21,0,0,1,2.55.33.8.8,0,0,1,1.06-.64l.55.25c.53.52.53.52.26,1.33.66.56,1.34,1.08,1.95,1.67A1.47,1.47,0,0,1,316.68,200.43Z" transform="translate(0 -0.05)"/><path class="cls-5" d="M202.56,314.8c.09.83.67,1.2,2.08,1.27-.18-1-.35-1.89-.53-2.83C203,313.56,202.48,314.07,202.56,314.8Z" transform="translate(0 -0.05)"/><path class="cls-5" d="M208.1,320.73c.18,1,.35,1.92.53,2.86,1.09-.29,1.61-.82,1.53-1.53C210.06,321.17,209.49,320.8,208.1,320.73Z" transform="translate(0 -0.05)"/><path class="cls-5" d="M201.8,305.3c-11.3,3.8-11.8,21.2-1.5,26.6a13.08,13.08,0,0,0,5.1,1.5c5.6.3,10.8-3.9,13.1-9C223.2,313.9,213.4,301.1,201.8,305.3Zm10.53,20.82a27.64,27.64,0,0,1-2.88,1.49c.05.28.13.68.2,1.08a1.34,1.34,0,0,1-1.05,1.62,1.4,1.4,0,0,1-1.68-1.05c-.11-.43-.17-.87-.24-1.26-1,0-2,0-2.91-.12a17.14,17.14,0,0,1-2.46-.44,1.93,1.93,0,0,1-1.58-2.14,2.13,2.13,0,0,1,2-1.92,6.31,6.31,0,0,1,1.36.16c1,.15,1.93.33,3,.52-.22-1.18-.4-2.18-.6-3.18,0-.07-.24-.14-.37-.16-1.13-.17-2.28-.25-3.38-.52a4.74,4.74,0,0,1-3.84-4.33,5,5,0,0,1,2.23-5.05,29.64,29.64,0,0,1,3.08-1.6,1.1,1.1,0,0,1,.7-1.53l.8-.15c1,.18,1,.18,1.31,1.29,1.17.12,2.33.18,3.46.36a2,2,0,0,1,1.85,2.41,2.21,2.21,0,0,1-2.67,1.7c-.65-.12-1.3-.22-2-.34.2,1,.36,2,.56,2.91,0,.1.24.2.38.22,1,.17,2.06.25,3.07.48a4.85,4.85,0,0,1,4,4.26A5,5,0,0,1,212.33,326.12Z" transform="translate(0 -0.05)"/></svg>