<?xml version="1.0" encoding="utf-8"?>
<!-- Generator: Adobe Illustrator 25.2.1, SVG Export Plug-In . SVG Version: 6.00 Build 0)  -->
<svg version="1.1" id="Layer_1" xmlns="http://www.w3.org/2000/svg" xmlns:xlink="http://www.w3.org/1999/xlink" x="0px" y="0px"
	 viewBox="0 0 165.2 236" style="enable-background:new 0 0 165.2 236;" xml:space="preserve">
<style type="text/css">
	.st0{fill:#448539;}
	.st1{fill:#00564C;}
	.st2{fill:#B0F49F;}
	.st3{fill:#FF79E0;}
	.st4{fill:#A91D8D;}
</style>
<g id="Layer_2_1_">
	<g id="Layer_1-2">
		<path class="st0" d="M28.3,123.2c-3.1-2.2-5.4-5.3-6.5-8.9c-1.5-4.4-2.5-8.9-3.1-13.5c-0.8-6-1.8-12-2.2-18.1
			c-0.5-7.3-0.9-14.7,0.3-22c0.3-1.7-0.1-3.4-1.1-4.7C6.5,42.2,5,27.2,10.9,11.8c1.1-3.1,2.9-5.9,5.3-8.2c4.9-4.8,11.1-4.7,16,0.1
			c3.1,3.1,4.4,7,5.1,11.1c0,0.8,0.2,1.6,0.5,2.3c0.7,0.2,1-0.4,1.3-0.7c0.9-0.7,1.7-1.4,2.6-2.1c6.9-5.4,14-3.5,19,0.4
			c3,2.4,5.5,5.4,7.4,8.7c5,8.6,8.6,17.9,10.5,27.7c1.8,8.3,2.8,16.7,3.8,25.1c0,0.2,0.1,0.5,0.2,0.7c0.8-0.4,0.8-1.2,1-1.8
			c0.8-1.8,1.6-3.7,2.5-5.5c2.4-4.7,6.2-8.5,10.9-10.8c1.3-0.7,2.5-1.3,3.8-2c0.1-0.9-0.5-1.4-0.8-2c-6.6-12-5-26.8,4.1-37.1
			c1.5-1.8,3.3-3.3,5.3-4.5c4.3-2.7,10-2.3,13.8,1.2c2,1.7,3.5,3.7,4.6,6.1c4,8.8,4.7,18.8,2.1,28.1c-0.7,2.5-1.5,5.1-2.3,7.6
			c-0.2,0.7-0.4,1.3,0.3,1.9c2.9,2.7,4.8,6.3,5.2,10.2c0,0.2,0.2,0.4,0.4,0.6c0.7-0.4,1.3-1,1.7-1.7c4.9-5.4,11-9.6,17.7-12.4
			c1.7-0.7,3.5-1.1,5.3-1.2c2.2-0.1,4.3,1.1,5.3,3.1c0.8,1.5,1.4,3.1,1.5,4.8c0.5,3.8,0.1,7.6-0.9,11.2c-2.1,7.2-5.5,14-9.9,20.1
			c-2.5,3.7-6.3,6.3-10.7,7.3c-1.9,0.5-3.8,0.6-5.7,0.5c-1.8-0.1-1.8-0.1-2.4,1.7c-1.4,4.6-3.4,9.1-5.9,13.3
			c-2.1,3.9-4.8,7.4-8.1,10.3c-0.4,0.4-0.8,0.8-1.1,1.3c-0.5,0.1-0.9,0.1-1.4,0.1c-5-0.5-10-1.1-15-1.5c-9.2-0.7-18.4-1.4-27.7-1.9
			c-9.1-0.5-18.2-0.7-27.3-1C42.1,122.7,35.2,123.1,28.3,123.2z M65.8,58.6c0-0.9-0.2-1.7-0.6-2.5c-1.3-2.8-2.7-5.6-4.1-8.4
			c-0.9-1.8-1.3-1.8-2.8-0.6c-0.4,0.4-0.8,0.8-1.1,1.2c-0.5,0.7-0.6,1.5,0.3,2c1.1,0.5,1.3,1.5,1.5,2.5c0.5,2.7,1.6,5.2,3.2,7.4
			c0.4,0.6,0.8,1.3,1.7,1c0.9-0.2,1.6-0.8,1.8-1.7C65.7,59.1,65.7,58.8,65.8,58.6z M33.9,69.6c2,0,3.3-1.3,2.8-3
			c-0.9-2.9-1.4-5.9-2.3-8.7c-0.5-1.7-1.4-2.1-2.9-1.5c-2.2,0.8-2.8,1.7-2,3.5c0.9,1.9,1.5,3.9,1.8,5.9c0.1,0.9,0.4,1.7,0.7,2.5
			C32.2,69.1,33,69.7,33.9,69.6z M53.7,98.9c-0.3-1.2-0.6-2.4-1-3.5c-0.4-1.6-0.7-3.1-1.1-4.7c-0.7-2.6-2.3-3.1-4.4-1.5
			c-0.3,0.2-0.5,0.4-0.7,0.6c-0.4,0.4-0.6,1-0.3,1.5c1.5,2.7,1.9,5.7,2.7,8.7c0.4,1.6,1,1.9,2.7,1.7
			C53.1,101.4,53.8,100.7,53.7,98.9z M37.4,94.9c0-0.4,0-0.7-0.1-1.1c-1.1-3.5-2.3-7-3.4-10.5c0-0.2-0.1-0.3-0.2-0.4
			c-0.3-0.6-1-0.8-1.6-0.6c-0.2,0.1-0.4,0.3-0.5,0.5c-0.4,0.5-0.5,1-0.5,1.6c0,4,0.7,8,1.9,11.8c0.3,0.8,0.5,1.9,1.6,1.9
			c1.1-0.1,2.1-0.8,2.6-1.9C37.3,95.7,37.4,95.3,37.4,94.9z M43.5,32.6c-1.5,0.1-2.5,1-2.2,2.2c0.6,3,1.4,6,2.4,9
			c1.2,3.5,2.5,2.8,4.9,1.6c1-0.5,1.3-1.3,0.5-2.1c-1.2-1.5-2-3.3-2.1-5.2c-0.3-1.5-0.8-2.9-1.6-4.2C44.9,33,44.4,32.5,43.5,32.6z
			 M101.6,102.5L101.6,102.5c-1.2-3.5-2.4-7-3.7-10.5c-0.4-1-1.2-1.2-2.1-0.4c-0.7,0.5-1.3,1.2-2,1.7c-0.7,0.5-0.9,1.4-0.4,2.1
			c0,0.1,0.1,0.1,0.1,0.2c1.2,1.9,2.3,3.9,3.2,5.9c0.5,0.9,1,1.8,1.6,2.7c0.5,0.7,1.3,0.9,2.1,0.6
			C101.3,104.4,101.9,103.4,101.6,102.5L101.6,102.5z M109.7,83.7c-0.5-1.8-0.4-4-1.6-5.9c-0.6-0.9-1.1-1.9-1.4-3
			c-0.4-1.4-1.3-1.7-2.8-1.2c-1.7,0.6-2.2,1.3-1.7,2.7c1.1,3.4,2.7,6.7,4.8,9.6c0.9,1.3,1.5,1.2,2.2-0.1
			C109.6,85.1,109.8,84.4,109.7,83.7z M69.1,115.8c0-0.7-0.1-1.3-0.4-1.9c-0.9-2.3-1.8-4.8-2.4-7.2c-0.2-0.7-0.2-1.5-1.1-1.6
			c-1.3,0.5-2.5,1.2-3.6,2c0,0.3,0.1,0.6,0.2,0.9c0.9,2.5,1.8,5.1,2.7,7.6c0.2,0.6,0.5,1.2,0.9,1.7c0.6,0.8,1.2,1.6,2.3,1.2
			S69.1,117.1,69.1,115.8z M22.6,32.8c-0.1-0.3-0.2-0.7-0.3-1c-1.1-2.7-2.1-5.5-3.3-8.2c-0.6-1.5-1.4-1.8-2.6-1.3
			c-1.7,0.8-2.5,2.3-1.6,3.6c0.9,1.5,1.6,3.1,2.1,4.8c0.3,0.9,0.7,1.8,1.1,2.6c0.3,0.7,1,1.3,1.8,1.5c1.2,0.3,2.4-0.4,2.7-1.6
			C22.6,33,22.6,32.9,22.6,32.8z M69,92.2c-0.9-2.3-0.9-5-1.5-7.7c-0.1-0.5-0.3-0.9-0.4-1.4c-0.6-1.7-1-1.8-2.7-1.3s-2,0.9-1.6,2.5
			c0.5,1.9,1,3.9,1.7,5.8c0.4,1.2,0.2,2.5,0.6,3.8c0.2,0.6,0.3,1.3,1.2,1.3C67.9,95.2,69.1,93.9,69,92.2C69,92.3,69,92.3,69,92.2z
			 M22.4,9.1c0.3,1.6,0.6,3.2,1,4.8c0.3,1.7,0.9,3.4,1.9,4.9c1,1.3,2.2,1.7,3.3,1s1.3-1.7,0.5-3.2c-1.1-2.1-1.9-4.4-2.4-6.7
			c-0.2-1-0.7-2-1.4-2.7c-0.5-0.6-1.4-0.7-2-0.3c-0.2,0.2-0.4,0.4-0.5,0.7C22.7,8.1,22.5,8.6,22.4,9.1z M116.6,114.7
			c0-0.8-0.2-1.6-0.5-2.3c-1.1-2.7-2.7-5.2-3.6-8.1c-0.4-1.2-1.2-1.3-2.3-0.5c-1.4,1-1.7,2.4-1,4.3c1.1,2.7,3.1,4.8,4.3,7.4
			c0.1,0.1,0.2,0.3,0.3,0.4c0.5,0.6,1.3,0.7,2,0.5C116.5,116.1,116.6,115.3,116.6,114.7z M54.2,72.4c0-0.2,0-0.5-0.1-0.7
			c-1-3.4-2.7-6.6-3.3-10.2c-0.2-1.2-1.6-1.3-2.4-0.3c-0.5,0.7-0.6,1.6-0.4,2.5c0.1,1.1,0.3,2.2,0.6,3.3c0.4,2.2,1,4.4,2,6.4
			c0.5,0.9,1.1,1.7,2.2,1.3C53.8,74.3,54.3,73.4,54.2,72.4z M124.2,73.9c-0.2-0.5-0.4-1.2-0.7-2c-1-2.3-2.1-4.5-3.2-6.7
			c-0.3-0.5-0.4-1.4-1.2-1.4s-1.1,0.8-1.4,1.5c-0.2,0.5-0.3,1.1-0.2,1.6c-0.2,3.5,1.6,6.3,3.4,9c1,1.6,1.9,1.5,2.8-0.2
			C124.1,75.1,124.3,74.5,124.2,73.9z M148.2,84.7c0-0.2,0-0.3-0.1-0.5c-0.8-3-1.7-6-2.3-9c-0.2-1-0.8-1.1-1.6-0.9
			c-1.1,0.3-1.8,1.2-1.8,2.3c-0.2,1.8,0,3.7,0.8,5.4c0.6,1.2,1,2.5,1.2,3.9c-0.1,0.8,0.3,1.5,1,1.8c0.9,0.3,1.5-0.3,2-0.9
			C147.9,86.2,148.2,85.4,148.2,84.7L148.2,84.7z M119.1,87.2c-0.1,3,1.9,8,3.8,9.9c0.9,0.9,1.5,0.8,2.3-0.3c0.8-1.3,0.8-2.8,0-4.1
			c-1.1-2.4-2.3-4.8-3.4-7.1c-0.2-0.4-0.3-1-0.9-1s-1,0.5-1.2,0.9C119.4,86.2,119.3,86.8,119.1,87.2z M120.5,30.5
			c-0.3-2.1-0.8-4.2-1.4-6.3c-0.2-0.7-0.5-1.2-1.3-1.1c-1.2,0.1-2.4-0.3-3.5,0.4c-0.2,0.1-0.2,0.6-0.2,0.9c0,0.6,0.1,1.3,0.5,1.8
			c1,1.4,1.5,3,1.7,4.7c0.1,0.6,0.4,1.2,0.7,1.8c0.4,0.9,1.4,1.3,2.3,0.9c0.4-0.2,0.7-0.4,0.8-0.8C120.4,32,120.6,31.2,120.5,30.5z
			 M154.2,64.7c-1.4,0.8-2.9,1.3-3,3c-0.1,2.7,0.7,5.4,2.2,7.7c0.4,0.5,0.8,0.7,1.4,0.2c0.8-0.7,1.8-1.3,1.5-2.5
			C155.7,70.3,155.4,67.4,154.2,64.7L154.2,64.7z M107,36v1.7c0.1,1.3,0.3,2.7,0.8,3.9c0.6,1.2,1.5,1.7,2.5,1.4
			c1-0.3,1.7-1.3,1.5-2.4c-0.3-2.5-1.1-5-2.1-7.3c-0.2-0.5-0.6-0.9-1.2-1c-0.7,0-1,0.6-1.3,1.3C106.9,34.4,106.9,35.2,107,36z"/>
		<path class="st1" d="M28.3,123.2c6.9-0.2,13.9-0.6,20.8-0.4c9.1,0.3,18.2,0.5,27.3,1s18.5,1.2,27.7,1.9c5,0.4,10,1,15,1.5
			c0.5,0.1,0.9,0,1.4-0.1c2.4,0.9,5,0.9,7.5,1.3c5,0.9,9.9,1.8,14.8,3.1c2.3,0.6,2.8,1.6,1.9,3.9c-0.7,1.8-1.6,3.5-2.6,5.1
			c-7.3,13.2-13.9,26.7-19.8,40.5c-6.8,15.9-12.9,32.2-18.5,48.6c0,0.1,0,0.2-0.1,0.2c-2.4,5-2.8,6.2-8.7,6.1c-20-0.5-40-0.2-60-0.4
			c-4.2,0-6-1.4-7.1-5.4c-4-14-8-27.9-12-41.9c-3-10.4-6.1-20.8-9.2-31.2c-1.3-4.4-3-8.8-4.5-13.2c-1.4-4.3-2.1-8.7-2.2-13.2
			c-0.1-2.9,0.9-4,3.7-4.8c2.3-0.6,4.7-0.9,7.1-1.1C16.5,124.2,22.4,123.3,28.3,123.2z M70.9,211.2c0,7,0,12.8,0.5,18.6
			c0.1,1.8,0.1,1.8,2,1.8h6.2c2.3,0,2.3,0,2.7-2.3c1.2-6.1,2.3-12.2,3.5-18.3c2.2-11.5,4.3-23,6.5-34.5c1.7-8.8,3.2-17.6,4.6-26.4
			c0.8-4.7,1.6-9.4,3.5-13.9c0.7-1.5,1.2-3.1,1.3-4.8c0.1-1.8,0-1.9-1.8-2.1c-2.9-0.2-5.8-0.2-8.6-0.6c-3-0.4-6-0.3-9.1-0.7
			c-3.5-0.4-7-0.5-10.5-0.6c-1.8-0.1-1.9,0.1-1.7,1.9c0.1,0.9,0.1,1.7,0,2.6c-0.4,3.6-0.8,7.1-1,10.7c-0.1,4.9,0,9.9,0.5,14.8
			c0.2,2.9,0.3,5.9,0.4,8.8c0.4,7.8,1,15.6,1.3,23.4S70.6,205,70.9,211.2z M34,127.1c-4.9,0.8-10.3,0.2-15.7,0.9
			c-2.8,0.4-3.1,0.7-2.1,3.3c0.2,0.5,0.4,1,0.7,1.5c1.6,2.7,2.8,5.7,3.6,8.8c2.2,8.4,3.7,17,6,25.4l11.1,41.4l6,21.9
			c0.6,2,0.7,2.1,2.6,1.7c1.5-0.2,3-0.3,4.5-0.3c1.2,0,2.4,0,3.6-0.1c0.8,0,1.1-0.4,1-1.2c-0.7-5.5-1.4-11.1-2.1-16.6
			c-0.7-4.9-1.4-9.8-2-14.7s-1.3-9.8-2.1-14.7c-1.3-8.3-2.7-16.7-4.1-25c-1.6-9.3-3.3-18.7-5-28c-0.3-1.4-0.1-3.2-1.1-4.1
			S36.1,127.2,34,127.1z M49.1,127.2h-4.8c-2.1,0-2.1,0-1.8,2.1c0.1,0.6,0.1,1.1,0.2,1.7c2.6,13.5,5.2,27.1,7.2,40.7
			c1.2,7.7,2.6,15.4,3.6,23.1c1.4,10.1,2.9,20.2,4,30.3c0.2,1.8,0.6,3.6,0.8,5.4c0,0.7,0.5,1.2,1.2,1.2c0.1,0,0.1,0,0.2,0h7.4
			c0.9,0,1.4-0.3,1.3-1.3v-1.7c0-8-0.6-16-0.3-24c0.2-3.9,0.2-7.8,0-11.7c-0.4-6.3-0.6-12.6-1-18.9c-0.5-7.5-0.7-15-1.1-22.5
			c-0.1-1.6-0.1-3.2-0.3-4.8c-0.2-2.1-0.2-4.1,0.1-6.2c0.7-3.8,1.1-7.6,1.2-11.4c-0.1-1.7-0.1-1.8-1.7-1.8
			C60,127.7,54.6,127.2,49.1,127.2L49.1,127.2z M125.5,132.6c-0.5-0.4-1.1-0.6-1.8-0.7c-5.1-0.5-10.2-0.8-15.2-1.4
			c-3.1-0.4-3.1-0.2-4,2.9c-4.7,17.1-7.7,34.5-10.9,51.9c-2.3,12.4-4.8,24.7-7.2,37.1c-0.5,2.4-1,4.8-1.5,7.3
			c-0.3,1.8-0.1,2,1.8,2.1h3.4c1.8,0.1,1.8,0.1,2.4-1.6c2.3-7.2,4.5-14.5,6.8-21.7c2-6.4,3.9-12.8,6-19.2c2.1-6.8,4-13.6,7.2-20
			c2-4.2,3.4-8.6,4.2-13.2c1.3-5.7,2.5-11.4,5.1-16.7C122.9,137.1,124.4,135,125.5,132.6L125.5,132.6z M38.3,232.6
			c2.6,0.1,2.6,0.1,1.9-2.4c-1.9-7-3.9-14-5.6-21c-5-19.9-10.8-39.6-15.1-59.6c-1.1-5-2.2-10-4.8-14.5c-1-1.6-1.6-3.5-1.8-5.4
			c-0.1-0.8-0.5-1.2-1.2-1.1c-2.3,0.2-4.6,0.6-6.8,1.1c-0.6,0.2-1,0.7-1.1,1.3c-0.3,2.5-0.2,5.1,0.4,7.6c1.4,5.8,3.5,11.3,5.3,16.9
			c3.1,9.2,5.4,18.5,8.2,27.8c4.3,14.6,8.4,29.1,12.6,43.7c1.3,4.5,2.2,5.3,6.9,5.7C37.5,232.8,37.9,232.6,38.3,232.6L38.3,232.6z
			 M130.1,132.6c-0.9-0.1-0.9-0.1-1.7,0.9c-3.1,4.1-5.3,8.7-6.6,13.7c-2.3,8.2-4.2,16.6-7.3,24.5c-1.8,4.7-3.7,9.4-5.2,14.2
			c-4.6,14.4-9,28.8-13.5,43.2c-0.2,0.8-1,1.8-0.1,2.4c0.7,0.5,1.7-0.2,2.5-0.6c0.8-0.4,1.4-1.1,1.7-1.9c1.3-2.5,2.5-5.1,3.6-7.8
			c2.1-5.6,3.6-11.4,5.7-17c7.2-18.6,15-36.8,23.9-54.6c2.1-4.3,4.3-8.6,6.4-12.9c0.7-1.5,0.6-1.8-0.9-2.2
			C135.8,133.7,133,133,130.1,132.6L130.1,132.6z"/>
		<path class="st2" d="M65.8,58.5c0,0.3,0,0.7-0.1,1c-0.2,0.9-0.9,1.6-1.8,1.7c-0.9,0.2-1.3-0.4-1.7-1c-1.5-2.2-2.6-4.8-3.2-7.4
			c-0.2-1.1-0.4-2-1.5-2.5s-0.9-1.3-0.3-2c0.3-0.5,0.7-0.9,1.1-1.2c1.5-1.3,1.9-1.2,2.8,0.6c1.4,2.8,2.7,5.6,4.1,8.4
			C65.6,56.9,65.9,57.7,65.8,58.5z"/>
		<path class="st2" d="M33.9,69.6c-0.9,0.2-1.7-0.4-1.9-1.3c-0.3-0.8-0.6-1.6-0.7-2.5c-0.3-2-0.9-4-1.8-5.9c-0.8-1.7-0.2-2.7,2-3.5
			c1.5-0.6,2.3-0.2,2.9,1.5c0.9,2.9,1.4,5.8,2.3,8.7C37.2,68.2,35.9,69.6,33.9,69.6z"/>
		<path class="st2" d="M53.7,98.8c0,1.8-0.6,2.6-2.1,2.8s-2.2-0.1-2.7-1.7c-0.8-2.9-1.2-6-2.7-8.7c-0.3-0.5-0.1-1.1,0.3-1.5
			c0.2-0.2,0.5-0.4,0.7-0.6c2.2-1.7,3.7-1.2,4.4,1.5c0.4,1.5,0.7,3.1,1.1,4.7C53.2,96.5,53.6,97.6,53.7,98.8z"/>
		<path class="st2" d="M37.4,94.8c-0.1,0.3,0,0.9-0.3,1.3c-0.4,1.1-1.4,1.8-2.6,1.9c-1.1,0-1.3-1.1-1.6-1.9
			c-1.3-3.8-1.9-7.8-1.9-11.8c0-0.6,0.1-1.1,0.5-1.6c0.7-0.9,1.5-0.8,2.1,0.1c0.1,0.1,0.2,0.2,0.2,0.4c1.1,3.5,2.3,7,3.4,10.5
			C37.4,94.1,37.4,94.5,37.4,94.8z"/>
		<path class="st2" d="M43.5,32.5c0.8-0.1,1.6,0.4,1.9,1.2c0.7,1.3,1.3,2.8,1.6,4.2c0.1,1.9,0.9,3.7,2.1,5.2
			c0.8,0.8,0.5,1.7-0.5,2.1c-2.4,1.2-3.6,1.9-4.9-1.6c-1-3-1.8-6-2.4-9C41,33.5,42,32.7,43.5,32.5z"/>
		<path class="st2" d="M101.6,102.4c0.2,0.9-0.3,1.8-1.2,2.1c-0.7,0.4-1.6,0.2-2-0.5c0,0,0-0.1-0.1-0.1c-0.6-0.8-1.2-1.7-1.6-2.7
			c-0.9-2.1-2-4-3.2-5.9c-0.6-0.6-0.6-1.5,0-2.1c0.1-0.1,0.2-0.2,0.3-0.2c0.7-0.6,1.3-1.2,2-1.7c1-0.7,1.8-0.6,2.1,0.4
			C99.3,95.4,100.4,99.1,101.6,102.4z"/>
		<path class="st2" d="M109.7,83.7c0.1,0.7-0.1,1.5-0.5,2.1c-0.8,1.4-1.3,1.4-2.2,0.1c-2.1-2.9-3.8-6.1-4.8-9.6
			c-0.5-1.4,0-2.1,1.7-2.7c1.5-0.5,2.5-0.2,2.8,1.2c0.3,1.1,0.8,2.1,1.4,3C109.3,79.6,109.3,81.8,109.7,83.7z"/>
		<path class="st2" d="M69.1,115.8c0,1.3-0.3,2.3-1.5,2.7s-1.8-0.4-2.3-1.2c-0.4-0.5-0.7-1.1-0.9-1.7c-0.9-2.5-1.8-5.1-2.7-7.6
			c-0.1-0.3-0.2-0.6-0.2-0.9c1.1-0.8,2.3-1.5,3.6-2c0.9,0.2,0.9,0.9,1.1,1.6c0.6,2.4,1.5,4.9,2.4,7.2
			C68.9,114.4,69.1,115.1,69.1,115.8z"/>
		<path class="st2" d="M22.6,32.8c0,1.2-1,2.1-2.2,2.1c-0.2,0-0.4,0-0.5-0.1c-0.8-0.2-1.5-0.8-1.8-1.5c-0.4-0.9-0.8-1.7-1.1-2.6
			c-0.5-1.7-1.2-3.3-2.1-4.8c-0.9-1.2-0.1-2.8,1.6-3.6c1.2-0.6,2-0.2,2.6,1.3c1.1,2.7,2.2,5.5,3.3,8.2
			C22.4,32.1,22.5,32.4,22.6,32.8z"/>
		<path class="st2" d="M69,92.2c0.1,1.5-1,2.9-2.6,3c-0.1,0-0.2,0-0.2,0c-0.8,0-1-0.7-1.2-1.3c-0.4-1.2-0.2-2.5-0.6-3.8
			c-0.6-1.9-1.2-3.8-1.7-5.8c-0.4-1.7-0.2-2,1.6-2.5s2-0.4,2.7,1.3c0.2,0.4,0.3,0.9,0.4,1.4C68.1,87.2,68.1,90,69,92.2z"/>
		<path class="st2" d="M22.4,9.1c0.1-0.5,0.2-1,0.4-1.4c0.2-0.7,1-1.2,1.8-0.9c0.3,0.1,0.6,0.3,0.7,0.5C26,8.1,26.5,9,26.7,10
			c0.5,2.3,1.3,4.6,2.4,6.7c0.8,1.4,0.5,2.5-0.5,3.2s-2.3,0.3-3.3-1c-1-1.5-1.6-3.1-1.9-4.9C23,12.4,22.8,10.6,22.4,9.1z"/>
		<path class="st2" d="M116.6,114.7c0.1,0.7-0.2,1.3-0.8,1.7c-0.7,0.4-1.5,0.1-2-0.5c-0.1-0.1-0.2-0.2-0.3-0.4
			c-1.3-2.6-3.2-4.8-4.3-7.4c-0.8-1.5-0.4-3.3,1-4.3c1.1-0.8,1.9-0.7,2.3,0.5c0.9,2.8,2.5,5.3,3.6,8.1
			C116.4,113.1,116.5,113.9,116.6,114.7z"/>
		<path class="st2" d="M54.2,72.3c0.1,1-0.4,2-1.4,2.3c-1.2,0.4-1.7-0.4-2.2-1.3c-1-2-1.6-4.2-2-6.4c-0.3-1.1-0.4-2.2-0.6-3.3
			c-0.2-0.9-0.1-1.8,0.4-2.5c0.8-1,2.2-1,2.4,0.3c0.6,3.6,2.3,6.8,3.3,10.2C54.2,71.9,54.2,72.1,54.2,72.3z"/>
		<path class="st2" d="M124.2,73.8c0.1,0.7-0.1,1.4-0.5,1.9c-0.9,1.7-1.7,1.8-2.8,0.2c-1.8-2.7-3.6-5.5-3.4-9c0-0.5,0-1.1,0.2-1.6
			c0.3-0.6,0.6-1.4,1.4-1.5s0.9,0.8,1.2,1.4c1.1,2.2,2.1,4.5,3.2,6.7C123.8,72.6,124,73.3,124.2,73.8z"/>
		<path class="st2" d="M148.2,84.7c0.1,0.7-0.2,1.5-0.7,2c-0.5,0.6-1.1,1.2-2,0.9c-0.7-0.3-1.1-1-1-1.8c-0.1-1.4-0.5-2.7-1.2-3.9
			c-0.7-1.7-0.9-3.6-0.8-5.4c0-1.1,0.8-2,1.8-2.3c0.8-0.2,1.4-0.1,1.6,0.9c0.6,3,1.4,6,2.3,9L148.2,84.7z"/>
		<path class="st2" d="M119.1,87.2c0.1-0.6,0.3-1.2,0.6-1.7c0.2-0.5,0.6-1,1.2-0.9s0.7,0.6,0.9,1c1.1,2.4,2.3,4.8,3.4,7.1
			c0.7,1.3,0.7,2.8,0,4.1c-0.7,1.2-1.4,1.3-2.3,0.3C121,95.2,119.1,90.2,119.1,87.2z"/>
		<path class="st2" d="M120.5,30.5c0.1,0.8-0.1,1.6-0.5,2.3c-0.5,0.8-1.5,1.1-2.4,0.7c-0.3-0.2-0.6-0.4-0.7-0.8
			c-0.3-0.6-0.6-1.2-0.7-1.8c-0.2-1.7-0.8-3.3-1.7-4.7c-0.4-0.5-0.5-1.2-0.5-1.8c0-0.3,0-0.6,0.2-0.9c1.1-0.8,2.3-0.3,3.5-0.4
			c0.8-0.1,1.1,0.5,1.3,1.1C119.7,26.2,120.2,28.3,120.5,30.5z"/>
		<path class="st2" d="M154.2,64.7c0.9,2.7,1.6,5.5,2.1,8.4c0.3,1.2-0.7,1.8-1.5,2.5c-0.6,0.5-1,0.3-1.4-0.2c-1.5-2.3-2.3-5-2.2-7.7
			C151.3,66.1,152.8,65.4,154.2,64.7z"/>
		<path class="st2" d="M107,36c-0.1-0.8-0.1-1.6,0.2-2.4c0.2-0.6,0.5-1.2,1.3-1.3c0.6,0,1.1,0.4,1.2,1c1,2.3,1.8,4.8,2.1,7.3
			c0.2,1.1-0.4,2.2-1.5,2.4c0,0,0,0,0,0c-1,0.3-1.9-0.2-2.5-1.4c-0.6-1.2-0.8-2.6-0.8-3.9L107,36z"/>
		<path class="st3" d="M70.9,211.2c-0.3-6.4,0.7-13.9,0.4-21.4c-0.3-7.8-0.8-15.6-1.3-23.4c-0.2-2.9-0.2-5.9-0.4-8.8
			c-0.5-4.9-0.6-9.9-0.5-14.8c0.2-3.6,0.6-7.1,1-10.7c0.1-0.9,0.1-1.7,0-2.6c-0.2-1.8,0-2,1.7-1.9c3.5,0.1,7,0.2,10.5,0.6
			c3,0.4,6,0.3,9.1,0.7c2.8,0.4,5.7,0.4,8.6,0.6c1.7,0.1,1.8,0.2,1.8,2.1c-0.2,1.7-0.6,3.3-1.3,4.8c-1.9,4.5-2.7,9.2-3.5,13.9
			c-1.4,8.8-2.9,17.6-4.6,26.4c-2.2,11.5-4.4,23-6.5,34.5c-1.2,6.1-2.3,12.2-3.5,18.3c-0.4,2.3-0.5,2.3-2.7,2.3h-6.2
			c-1.9,0-1.8-0.1-2-1.8C71,223.8,70.8,217.5,70.9,211.2z"/>
		<path class="st3" d="M34,127.1c2,0.2,3.8-0.6,4.9,0.4c1.1,1,0.8,2.7,1.1,4.1c1.7,9.3,3.4,18.7,5,28c1.4,8.3,2.8,16.7,4.1,25
			c0.8,4.9,1.4,9.8,2.1,14.7s1.4,9.8,2,14.7c0.7,5.5,1.4,11.1,2.1,16.6c0.1,0.8-0.2,1.2-1,1.2c-1.2,0-2.4,0-3.6,0.1
			c-1.5,0-3,0.1-4.5,0.3c-2,0.4-2.1,0.3-2.6-1.7c-2-7.3-4.1-14.6-6-21.9l-11.1-41.4c-2.3-8.4-3.7-17-6-25.4
			c-0.6-3.1-1.9-6.1-3.6-8.8c-0.3-0.5-0.5-1-0.7-1.5c-1-2.7-0.7-3,2.1-3.3C23.7,127.2,29.2,127.8,34,127.1z"/>
		<path class="st3" d="M130.1,132.6c2.9,0.4,5.9,1,8.7,1.8c1.5,0.4,1.6,0.7,0.9,2.2c-2.1,4.3-4.3,8.6-6.4,12.9
			c-8.9,17.8-16.7,36.1-23.9,54.6c-2.2,5.6-3.6,11.4-5.7,17c-1.1,2.7-2.3,5.3-3.6,7.8c-0.3,0.8-0.9,1.5-1.7,1.9
			c-0.8,0.4-1.7,1.1-2.5,0.6s-0.1-1.6,0.1-2.4c4.5-14.4,8.9-28.8,13.5-43.2c1.5-4.8,3.4-9.5,5.2-14.2c3.1-8,4.9-16.3,7.3-24.5
			c1.3-5,3.5-9.6,6.6-13.7C129.2,132.6,129.2,132.6,130.1,132.6z"/>
		<path class="st4" d="M49.1,127.2c5.4,0,10.9,0.6,16.3,0.5c1.7,0,1.7,0.1,1.7,1.8c0,3.8-0.4,7.6-1.2,11.4c-0.3,2.1-0.3,4.1-0.1,6.2
			c0.2,1.6,0.2,3.2,0.3,4.8c0.3,7.5,0.6,15,1.1,22.5c0.4,6.3,0.6,12.6,1,18.9c0.2,3.9,0.1,7.8,0,11.7c-0.3,8,0.3,16,0.3,24v1.7
			c0,0.9-0.4,1.3-1.3,1.3c-2.5,0-5-0.1-7.4,0c-0.9,0-1.3-0.3-1.4-1.2c-0.2-1.8-0.6-3.6-0.8-5.4c-1.1-10.1-2.6-20.2-4-30.3
			c-1.1-7.7-2.5-15.4-3.6-23.1c-2-13.6-4.6-27.2-7.2-40.7c-0.1-0.5-0.1-1.1-0.2-1.7c-0.3-2-0.3-2,1.8-2.1
			C46,127.2,47.5,127.1,49.1,127.2z"/>
		<path class="st4" d="M125.5,132.6c-1.2,2.3-2.6,4.5-3.7,6.7c-2.6,5.3-3.9,11-5.1,16.7c-0.9,4.5-2.3,9-4.2,13.2
			c-3.2,6.4-5.1,13.3-7.2,20l-6,19.2c-2.2,7.2-4.5,14.5-6.8,21.7c-0.5,1.8-0.6,1.7-2.4,1.6h-3.4c-1.9,0-2.2-0.3-1.8-2.1
			c0.5-2.4,1-4.8,1.5-7.3c2.4-12.4,4.9-24.7,7.2-37.1c3.2-17.4,6.2-34.9,10.9-51.9c0.9-3.2,0.8-3.3,4-2.9c5.1,0.6,10.2,0.9,15.2,1.4
			C124.4,131.9,125,132.2,125.5,132.6z"/>
		<path class="st4" d="M38.3,232.6h-1.2c-4.7-0.4-5.6-1.2-6.9-5.7c-4.2-14.6-8.4-29.2-12.6-43.7c-2.7-9.3-5.1-18.6-8.2-27.8
			c-1.9-5.6-4-11.1-5.3-16.9c-0.6-2.5-0.7-5.1-0.4-7.6c0-0.6,0.5-1.2,1.1-1.3c2.2-0.6,4.5-1,6.8-1.1c0.8-0.1,1.1,0.3,1.2,1.1
			c0.2,1.9,0.9,3.7,1.8,5.4c2.6,4.5,3.7,9.5,4.8,14.5c4.3,20.1,10.1,39.7,15.1,59.6c1.8,7,3.8,14,5.6,21
			C40.9,232.8,40.9,232.8,38.3,232.6z"/>
	</g>
</g>
</svg>
