<svg id="Layer_1" data-name="Layer 1" xmlns="http://www.w3.org/2000/svg" viewBox="0 0 164.97 222.69"><path d="M73.57,19.72a27.86,27.86,0,0,1-2.29-3.1c-2-3.25-2.23-5.07-4.23-7.33a13.5,13.5,0,0,0-2.94-2.44A13.54,13.54,0,0,1,79,14.51a21.62,21.62,0,0,1,6.68-9.62A22,22,0,0,1,99.16,0a20.09,20.09,0,0,0-5.55,5.7C92.22,7.92,92,9.4,90.35,12.88a56.2,56.2,0,0,1-3.42,6.35,58.66,58.66,0,0,0-6.36-.16A56.74,56.74,0,0,0,73.57,19.72Z"/><path d="M61.65,185c-.56,2.32-1.11,4.71-1.62,7.17q-.9,4.35-1.62,8.48-3.48,3.06-7,6.36-4.65,4.37-8.95,8.65l.82,1q3.88-2.55,8-5.55,3.24-2.37,6.18-4.73c-.45,2.46-.84,5.13-1.13,8s-.43,5.62-.48,8.15l1.14.16c.61-1.7,1.2-3.44,1.79-5.22q1.72-5.26,3.09-10.27c1.26,2.14,2.67,4.38,4.24,6.68s3.29,4.63,4.9,6.68l1-.66c-1.09-2.46-2.24-5-3.43-7.49q-2.67-5.66-5.39-10.91c.61-2.46,1.2-5,1.79-7.5s1.1-4.92,1.62-7.34c-.87-.21-1.8-.48-2.77-.81S62.3,185.26,61.65,185Z"/><path d="M103.16,184.85c.57,2.32,1.11,4.72,1.63,7.18.61,2.89,1.15,5.72,1.63,8.47q3.48,3.06,7,6.36c3.12,2.9,6.11,5.79,9,8.64l-.81,1q-3.9-2.55-8-5.54c-2.16-1.58-4.23-3.16-6.19-4.72.45,2.45.85,5.12,1.14,8s.44,5.63.49,8.15l-1.14.16c-.61-1.7-1.21-3.43-1.8-5.21Q104.37,212,103,207c-1.27,2.14-2.67,4.38-4.24,6.68s-3.28,4.64-4.89,6.68l-1-.65c1.09-2.46,2.24-5,3.43-7.49,1.77-3.77,3.57-7.41,5.37-10.92-.61-2.46-1.2-5-1.79-7.5s-1.11-4.92-1.63-7.34a26.61,26.61,0,0,0,2.77-.81A20.38,20.38,0,0,0,103.16,184.85Z"/><circle cx="55.48" cy="87.77" r="5.7"/><circle cx="109.42" cy="87.77" r="5.7"/><path d="M126.48,141.79a133.43,133.43,0,0,1,4.24-18.09c3.7-11.77,7.29-17,9-19.24a49.64,49.64,0,0,1,6.36-7,8.65,8.65,0,0,1,12.23-.16c.06,0,.11.11.16.16a36.56,36.56,0,0,1,4,7.54c.76,1.89,3.48,9.15,2.12,21a72.26,72.26,0,0,1-11.9,31.29C140.27,176.05,122.9,185,114.1,188.73a63.09,63.09,0,0,0,9-19.4C125.49,160.1,123.94,156.86,126.48,141.79Z"/><path d="M38.51,142a133.4,133.4,0,0,0-4.23-18.09c-3.71-11.76-7.3-17-9-19.23a48.44,48.44,0,0,0-6.35-7A8.86,8.86,0,0,0,12.6,95a8.88,8.88,0,0,0-6,2.61,36.33,36.33,0,0,0-4.08,7.5C1.74,107-1,114.27.38,126.14a72.49,72.49,0,0,0,11.89,31.29c12.46,18.78,29.82,27.71,38.63,31.46a62.93,62.93,0,0,1-9-19.39C39.51,160.26,41.05,157,38.51,142Z"/><path d="M82.37,19.72c-35.7,0-65.12,32.49-69.13,74.33h.19a8.93,8.93,0,0,1,6.35,2.61,49.09,49.09,0,0,1,6.36,7c1.67,2.24,5.26,7.47,9,19.23A130.64,130.64,0,0,1,39.34,141c2.54,15.07,1,18.31,3.42,27.55a60.77,60.77,0,0,0,1.94,6,61,61,0,0,0,37.67,13.37c14,0,27-5,37.87-13.54a59.88,59.88,0,0,0,1.89-5.87c2.43-9.24.88-12.48,3.42-27.55a133.43,133.43,0,0,1,4.24-18.09c3.7-11.76,7.29-17,9-19.23a49.09,49.09,0,0,1,6.36-7A9,9,0,0,1,151.47,94h0C147.48,52.19,118.06,19.72,82.37,19.72Zm8.47,67.64L82.53,99.58,74.06,87.52ZM24.75,80.27A23.64,23.64,0,1,1,48.4,103.9h0A23.63,23.63,0,0,1,24.75,80.29h0Zm91,86.71a46.92,46.92,0,0,1-7.17,5.86A50.4,50.4,0,0,1,82.45,181a50.5,50.5,0,0,1-26.4-8.15A47.42,47.42,0,0,1,48.87,167C47.78,164.32,39,142.06,51,125.09a34.07,34.07,0,0,1,9.46-9h43.68a34,34,0,0,1,9.45,9c12,17,3.2,39.23,2.11,41.91Zm1-61.61a23.64,23.64,0,1,1,23.63-23.65h0a23.63,23.63,0,0,1-23.63,23.63h0Z"/></svg>