<svg id="Layer_1" data-name="Layer 1" xmlns="http://www.w3.org/2000/svg" viewBox="0 0 778.81 222.64"><defs><style>.cls-1{font-size:155.49px;letter-spacing:-0.05em;}.cls-1,.cls-3{font-family:Hey-Fun, Hey Fun;}.cls-2{letter-spacing:0em;}.cls-3{font-size:100.49px;}</style></defs><path d="M73.57,19.72a26.82,26.82,0,0,1-2.29-3.1c-2-3.25-2.23-5.07-4.23-7.33a13.21,13.21,0,0,0-2.94-2.44A13.54,13.54,0,0,1,79,14.51a21.71,21.71,0,0,1,6.68-9.62A22,22,0,0,1,99.16,0a20,20,0,0,0-5.55,5.7C92.22,7.92,92,9.4,90.35,12.88a57.61,57.61,0,0,1-3.42,6.35,58.51,58.51,0,0,0-6.36-.16A57.48,57.48,0,0,0,73.57,19.72Z"/><path d="M61.65,185c-.56,2.32-1.11,4.71-1.62,7.17q-.91,4.35-1.62,8.48-3.48,3.06-7,6.36-4.66,4.37-8.95,8.65l.82,1c2.59-1.7,5.26-3.55,8-5.55q3.24-2.37,6.18-4.73c-.45,2.46-.84,5.13-1.13,8s-.43,5.62-.48,8.15l1.14.16q.91-2.55,1.79-5.22,1.72-5.26,3.09-10.27c1.26,2.14,2.67,4.38,4.24,6.68s3.29,4.63,4.9,6.68l1-.66q-1.64-3.69-3.43-7.49-2.67-5.66-5.39-10.91c.61-2.46,1.2-5,1.79-7.5s1.1-4.92,1.62-7.34c-.87-.21-1.8-.48-2.77-.81C63,185.54,62.3,185.26,61.65,185Z"/><path d="M103.16,184.85c.57,2.32,1.11,4.72,1.63,7.18.61,2.89,1.15,5.72,1.63,8.47q3.47,3.06,7,6.36c3.12,2.9,6.11,5.79,9,8.64l-.81,1q-3.9-2.55-8-5.54c-2.16-1.58-4.23-3.16-6.19-4.72.45,2.45.85,5.12,1.14,8s.44,5.63.49,8.15l-1.14.16c-.61-1.7-1.21-3.43-1.8-5.21Q104.37,212,103,207c-1.27,2.14-2.67,4.38-4.24,6.68s-3.28,4.64-4.89,6.68l-1-.65q1.64-3.69,3.43-7.49c1.77-3.77,3.57-7.41,5.37-10.92-.61-2.46-1.2-5-1.79-7.5s-1.11-4.92-1.63-7.34a28.69,28.69,0,0,0,2.77-.81C101.8,185.41,102.51,185.13,103.16,184.85Z"/><circle cx="55.48" cy="87.77" r="5.7"/><circle cx="109.42" cy="87.77" r="5.7"/><path d="M126.48,141.79a134.29,134.29,0,0,1,4.24-18.09c3.7-11.77,7.29-17,9-19.24a49.62,49.62,0,0,1,6.36-7,8.65,8.65,0,0,1,12.39,0A36.63,36.63,0,0,1,162.5,105c.76,1.89,3.48,9.15,2.12,21a72.35,72.35,0,0,1-11.9,31.29C140.27,176.05,122.9,185,114.1,188.73a63.07,63.07,0,0,0,9-19.4C125.49,160.1,123.94,156.86,126.48,141.79Z"/><path d="M38.51,142a134,134,0,0,0-4.23-18.09c-3.71-11.76-7.3-17-9-19.23a49.27,49.27,0,0,0-6.35-7A8.89,8.89,0,0,0,12.6,95a8.87,8.87,0,0,0-6,2.61,36.44,36.44,0,0,0-4.08,7.5C1.74,107-1,114.27.38,126.14a72.38,72.38,0,0,0,11.89,31.29c12.46,18.78,29.82,27.71,38.63,31.46a62.9,62.9,0,0,1-9-19.39C39.51,160.26,41.05,157,38.51,142Z"/><path d="M82.37,19.72c-35.7,0-65.12,32.49-69.13,74.33h.19a8.9,8.9,0,0,1,6.35,2.61,49.19,49.19,0,0,1,6.36,7c1.67,2.24,5.26,7.47,9,19.23A131.91,131.91,0,0,1,39.34,141c2.54,15.07,1,18.31,3.42,27.55a60.83,60.83,0,0,0,1.94,6,61,61,0,0,0,37.67,13.37c14,0,27-5,37.87-13.54a58.7,58.7,0,0,0,1.89-5.87c2.43-9.24.88-12.48,3.42-27.55a131.91,131.91,0,0,1,4.24-18.09c3.7-11.76,7.29-17,9-19.23a49.19,49.19,0,0,1,6.36-7A9,9,0,0,1,151.47,94h0C147.48,52.19,118.06,19.72,82.37,19.72Zm8.47,67.64L82.53,99.58,74.06,87.52ZM24.75,80.27A23.64,23.64,0,1,1,48.39,103.9,23.63,23.63,0,0,1,24.75,80.27Zm91,86.71a47.36,47.36,0,0,1-7.17,5.86A50.44,50.44,0,0,1,82.45,181a50.51,50.51,0,0,1-26.4-8.15A47,47,0,0,1,48.87,167C47.78,164.32,39,142.06,51,125.09a34,34,0,0,1,9.46-9h43.68a34.09,34.09,0,0,1,9.45,9C125.57,142.06,116.79,164.32,115.7,167Zm1-61.61a23.64,23.64,0,1,1,23.63-23.63A23.63,23.63,0,0,1,116.68,105.37Z"/><text class="cls-1" transform="translate(214.21 171.05) scale(0.98 1)">C<tspan class="cls-2" x="92.21" y="0">HePLe</tspan></text><text class="cls-3" transform="matrix(0, 1.31, -1, 0, 693.39, 61.2)">l</text><text class="cls-3" transform="matrix(0, 1.31, -1, 0, 416.08, 62.2)">l</text></svg>