<?xml version="1.0" standalone="no"?>
<!DOCTYPE svg PUBLIC "-//W3C//DTD SVG 20010904//EN"
 "http://www.w3.org/TR/2001/REC-SVG-20010904/DTD/svg10.dtd">
<svg version="1.0" xmlns="http://www.w3.org/2000/svg"
 width="744.000000pt" height="744.000000pt" viewBox="0 0 744.000000 744.000000"
 preserveAspectRatio="xMidYMid meet">
<metadata>
Created by potrace 1.11, written by Peter Selinger 2001-2013
</metadata>
<g transform="translate(0.000000,744.000000) scale(0.100000,-0.100000)"
fill="#000000" stroke="none">
<path d="M4490 7425 c-188 -41 -359 -159 -464 -320 -22 -33 -40 -61 -42 -63
-1 -2 -29 10 -61 27 -33 16 -88 37 -124 47 -79 21 -242 23 -319 5 -77 -19
-194 -74 -258 -122 l-54 -41 -15 24 c-42 63 -172 175 -250 216 -271 141 -574
101 -793 -105 -197 -185 -269 -425 -204 -678 22 -82 73 -189 122 -254 l41 -55
-43 -46 c-55 -59 -92 -117 -127 -200 l-28 -65 -103 -6 c-231 -14 -427 -148
-534 -364 -74 -150 -90 -299 -50 -470 l14 -60 -36 -43 c-326 -381 -510 -720
-617 -1138 -198 -772 -43 -1612 426 -2299 487 -715 1282 -1215 2169 -1365 222
-37 323 -45 585 -45 262 0 363 8 585 45 886 149 1682 650 2169 1365 532 780
658 1755 334 2595 -169 440 -469 844 -856 1155 l-99 79 29 20 c15 10 61 52
101 92 120 121 169 255 150 411 -28 238 -257 381 -490 307 -16 -5 -18 2 -18
43 0 27 -7 76 -15 108 -40 154 -132 267 -278 341 -51 25 -93 46 -94 48 -1 1 5
24 13 51 22 68 22 232 1 312 -53 200 -201 355 -406 426 -105 36 -256 46 -361
22z m83 -132 c-7 -2 -19 -2 -25 0 -7 3 -2 5 12 5 14 0 19 -2 13 -5z m160 0
c-7 -2 -19 -2 -25 0 -7 3 -2 5 12 5 14 0 19 -2 13 -5z m-210 -10 c-7 -2 -19
-2 -25 0 -7 3 -2 5 12 5 14 0 19 -2 13 -5z m282 -3 c25 -11 -1 -11 -35 0 -20
6 -21 8 -5 8 11 0 29 -3 40 -8z m81 -36 c18 -14 18 -14 -6 -3 -31 14 -36 19
-24 19 6 0 19 -7 30 -16z m-486 1 c0 -2 -13 -11 -30 -20 -38 -19 -40 -11 -2 9
31 17 32 18 32 11z m-70 -38 c0 -2 -19 -18 -42 -36 l-43 -32 39 35 c37 34 46
40 46 33z m631 -14 c13 -16 12 -17 -3 -4 -10 7 -18 15 -18 17 0 8 8 3 21 -13z
m-2323 -50 c-26 -2 -71 -2 -100 0 -29 2 -8 3 47 3 55 0 79 -1 53 -3z m-161 -9
c-3 -3 -12 -4 -19 -1 -8 3 -5 6 6 6 11 1 17 -2 13 -5z m240 0 c-3 -3 -12 -4
-19 -1 -8 3 -5 6 6 6 11 1 17 -2 13 -5z m-297 -14 c-8 -5 -22 -9 -30 -9 -10 0
-8 3 5 9 27 12 43 12 25 0z m355 0 c13 -6 15 -9 5 -9 -8 0 -22 4 -30 9 -18 12
-2 12 25 0z m2266 -7 c13 -16 12 -17 -3 -4 -10 7 -18 15 -18 17 0 8 8 3 21
-13z m-2676 -13 c-3 -5 -12 -10 -18 -10 -7 0 -6 4 3 10 19 12 23 12 15 0z
m1845 -3 c0 -2 -10 -12 -22 -23 l-23 -19 19 23 c18 21 26 27 26 19z m-1267
-76 c13 -14 1 -8 -28 14 -63 47 -69 53 -27 29 18 -10 43 -30 55 -43z m1670 52
c-7 -2 -21 -2 -30 0 -10 3 -4 5 12 5 17 0 24 -2 18 -5z m80 0 c-7 -2 -21 -2
-30 0 -10 3 -4 5 12 5 17 0 24 -2 18 -5z m-136 -9 c-3 -3 -12 -4 -19 -1 -8 3
-5 6 6 6 11 1 17 -2 13 -5z m187 -3 c4 -5 -3 -7 -14 -4 -23 6 -26 13 -6 13 8
0 17 -4 20 -9z m-2474 -15 c0 -2 -8 -10 -17 -17 -16 -13 -17 -12 -4 4 13 16
21 21 21 13z m2840 -61 c0 -5 -5 -3 -10 5 -5 8 -10 20 -10 25 0 6 5 3 10 -5 5
-8 10 -19 10 -25z m-2890 21 c0 -2 -8 -10 -17 -17 -16 -13 -17 -12 -4 4 13 16
21 21 21 13z m1458 -3 c-21 -2 -55 -2 -75 0 -21 2 -4 4 37 4 41 0 58 -2 38 -4z
m752 4 c0 -2 -19 -21 -42 -42 l-43 -40 40 43 c36 39 45 47 45 39z m-877 -14
c-7 -2 -19 -2 -25 0 -7 3 -2 5 12 5 14 0 19 -2 13 -5z m204 1 c-3 -3 -12 -4
-19 -1 -8 3 -5 6 6 6 11 1 17 -2 13 -5z m-250 -10 c-3 -3 -12 -4 -19 -1 -8 3
-5 6 6 6 11 1 17 -2 13 -5z m290 0 c-3 -3 -12 -4 -19 -1 -8 3 -5 6 6 6 11 1
17 -2 13 -5z m-165 -21 c33 -30 16 -57 -52 -83 -59 -23 -119 -69 -166 -128
-88 -112 -181 -342 -169 -422 4 -26 3 -30 -4 -15 -17 38 -5 -353 13 -418 20
-72 20 -106 1 -113 -18 -7 -40 9 -75 58 -15 21 -31 34 -35 30 -4 -4 -4 4 0 17
5 18 4 22 -6 16 -9 -6 -11 -3 -6 8 3 10 2 17 -4 17 -6 0 -8 9 -4 21 5 16 4 19
-5 14 -9 -5 -10 -1 -5 15 4 13 3 20 -2 17 -5 -3 -9 8 -9 26 0 18 -6 75 -13
127 -39 283 66 586 251 727 65 49 88 62 158 84 70 23 109 23 132 2z m1091 10
c-7 -2 -21 -2 -30 0 -10 3 -4 5 12 5 17 0 24 -2 18 -5z m-858 -21 c-3 -3 -11
0 -18 7 -9 10 -8 11 6 5 10 -3 15 -9 12 -12z m-1685 4 c0 -2 -8 -10 -17 -17
-16 -13 -17 -12 -4 4 13 16 21 21 21 13z m841 -13 c13 -16 12 -17 -3 -4 -10 7
-18 15 -18 17 0 8 8 3 21 -13z m399 13 c0 -2 -7 -7 -16 -10 -8 -3 -12 -2 -9 4
6 10 25 14 25 6z m1709 -55 c1 -35 -5 -22 -12 24 -5 28 -4 34 3 20 5 -11 9
-31 9 -44z m-984 19 c10 -11 16 -20 13 -20 -3 0 -13 9 -23 20 -10 11 -16 20
-13 20 3 0 13 -9 23 -20z m-1552 3 c-7 -2 -19 -2 -25 0 -7 3 -2 5 12 5 14 0
19 -2 13 -5z m120 0 c-7 -2 -21 -2 -30 0 -10 3 -4 5 12 5 17 0 24 -2 18 -5z
m1218 -10 c13 -16 12 -17 -3 -4 -10 7 -18 15 -18 17 0 8 8 3 21 -13z m629 13
c0 -2 -8 -10 -17 -17 -16 -13 -17 -12 -4 4 13 16 21 21 21 13z m-1500 -37 c15
-28 5 -23 -15 7 -9 15 -12 23 -6 20 6 -4 16 -16 21 -27z m270 17 c0 -2 -8 -10
-17 -17 -16 -13 -17 -12 -4 4 13 16 21 21 21 13z m-850 -10 c0 -2 -8 -10 -17
-17 -16 -13 -17 -12 -4 4 13 16 21 21 21 13z m810 -19 c0 -2 -17 -19 -37 -38
l-38 -34 34 38 c33 34 41 42 41 34z m1197 -25 c-9 -10 -30 -43 -47 -73 -31
-57 -42 -61 -14 -6 19 38 63 97 71 97 3 0 -1 -8 -10 -18z m-2386 -19 c-12 -20
-14 -14 -5 12 4 9 9 14 11 11 3 -2 0 -13 -6 -23z m834 -33 c21 -22 37 -40 34
-40 -3 0 -23 18 -44 40 -21 22 -37 40 -34 40 3 0 23 -18 44 -40z m1086 23 c13
-16 12 -17 -3 -4 -10 7 -18 15 -18 17 0 8 8 3 21 -13z m-1406 -3 c13 -6 15 -9
5 -9 -8 0 -22 4 -30 9 -18 12 -2 12 25 0z m1616 -32 c16 -31 23 -38 30 -27 10
16 11 2 1 -24 -6 -14 -13 -6 -35 38 -15 30 -25 55 -22 55 2 0 14 -19 26 -42z
m50 5 c-12 -20 -14 -14 -5 12 4 9 9 14 11 11 3 -2 0 -13 -6 -23z m-1601 7 c8
-5 11 -10 5 -10 -5 0 -17 5 -25 10 -8 5 -10 10 -5 10 6 0 17 -5 25 -10z m2445
-40 c-4 -23 -9 -39 -11 -37 -3 2 -2 23 2 46 4 23 9 40 11 37 3 -3 2 -23 -2
-46z m-2115 20 c-6 -11 -13 -20 -16 -20 -2 0 0 9 6 20 6 11 13 20 16 20 2 0 0
-9 -6 -20z m210 17 c0 -2 -10 -12 -22 -23 l-23 -19 19 23 c18 21 26 27 26 19z
m-1143 -29 c-3 -8 -6 -5 -6 6 -1 11 2 17 5 13 3 -3 4 -12 1 -19z m714 -35 c13
-16 12 -17 -3 -4 -10 7 -18 15 -18 17 0 8 8 3 21 -13z m199 7 c0 -5 -2 -10 -4
-10 -3 0 -8 5 -11 10 -3 6 -1 10 4 10 6 0 11 -4 11 -10z m180 -10 c-6 -11 -13
-20 -16 -20 -2 0 0 9 6 20 6 11 13 20 16 20 2 0 0 -9 -6 -20z m458 -17 c-10
-2 -26 -2 -35 0 -10 3 -2 5 17 5 19 0 27 -2 18 -5z m-1571 -50 c-3 -10 -5 -2
-5 17 0 19 2 27 5 18 2 -10 2 -26 0 -35z m3046 19 c-5 -21 -10 -22 -87 -20
l-81 2 77 3 c67 3 78 6 83 24 9 27 16 19 8 -9z m-2258 -2 c10 -11 16 -20 13
-20 -3 0 -13 9 -23 20 -10 11 -16 20 -13 20 3 0 13 -9 23 -20z m288 -15 c-3
-9 -8 -14 -10 -11 -3 3 -2 9 2 15 9 16 15 13 8 -4z m1757 -15 c-14 -4 -34 -8
-45 -8 -16 0 -15 2 5 8 14 4 34 8 45 8 16 0 15 -2 -5 -8z m-2010 -20 c6 -11 8
-20 6 -20 -3 0 -10 9 -16 20 -6 11 -8 20 -6 20 3 0 10 -9 16 -20z m560 16 c0
-2 -8 -10 -17 -17 -16 -13 -17 -12 -4 4 13 16 21 21 21 13z m-1393 -48 c-3 -7
-5 -2 -5 12 0 14 2 19 5 13 2 -7 2 -19 0 -25z m2733 22 c-8 -5 -19 -10 -25
-10 -5 0 -3 5 5 10 8 5 20 10 25 10 6 0 3 -5 -5 -10z m-1681 -39 c-6 -18 -13
-30 -15 -28 -2 2 1 18 7 36 6 18 13 30 15 28 2 -2 -1 -18 -7 -36z m541 35 c0
-2 -8 -10 -17 -17 -16 -13 -17 -12 -4 4 13 16 21 21 21 13z m731 -42 c-5 -21
-9 -30 -10 -19 -1 24 10 67 15 62 3 -2 0 -22 -5 -43z m369 32 c0 -2 -7 -7 -16
-10 -8 -3 -12 -2 -9 4 6 10 25 14 25 6z m-40 -20 c0 -2 -7 -7 -16 -10 -8 -3
-12 -2 -9 4 6 10 25 14 25 6z m-1110 -10 c0 -2 -8 -10 -17 -17 -16 -13 -17
-12 -4 4 13 16 21 21 21 13z m-1533 -53 c-3 -10 -5 -2 -5 17 0 19 2 27 5 18 2
-10 2 -26 0 -35z m1287 22 c-9 -14 -18 -25 -21 -25 -5 0 5 18 20 38 17 22 18
13 1 -13z m1316 20 c0 -2 -10 -9 -22 -15 -22 -11 -22 -10 -4 4 21 17 26 19 26
11z m-50 -29 c0 -2 -8 -10 -17 -17 -16 -13 -17 -12 -4 4 13 16 21 21 21 13z
m-1703 -28 c-3 -8 -6 -5 -6 6 -1 11 2 17 5 13 3 -3 4 -12 1 -19z m170 0 c-3
-8 -6 -5 -6 6 -1 11 2 17 5 13 3 -3 4 -12 1 -19z m453 9 c0 -2 -10 -12 -22
-23 l-23 -19 19 23 c18 21 26 27 26 19z m1528 -4 c-10 -2 -26 -2 -35 0 -10 3
-2 5 17 5 19 0 27 -2 18 -5z m-1755 -38 c-9 -19 -18 -33 -21 -31 -4 5 26 66
33 66 3 0 -3 -16 -12 -35z m876 -15 c0 -9 -4 -8 -9 5 -5 11 -9 27 -9 35 0 9 4
8 9 -5 5 -11 9 -27 9 -35z m178 13 c-3 -10 -5 -4 -5 12 0 17 2 24 5 18 2 -7 2
-21 0 -30z m213 33 c0 -2 -8 -10 -17 -17 -16 -13 -17 -12 -4 4 13 16 21 21 21
13z m387 -2 c-3 -3 -12 -4 -19 -1 -8 3 -5 6 6 6 11 1 17 -2 13 -5z m196 -1
c-7 -2 -19 -2 -25 0 -7 3 -2 5 12 5 14 0 19 -2 13 -5z m-236 -9 c-3 -3 -12 -4
-19 -1 -8 3 -5 6 6 6 11 1 17 -2 13 -5z m363 -34 c78 -39 180 -154 172 -192
-1 -5 3 -8 9 -8 6 0 9 -7 5 -15 -3 -8 -2 -15 2 -15 4 0 7 -56 7 -125 0 -68 -3
-117 -6 -107 -4 11 -8 5 -13 -21 -4 -20 -4 -42 0 -49 5 -7 3 -8 -6 -3 -9 6
-10 2 -5 -15 5 -17 4 -21 -6 -15 -9 6 -11 3 -6 -8 3 -10 2 -17 -4 -17 -6 0 -7
-4 -4 -10 3 -5 1 -10 -4 -10 -6 0 -10 -3 -10 -7 3 -17 -2 -32 -13 -45 -7 -8
-20 -26 -28 -40 -61 -108 -259 -266 -457 -366 -53 -27 -60 -28 -80 -15 -44 29
-25 61 69 121 26 16 45 32 41 36 -3 3 2 6 13 6 58 0 224 150 293 264 85 141
122 339 86 462 -24 83 -52 116 -135 155 -74 35 -87 57 -40 70 31 9 51 3 120
-31z m-3213 8 c-3 -8 -6 -5 -6 6 -1 11 2 17 5 13 3 -3 4 -12 1 -19z m830 -15
c-3 -10 -5 -4 -5 12 0 17 2 24 5 18 2 -7 2 -21 0 -30z m170 15 c-3 -8 -6 -5
-6 6 -1 11 2 17 5 13 3 -3 4 -12 1 -19z m1773 2 c-8 -5 -19 -10 -25 -10 -5 0
-3 5 5 10 8 5 20 10 25 10 6 0 3 -5 -5 -10z m-1366 -25 c-9 -14 -18 -25 -21
-25 -5 0 5 18 20 38 17 22 18 13 1 -13z m1046 22 c0 -1 -26 -27 -57 -57 l-58
-55 55 58 c50 53 60 62 60 54z m275 -17 c-3 -5 -12 -10 -18 -10 -7 0 -6 4 3
10 19 12 23 12 15 0z m-448 -32 c-3 -8 -6 -5 -6 6 -1 11 2 17 5 13 3 -3 4 -12
1 -19z m-1074 -8 c-3 -12 -8 -19 -11 -16 -5 6 5 36 12 36 2 0 2 -9 -1 -20z
m-216 -132 c-2 -29 -3 -8 -3 47 0 55 1 79 3 53 2 -26 2 -71 0 -100z m1130 105
c-3 -10 -5 -4 -5 12 0 17 2 24 5 18 2 -7 2 -21 0 -30z m-1300 -116 c-2 -23 -3
-1 -3 48 0 50 1 68 3 42 2 -26 2 -67 0 -90z m1808 124 c-6 -4 -30 -25 -55 -46
l-45 -37 48 46 c27 25 52 46 55 46 3 0 2 -4 -3 -9z m-338 -38 c-3 -10 -5 -4
-5 12 0 17 2 24 5 18 2 -7 2 -21 0 -30z m816 17 c-3 -12 -8 -19 -11 -16 -5 6
5 36 12 36 2 0 2 -9 -1 -20z m-1765 -35 c-12 -24 -23 -43 -26 -41 -4 5 36 86
43 86 3 0 -5 -20 -17 -45z m789 -172 c-2 -38 -3 -7 -3 67 0 74 1 105 3 68 2
-38 2 -98 0 -135z m-2067 167 c6 -11 8 -20 6 -20 -3 0 -10 9 -16 20 -6 11 -8
20 -6 20 3 0 10 -9 16 -20z m2270 7 c0 -2 -10 -12 -22 -23 l-23 -19 19 23 c18
21 26 27 26 19z m-1842 -24 c-21 -2 -57 -2 -80 0 -24 2 -7 4 37 4 44 0 63 -2
43 -4z m2636 -9 c3 -8 2 -12 -4 -9 -6 3 -10 10 -10 16 0 14 7 11 14 -7z
m-2797 0 c-3 -3 -12 -4 -19 -1 -8 3 -5 6 6 6 11 1 17 -2 13 -5z m278 -4 c25
-11 -1 -11 -35 0 -20 6 -21 8 -5 8 11 0 29 -3 40 -8z m1905 -13 c0 -2 -17 -19
-37 -38 l-38 -34 34 38 c33 34 41 42 41 34z m-1820 -17 c8 -5 11 -10 5 -10 -5
0 -17 5 -25 10 -8 5 -10 10 -5 10 6 0 17 -5 25 -10z m611 -17 c-12 -20 -14
-14 -5 12 4 9 9 14 11 11 3 -2 0 -13 -6 -23z m1836 5 c-3 -8 -6 -5 -6 6 -1 11
2 17 5 13 3 -3 4 -12 1 -19z m-3003 -27 c-2 -3 -12 3 -22 13 -16 17 -16 18 5
5 12 -7 20 -15 17 -18z m3013 -124 c-2 -23 -3 -1 -3 48 0 50 1 68 3 42 2 -26
2 -67 0 -90z m-1860 46 c-2 -16 -4 -5 -4 22 0 28 2 40 4 28 2 -13 2 -35 0 -50z
m1153 53 c0 -2 -8 -10 -17 -17 -16 -13 -17 -12 -4 4 13 16 21 21 21 13z
m-1432 -91 c0 -16 -2 -15 -8 5 -4 14 -8 34 -8 45 0 16 2 15 8 -5 4 -14 8 -34
8 -45z m169 18 c-3 -10 -5 -2 -5 17 0 19 2 27 5 18 2 -10 2 -26 0 -35z m2240
-60 c-2 -21 -4 -6 -4 32 0 39 2 55 4 38 2 -18 2 -50 0 -70z m-2999 70 c-10 -2
-28 -2 -40 0 -13 2 -5 4 17 4 22 1 32 -1 23 -4z m100 0 c-10 -2 -26 -2 -35 0
-10 3 -2 5 17 5 19 0 27 -2 18 -5z m-193 -10 c-16 -5 -14 -7 14 -17 18 -6 33
-15 33 -21 1 -5 -23 -27 -53 -47 -178 -122 -279 -324 -266 -533 7 -110 26
-184 77 -296 43 -93 49 -129 24 -153 -23 -23 -39 -20 -70 17 -217 247 -231
660 -29 884 51 58 157 133 186 133 11 0 19 4 19 9 0 5 10 7 23 4 16 -3 18 -2
8 5 -11 8 -10 11 5 15 10 2 26 5 34 5 8 0 6 -3 -5 -5z m295 -13 c18 -12 2 -12
-25 0 -13 6 -15 9 -5 9 8 0 22 -4 30 -9z m657 -32 c-3 -7 -5 -2 -5 12 0 14 2
19 5 13 2 -7 2 -19 0 -25z m840 -30 c-3 -7 -5 -2 -5 12 0 14 2 19 5 13 2 -7 2
-19 0 -25z m-1382 -8 c10 -11 16 -20 13 -20 -3 0 -13 9 -23 20 -10 11 -16 20
-13 20 3 0 13 -9 23 -20z m525 5 c-7 -8 -20 -15 -29 -15 -11 0 -8 5 9 14 33
19 35 19 20 1z m703 8 c-23 -2 -64 -2 -90 0 -26 2 -7 3 42 3 50 0 71 -1 48 -3z
m367 -13 c-6 -11 -13 -20 -16 -20 -2 0 0 9 6 20 6 11 13 20 16 20 2 0 0 -9 -6
-20z m-513 4 c-3 -3 -12 -4 -19 -1 -8 3 -5 6 6 6 11 1 17 -2 13 -5z m230 0
c-3 -3 -12 -4 -19 -1 -8 3 -5 6 6 6 11 1 17 -2 13 -5z m1090 -26 c-3 -7 -5 -2
-5 12 0 14 2 19 5 13 2 -7 2 -19 0 -25z m-2110 0 c-3 -8 -6 -5 -6 6 -1 11 2
17 5 13 3 -3 4 -12 1 -19z m728 12 c-27 -12 -43 -12 -25 0 8 5 22 9 30 9 10 0
8 -3 -5 -9z m332 4 c-3 -3 -12 -4 -19 -1 -8 3 -5 6 6 6 11 1 17 -2 13 -5z
m-1607 -24 c-8 -5 -24 -9 -35 -9 -16 1 -16 2 5 9 35 11 48 11 30 0z m1220 0
c-8 -5 -19 -10 -25 -10 -5 0 -3 5 5 10 8 5 20 10 25 10 6 0 3 -5 -5 -10z
m-1321 -24 c-10 -9 -69 -36 -69 -32 0 7 52 35 64 36 5 0 7 -2 5 -4z m1261 -1
c0 -2 -10 -9 -22 -15 -22 -11 -22 -10 -4 4 21 17 26 19 26 11z m-1113 -27 c-3
-8 -6 -5 -6 6 -1 11 2 17 5 13 3 -3 4 -12 1 -19z m294 -5 c13 -16 12 -17 -3
-4 -17 13 -22 21 -14 21 2 0 10 -8 17 -17z m2944 -3 c12 -5 -1 -6 -35 -3 -30
3 -57 7 -59 9 -9 8 75 2 94 -6z m-3465 -3 c0 -2 -17 -19 -37 -38 l-38 -34 34
38 c33 34 41 42 41 34z m1280 0 c0 -2 -10 -12 -22 -23 l-23 -19 19 23 c18 21
26 27 26 19z m2040 -12 c0 -2 -10 -9 -22 -15 -22 -11 -22 -10 -4 4 21 17 26
19 26 11z m195 -5 c3 -6 -1 -7 -9 -4 -18 7 -21 14 -7 14 6 0 13 -4 16 -10z
m-714 -27 c-12 -20 -14 -14 -5 12 4 9 9 14 11 11 3 -2 0 -13 -6 -23z m-999
-25 c137 -64 232 -199 259 -367 13 -88 0 -163 -43 -251 -27 -54 -37 -65 -58
-65 -28 0 -27 -3 -8 103 30 170 -71 376 -221 449 -49 24 -68 28 -146 28 -73 0
-100 -5 -142 -24 -58 -26 -121 -87 -152 -149 -24 -48 -37 -58 -55 -43 -10 9
-11 23 -5 58 25 131 116 220 279 275 83 27 217 21 292 -14z m243 2 c10 -11 16
-20 13 -20 -3 0 -13 9 -23 20 -10 11 -16 20 -13 20 3 0 13 -9 23 -20z m1212
-2 c-3 -8 -6 -5 -6 6 -1 11 2 17 5 13 3 -3 4 -12 1 -19z m334 -15 c13 -16 12
-17 -3 -4 -10 7 -18 15 -18 17 0 8 8 3 21 -13z m-3461 4 c0 -1 -26 -27 -57
-57 l-58 -55 55 58 c50 53 60 62 60 54z m1070 0 c0 -2 -10 -12 -22 -23 l-23
-19 19 23 c18 21 26 27 26 19z m1571 -30 c-10 -9 -11 -8 -5 6 3 10 9 15 12 12
3 -3 0 -11 -7 -18z m-680 -14 c13 -16 12 -17 -3 -4 -17 13 -22 21 -14 21 2 0
10 -8 17 -17z m1529 -18 c0 -5 -5 -3 -10 5 -5 8 -10 20 -10 25 0 6 5 3 10 -5
5 -8 10 -19 10 -25z m-870 -5 c-6 -11 -13 -20 -16 -20 -2 0 0 9 6 20 6 11 13
20 16 20 2 0 0 -9 -6 -20z m-1953 -12 c-3 -8 -6 -5 -6 6 -1 11 2 17 5 13 3 -3
4 -12 1 -19z m2424 -1 c-10 -9 -11 -8 -5 6 3 10 9 15 12 12 3 -3 0 -11 -7 -18z
m-2088 -12 c-3 -9 -8 -14 -10 -11 -3 3 -2 9 2 15 9 16 15 13 8 -4z m-1275 -20
c-6 -14 -13 -23 -15 -21 -5 5 15 46 22 46 3 0 -1 -11 -7 -25z m3769 -72 c-2
-21 -4 -6 -4 32 0 39 2 55 4 38 2 -18 2 -50 0 -70z m-2820 65 c-3 -8 -6 -5 -6
6 -1 11 2 17 5 13 3 -3 4 -12 1 -19z m306 -13 c-3 -9 -8 -14 -10 -11 -3 3 -2
9 2 15 9 16 15 13 8 -4z m1035 -10 c-3 -3 -9 2 -12 12 -6 14 -5 15 5 6 7 -7
10 -15 7 -18z m562 12 c0 -2 -10 -12 -22 -23 l-23 -19 19 23 c18 21 26 27 26
19z m-2050 -42 c0 -5 -5 -3 -10 5 -5 8 -10 20 -10 25 0 6 5 3 10 -5 5 -8 10
-19 10 -25z m169 -15 c0 -9 -4 -8 -9 5 -5 11 -9 27 -9 35 0 9 4 8 9 -5 5 -11
9 -27 9 -35z m-839 20 c-6 -11 -13 -20 -16 -20 -2 0 0 9 6 20 6 11 13 20 16
20 2 0 0 -9 -6 -20z m1091 -41 c-5 -13 -10 -19 -10 -12 -1 15 10 45 15 40 3
-2 0 -15 -5 -28z m1589 28 c0 -2 -12 -14 -27 -28 l-28 -24 24 28 c23 25 31 32
31 24z m-1991 -52 c0 -5 -4 -3 -9 5 -5 8 -9 22 -9 30 0 16 17 -16 18 -35z
m-718 8 c-12 -20 -14 -14 -5 12 4 9 9 14 11 11 3 -2 0 -13 -6 -23z m3189 23
c0 -2 -8 -10 -17 -17 -16 -13 -17 -12 -4 4 13 16 21 21 21 13z m-3681 -28 c-1
-17 -3 -18 -6 -6 -3 12 -18 18 -51 21 l-47 3 53 2 c48 2 52 0 51 -20z m342
-14 c-5 -16 -10 -21 -10 -12 -1 18 10 51 15 45 2 -1 -1 -16 -5 -33z m-454 20
c-3 -3 -12 -4 -19 -1 -8 3 -5 6 6 6 11 1 17 -2 13 -5z m1492 -34 c0 -10 -3 -8
-9 5 -12 27 -12 43 0 25 5 -8 9 -22 9 -30z m-1540 26 c-9 -8 -99 -44 -99 -40
0 6 81 43 94 44 5 0 7 -2 5 -4z m3811 -9 c0 -2 -15 -16 -32 -33 l-33 -29 29
33 c28 30 36 37 36 29z m277 -34 c-3 -10 -5 -4 -5 12 0 17 2 24 5 18 2 -7 2
-21 0 -30z m214 10 c-12 -20 -14 -14 -5 12 4 9 9 14 11 11 3 -2 0 -13 -6 -23z
m-4154 -90 c-2 -21 -4 -6 -4 32 0 39 2 55 4 38 2 -18 2 -50 0 -70z m1230 75
c-3 -8 -6 -5 -6 6 -1 11 2 17 5 13 3 -3 4 -12 1 -19z m2643 3 c-5 -11 -15 -23
-21 -27 -6 -3 -3 5 6 20 20 30 30 35 15 7z m-2273 -13 c-3 -8 -6 -5 -6 6 -1
11 2 17 5 13 3 -3 4 -12 1 -19z m1140 0 c-3 -8 -6 -5 -6 6 -1 11 2 17 5 13 3
-3 4 -12 1 -19z m-2997 8 c0 -2 -12 -11 -27 -20 l-28 -17 24 20 c23 21 31 25
31 17z m737 -18 c-3 -8 -6 -5 -6 6 -1 11 2 17 5 13 3 -3 4 -12 1 -19z m2626
-8 c-3 -12 -8 -19 -11 -16 -5 6 5 36 12 36 2 0 2 -9 -1 -20z m1028 -3 c-10 -9
-11 -8 -5 6 3 10 9 15 12 12 3 -3 0 -11 -7 -18z m-2892 -1 c-2 -2 -18 -7 -34
-11 l-30 -6 30 14 c27 13 45 14 34 3z m-902 -73 c-2 -16 -4 -3 -4 27 0 30 2
43 4 28 2 -16 2 -40 0 -55z m2410 15 c-2 -13 -4 -3 -4 22 0 25 2 35 4 23 2
-13 2 -33 0 -45z m-2280 30 c-3 -8 -6 -5 -6 6 -1 11 2 17 5 13 3 -3 4 -12 1
-19z m980 16 c-3 -3 -12 -4 -19 -1 -8 3 -5 6 6 6 11 1 17 -2 13 -5z m2393 2
c0 -2 -8 -10 -17 -17 -16 -13 -17 -12 -4 4 13 16 21 21 21 13z m-4170 -9 c0
-2 -12 -14 -27 -28 l-28 -24 24 28 c23 25 31 32 31 24z m1917 -29 c-3 -7 -5
-2 -5 12 0 14 2 19 5 13 2 -7 2 -19 0 -25z m167 -27 l-6 -59 28 -5 c29 -4 28
-4 -3 -6 -30 -1 -33 2 -33 27 0 34 11 102 17 102 2 0 1 -27 -3 -59z m-614 45
c0 -2 -7 -7 -16 -10 -8 -3 -12 -2 -9 4 6 10 25 14 25 6z m380 -11 c17 -9 30
-18 30 -21 0 -4 -59 23 -69 32 -10 9 13 3 39 -11z m2030 2 c0 -2 -15 -16 -32
-33 l-33 -29 29 33 c28 30 36 37 36 29z m-2451 -10 c-2 -2 -20 -14 -39 -26
l-35 -23 30 26 c17 14 34 26 39 26 5 0 7 -1 5 -3z m3001 -1 c0 -2 -8 -10 -17
-17 -16 -13 -17 -12 -4 4 13 16 21 21 21 13z m-3643 -78 c-2 -13 -4 -3 -4 22
0 25 2 35 4 23 2 -13 2 -33 0 -45z m3293 52 c-8 -5 -19 -10 -25 -10 -5 0 -3 5
5 10 8 5 20 10 25 10 6 0 3 -5 -5 -10z m-3743 -67 c-3 -10 -5 -2 -5 17 0 19 2
27 5 18 2 -10 2 -26 0 -35z m3653 37 c-34 -11 -60 -11 -35 0 11 5 29 8 40 8
16 0 15 -2 -5 -8z m210 7 c0 -2 -10 -12 -22 -23 l-23 -19 19 23 c18 21 26 27
26 19z m-307 -24 c-13 -2 -35 -2 -50 0 -16 2 -5 4 22 4 28 0 40 -2 28 -4z
m467 4 c0 -2 -10 -12 -22 -23 l-23 -19 19 23 c18 21 26 27 26 19z m-3683 -39
c-3 -8 -6 -5 -6 6 -1 11 2 17 5 13 3 -3 4 -12 1 -19z m1123 0 c35 -18 45 -28
45 -48 0 -23 -3 -25 -40 -23 -127 7 -153 5 -191 -15 -50 -25 -68 -46 -96 -107
-18 -41 -23 -68 -23 -145 0 -114 25 -195 85 -284 22 -32 40 -70 40 -84 0 -23
-2 -24 -45 -20 -85 10 -160 85 -205 206 -87 232 7 471 210 533 14 4 59 8 100
8 60 1 85 -4 120 -21z m1277 -25 c-3 -10 -5 -2 -5 17 0 19 2 27 5 18 2 -10 2
-26 0 -35z m-3187 17 c-6 -11 -13 -20 -16 -20 -2 0 0 9 6 20 6 11 13 20 16 20
2 0 0 -9 -6 -20z m2293 13 c-7 -2 -21 -2 -30 0 -10 3 -4 5 12 5 17 0 24 -2 18
-5z m1967 4 c0 -2 -10 -12 -22 -23 l-23 -19 19 23 c18 21 26 27 26 19z m-2850
-11 c0 -2 -8 -10 -17 -17 -16 -13 -17 -12 -4 4 13 16 21 21 21 13z m3010 0 c0
-2 -8 -10 -17 -17 -16 -13 -17 -12 -4 4 13 16 21 21 21 13z m-3533 -38 c-3 -7
-5 -2 -5 12 0 14 2 19 5 13 2 -7 2 -19 0 -25z m-430 0 c-3 -8 -6 -5 -6 6 -1
11 2 17 5 13 3 -3 4 -12 1 -19z m2810 16 c-3 -3 -12 -4 -19 -1 -8 3 -5 6 6 6
11 1 17 -2 13 -5z m-827 -19 c17 -9 30 -18 30 -21 0 -4 -59 23 -69 32 -10 9
13 3 39 -11z m887 9 c-3 -3 -12 -4 -19 -1 -8 3 -5 6 6 6 11 1 17 -2 13 -5z
m-1957 -24 c-6 -11 -13 -20 -16 -20 -2 0 0 9 6 20 6 11 13 20 16 20 2 0 0 -9
-6 -20z m2990 15 c0 -2 -10 -9 -22 -15 -22 -11 -22 -10 -4 4 21 17 26 19 26
11z m-965 -15 c3 -6 -1 -7 -9 -4 -18 7 -21 14 -7 14 6 0 13 -4 16 -10z m45 0
c-8 -5 -19 -10 -25 -10 -5 0 -3 5 5 10 8 5 20 10 25 10 6 0 3 -5 -5 -10z
m-2966 -35 c5 -22 4 -26 -4 -15 -5 8 -10 24 -10 34 0 26 6 18 14 -19z m345
-15 c0 -9 -4 -8 -9 5 -5 11 -9 27 -9 35 0 9 4 8 9 -5 5 -11 9 -27 9 -35z m78
3 c-3 -10 -5 -2 -5 17 0 19 2 27 5 18 2 -10 2 -26 0 -35z m3393 22 c-14 -8
-29 -14 -35 -14 -5 0 1 6 15 14 14 8 30 14 35 14 6 0 -1 -6 -15 -14z m-2949
-32 c-12 -20 -14 -14 -5 12 4 9 9 14 11 11 3 -2 0 -13 -6 -23z m2437 0 c-10
-2 -26 -2 -35 0 -10 3 -2 5 17 5 19 0 27 -2 18 -5z m105 0 c-7 -2 -21 -2 -30
0 -10 3 -4 5 12 5 17 0 24 -2 18 -5z m-2003 -6 c0 -2 -12 -14 -27 -28 l-28
-24 24 28 c23 25 31 32 31 24z m1837 -3 c-3 -3 -12 -4 -19 -1 -8 3 -5 6 6 6
11 1 17 -2 13 -5z m216 -1 c-7 -2 -19 -2 -25 0 -7 3 -2 5 12 5 14 0 19 -2 13
-5z m-3986 -35 c-3 -7 -5 -2 -5 12 0 14 2 19 5 13 2 -7 2 -19 0 -25z m2643 7
c13 -14 21 -25 18 -25 -2 0 -15 11 -28 25 -13 14 -21 25 -18 25 2 0 15 -11 28
-25z m1079 21 c-10 -8 -119 -54 -119 -50 0 6 101 54 114 54 5 0 7 -2 5 -4z
m-3169 -41 c0 -5 -5 -3 -10 5 -5 8 -10 20 -10 25 0 6 5 3 10 -5 5 -8 10 -19
10 -25z m821 4 c-5 -13 -10 -19 -10 -12 -1 15 10 45 15 40 3 -2 0 -15 -5 -28z
m939 9 c0 -6 9 -8 20 -5 11 3 20 1 20 -4 0 -4 7 -5 17 -2 12 5 14 3 8 -7 -6
-10 -4 -12 9 -7 9 4 15 3 12 -2 -3 -4 8 -21 24 -36 52 -50 30 -91 -34 -66 -57
22 -161 26 -210 7 -79 -30 -151 -140 -165 -250 -5 -42 -9 -51 -26 -51 -14 0
-21 8 -24 25 -3 23 -4 24 -12 5 -4 -11 -6 18 -4 70 4 108 26 165 82 221 24 25
28 30 8 14 l-30 -25 29 32 c16 18 32 32 35 31 19 -2 31 3 26 11 -3 5 0 13 6
17 8 4 9 3 5 -4 -9 -15 -12 -15 53 7 37 13 48 20 35 23 -10 3 11 5 49 5 38 1
67 -4 67 -9z m-1383 -4 c-3 -3 -12 -4 -19 -1 -8 3 -5 6 6 6 11 1 17 -2 13 -5z
m-940 -136 c-2 -24 -4 -5 -4 42 0 47 2 66 4 43 2 -24 2 -62 0 -85z m1877 97
c-9 -14 -18 -25 -21 -25 -5 0 5 18 20 38 17 22 18 13 1 -13z m-1294 -20 c0 -5
-5 -3 -10 5 -5 8 -10 20 -10 25 0 6 5 3 10 -5 5 -8 10 -19 10 -25z m2753 28
c-7 -2 -21 -2 -30 0 -10 3 -4 5 12 5 17 0 24 -2 18 -5z m-3040 -18 c-3 -9 -8
-14 -10 -11 -3 3 -2 9 2 15 9 16 15 13 8 -4z m3107 -11 c0 -2 -9 0 -20 6 -11
6 -20 13 -20 16 0 2 9 0 20 -6 11 -6 20 -13 20 -16z m-3043 -31 c-3 -10 -5 -2
-5 17 0 19 2 27 5 18 2 -10 2 -26 0 -35z m1010 25 c-3 -8 -6 -5 -6 6 -1 11 2
17 5 13 3 -3 4 -12 1 -19z m1193 -75 c0 -8 -9 0 -50 45 l-45 47 48 -45 c26
-24 47 -45 47 -47z m790 65 c53 -37 73 -71 78 -136 4 -63 -16 -122 -42 -122
-9 0 -23 27 -37 68 -28 85 -72 132 -123 132 -50 0 -63 27 -28 57 37 31 107 31
152 1z m85 -8 c10 -11 16 -20 13 -20 -3 0 -13 9 -23 20 -10 11 -16 20 -13 20
3 0 13 -9 23 -20z m1078 -57 c218 -166 491 -466 638 -703 131 -211 251 -498
304 -722 l13 -58 -61 0 c-150 0 -256 -108 -257 -260 0 -132 74 -208 189 -195
62 6 108 26 147 61 14 14 28 23 31 20 12 -12 14 -216 4 -356 -51 -655 -311
-1226 -770 -1689 -95 -95 -270 -251 -283 -251 -3 0 -8 17 -12 39 -3 21 -20 60
-38 87 -65 96 -194 128 -339 84 -57 -17 -81 -31 -119 -69 -102 -103 -92 -245
27 -373 26 -26 44 -50 42 -52 -2 -2 -49 -26 -104 -54 -304 -152 -691 -266
-1075 -317 -131 -18 -563 -31 -660 -21 l-65 7 -1 117 c-2 191 -42 300 -146
398 -101 95 -179 124 -331 124 -211 0 -377 -91 -455 -250 -18 -36 -35 -89 -39
-118 -3 -28 -8 -52 -10 -52 -15 0 -200 83 -313 141 -223 113 -462 274 -620
417 l-55 50 43 11 c83 23 152 109 171 214 28 157 -78 413 -218 523 -134 105
-302 121 -431 39 -38 -24 -90 -79 -90 -96 0 -55 -114 164 -185 355 -203 549
-216 1159 -35 1706 110 335 266 609 507 888 l28 34 33 -46 33 -46 -45 -59
c-176 -229 -194 -504 -48 -749 114 -191 334 -372 626 -518 l134 -67 -31 -21
c-44 -30 -94 -99 -108 -149 -24 -90 11 -161 103 -206 53 -27 72 -31 142 -31
96 0 140 11 186 45 72 53 99 139 65 205 -18 36 -19 36 75 9 41 -12 141 -36
222 -54 146 -33 147 -34 211 -88 291 -247 790 -271 1062 -52 40 32 43 33 175
40 109 6 146 4 187 -8 173 -52 401 -15 544 88 38 27 82 45 173 70 66 18 122
32 124 30 1 -1 -2 -15 -8 -31 -16 -41 -5 -100 30 -161 53 -93 154 -143 306
-151 108 -5 182 9 264 49 73 37 115 86 137 158 14 50 14 59 -1 114 -34 122
-85 191 -161 218 -19 7 -35 16 -35 20 0 4 26 22 58 39 258 145 482 372 552
558 28 75 50 175 50 235 0 61 -25 185 -50 243 -58 134 -195 291 -349 399 -45
32 -85 65 -88 74 -20 62 -59 153 -84 194 -16 26 -26 47 -23 47 3 0 51 -35 107
-77z m-4239 28 c-4 -17 -9 -30 -11 -27 -3 2 -2 19 2 36 9 41 17 33 9 -9z
m3961 19 c10 -11 16 -20 13 -20 -3 0 -13 9 -23 20 -10 11 -16 20 -13 20 3 0
13 -9 23 -20z m-2878 -52 c-2 -13 -4 -3 -4 22 0 25 2 35 4 23 2 -13 2 -33 0
-45z m1633 59 c0 -1 -26 -27 -57 -57 l-58 -55 55 58 c50 53 60 62 60 54z
m-2370 -47 c6 -11 8 -20 6 -20 -3 0 -10 9 -16 20 -6 11 -8 20 -6 20 3 0 10 -9
16 -20z m1201 -7 c-12 -20 -14 -14 -5 12 4 9 9 14 11 11 3 -2 0 -13 -6 -23z
m2418 11 c91 -36 161 -194 161 -364 0 -178 -75 -339 -218 -472 -120 -111 -271
-187 -415 -210 -99 -15 -237 1 -297 34 -79 43 -105 59 -87 54 12 -4 17 0 17
13 0 26 24 33 78 20 216 -49 480 55 646 257 167 202 192 447 65 625 -20 29
-20 59 0 59 6 0 28 -7 50 -16z m-1079 3 c0 -2 -12 -14 -27 -28 l-28 -24 24 28
c23 25 31 32 31 24z m-390 -27 c6 -11 8 -20 6 -20 -3 0 -10 9 -16 20 -6 11 -8
20 -6 20 3 0 10 -9 16 -20z m877 -22 c-3 -7 -5 -2 -5 12 0 14 2 19 5 13 2 -7
2 -19 0 -25z m-3640 -40 c-3 -7 -5 -2 -5 12 0 14 2 19 5 13 2 -7 2 -19 0 -25z
m370 10 c-3 -8 -6 -5 -6 6 -1 11 2 17 5 13 3 -3 4 -12 1 -19z m2435 -18 c5 0
6 -5 2 -11 -7 -12 -34 26 -33 46 0 6 5 0 11 -12 6 -13 15 -23 20 -23z m675
-17 c-3 -10 -5 -2 -5 17 0 19 2 27 5 18 2 -10 2 -26 0 -35z m-2591 5 l29 -33
-32 29 c-31 28 -38 36 -30 36 2 0 16 -15 33 -32z m461 -30 c-2 -13 -4 -3 -4
22 0 25 2 35 4 23 2 -13 2 -33 0 -45z m440 30 c-3 -7 -5 -2 -5 12 0 14 2 19 5
13 2 -7 2 -19 0 -25z m-1107 -8 c12 -16 19 -30 16 -30 -2 0 -14 14 -26 30 -12
17 -19 30 -16 30 2 0 14 -13 26 -30z m-423 -22 c-3 -7 -5 -2 -5 12 0 14 2 19
5 13 2 -7 2 -19 0 -25z m2373 -12 c0 -12 -5 -7 -19 24 -11 24 -11 24 3 6 9
-11 16 -24 16 -30z m410 41 c0 -2 -12 -14 -27 -28 l-28 -24 24 28 c23 25 31
32 31 24z m-556 -26 c3 -4 -6 -6 -19 -3 -14 2 -25 6 -25 8 0 8 39 4 44 -5z
m-2455 -46 c0 -5 -4 -3 -9 5 -5 8 -9 22 -9 30 0 16 17 -16 18 -35z m3608 3
c-3 -7 -5 -2 -5 12 0 14 2 19 5 13 2 -7 2 -19 0 -25z m-1860 -55 c-2 -16 -4
-3 -4 27 0 30 2 43 4 28 2 -16 2 -40 0 -55z m733 42 c0 -5 -5 -3 -10 5 -5 8
-10 20 -10 25 0 6 5 3 10 -5 5 -8 10 -19 10 -25z m950 -2 c-11 -17 -11 -17 -6
0 3 10 6 24 7 30 0 9 2 9 5 0 3 -7 0 -20 -6 -30z m-3035 1 c9 -15 12 -23 6
-20 -11 7 -35 46 -28 46 3 0 12 -12 22 -26z m310 6 c10 -11 16 -20 13 -20 -3
0 -13 9 -23 20 -10 11 -16 20 -13 20 3 0 13 -9 23 -20z m245 -15 c19 -19 32
-35 29 -35 -3 0 -20 16 -39 35 -19 19 -32 35 -29 35 3 0 20 -16 39 -35z m377
13 c-3 -8 -6 -5 -6 6 -1 11 2 17 5 13 3 -3 4 -12 1 -19z m1091 -58 c0 -9 -3
-7 -8 5 -5 11 -8 29 -8 40 0 16 2 15 8 -5 4 -14 8 -32 8 -40z m212 25 c0 -5
-5 -3 -10 5 -5 8 -10 20 -10 25 0 6 5 3 10 -5 5 -8 10 -19 10 -25z m-2356 -32
c9 -18 14 -33 12 -33 -6 0 -36 55 -36 66 0 11 5 3 24 -33z m1075 -10 c1 -9
-17 -12 -61 -11 l-63 2 58 3 c56 4 57 4 52 31 -4 23 -4 24 4 7 5 -11 10 -26
10 -32z m1495 19 c-16 -15 -31 -26 -34 -24 -5 4 47 52 57 52 3 0 -7 -12 -23
-28z m-2404 -7 c13 -14 21 -25 18 -25 -2 0 -15 11 -28 25 -13 14 -21 25 -18
25 2 0 15 -11 28 -25z m-400 -5 c6 -11 8 -20 6 -20 -3 0 -10 9 -16 20 -6 11
-8 20 -6 20 3 0 10 -9 16 -20z m2609 -25 c0 -5 -4 -3 -9 5 -5 8 -9 22 -9 30 0
16 17 -16 18 -35z m752 28 c-5 -10 -26 -34 -47 -53 -36 -33 -35 -32 7 17 47
56 55 63 40 36z m169 -32 c-28 -56 -35 -52 -8 4 12 24 23 43 26 41 2 -2 -6
-22 -18 -45z m-2545 19 c10 -11 16 -20 13 -20 -3 0 -13 9 -23 20 -10 11 -16
20 -13 20 3 0 13 -9 23 -20z m1495 -25 c0 -5 -5 -3 -10 5 -5 8 -10 20 -10 25
0 6 5 3 10 -5 5 -8 10 -19 10 -25z m-1317 8 c-13 -2 -35 -2 -50 0 -16 2 -5 4
22 4 28 0 40 -2 28 -4z m1224 -25 c-3 -7 -5 -2 -5 12 0 14 2 19 5 13 2 -7 2
-19 0 -25z m-2352 2 c10 -11 16 -20 13 -20 -3 0 -13 9 -23 20 -10 11 -16 20
-13 20 3 0 13 -9 23 -20z m426 3 c13 -16 12 -17 -3 -4 -17 13 -22 21 -14 21 2
0 10 -8 17 -17z m597 10 c-10 -2 -26 -2 -35 0 -10 3 -2 5 17 5 19 0 27 -2 18
-5z m-252 -35 l29 -33 -32 29 c-18 17 -33 31 -33 33 0 8 8 1 36 -29z m911 0
c-3 -7 -5 -2 -5 12 0 14 2 19 5 13 2 -7 2 -19 0 -25z m1148 17 c6 -2 -11 -4
-37 -4 -27 -1 -48 3 -48 7 0 7 62 5 85 -3z m85 -15 c11 -8 7 -9 -15 -4 -37 8
-45 14 -19 14 10 0 26 -5 34 -10z m-553 -22 c-3 -8 -6 -5 -6 6 -1 11 2 17 5
13 3 -3 4 -12 1 -19z m-2307 -23 c19 -19 32 -35 29 -35 -3 0 -20 16 -39 35
-19 19 -32 35 -29 35 3 0 20 -16 39 -35z m1807 13 c-3 -8 -6 -5 -6 6 -1 11 2
17 5 13 3 -3 4 -12 1 -19z m612 -23 c0 -5 -4 -3 -9 5 -5 8 -9 22 -9 30 0 16
17 -16 18 -35z m112 22 c-10 -9 -11 -8 -5 6 3 10 9 15 12 12 3 -3 0 -11 -7
-18z m389 13 c8 -5 11 -10 5 -10 -5 0 -17 5 -25 10 -8 5 -10 10 -5 10 6 0 17
-5 25 -10z m490 6 c0 -2 -8 -10 -17 -17 -16 -13 -17 -12 -4 4 13 16 21 21 21
13z m-2700 -26 c-8 -5 -19 -10 -25 -10 -5 0 -3 5 5 10 8 5 20 10 25 10 6 0 3
-5 -5 -10z m2270 -16 c0 -2 -9 0 -20 6 -11 6 -20 13 -20 16 0 2 9 0 20 -6 11
-6 20 -13 20 -16z m-2453 10 c-3 -3 -12 -4 -19 -1 -8 3 -5 6 6 6 11 1 17 -2
13 -5z m46 -11 c-7 -2 -19 -2 -25 0 -7 3 -2 5 12 5 14 0 19 -2 13 -5z m92 -3
c-3 -5 -21 -9 -38 -9 l-32 2 35 7 c19 4 36 8 38 9 2 0 0 -3 -3 -9z m2715 7 c0
-2 -17 -19 -37 -38 l-38 -34 34 38 c33 34 41 42 41 34z m-1727 -27 c3 -11 1
-20 -4 -20 -5 0 -9 9 -9 20 0 11 2 20 4 20 2 0 6 -9 9 -20z m181 -6 c3 -8 2
-12 -4 -9 -6 3 -10 10 -10 16 0 14 7 11 14 -7z m483 -31 c-3 -10 -5 -2 -5 17
0 19 2 27 5 18 2 -10 2 -26 0 -35z m125 33 c7 4 8 2 4 -4 -11 -18 -26 -14 -25
6 0 10 3 12 6 4 2 -6 10 -9 15 -6z m-2377 -16 c10 -11 16 -20 13 -20 -3 0 -13
9 -23 20 -10 11 -16 20 -13 20 3 0 13 -9 23 -20z m220 0 c10 -11 16 -20 13
-20 -3 0 -13 9 -23 20 -10 11 -16 20 -13 20 3 0 13 -9 23 -20z m1678 -7 c-7
-2 -19 -2 -25 0 -7 3 -2 5 12 5 14 0 19 -2 13 -5z m-720 -10 c-35 -2 -91 -2
-125 0 -35 2 -7 3 62 3 69 0 97 -1 63 -3z m780 0 c-7 -2 -21 -2 -30 0 -10 3
-4 5 12 5 17 0 24 -2 18 -5z m-1893 -29 c0 -2 -9 0 -20 6 -11 6 -20 13 -20 16
0 2 9 0 20 -6 11 -6 20 -13 20 -16z m898 19 c-10 -2 -28 -2 -40 0 -13 2 -5 4
17 4 22 1 32 -1 23 -4z m322 -28 c19 -19 32 -35 29 -35 -3 0 -20 16 -39 35
-19 19 -32 35 -29 35 3 0 20 -16 39 -35z m717 29 c-3 -3 -12 -4 -19 -1 -8 3
-5 6 6 6 11 1 17 -2 13 -5z m-1110 -10 c-3 -3 -12 -4 -19 -1 -8 3 -5 6 6 6 11
1 17 -2 13 -5z m1163 -4 c18 -12 2 -12 -25 0 -13 6 -15 9 -5 9 8 0 22 -4 30
-9z m1165 0 c-3 -5 -16 -15 -28 -21 -19 -9 -19 -8 3 10 28 23 34 26 25 11z
m-2390 -10 c-27 -12 -43 -12 -25 0 8 5 22 9 30 9 10 0 8 -3 -5 -9z m1435 -41
c0 -27 -3 -48 -8 -45 -7 4 -4 96 4 96 2 0 4 -23 4 -51z m425 41 c-4 -6 7 -8
27 -5 24 4 28 3 13 -3 -20 -9 -20 -9 2 -16 32 -10 94 -82 86 -102 -4 -11 -13
-14 -32 -9 -140 35 -184 29 -251 -31 -31 -28 -41 -47 -50 -90 -9 -41 -16 -54
-30 -54 -44 0 -41 93 5 204 6 14 5 17 -3 12 -20 -12 -13 0 10 20 22 19 23 19
9 -1 -7 -11 -2 -7 13 8 14 15 26 25 26 21 0 -4 9 1 20 11 32 29 171 60 155 35z
m-2566 -26 c14 -12 -19 -1 -35 12 -18 14 -18 14 6 3 14 -6 27 -13 29 -15z
m1991 16 c8 -5 11 -10 5 -10 -5 0 -17 5 -25 10 -8 5 -10 10 -5 10 6 0 17 -5
25 -10z m675 -18 c-3 -3 -11 0 -18 7 -9 10 -8 11 6 5 10 -3 15 -9 12 -12z
m-625 -2 c8 -5 11 -10 5 -10 -5 0 -17 5 -25 10 -8 5 -10 10 -5 10 6 0 17 -5
25 -10z m975 -10 c-3 -5 -12 -10 -18 -10 -7 0 -6 4 3 10 19 12 23 12 15 0z
m-2925 -22 c10 -6 7 -7 -10 -2 -14 3 -32 11 -40 16 -10 6 -7 7 10 2 14 -3 32
-11 40 -16z m200 19 c0 -2 -10 -12 -22 -23 -14 -12 -18 -13 -10 -3 6 9 9 19 5
22 -3 4 1 7 10 7 10 0 17 -2 17 -3z m250 -22 c0 -2 -10 -9 -22 -15 -22 -11
-22 -10 -4 4 21 17 26 19 26 11z m2262 -70 c6 -11 7 -15 2 -10 -5 6 -25 28
-44 50 l-35 40 33 -30 c19 -17 38 -39 44 -50z m158 65 c0 -5 -2 -10 -4 -10 -3
0 -8 5 -11 10 -3 6 -1 10 4 10 6 0 11 -4 11 -10z m-2813 -6 c-3 -3 -12 -4 -19
-1 -8 3 -5 6 6 6 11 1 17 -2 13 -5z m40 -10 c-3 -3 -12 -4 -19 -1 -8 3 -5 6 6
6 11 1 17 -2 13 -5z m1133 -8 c0 -11 -19 -15 -25 -6 -3 5 1 10 9 10 9 0 16 -2
16 -4z m535 -31 c71 -19 231 -102 293 -153 36 -29 82 -95 82 -117 0 -13 -38
-3 -99 27 -36 17 -69 31 -73 30 -5 -1 -8 3 -8 9 0 5 -4 7 -10 4 -5 -3 -10 -2
-10 4 0 6 -7 7 -17 4 -10 -4 -14 -2 -10 4 7 11 -39 35 -138 71 -62 22 -87 25
-215 26 -80 1 -151 5 -158 10 -17 10 -15 51 3 66 8 7 32 19 52 26 48 18 221
12 308 -11z m-1405 0 c-7 -9 -14 -28 -15 -43 -1 -15 -13 -54 -26 -87 -17 -44
-23 -81 -23 -140 -1 -100 12 -143 68 -230 54 -84 124 -131 249 -166 72 -21
103 -24 252 -24 124 0 181 4 210 15 22 8 45 13 52 12 6 -1 14 2 18 7 3 6 13 7
22 4 11 -4 14 -3 9 5 -4 7 -5 12 -2 12 2 0 13 3 23 6 15 5 16 4 3 -6 -24 -18
23 -2 109 36 40 19 83 34 96 34 34 0 67 -42 63 -81 -3 -30 -10 -38 -63 -66
-68 -36 -233 -93 -270 -93 -14 0 -25 -4 -25 -8 0 -4 -17 -8 -37 -8 -21 0 -88
-6 -150 -13 -86 -10 -134 -11 -203 -3 -50 6 -98 8 -107 5 -12 -5 -14 -3 -8 7
6 10 3 12 -13 8 -12 -4 -22 -2 -22 4 0 6 -7 8 -15 4 -8 -3 -15 -1 -15 4 0 5
-7 7 -15 4 -8 -4 -15 -1 -15 6 0 6 -4 8 -10 5 -5 -3 -10 -1 -10 5 0 6 -4 8
-10 5 -5 -3 -10 -1 -10 5 0 6 -4 8 -10 5 -5 -3 -10 -1 -10 5 0 6 -4 8 -10 5
-5 -3 -10 -1 -10 4 0 6 -7 11 -15 11 -8 0 -40 26 -72 58 -31 31 -44 42 -28 25
39 -45 27 -42 -16 4 -18 20 -28 33 -21 29 18 -10 15 2 -8 34 -11 16 -32 59
-47 97 -22 57 -26 86 -28 181 -1 61 2 112 5 112 4 0 10 13 13 28 8 41 76 137
117 166 42 29 46 31 30 11z m841 -22 c-12 -20 -14 -14 -5 12 4 9 9 14 11 11 3
-2 0 -13 -6 -23z m-14 -45 c-3 -8 -6 -5 -6 6 -1 11 2 17 5 13 3 -3 4 -12 1
-19z m181 -3 c-6 -14 -13 -23 -15 -21 -5 5 15 46 22 46 3 0 -1 -11 -7 -25z
m1581 -33 c22 -20 22 -22 4 -13 -24 12 -53 49 -53 66 0 5 5 1 11 -10 6 -11 23
-31 38 -43z m-199 13 c0 -5 -5 -3 -10 5 -5 8 -10 20 -10 25 0 6 5 3 10 -5 5
-8 10 -19 10 -25z m-563 3 c-3 -8 -6 -5 -6 6 -1 11 2 17 5 13 3 -3 4 -12 1
-19z m-1010 -60 c-2 -13 -4 -5 -4 17 -1 22 1 32 4 23 2 -10 2 -28 0 -40z
m1580 -30 c-2 -13 -4 -3 -4 22 0 25 2 35 4 23 2 -13 2 -33 0 -45z m-570 10
c-3 -7 -5 -2 -5 12 0 14 2 19 5 13 2 -7 2 -19 0 -25z m900 6 c-3 -3 -12 -4
-19 -1 -8 3 -5 6 6 6 11 1 17 -2 13 -5z m118 -24 c27 -7 27 -8 5 -8 -14 0 -36
4 -50 8 -20 6 -21 8 -5 8 11 0 34 -4 50 -8z m-2011 -35 c5 -22 4 -26 -4 -15
-5 8 -10 24 -10 34 0 26 6 18 14 -19z m176 0 c0 -5 -5 -3 -10 5 -5 8 -10 20
-10 25 0 6 5 3 10 -5 5 -8 10 -19 10 -25z m839 -10 c0 -5 -4 -3 -9 5 -5 8 -9
22 -9 30 0 16 17 -16 18 -35z m1104 28 c-7 -2 -21 -2 -30 0 -10 3 -4 5 12 5
17 0 24 -2 18 -5z m131 -24 c-10 -11 -28 -25 -39 -31 -11 -6 -4 4 15 20 41 36
51 41 24 11z m-703 -16 c-12 -20 -14 -14 -5 12 4 9 9 14 11 11 3 -2 0 -13 -6
-23z m-2554 -15 c-3 -8 -6 -5 -6 6 -1 11 2 17 5 13 3 -3 4 -12 1 -19z m2063
-43 c0 -11 -14 7 -31 40 -7 13 -3 12 10 -5 11 -14 21 -29 21 -35z m670 41 c0
-3 -4 -8 -10 -11 -5 -3 -10 -1 -10 4 0 6 5 11 10 11 6 0 10 -2 10 -4z m-1500
-31 c13 -14 21 -25 18 -25 -2 0 -15 11 -28 25 -13 14 -21 25 -18 25 2 0 15
-11 28 -25z m-1243 -17 c-3 -7 -5 -2 -5 12 0 14 2 19 5 13 2 -7 2 -19 0 -25z
m1784 15 c13 -16 12 -17 -3 -4 -17 13 -22 21 -14 21 2 0 10 -8 17 -17z m930
-20 c-12 -20 -14 -14 -5 12 4 9 9 14 11 11 3 -2 0 -13 -6 -23z m116 21 c-3 -3
-12 -4 -19 -1 -8 3 -5 6 6 6 11 1 17 -2 13 -5z m320 0 c-3 -3 -12 -4 -19 -1
-8 3 -5 6 6 6 11 1 17 -2 13 -5z m-617 -7 c0 -2 -12 -14 -27 -28 l-28 -24 24
28 c23 25 31 32 31 24z m343 -4 c-7 -2 -19 -2 -25 0 -7 3 -2 5 12 5 14 0 19
-2 13 -5z m234 1 c-3 -3 -12 -4 -19 -1 -8 3 -5 6 6 6 11 1 17 -2 13 -5z m-89
-11 c-16 -2 -40 -2 -55 0 -16 2 -3 4 27 4 30 0 43 -2 28 -4z m-1727 -20 c13
-16 12 -17 -3 -4 -17 13 -22 21 -14 21 2 0 10 -8 17 -17z m564 -23 c21 -22 37
-40 34 -40 -3 0 -23 18 -44 40 -21 22 -37 40 -34 40 3 0 23 -18 44 -40z m255
15 c13 -14 21 -25 18 -25 -2 0 -15 11 -28 25 -13 14 -21 25 -18 25 2 0 15 -11
28 -25z m610 -5 c8 -5 11 -10 5 -10 -5 0 -17 5 -25 10 -8 5 -10 10 -5 10 6 0
17 -5 25 -10z m-255 -10 c-3 -5 -16 -15 -28 -21 -19 -9 -19 -8 3 10 28 23 34
26 25 11z m-1372 -18 c16 -17 15 -20 -11 -43 l-27 -24 22 25 c21 24 22 27 6
43 -10 9 -15 17 -12 17 3 0 13 -8 22 -18z m277 -8 c0 -2 -9 0 -20 6 -11 6 -20
13 -20 16 0 2 9 0 20 -6 11 -6 20 -13 20 -16z m1030 -14 c-8 -5 -19 -10 -25
-10 -5 0 -3 5 5 10 8 5 20 10 25 10 6 0 3 -5 -5 -10z m-2392 -60 c0 -9 -3 -7
-8 5 -5 11 -8 29 -8 40 0 16 2 15 8 -5 4 -14 8 -32 8 -40z m2245 43 c-7 -2
-19 -2 -25 0 -7 3 -2 5 12 5 14 0 19 -2 13 -5z m100 0 c-7 -2 -19 -2 -25 0 -7
3 -2 5 12 5 14 0 19 -2 13 -5z m-50 -10 c-7 -2 -19 -2 -25 0 -7 3 -2 5 12 5
14 0 19 -2 13 -5z m-1261 -25 c-6 -7 -25 -22 -44 -32 -39 -23 -32 -13 14 20
38 26 45 29 30 12z m869 -15 c-12 -20 -14 -14 -5 12 4 9 9 14 11 11 3 -2 0
-13 -6 -23z m-276 -3 c13 -5 14 -9 5 -9 -8 0 -24 4 -35 9 -13 5 -14 9 -5 9 8
0 24 -4 35 -9z m68 -17 c-7 -2 -19 -2 -25 0 -7 3 -2 5 12 5 14 0 19 -2 13 -5z
m-443 -29 c0 -3 -8 -1 -17 5 -14 7 -24 4 -43 -12 l-25 -22 24 27 c19 22 28 25
42 17 11 -5 19 -12 19 -15z m508 19 c-10 -2 -26 -2 -35 0 -10 3 -2 5 17 5 19
0 27 -2 18 -5z m127 -3 c-3 -5 -25 -9 -48 -8 l-42 1 45 7 c25 4 46 8 48 8 2 1
0 -2 -3 -8z m-1856 -40 c11 -24 11 -24 -3 -6 -9 11 -16 24 -16 30 0 12 5 7 19
-24z m901 26 c0 -2 -7 -7 -16 -10 -8 -3 -12 -2 -9 4 6 10 25 14 25 6z m1606
-38 l29 -33 -32 29 c-31 28 -38 36 -30 36 2 0 16 -15 33 -32z m974 22 c18 -12
2 -12 -25 0 -13 6 -15 9 -5 9 8 0 22 -4 30 -9z m-3233 -6 c-3 -3 -12 -4 -19
-1 -8 3 -5 6 6 6 11 1 17 -2 13 -5z m40 -10 c-3 -3 -12 -4 -19 -1 -8 3 -5 6 6
6 11 1 17 -2 13 -5z m1013 -4 c8 -5 11 -10 5 -10 -5 0 -17 5 -25 10 -8 5 -10
10 -5 10 6 0 17 -5 25 -10z m1430 -16 c0 -2 -9 0 -20 6 -11 6 -20 13 -20 16 0
2 9 0 20 -6 11 -6 20 -13 20 -16z m825 -16 c19 -22 19 -22 -10 2 -48 40 -51
43 -30 32 11 -6 29 -21 40 -34z m-3192 25 c-7 -2 -19 -2 -25 0 -7 3 -2 5 12 5
14 0 19 -2 13 -5z m422 -3 c-11 -5 -31 -8 -45 -8 -23 0 -22 1 5 8 42 11 65 11
40 0z m-357 -7 c-10 -2 -26 -2 -35 0 -10 3 -2 5 17 5 19 0 27 -2 18 -5z m1575
-8 c-3 -9 -8 -14 -10 -11 -3 3 -2 9 2 15 9 16 15 13 8 -4z m695 -10 c-3 -3 -9
2 -12 12 -6 14 -5 15 5 6 7 -7 10 -15 7 -18z m-2180 8 c-10 -2 -28 -2 -40 0
-13 2 -5 4 17 4 22 1 32 -1 23 -4z m180 0 c-10 -2 -28 -2 -40 0 -13 2 -5 4 17
4 22 1 32 -1 23 -4z m1465 0 c-7 -2 -19 -2 -25 0 -7 3 -2 5 12 5 14 0 19 -2
13 -5z m200 0 c-7 -2 -19 -2 -25 0 -7 3 -2 5 12 5 14 0 19 -2 13 -5z m398 -10
c13 -16 12 -17 -3 -4 -17 13 -22 21 -14 21 2 0 10 -8 17 -17z m486 11 c-3 -3
-12 -4 -19 -1 -8 3 -5 6 6 6 11 1 17 -2 13 -5z m-1857 -8 c0 -3 -4 -8 -10 -11
-5 -3 -10 -1 -10 4 0 6 5 11 10 11 6 0 10 -2 10 -4z m898 -3 c-21 -2 -55 -2
-75 0 -21 2 -4 4 37 4 41 0 58 -2 38 -4z m909 1 c-3 -3 -12 -4 -19 -1 -8 3 -5
6 6 6 11 1 17 -2 13 -5z m-2137 -9 c0 -2 -10 -9 -22 -15 -22 -11 -22 -10 -4 4
21 17 26 19 26 11z m2100 1 c0 -2 -11 -6 -25 -8 -14 -3 -25 -1 -25 3 0 5 11 9
25 9 14 0 25 -2 25 -4z m-262 -140 c20 -33 36 -66 34 -73 -2 -7 2 -13 7 -13 6
0 8 -13 5 -32 -3 -19 -2 -28 3 -21 5 6 8 -23 9 -70 0 -54 -2 -74 -8 -57 -6 18
-7 14 -4 -17 2 -25 0 -43 -6 -43 -6 0 -8 -7 -4 -15 3 -8 1 -15 -5 -15 -6 0 -8
-4 -5 -9 3 -5 -6 -33 -21 -61 -50 -96 -159 -198 -197 -184 -21 8 -20 20 3 52
98 140 118 298 62 487 l-30 100 -2 -55 -3 -55 -3 52 c-3 35 1 63 12 84 15 27
21 31 51 27 l34 -4 -27 31 c-16 17 -9 13 15 -10 24 -22 60 -67 80 -99z m702
80 c0 -12 -5 -7 -19 24 -11 24 -11 24 3 6 9 -11 16 -24 16 -30z m-871 -16 c0
-9 -4 -8 -9 5 -5 11 -9 27 -9 35 0 9 4 8 9 -5 5 -11 9 -27 9 -35z m411 30 c6
-11 8 -20 6 -20 -3 0 -10 9 -16 20 -6 11 -8 20 -6 20 3 0 10 -9 16 -20z
m-1533 -6 c-3 -3 -12 -4 -19 -1 -8 3 -5 6 6 6 11 1 17 -2 13 -5z m46 -11 c-7
-2 -19 -2 -25 0 -7 3 -2 5 12 5 14 0 19 -2 13 -5z m90 -10 c-13 -2 -33 -2 -45
0 -13 2 -3 4 22 4 25 0 35 -2 23 -4z m41 -40 c-9 -53 -15 -55 -12 -5 2 23 7
42 11 42 4 0 5 -17 1 -37z m1387 20 c13 -16 12 -17 -3 -4 -10 7 -18 15 -18 17
0 8 8 3 21 -13z m436 -65 c-2 -18 -4 -6 -4 27 0 33 2 48 4 33 2 -15 2 -42 0
-60z m-1650 50 c-3 -8 -6 -5 -6 6 -1 11 2 17 5 13 3 -3 4 -12 1 -19z m630 0
c-3 -8 -6 -5 -6 6 -1 11 2 17 5 13 3 -3 4 -12 1 -19z m618 -28 c10 -11 16 -20
13 -20 -3 0 -13 9 -23 20 -10 11 -16 20 -13 20 3 0 13 -9 23 -20z m-1258 -12
c-3 -8 -6 -5 -6 6 -1 11 2 17 5 13 3 -3 4 -12 1 -19z m-492 -4 c-26 -20 -55
-36 -55 -30 0 5 63 46 70 46 3 -1 -4 -8 -15 -16z m1152 -51 c-3 -10 -5 -4 -5
12 0 17 2 24 5 18 2 -7 2 -21 0 -30z m931 25 c16 -16 15 -60 -3 -84 -17 -22
-20 -38 -5 -29 18 11 11 -1 -12 -21 -15 -12 -19 -14 -13 -4 6 9 0 4 -12 -10
-13 -14 -23 -21 -23 -16 0 5 -7 3 -15 -4 -21 -18 -142 -24 -192 -11 -83 23
-212 136 -185 163 8 8 21 5 49 -15 52 -35 118 -52 176 -43 35 5 47 12 47 24 0
12 2 14 8 4 6 -9 21 -3 58 23 51 36 100 45 122 23z m-1601 -100 c-2 -18 -4 -6
-4 27 0 33 2 48 4 33 2 -15 2 -42 0 -60z m1396 75 c-7 -2 -19 -2 -25 0 -7 3
-2 5 12 5 14 0 19 -2 13 -5z m-1566 -65 c-2 -13 -4 -3 -4 22 0 25 2 35 4 23 2
-13 2 -33 0 -45z m-427 39 c0 -1 -28 -29 -62 -62 l-63 -60 60 63 c55 58 65 67
65 59z m1277 -74 c-2 -16 -4 -3 -4 27 0 30 2 43 4 28 2 -16 2 -40 0 -55z m963
58 c-5 -11 -15 -23 -21 -27 -6 -3 -3 5 6 20 20 30 30 35 15 7z m-2745 -1 c-11
-5 -27 -9 -35 -9 -9 0 -8 4 5 9 11 5 27 9 35 9 9 0 8 -4 -5 -9z m1885 -35
c-16 -47 -23 -40 -8 8 6 20 13 35 16 33 2 -3 -1 -21 -8 -41z m-2283 29 c-3 -3
-12 -4 -19 -1 -8 3 -5 6 6 6 11 1 17 -2 13 -5z m66 -11 c-7 -2 -21 -2 -30 0
-10 3 -4 5 12 5 17 0 24 -2 18 -5z m250 0 c-7 -2 -19 -2 -25 0 -7 3 -2 5 12 5
14 0 19 -2 13 -5z m-85 -10 c-26 -2 -71 -2 -100 0 -29 2 -8 3 47 3 55 0 79 -1
53 -3z m1115 -108 c5 -28 4 -34 -3 -20 -8 19 -14 73 -6 64 2 -2 6 -22 9 -44z
m824 8 c-3 -10 -5 -4 -5 12 0 17 2 24 5 18 2 -7 2 -21 0 -30z m-1545 -35 c-5
-87 -12 -98 -9 -16 2 63 1 67 -18 62 -16 -4 -17 -3 -5 5 30 22 36 12 32 -51z
m885 40 c-3 -8 -6 -5 -6 6 -1 11 2 17 5 13 3 -3 4 -12 1 -19z m10 -40 c-3 -8
-6 -5 -6 6 -1 11 2 17 5 13 3 -3 4 -12 1 -19z m-1050 6 c-3 -3 -12 -4 -19 -1
-8 3 -5 6 6 6 11 1 17 -2 13 -5z m280 -61 c-3 -10 -5 -4 -5 12 0 17 2 24 5 18
2 -7 2 -21 0 -30z m806 -25 c14 -32 24 -58 22 -58 -6 0 -41 70 -50 100 -11 37
-1 22 28 -42z m-184 7 c0 -5 -4 -3 -9 5 -5 8 -9 22 -9 30 0 16 17 -16 18 -35z
m-968 -41 c-5 -35 -9 -46 -10 -28 -1 34 9 97 15 91 2 -2 0 -30 -5 -63z m363
-45 c4 -8 0 -5 -8 5 -9 11 -16 31 -15 45 1 24 2 24 8 -5 4 -17 11 -37 15 -45z
m640 4 c9 -18 14 -33 12 -33 -6 0 -36 55 -36 66 0 11 5 3 24 -33z m-997 -55
c-3 -7 -5 -2 -5 12 0 14 2 19 5 13 2 -7 2 -19 0 -25z m392 -7 c-2 -6 -10 2
-17 17 -11 25 -11 25 4 10 9 -9 15 -21 13 -27z m822 22 c13 -16 12 -17 -3 -4
-17 13 -22 21 -14 21 2 0 10 -8 17 -17z m-920 -30 c13 -16 12 -17 -3 -4 -17
13 -22 21 -14 21 2 0 10 -8 17 -17z m754 -19 c9 -15 12 -23 6 -20 -11 7 -35
46 -28 46 3 0 12 -12 22 -26z m275 -61 c0 -7 -75 54 -91 74 -8 10 10 -2 39
-26 28 -24 52 -46 52 -48z m-1300 42 c0 -5 -5 -3 -10 5 -5 8 -10 20 -10 25 0
6 5 3 10 -5 5 -8 10 -19 10 -25z m308 -23 c169 -103 367 -117 535 -38 62 30
82 32 91 10 21 -56 -110 -134 -284 -170 -164 -33 -316 -5 -421 77 -81 65 -114
143 -71 169 27 16 62 5 150 -48z m-993 -10 c-3 -3 -11 0 -18 7 -9 10 -8 11 6
5 10 -3 15 -9 12 -12z m1746 1 c13 -16 12 -17 -3 -4 -10 7 -18 15 -18 17 0 8
8 3 21 -13z m289 -39 c0 -2 -9 0 -20 6 -11 6 -20 13 -20 16 0 2 9 0 20 -6 11
-6 20 -13 20 -16z m-1230 -81 c0 -8 -9 0 -50 45 l-45 47 48 -45 c26 -24 47
-45 47 -47z m1310 47 c8 -5 11 -10 5 -10 -5 0 -17 5 -25 10 -8 5 -10 10 -5 10
6 0 17 -5 25 -10z m370 0 c-8 -5 -19 -10 -25 -10 -5 0 -3 5 5 10 8 5 20 10 25
10 6 0 3 -5 -5 -10z m-790 -45 c-24 -25 -46 -45 -49 -45 -3 0 15 20 39 45 24
25 46 45 49 45 3 0 -15 -20 -39 -45z m513 18 c-7 -2 -21 -2 -30 0 -10 3 -4 5
12 5 17 0 24 -2 18 -5z m190 0 c-7 -2 -19 -2 -25 0 -7 3 -2 5 12 5 14 0 19 -2
13 -5z m-76 -10 c-20 -2 -52 -2 -70 0 -17 2 0 4 38 4 39 0 53 -2 32 -4z
m-1398 -79 c14 -12 -19 -1 -35 12 -18 14 -18 14 6 3 14 -6 27 -13 29 -15z m81
-29 c19 -7 28 -14 20 -14 -8 0 -28 6 -45 14 -39 17 -21 18 25 0z m67 -21 c-3
-3 -12 -4 -19 -1 -8 3 -5 6 6 6 11 1 17 -2 13 -5z m420 0 c-3 -3 -12 -4 -19
-1 -8 3 -5 6 6 6 11 1 17 -2 13 -5z m-380 -10 c-3 -3 -12 -4 -19 -1 -8 3 -5 6
6 6 11 1 17 -2 13 -5z m81 -11 c-10 -2 -26 -2 -35 0 -10 3 -2 5 17 5 19 0 27
-2 18 -5z m205 0 c-7 -2 -21 -2 -30 0 -10 3 -4 5 12 5 17 0 24 -2 18 -5z m-90
-10 c-18 -2 -48 -2 -65 0 -18 2 -4 4 32 4 36 0 50 -2 33 -4z m-793 -2523 c18
-12 2 -12 -25 0 -13 6 -15 9 -5 9 8 0 22 -4 30 -9z m47 -16 c-3 -3 -12 -4 -19
-1 -8 3 -5 6 6 6 11 1 17 -2 13 -5z m70 -20 c-3 -3 -12 -4 -19 -1 -8 3 -5 6 6
6 11 1 17 -2 13 -5z m160 -40 c-3 -3 -12 -4 -19 -1 -8 3 -5 6 6 6 11 1 17 -2
13 -5z m160 -30 c-3 -3 -12 -4 -19 -1 -8 3 -5 6 6 6 11 1 17 -2 13 -5z m230
-30 c-3 -3 -12 -4 -19 -1 -8 3 -5 6 6 6 11 1 17 -2 13 -5z m70 -10 c-3 -3 -12
-4 -19 -1 -8 3 -5 6 6 6 11 1 17 -2 13 -5z"/>
<path d="M944 3816 c-95 -42 -110 -186 -24 -244 29 -20 44 -23 93 -20 51 4 63
9 94 40 68 69 51 170 -37 216 -50 25 -81 27 -126 8z"/>
<path d="M871 3123 c-43 -22 -60 -39 -85 -83 -28 -50 -31 -63 -31 -145 0 -82
3 -95 31 -145 35 -63 99 -109 160 -117 85 -11 196 83 225 190 17 64 6 149 -29
210 -61 109 -167 145 -271 90z"/>
<path d="M1711 2764 c-98 -17 -184 -53 -201 -84 -12 -22 -6 -90 8 -90 4 0 28
11 54 24 62 32 167 49 303 50 l109 1 18 -48 c16 -43 57 -256 72 -377 3 -25 11
-150 17 -278 11 -253 22 -315 56 -320 36 -5 50 21 57 110 8 96 -3 223 -44 498
-16 107 -32 237 -36 289 l-7 94 34 -7 c62 -12 213 -92 291 -155 95 -77 157
-152 208 -256 47 -93 65 -176 56 -259 -21 -202 -227 -397 -436 -412 -56 -5
-82 0 -195 36 -123 39 -130 40 -143 23 -45 -61 64 -151 210 -174 297 -46 572
124 642 397 21 81 21 247 0 327 -44 172 -165 329 -342 445 -230 151 -481 208
-731 166z"/>
<path d="M6338 2760 c-118 -63 -146 -269 -50 -381 85 -99 203 -89 279 24 61
92 63 196 3 291 -51 80 -151 108 -232 66z"/>
<path d="M3845 2731 c-7 -24 4 -109 58 -436 41 -249 41 -251 42 -535 1 -157 4
-291 8 -297 11 -18 46 -22 61 -8 7 8 16 38 20 67 16 129 41 150 115 97 193
-139 250 -165 335 -155 72 8 98 29 94 73 l-3 37 -72 12 c-136 23 -256 72 -328
136 -84 74 -95 134 -45 234 38 76 140 211 236 313 66 70 75 85 70 107 -6 24
-10 26 -43 21 -50 -9 -89 -49 -160 -170 -34 -56 -76 -116 -95 -133 -33 -32
-91 -53 -102 -36 -3 5 -19 94 -37 198 -48 291 -100 481 -136 492 -6 1 -14 -6
-18 -17z"/>
<path d="M4613 2734 c-9 -25 3 -129 46 -404 22 -140 45 -302 51 -359 13 -132
13 -318 -1 -401 -13 -79 -6 -108 28 -121 38 -14 51 3 68 96 24 126 38 130 146
49 41 -30 103 -72 139 -92 55 -31 75 -37 125 -37 33 0 73 4 88 8 32 9 50 46
41 83 -5 19 -13 24 -38 24 -43 0 -192 42 -262 74 -107 49 -184 135 -184 207 0
64 107 228 261 399 59 66 80 96 77 113 -2 18 -9 22 -36 21 -49 -3 -79 -28
-131 -111 -105 -171 -126 -198 -163 -216 -68 -33 -69 -30 -106 194 -56 346
-120 548 -149 473z"/>
<path d="M3208 2526 c-54 -20 -119 -60 -155 -98 -153 -160 -196 -485 -93 -695
96 -195 321 -316 528 -284 120 19 227 65 276 120 l20 22 -110 -8 c-199 -15
-341 -9 -414 16 -126 43 -191 102 -235 211 -13 32 -19 82 -23 176 -5 144 7
206 56 297 56 104 181 179 268 162 72 -13 144 -121 144 -214 0 -70 -61 -131
-199 -201 -59 -29 -70 -32 -145 -28 l-81 3 2 -33 c1 -42 17 -60 60 -68 106
-20 287 49 371 140 62 68 77 117 70 229 -8 123 -54 202 -142 243 -58 27 -138
31 -198 10z"/>
<path d="M5767 2304 c-144 -35 -254 -119 -314 -242 -38 -76 -38 -76 -38 -202
1 -106 4 -134 24 -182 26 -67 95 -148 157 -184 151 -89 354 -63 494 63 89 80
140 198 140 322 0 164 -109 360 -233 420 -51 25 -141 27 -230 5z m160 -126
c79 -39 156 -106 186 -162 31 -60 29 -144 -6 -220 -35 -75 -134 -173 -213
-212 -143 -69 -307 -2 -377 154 -28 65 -34 175 -13 240 40 120 191 222 340
231 10 1 48 -13 83 -31z"/>
<path d="M4287 1046 c-93 -33 -147 -111 -147 -211 0 -99 44 -168 135 -211 198
-94 424 110 334 301 -52 110 -198 165 -322 121z"/>
</g>
</svg>
