<?xml version="1.0" standalone="no"?>
<!DOCTYPE svg PUBLIC "-//W3C//DTD SVG 20010904//EN"
 "http://www.w3.org/TR/2001/REC-SVG-20010904/DTD/svg10.dtd">
<svg version="1.0" xmlns="http://www.w3.org/2000/svg"
 width="744.000000pt" height="744.000000pt" viewBox="0 0 744.000000 744.000000"
 preserveAspectRatio="xMidYMid meet">
<metadata>
Created by potrace 1.11, written by Peter Selinger 2001-2013
</metadata>
<g transform="translate(0.000000,744.000000) scale(0.100000,-0.100000)"
fill="#000000" stroke="none">
<path d="M4518 7430 c-194 -33 -375 -152 -489 -322 -23 -35 -43 -65 -45 -66
-1 -2 -31 10 -66 27 -92 45 -178 64 -288 63 -152 0 -255 -32 -383 -119 l-79
-54 -16 23 c-54 78 -174 179 -268 226 -104 53 -172 67 -314 67 -127 -1 -140
-2 -219 -33 -113 -43 -198 -100 -281 -190 -87 -92 -153 -219 -176 -337 -36
-184 16 -396 135 -555 l41 -54 -39 -41 c-54 -56 -100 -127 -132 -204 l-28 -66
-93 -6 c-108 -7 -161 -20 -242 -60 -136 -68 -234 -166 -301 -304 -76 -153 -92
-314 -50 -475 16 -61 20 -53 -62 -143 -259 -285 -477 -698 -579 -1093 -61
-239 -78 -386 -78 -669 0 -260 11 -374 55 -585 169 -790 670 -1493 1386 -1941
433 -272 902 -433 1453 -501 138 -17 592 -17 730 0 445 55 796 158 1170 343
795 395 1385 1088 1620 1902 146 507 145 1074 -3 1562 -91 300 -231 573 -431
840 -106 141 -381 420 -503 510 -45 33 -82 63 -83 66 0 4 18 19 40 34 118 82
222 239 238 360 24 185 -52 346 -199 421 -76 38 -201 47 -287 20 -21 -7 -22
-4 -22 41 0 106 -54 242 -130 326 -51 57 -139 118 -208 143 -26 10 -48 19 -50
20 -2 1 3 26 12 55 44 160 20 331 -66 478 -126 212 -409 335 -670 291z m65
-137 c-7 -2 -21 -2 -30 0 -10 3 -4 5 12 5 17 0 24 -2 18 -5z m140 0 c-7 -2
-19 -2 -25 0 -7 3 -2 5 12 5 14 0 19 -2 13 -5z m-194 -7 c-2 -2 -17 -6 -34
-10 -22 -5 -26 -4 -15 4 14 9 59 15 49 6z m248 -2 c-3 -3 -12 -4 -19 -1 -8 3
-5 6 6 6 11 1 17 -2 13 -5z m-377 -39 c0 -2 -10 -9 -22 -15 -22 -11 -22 -10
-4 4 21 17 26 19 26 11z m-50 -29 c0 -2 -12 -11 -27 -20 l-28 -17 24 20 c23
21 31 25 31 17z m611 -23 c13 -16 12 -17 -3 -4 -10 7 -18 15 -18 17 0 8 8 3
21 -13z m-671 -16 c0 -1 -28 -29 -62 -62 l-63 -60 60 63 c55 58 65 67 65 59z
m-1652 -34 c-26 -2 -71 -2 -100 0 -29 2 -8 3 47 3 55 0 79 -1 53 -3z m-161 -9
c-3 -3 -12 -4 -19 -1 -8 3 -5 6 6 6 11 1 17 -2 13 -5z m240 0 c-3 -3 -12 -4
-19 -1 -8 3 -5 6 6 6 11 1 17 -2 13 -5z m-297 -14 c-8 -5 -19 -10 -25 -10 -5
0 -3 5 5 10 8 5 20 10 25 10 6 0 3 -5 -5 -10z m350 0 c18 -12 2 -12 -25 0 -13
6 -15 9 -5 9 8 0 22 -4 30 -9z m2271 -7 c13 -16 12 -17 -3 -4 -10 7 -18 15
-18 17 0 8 8 3 21 -13z m-2662 -7 c-10 -9 -69 -36 -69 -32 0 7 52 35 64 36 5
0 7 -2 5 -4z m441 -6 c8 -5 11 -10 5 -10 -5 0 -17 5 -25 10 -8 5 -10 10 -5 10
6 0 17 -5 25 -10z m60 -36 c0 -2 -9 0 -20 6 -11 6 -20 13 -20 16 0 2 9 0 20
-6 11 -6 20 -13 20 -16z m1783 9 c-18 -2 -48 -2 -65 0 -18 2 -4 4 32 4 36 0
50 -2 33 -4z m-118 -13 c-27 -12 -43 -12 -25 0 8 5 22 9 30 9 10 0 8 -3 -5 -9z
m-2275 -14 c0 -2 -8 -10 -17 -17 -16 -13 -17 -12 -4 4 13 16 21 21 21 13z
m2210 -10 c0 -2 -12 -11 -27 -20 l-28 -17 24 20 c23 21 31 25 31 17z m-1495
-56 c27 -27 47 -50 44 -50 -3 0 -27 23 -54 50 -27 28 -47 50 -44 50 3 0 27
-22 54 -50z m2125 5 c0 -5 -5 -3 -10 5 -5 8 -10 20 -10 25 0 6 5 3 10 -5 5 -8
10 -19 10 -25z m-2890 21 c0 -2 -8 -10 -17 -17 -16 -13 -17 -12 -4 4 13 16 21
21 21 13z m1458 -3 c-21 -2 -55 -2 -75 0 -21 2 -4 4 37 4 41 0 58 -2 38 -4z
m-125 -10 c-7 -2 -19 -2 -25 0 -7 3 -2 5 12 5 14 0 19 -2 13 -5z m200 0 c-7
-2 -19 -2 -25 0 -7 3 -2 5 12 5 14 0 19 -2 13 -5z m667 4 c0 -2 -17 -19 -37
-38 l-38 -34 34 38 c33 34 41 42 41 34z m-925 -17 c-27 -12 -43 -12 -25 0 8 5
22 9 30 9 10 0 8 -3 -5 -9z m315 0 c18 -12 2 -12 -25 0 -13 6 -15 9 -5 9 8 0
22 -4 30 -9z m-175 -20 c28 -31 8 -61 -53 -83 -72 -25 -142 -84 -196 -166 -78
-117 -145 -288 -130 -333 4 -14 3 -18 -5 -14 -8 5 -10 -5 -6 -36 3 -32 2 -36
-4 -18 -5 15 -7 -51 -6 -165 2 -138 7 -206 19 -248 20 -72 20 -106 1 -113 -18
-7 -40 9 -75 58 -15 21 -31 34 -35 30 -4 -4 -4 4 0 17 5 16 4 21 -4 17 -7 -5
-9 -1 -5 8 3 9 1 16 -6 16 -7 0 -9 8 -5 21 5 16 4 19 -5 14 -9 -5 -10 -1 -5
15 4 13 3 20 -2 17 -5 -3 -10 8 -10 26 0 18 -6 73 -13 122 -37 261 45 531 211
694 66 65 123 99 203 122 81 23 109 23 131 -1z m1082 14 c-3 -3 -12 -4 -19 -1
-8 3 -5 6 6 6 11 1 17 -2 13 -5z m-1282 -14 c-3 -5 -12 -10 -18 -10 -7 0 -6 4
3 10 19 12 23 12 15 0z m445 -16 c0 -2 -9 0 -20 6 -11 6 -20 13 -20 16 0 2 9
0 20 -6 11 -6 20 -13 20 -16z m-1700 12 c0 -2 -8 -10 -17 -17 -16 -13 -17 -12
-4 4 13 16 21 21 21 13z m2937 -18 c-3 -8 -6 -5 -6 6 -1 11 2 17 5 13 3 -3 4
-12 1 -19z m-1172 -40 c19 -22 19 -22 -10 2 -48 40 -51 43 -30 32 11 -6 29
-21 40 -34z m196 25 c13 -16 12 -17 -3 -4 -10 7 -18 15 -18 17 0 8 8 3 21 -13z
m-1538 0 c-7 -2 -21 -2 -30 0 -10 3 -4 5 12 5 17 0 24 -2 18 -5z m126 -2 c10
-6 -1 -8 -30 -4 -24 3 -46 7 -48 9 -10 9 65 3 78 -5z m1831 5 c0 -2 -8 -10
-17 -17 -16 -13 -17 -12 -4 4 13 16 21 21 21 13z m567 -38 c-3 -7 -5 -2 -5 12
0 14 2 19 5 13 2 -7 2 -19 0 -25z m-2327 7 c17 -9 30 -18 30 -21 0 -4 -59 23
-69 32 -10 9 13 3 39 -11z m530 11 c0 -2 -8 -10 -17 -17 -16 -13 -17 -12 -4 4
13 16 21 21 21 13z m-850 -10 c0 -2 -8 -10 -17 -17 -16 -13 -17 -12 -4 4 13
16 21 21 21 13z m800 -29 c0 -2 -15 -16 -32 -33 l-33 -29 29 33 c28 30 36 37
36 29z m1018 -42 c-12 -24 -23 -43 -26 -41 -4 5 36 86 43 86 3 0 -5 -20 -17
-45z m189 27 c-9 -10 -30 -43 -47 -73 -31 -57 -42 -61 -14 -6 19 38 63 97 71
97 3 0 -1 -8 -10 -18z m-2386 -19 c-12 -20 -14 -14 -5 12 4 9 9 14 11 11 3 -2
0 -13 -6 -23z m780 10 c13 -16 12 -17 -3 -4 -10 7 -18 15 -18 17 0 8 8 3 21
-13z m1129 -8 c13 -14 21 -25 18 -25 -2 0 -15 11 -28 25 -13 14 -21 25 -18 25
2 0 15 -11 28 -25z m-1395 -15 c13 -5 14 -9 5 -9 -8 0 -24 4 -35 9 -13 5 -14
9 -5 9 8 0 24 -4 35 -9z m325 -25 c13 -14 21 -25 18 -25 -2 0 -15 11 -28 25
-13 14 -21 25 -18 25 2 0 15 -11 28 -25z m2185 -35 c-4 -23 -9 -39 -11 -37 -3
2 -2 23 2 46 4 23 9 40 11 37 3 -3 2 -23 -2 -46z m-2115 20 c-6 -11 -13 -20
-16 -20 -2 0 0 9 6 20 6 11 13 20 16 20 2 0 0 -9 -6 -20z m210 17 c0 -2 -10
-12 -22 -23 l-23 -19 19 23 c18 21 26 27 26 19z m-1146 -41 c-3 -15 -8 -25
-11 -23 -2 3 -1 17 3 31 3 15 8 25 11 23 2 -3 1 -17 -3 -31z m2164 9 c-3 -3
-9 2 -12 12 -6 14 -5 15 5 6 7 -7 10 -15 7 -18z m25 -24 c-4 -15 -8 -19 -13
-10 -5 6 -3 18 3 24 16 17 17 14 10 -14z m-1273 -3 c0 -6 -6 -5 -15 2 -8 7
-15 14 -15 16 0 2 7 1 15 -2 8 -4 15 -11 15 -16z m-175 -28 c21 -22 37 -40 34
-40 -3 0 -23 18 -44 40 -21 22 -37 40 -34 40 3 0 23 -18 44 -40z m355 20 c-6
-11 -13 -20 -16 -20 -2 0 0 9 6 20 6 11 13 20 16 20 2 0 0 -9 -6 -20z m474
-18 c2 -4 -11 -6 -30 -4 -19 2 -34 6 -34 8 0 8 59 4 64 -4z m-1587 -49 c-3
-10 -5 -2 -5 17 0 19 2 27 5 18 2 -10 2 -26 0 -35z m3046 19 c-5 -20 -11 -22
-82 -20 l-76 2 72 3 c62 3 73 7 78 24 9 27 16 19 8 -9z m-1564 14 c-10 -9 -69
-36 -69 -32 0 7 52 35 64 36 5 0 7 -2 5 -4z m591 -71 c0 -5 -5 -3 -10 5 -5 8
-10 20 -10 25 0 6 5 3 10 -5 5 -8 10 -19 10 -25z m783 28 c-7 -2 -19 -2 -25 0
-7 3 -2 5 12 5 14 0 19 -2 13 -5z m-2033 -23 c6 -11 8 -20 6 -20 -3 0 -10 9
-16 20 -6 11 -8 20 -6 20 3 0 10 -9 16 -20z m560 16 c0 -2 -8 -10 -17 -17 -16
-13 -17 -12 -4 4 13 16 21 21 21 13z m1427 -2 c-3 -3 -12 -4 -19 -1 -8 3 -5 6
6 6 11 1 17 -2 13 -5z m-2820 -56 c-2 -13 -4 -5 -4 17 -1 22 1 32 4 23 2 -10
2 -28 0 -40z m2738 32 c-27 -12 -43 -12 -25 0 8 5 22 9 30 9 10 0 8 -3 -5 -9z
m-1145 -3 c0 -2 -10 -12 -22 -23 l-23 -19 19 23 c18 21 26 27 26 19z m737 -19
c-3 -8 -6 -5 -6 6 -1 11 2 17 5 13 3 -3 4 -12 1 -19z m-787 -21 c0 -1 -24 -25
-52 -52 l-53 -50 50 53 c46 48 55 57 55 49z m777 -29 c-3 -7 -5 -2 -5 12 0 14
2 19 5 13 2 -7 2 -19 0 -25z m293 18 c0 -2 -18 -15 -40 -30 -22 -14 -40 -24
-40 -22 0 5 71 56 77 56 2 0 3 -2 3 -4z m-2603 -53 c-3 -10 -5 -2 -5 17 0 19
2 27 5 18 2 -10 2 -26 0 -35z m850 -5 c-3 -8 -6 -5 -6 6 -1 11 2 17 5 13 3 -3
4 -12 1 -19z m168 -18 c-9 -41 -17 -33 -9 9 4 17 9 30 11 27 3 -2 2 -19 -2
-36z m238 5 c-3 -9 -8 -14 -10 -11 -3 3 -2 9 2 15 9 16 15 13 8 -4z m865 -40
c0 -16 -2 -15 -8 5 -11 34 -11 60 0 35 5 -11 8 -29 8 -40z m179 18 c-3 -10 -5
-4 -5 12 0 17 2 24 5 18 2 -7 2 -21 0 -30z m213 34 c0 -2 -10 -12 -22 -23
l-23 -19 19 23 c18 21 26 27 26 19z m380 -7 c-14 -4 -34 -8 -45 -8 -16 0 -15
2 5 8 14 4 34 8 45 8 16 0 15 -2 -5 -8z m193 3 c-7 -2 -19 -2 -25 0 -7 3 -2 5
12 5 14 0 19 -2 13 -5z m124 -38 c63 -28 144 -102 169 -153 10 -20 17 -40 16
-44 -1 -5 3 -8 9 -8 6 0 9 -7 5 -15 -3 -8 -2 -15 2 -15 4 0 7 -56 7 -125 0
-68 -3 -117 -6 -107 -4 11 -8 5 -13 -21 -4 -20 -4 -42 0 -49 5 -7 3 -8 -6 -3
-9 6 -10 2 -5 -15 5 -17 4 -21 -6 -15 -9 6 -11 3 -6 -8 3 -10 2 -17 -2 -17 -5
0 -12 -7 -15 -16 -4 -10 -2 -13 7 -8 6 4 4 -2 -5 -13 -10 -11 -18 -25 -18 -31
0 -7 -3 -12 -8 -12 -4 0 -16 -17 -27 -37 -50 -95 -259 -265 -434 -353 -71 -35
-78 -36 -98 -23 -44 29 -25 61 69 121 26 16 45 32 41 36 -3 3 3 6 14 6 60 0
224 150 296 271 107 182 127 433 42 544 -12 17 -54 45 -94 64 -74 36 -87 55
-48 71 26 10 44 6 114 -25z m-2370 -12 c-3 -10 -5 -4 -5 12 0 17 2 24 5 18 2
-7 2 -21 0 -30z m1943 17 c-8 -5 -19 -10 -25 -10 -5 0 -3 5 5 10 8 5 20 10 25
10 6 0 3 -5 -5 -10z m-1547 -15 c-3 -9 -8 -14 -10 -11 -3 3 -2 9 2 15 9 16 15
13 8 -4z m181 -10 c-9 -14 -18 -25 -21 -25 -5 0 5 18 20 38 17 22 18 13 1 -13z
m1046 22 c0 -1 -26 -27 -57 -57 l-58 -55 55 58 c50 53 60 62 60 54z m275 -17
c-3 -5 -12 -10 -18 -10 -7 0 -6 4 3 10 19 12 23 12 15 0z m-2706 -45 c0 -5 -4
-3 -9 5 -5 8 -9 22 -9 30 0 16 17 -16 18 -35z m2258 13 c-3 -8 -6 -5 -6 6 -1
11 2 17 5 13 3 -3 4 -12 1 -19z m-1074 -8 c-3 -12 -8 -19 -11 -16 -5 6 5 36
12 36 2 0 2 -9 -1 -20z m-216 -132 c-2 -29 -3 -8 -3 47 0 55 1 79 3 53 2 -26
2 -71 0 -100z m1130 105 c-3 -10 -5 -4 -5 12 0 17 2 24 5 18 2 -7 2 -21 0 -30z
m-1300 -116 c-2 -23 -3 -1 -3 48 0 50 1 68 3 42 2 -26 2 -67 0 -90z m1813 129
c0 -2 -8 -10 -17 -17 -16 -13 -17 -12 -4 4 13 16 21 21 21 13z m-343 -43 c-3
-10 -5 -4 -5 12 0 17 2 24 5 18 2 -7 2 -21 0 -30z m816 17 c-3 -12 -8 -19 -11
-16 -5 6 5 36 12 36 2 0 2 -9 -1 -20z m-583 -75 c-41 -41 -77 -75 -79 -75 -3
0 28 34 69 75 41 41 77 75 79 75 3 0 -28 -34 -69 -75z m-1187 30 c-9 -19 -18
-33 -21 -31 -4 5 26 66 33 66 3 0 -3 -16 -12 -35z m794 -162 c-2 -38 -3 -7 -3
67 0 74 1 105 3 68 2 -38 2 -98 0 -135z m203 174 c0 -2 -10 -12 -22 -23 l-23
-19 19 23 c18 21 26 27 26 19z m-1853 -24 c-20 -2 -52 -2 -70 0 -17 2 0 4 38
4 39 0 53 -2 32 -4z m2647 -9 c3 -8 2 -12 -4 -9 -6 3 -10 10 -10 16 0 14 7 11
14 -7z m-3043 -11 c13 -16 12 -17 -3 -4 -17 13 -22 21 -14 21 2 0 10 -8 17
-17z m239 7 c-34 -11 -60 -11 -35 0 11 5 29 8 40 8 16 0 15 -2 -5 -8z m257 4
c-3 -3 -12 -4 -19 -1 -8 3 -5 6 6 6 11 1 17 -2 13 -5z m103 -30 c23 -9 39 -18
37 -20 -2 -3 -24 4 -48 15 -54 24 -45 27 11 5z m621 -21 c-12 -20 -14 -14 -5
12 4 9 9 14 11 11 3 -2 0 -13 -6 -23z m-1167 -22 c-3 -3 -15 6 -27 18 l-22 24
27 -19 c14 -10 24 -21 22 -23z m636 -7 c0 -2 -9 0 -20 6 -11 6 -20 13 -20 16
0 2 9 0 20 -6 11 -6 20 -13 20 -16z m2377 -117 c-2 -23 -3 -1 -3 48 0 50 1 68
3 42 2 -26 2 -67 0 -90z m-1860 46 c-2 -16 -4 -5 -4 22 0 28 2 40 4 28 2 -13
2 -35 0 -50z m1153 53 c0 -2 -8 -10 -17 -17 -16 -13 -17 -12 -4 4 13 16 21 21
21 13z m-1432 -91 c0 -16 -2 -15 -8 5 -4 14 -8 34 -8 45 0 16 2 15 8 -5 4 -14
8 -34 8 -45z m169 18 c-3 -10 -5 -2 -5 17 0 19 2 27 5 18 2 -10 2 -26 0 -35z
m2240 -60 c-2 -21 -4 -6 -4 32 0 39 2 55 4 38 2 -18 2 -50 0 -70z m-2924 70
c-23 -2 -64 -2 -90 0 -26 2 -7 3 42 3 50 0 71 -1 48 -3z m-138 -33 c14 -5 25
-12 25 -15 0 -2 -32 -28 -71 -56 -176 -128 -268 -316 -256 -524 6 -110 26
-183 77 -296 22 -47 40 -97 40 -112 0 -28 -23 -57 -45 -57 -20 0 -60 45 -101
112 -167 273 -146 628 48 822 62 62 164 130 180 120 4 -3 8 -1 8 4 0 5 12 8
28 5 24 -3 25 -2 7 7 -17 9 -16 10 7 5 15 -3 39 -10 53 -15z m922 -22 c-3 -7
-5 -2 -5 12 0 14 2 19 5 13 2 -7 2 -19 0 -25z m-612 4 c-3 -3 -11 0 -18 7 -9
10 -8 11 6 5 10 -3 15 -9 12 -12z m1448 -53 c-6 -6 -7 3 -4 23 4 28 6 29 9 9
2 -13 0 -27 -5 -32z m-150 24 c-24 -2 -62 -2 -85 0 -24 2 -5 4 42 4 47 0 66
-2 43 -4z m367 -13 c-6 -11 -13 -20 -16 -20 -2 0 0 9 6 20 6 11 13 20 16 20 2
0 0 -9 -6 -20z m-1585 -10 c10 -11 16 -20 13 -20 -3 0 -13 9 -23 20 -10 11
-16 20 -13 20 3 0 13 -9 23 -20z m1072 14 c-3 -3 -12 -4 -19 -1 -8 3 -5 6 6 6
11 1 17 -2 13 -5z m226 -1 c-7 -2 -19 -2 -25 0 -7 3 -2 5 12 5 14 0 19 -2 13
-5z m1094 -25 c-3 -7 -5 -2 -5 12 0 14 2 19 5 13 2 -7 2 -19 0 -25z m-2110 0
c-3 -8 -6 -5 -6 6 -1 11 2 17 5 13 3 -3 4 -12 1 -19z m220 16 c-3 -3 -12 -4
-19 -1 -8 3 -5 6 6 6 11 1 17 -2 13 -5z m530 0 c-3 -3 -12 -4 -19 -1 -8 3 -5
6 6 6 11 1 17 -2 13 -5z m310 0 c-3 -3 -12 -4 -19 -1 -8 3 -5 6 6 6 11 1 17
-2 13 -5z m-387 -24 c-8 -5 -19 -10 -25 -10 -5 0 -3 5 5 10 8 5 20 10 25 10 6
0 3 -5 -5 -10z m-1233 -6 c-3 -3 -12 -4 -19 -1 -8 3 -5 6 6 6 11 1 17 -2 13
-5z m-88 -17 c-16 -12 -79 -45 -79 -42 0 7 63 45 74 45 5 0 7 -1 5 -3z m148
-29 c-3 -8 -6 -5 -6 6 -1 11 2 17 5 13 3 -3 4 -12 1 -19z m288 2 c10 -11 16
-20 13 -20 -3 0 -13 9 -23 20 -10 11 -16 20 -13 20 3 0 13 -9 23 -20z m2913
-7 c-10 -2 -26 -2 -35 0 -10 3 -2 5 17 5 19 0 27 -2 18 -5z m-2148 -6 c0 -2
-10 -12 -22 -23 l-23 -19 19 23 c18 21 26 27 26 19z m2087 -3 c-3 -3 -12 -4
-19 -1 -8 3 -5 6 6 6 11 1 17 -2 13 -5z m110 0 c-3 -3 -12 -4 -19 -1 -8 3 -5
6 6 6 11 1 17 -2 13 -5z m-3487 -7 c0 -2 -12 -14 -27 -28 l-28 -24 24 28 c23
25 31 32 31 24z m2005 -17 c10 -11 16 -20 13 -20 -3 0 -13 9 -23 20 -10 11
-16 20 -13 20 3 0 13 -9 23 -20z m1334 17 c-2 -2 -17 -11 -34 -21 l-30 -17 24
20 c13 12 28 21 34 21 6 0 8 -1 6 -3z m186 -7 c3 -6 -1 -7 -9 -4 -18 7 -21 14
-7 14 6 0 13 -4 16 -10z m-714 -27 c-12 -20 -14 -14 -5 12 4 9 9 14 11 11 3
-2 0 -13 -6 -23z m-999 -25 c135 -62 233 -200 259 -367 13 -88 0 -163 -43
-251 -27 -54 -37 -65 -58 -65 -28 0 -28 -1 -9 93 34 172 -67 385 -220 459 -48
24 -68 27 -146 27 -72 0 -100 -4 -142 -23 -58 -26 -120 -87 -152 -149 -24 -48
-37 -58 -55 -43 -17 14 -5 87 25 147 79 164 363 254 541 172z m-592 -1 c0 -2
-10 -12 -22 -23 l-23 -19 19 23 c18 21 26 27 26 19z m2396 -39 c23 -45 12 -43
-13 3 -12 21 -17 37 -12 33 5 -3 16 -19 25 -36z m-3676 28 c0 -2 -8 -10 -17
-17 -16 -13 -17 -12 -4 4 13 16 21 21 21 13z m200 1 c0 -1 -26 -27 -57 -57
l-58 -55 55 58 c50 53 60 62 60 54z m2641 -30 c-10 -9 -11 -8 -5 6 3 10 9 15
12 12 3 -3 0 -11 -7 -18z m-680 -14 c13 -16 12 -17 -3 -4 -17 13 -22 21 -14
21 2 0 10 -8 17 -17z m-921 3 c0 -2 -8 -10 -17 -17 -16 -13 -17 -12 -4 4 13
16 21 21 21 13z m-373 -38 c-3 -8 -6 -5 -6 6 -1 11 2 17 5 13 3 -3 4 -12 1
-19z m2424 -1 c-10 -9 -11 -8 -5 6 3 10 9 15 12 12 3 -3 0 -11 -7 -18z m-2088
-12 c-3 -9 -8 -14 -10 -11 -3 3 -2 9 2 15 9 16 15 13 8 -4z m-1270 -10 c-3 -9
-8 -14 -10 -11 -3 3 -2 9 2 15 9 16 15 13 8 -4z m3764 -82 c-2 -21 -4 -6 -4
32 0 39 2 55 4 38 2 -18 2 -50 0 -70z m-2820 65 c-3 -8 -6 -5 -6 6 -1 11 2 17
5 13 3 -3 4 -12 1 -19z m306 -13 c-3 -9 -8 -14 -10 -11 -3 3 -2 9 2 15 9 16
15 13 8 -4z m1035 -10 c-3 -3 -9 2 -12 12 -6 14 -5 15 5 6 7 -7 10 -15 7 -18z
m533 -23 c-17 -22 -38 -45 -48 -53 -10 -8 2 10 26 39 51 60 68 71 22 14z
m-1864 6 c-3 -8 -6 -5 -6 6 -1 11 2 17 5 13 3 -3 4 -12 1 -19z m-827 -8 c-6
-11 -13 -20 -16 -20 -2 0 0 9 6 20 6 11 13 20 16 20 2 0 0 -9 -6 -20z m1091
-41 c-5 -13 -10 -19 -10 -12 -1 15 10 45 15 40 3 -2 0 -15 -5 -28z m-414 -1
c-3 -8 -6 -5 -6 6 -1 11 2 17 5 13 3 -3 4 -12 1 -19z m-706 -15 c-12 -20 -14
-14 -5 12 4 9 9 14 11 11 3 -2 0 -13 -6 -23z m3189 23 c0 -2 -8 -10 -17 -17
-16 -13 -17 -12 -4 4 13 16 21 21 21 13z m-3681 -28 c-1 -17 -3 -18 -6 -6 -3
12 -18 18 -51 21 l-47 3 53 2 c48 2 52 0 51 -20z m342 -14 c-5 -16 -10 -21
-10 -12 -1 18 10 51 15 45 2 -1 -1 -16 -5 -33z m-454 20 c-3 -3 -12 -4 -19 -1
-8 3 -5 6 6 6 11 1 17 -2 13 -5z m1492 -34 c0 -10 -3 -8 -9 5 -12 27 -12 43 0
25 5 -8 9 -22 9 -30z m-1549 20 c-8 -5 -19 -10 -25 -10 -5 0 -3 5 5 10 8 5 20
10 25 10 6 0 3 -5 -5 -10z m2887 -12 c-3 -8 -6 -5 -6 6 -1 11 2 17 5 13 3 -3
4 -12 1 -19z m933 9 c0 -2 -10 -12 -22 -23 l-23 -19 19 23 c18 21 26 27 26 19z
m277 -34 c-3 -10 -5 -4 -5 12 0 17 2 24 5 18 2 -7 2 -21 0 -30z m204 -17 c-11
-25 -22 -46 -25 -46 -2 0 5 22 17 50 11 27 23 48 25 46 2 -3 -5 -25 -17 -50z
m-4342 40 c-2 -2 -15 -9 -29 -15 -24 -11 -24 -11 -6 3 16 13 49 24 35 12z
m198 -103 c-2 -21 -4 -6 -4 32 0 39 2 55 4 38 2 -18 2 -50 0 -70z m1230 75
c-3 -8 -6 -5 -6 6 -1 11 2 17 5 13 3 -3 4 -12 1 -19z m2643 3 c-5 -11 -15 -23
-21 -27 -6 -3 -3 5 6 20 20 30 30 35 15 7z m-2273 -13 c-3 -8 -6 -5 -6 6 -1
11 2 17 5 13 3 -3 4 -12 1 -19z m1140 0 c-3 -8 -6 -5 -6 6 -1 11 2 17 5 13 3
-3 4 -12 1 -19z m-2260 -10 c-3 -8 -6 -5 -6 6 -1 11 2 17 5 13 3 -3 4 -12 1
-19z m2626 -8 c-3 -12 -8 -19 -11 -16 -5 6 5 36 12 36 2 0 2 -9 -1 -20z
m-2766 -72 c-2 -18 -4 -6 -4 27 0 33 2 48 4 33 2 -15 2 -42 0 -60z m902 68
c-2 -2 -18 -7 -34 -11 l-30 -6 30 14 c27 13 45 14 34 3z m192 -14 c-7 -2 -18
1 -23 6 -8 8 -4 9 13 5 13 -4 18 -8 10 -11z m1316 -44 c-2 -13 -4 -3 -4 22 0
25 2 35 4 23 2 -13 2 -33 0 -45z m-2280 30 c-3 -8 -6 -5 -6 6 -1 11 2 17 5 13
3 -3 4 -12 1 -19z m3373 19 c0 -2 -10 -12 -22 -23 l-23 -19 19 23 c18 21 26
27 26 19z m-2253 -44 c-3 -10 -5 -4 -5 12 0 17 2 24 5 18 2 -7 2 -21 0 -30z
m167 -22 c-6 -57 -5 -59 17 -64 22 -4 22 -4 -3 -6 -24 -1 -28 3 -28 27 0 34
11 102 17 102 2 0 1 -27 -3 -59z m2166 50 c0 -5 -9 -19 -20 -32 l-20 -24 17
32 c19 34 23 39 23 24z m-4260 -5 c0 -2 -8 -10 -17 -17 -16 -13 -17 -12 -4 4
13 16 21 21 21 13z m1480 0 c0 -2 -7 -7 -16 -10 -8 -3 -12 -2 -9 4 6 10 25 14
25 6z m365 -6 c3 -6 -1 -7 -9 -4 -18 7 -21 14 -7 14 6 0 13 -4 16 -10z m40
-20 c3 -6 -1 -7 -9 -4 -18 7 -21 14 -7 14 6 0 13 -4 16 -10z m1995 7 c0 -2
-12 -14 -27 -28 l-28 -24 24 28 c23 25 31 32 31 24z m-3083 -79 c-2 -13 -4 -3
-4 22 0 25 2 35 4 23 2 -13 2 -33 0 -45z m3293 52 c-8 -5 -19 -10 -25 -10 -5
0 -3 5 5 10 8 5 20 10 25 10 6 0 3 -5 -5 -10z m-2700 -4 c0 -2 -8 -10 -17 -17
-16 -13 -17 -12 -4 4 13 16 21 21 21 13z m2830 -9 c0 -2 -10 -12 -22 -23 l-23
-19 19 23 c18 21 26 27 26 19z m190 -1 c0 -2 -8 -10 -17 -17 -16 -13 -17 -12
-4 4 13 16 21 21 21 13z m-4063 -53 c-3 -10 -5 -2 -5 17 0 19 2 27 5 18 2 -10
2 -26 0 -35z m3670 41 c-3 -3 -12 -4 -19 -1 -8 3 -5 6 6 6 11 1 17 -2 13 -5z
m-40 -10 c-3 -3 -12 -4 -19 -1 -8 3 -5 6 6 6 11 1 17 -2 13 -5z m-74 -11 c-13
-2 -35 -2 -50 0 -16 2 -5 4 22 4 28 0 40 -2 28 -4z m-3216 -35 c-3 -8 -6 -5
-6 6 -1 11 2 17 5 13 3 -3 4 -12 1 -19z m1123 0 c35 -18 45 -28 45 -48 l0 -25
-96 4 c-101 3 -150 -11 -191 -56 -43 -47 -63 -114 -62 -213 0 -118 20 -185 79
-276 25 -38 45 -78 45 -91 0 -54 -128 -12 -182 59 -160 210 -121 528 77 630
59 31 83 36 165 37 60 1 85 -4 120 -21z m1282 -8 c3 -16 1 -30 -4 -30 -4 0 -8
14 -8 30 0 17 2 30 4 30 2 0 6 -13 8 -30z m1258 26 c0 -3 -15 -14 -32 -26
l-33 -22 30 26 c31 27 35 29 35 22z m-4450 -26 c-6 -11 -13 -20 -16 -20 -2 0
0 9 6 20 6 11 13 20 16 20 2 0 0 -9 -6 -20z m2288 13 c-10 -2 -26 -2 -35 0
-10 3 -2 5 17 5 19 0 27 -2 18 -5z m-878 -7 c0 -2 -8 -10 -17 -17 -16 -13 -17
-12 -4 4 13 16 21 21 21 13z m927 -2 c-3 -3 -12 -4 -19 -1 -8 3 -5 6 6 6 11 1
17 -2 13 -5z m1913 3 c0 -2 -10 -12 -22 -23 l-23 -19 19 23 c18 21 26 27 26
19z m-3363 -39 c-3 -7 -5 -2 -5 12 0 14 2 19 5 13 2 -7 2 -19 0 -25z m-430 0
c-3 -8 -6 -5 -6 6 -1 11 2 17 5 13 3 -3 4 -12 1 -19z m1968 2 c3 -6 -1 -7 -9
-4 -18 7 -21 14 -7 14 6 0 13 -4 16 -10z m902 4 c-3 -3 -12 -4 -19 -1 -8 3 -5
6 6 6 11 1 17 -2 13 -5z m-1957 -24 c-6 -11 -13 -20 -16 -20 -2 0 0 9 6 20 6
11 13 20 16 20 2 0 0 -9 -6 -20z m2820 5 c-7 -9 -15 -13 -19 -10 -3 3 1 10 9
15 21 14 24 12 10 -5z m170 10 c0 -2 -10 -9 -22 -15 -22 -11 -22 -10 -4 4 21
17 26 19 26 11z m-1895 -15 c3 -6 -1 -7 -9 -4 -18 7 -21 14 -7 14 6 0 13 -4
16 -10z m985 6 c0 -2 -7 -7 -16 -10 -8 -3 -12 -2 -9 4 6 10 25 14 25 6z
m-2976 -41 c5 -22 4 -26 -4 -15 -5 8 -10 24 -10 34 0 26 6 18 14 -19z m345
-15 c0 -9 -4 -8 -9 5 -5 11 -9 27 -9 35 0 9 4 8 9 -5 5 -11 9 -27 9 -35z m78
3 c-3 -10 -5 -2 -5 17 0 19 2 27 5 18 2 -10 2 -26 0 -35z m3393 23 c0 -2 -7
-7 -16 -10 -8 -3 -12 -2 -9 4 6 10 25 14 25 6z m-2949 -33 c-12 -20 -14 -14
-5 12 4 9 9 14 11 11 3 -2 0 -13 -6 -23z m1194 7 c10 -11 16 -20 13 -20 -3 0
-13 9 -23 20 -10 11 -16 20 -13 20 3 0 13 -9 23 -20z m1350 -5 c-5 -2 -53 -5
-105 -8 -52 -2 -84 -1 -70 4 24 7 196 11 175 4z m-2005 -8 c0 -2 -12 -14 -27
-28 l-28 -24 24 28 c23 25 31 32 31 24z m2047 -3 c-3 -3 -12 -4 -19 -1 -8 3
-5 6 6 6 11 1 17 -2 13 -5z m-3980 -36 c-3 -7 -5 -2 -5 12 0 14 2 19 5 13 2
-7 2 -19 0 -25z m4086 1 c20 -11 37 -21 37 -24 0 -4 -111 44 -120 53 -9 9 45
-11 83 -29z m-3533 -14 c0 -5 -5 -3 -10 5 -5 8 -10 20 -10 25 0 6 5 3 10 -5 5
-8 10 -19 10 -25z m821 4 c-5 -13 -10 -19 -10 -12 -1 15 10 45 15 40 3 -2 0
-15 -5 -28z m939 10 c0 -6 9 -8 21 -4 16 5 19 4 14 -5 -5 -9 -1 -10 15 -5 17
5 21 4 15 -6 -6 -9 -3 -10 11 -5 10 4 15 4 11 0 -3 -4 7 -22 23 -41 55 -62 33
-85 -59 -59 -155 43 -258 -5 -323 -150 -11 -26 -23 -71 -27 -98 -5 -42 -9 -51
-26 -51 -14 0 -21 8 -24 25 -3 23 -4 24 -12 5 -4 -12 -6 17 -4 67 3 85 28 178
46 178 5 0 8 3 7 8 -2 4 13 23 32 42 28 27 29 29 5 10 l-30 -25 28 31 c16 17
36 31 45 30 9 0 16 5 14 12 -1 8 2 11 7 8 5 -3 24 0 41 8 22 9 28 15 19 19 -8
4 4 4 26 2 30 -4 35 -3 20 4 -15 7 -4 10 43 10 38 1 62 -3 62 -10z m1359 7
c-2 -2 -15 -9 -29 -15 -24 -11 -24 -11 -6 3 16 13 49 24 35 12z m-1529 -20 c0
-2 -7 -7 -16 -10 -8 -3 -12 -2 -9 4 6 10 25 14 25 6z m-2153 -128 c-2 -24 -4
-5 -4 42 0 47 2 66 4 43 2 -24 2 -62 0 -85z m1877 97 c-9 -14 -18 -25 -21 -25
-5 0 5 18 20 38 17 22 18 13 1 -13z m1741 15 c-3 -5 -12 -10 -18 -10 -7 0 -6
4 3 10 19 12 23 12 15 0z m-3035 -35 c0 -5 -5 -3 -10 5 -5 8 -10 20 -10 25 0
6 5 3 10 -5 5 -8 10 -19 10 -25z m2115 15 c10 -11 16 -20 13 -20 -3 0 -13 9
-23 20 -10 11 -16 20 -13 20 3 0 13 -9 23 -20z m628 13 c-7 -2 -19 -2 -25 0
-7 3 -2 5 12 5 14 0 19 -2 13 -5z m-3030 -18 c-3 -9 -8 -14 -10 -11 -3 3 -2 9
2 15 9 16 15 13 8 -4z m3107 -11 c0 -2 -9 0 -20 6 -11 6 -20 13 -20 16 0 2 9
0 20 -6 11 -6 20 -13 20 -16z m-3043 -31 c-3 -10 -5 -2 -5 17 0 19 2 27 5 18
2 -10 2 -26 0 -35z m1010 25 c-3 -8 -6 -5 -6 6 -1 11 2 17 5 13 3 -3 4 -12 1
-19z m2824 5 c13 -16 12 -17 -3 -4 -10 7 -18 15 -18 17 0 8 8 3 21 -13z
m-1631 -80 c0 -8 -9 0 -50 45 l-45 47 48 -45 c26 -24 47 -45 47 -47z m441 69
c-5 -9 -19 -26 -32 -37 -17 -15 -15 -10 7 17 32 41 40 48 25 20z m349 -4 c53
-37 73 -71 78 -136 5 -65 -18 -126 -44 -120 -9 2 -25 33 -39 73 -28 83 -68
125 -120 125 -48 0 -61 26 -26 56 36 32 106 32 151 2z m85 -8 c10 -11 16 -20
13 -20 -3 0 -13 9 -23 20 -10 11 -16 20 -13 20 3 0 13 -9 23 -20z m1078 -57
c218 -166 487 -462 637 -703 122 -195 256 -512 304 -717 l14 -63 -62 0 c-148
0 -256 -110 -256 -260 0 -112 48 -179 139 -196 51 -10 134 13 184 51 l44 34 7
-46 c33 -243 -41 -729 -159 -1049 -41 -111 -157 -358 -172 -367 -6 -4 -21 17
-34 44 -79 170 -281 236 -509 167 -88 -27 -138 -58 -199 -123 -99 -104 -143
-258 -122 -420 25 -183 98 -317 208 -382 43 -25 43 -26 26 -45 -10 -11 -67
-58 -128 -103 -444 -336 -984 -551 -1585 -630 -138 -18 -560 -32 -661 -21
l-64 7 -1 117 c-2 191 -42 300 -146 398 -100 94 -180 124 -328 124 -215 -1
-380 -91 -458 -250 -18 -36 -35 -89 -39 -118 -3 -28 -9 -52 -13 -52 -14 0
-200 84 -319 145 -215 110 -456 273 -611 413 l-55 50 43 11 c83 23 152 109
171 214 31 169 -84 428 -239 539 -114 82 -248 97 -371 42 -55 -25 -129 -90
-129 -114 0 -56 -113 161 -185 354 -141 381 -194 827 -145 1227 40 318 155
665 312 939 94 163 154 246 313 437 l20 25 33 -46 33 -45 -47 -63 c-108 -147
-149 -271 -142 -433 15 -315 251 -589 713 -827 83 -43 145 -78 138 -78 -21 0
-82 -60 -109 -105 -59 -101 -34 -202 63 -257 138 -78 331 -45 400 68 27 45 30
102 8 144 -9 17 -13 30 -9 30 3 0 48 -11 99 -25 51 -14 151 -38 223 -54 l129
-29 74 -62 c129 -108 280 -167 487 -190 212 -23 448 38 576 150 29 26 39 28
161 35 110 6 140 4 195 -11 44 -12 101 -18 175 -19 95 0 122 4 199 29 53 18
117 48 155 74 56 38 158 79 168 68 2 -2 -1 -23 -6 -47 -37 -159 13 -349 120
-458 188 -191 558 -186 751 11 92 94 138 243 119 378 -21 143 -125 302 -236
361 -41 22 -57 39 -36 39 4 0 62 36 127 79 326 216 489 458 489 726 0 250
-139 464 -436 671 -38 26 -47 41 -68 100 -12 38 -38 95 -57 127 -18 31 -31 57
-28 57 3 0 51 -35 107 -77z m-3156 -5 c-2 -13 -4 -3 -4 22 0 25 2 35 4 23 2
-13 2 -33 0 -45z m-1090 10 c-3 -7 -5 -2 -5 12 0 14 2 19 5 13 2 -7 2 -19 0
-25z m1554 -5 c-12 -20 -14 -14 -5 12 4 9 9 14 11 11 3 -2 0 -13 -6 -23z
m2423 15 c-2 -4 5 -9 15 -13 28 -9 98 -117 119 -184 27 -89 24 -265 -7 -360
-82 -250 -374 -477 -640 -498 -95 -7 -210 10 -263 40 -78 43 -103 58 -85 53
12 -4 17 0 17 14 0 25 22 28 109 13 247 -42 535 109 681 357 60 102 75 159 75
280 0 93 -3 112 -27 163 -15 32 -37 71 -49 88 -28 39 -19 58 24 56 19 -1 33
-5 31 -9z m-1084 -1 c0 -2 -12 -14 -27 -28 l-28 -24 24 28 c23 25 31 32 31 24z
m-392 -32 c-3 -3 -9 2 -12 12 -6 14 -5 15 5 6 7 -7 10 -15 7 -18z m879 -17
c-3 -7 -5 -2 -5 12 0 14 2 19 5 13 2 -7 2 -19 0 -25z m-737 8 c0 -2 -8 -10
-17 -17 -16 -13 -17 -12 -4 4 13 16 21 21 21 13z m-115 -37 c9 -17 15 -33 13
-35 -3 -2 -12 12 -21 31 -21 43 -13 47 8 4z m-2788 -11 c-3 -7 -5 -2 -5 12 0
14 2 19 5 13 2 -7 2 -19 0 -25z m370 10 c-3 -8 -6 -5 -6 6 -1 11 2 17 5 13 3
-3 4 -12 1 -19z m3110 -40 c-2 -13 -4 -5 -4 17 -1 22 1 32 4 23 2 -10 2 -28 0
-40z m-2602 22 c10 -11 16 -20 13 -20 -3 0 -13 9 -23 20 -10 11 -16 20 -13 20
3 0 13 -9 23 -20z m472 -42 c-2 -13 -4 -3 -4 22 0 25 2 35 4 23 2 -13 2 -33 0
-45z m440 30 c-3 -7 -5 -2 -5 12 0 14 2 19 5 13 2 -7 2 -19 0 -25z m-1107 -8
c12 -16 19 -30 16 -30 -2 0 -14 14 -26 30 -12 17 -19 30 -16 30 2 0 14 -13 26
-30z m-652 -65 c0 -5 -6 4 -13 20 -8 17 -14 37 -14 45 0 8 7 -1 14 -20 7 -19
13 -39 13 -45z m229 43 c-3 -7 -5 -2 -5 12 0 14 2 19 5 13 2 -7 2 -19 0 -25z
m2227 3 c3 -4 -6 -6 -19 -3 -14 2 -25 6 -25 8 0 8 39 4 44 -5z m144 -16 c-3
-3 -9 2 -12 12 -6 14 -5 15 5 6 7 -7 10 -15 7 -18z m392 22 c0 -2 -10 -12 -22
-23 l-23 -19 19 23 c18 21 26 27 26 19z m617 -49 c-3 -7 -5 -2 -5 12 0 14 2
19 5 13 2 -7 2 -19 0 -25z m-1860 -55 c-2 -16 -4 -3 -4 27 0 30 2 43 4 28 2
-16 2 -40 0 -55z m733 42 c0 -5 -5 -3 -10 5 -5 8 -10 20 -10 25 0 6 5 3 10 -5
5 -8 10 -19 10 -25z m-1775 5 c10 -11 16 -20 13 -20 -3 0 -13 9 -23 20 -10 11
-16 20 -13 20 3 0 13 -9 23 -20z m622 -2 c-3 -8 -6 -5 -6 6 -1 11 2 17 5 13 3
-3 4 -12 1 -19z m2104 -5 c-12 -20 -14 -14 -5 12 4 9 9 14 11 11 3 -2 0 -13
-6 -23z m-2475 -15 l29 -33 -32 29 c-18 17 -33 31 -33 33 0 8 8 1 36 -29z
m-555 5 c13 -16 12 -17 -3 -4 -10 7 -18 15 -18 17 0 8 8 3 21 -13z m2006 -15
c-3 -7 -5 -2 -5 12 0 14 2 19 5 13 2 -7 2 -19 0 -25z m-2133 -35 c9 -18 14
-33 12 -33 -6 0 -36 55 -36 66 0 11 5 3 24 -33z m1075 -10 c1 -9 -16 -12 -56
-11 l-58 2 53 3 c51 4 52 5 47 31 -4 23 -4 24 4 7 5 -11 10 -26 10 -32z m-909
12 c13 -14 21 -25 18 -25 -2 0 -15 11 -28 25 -13 14 -21 25 -18 25 2 0 15 -11
28 -25z m-400 -5 c6 -11 8 -20 6 -20 -3 0 -10 9 -16 20 -6 11 -8 20 -6 20 3 0
10 -9 16 -20z m2609 -25 c0 -5 -4 -3 -9 5 -5 8 -9 22 -9 30 0 16 17 -16 18
-35z m179 25 c-7 -10 -14 -17 -17 -15 -4 4 18 35 25 35 2 0 -1 -9 -8 -20z
m753 -7 c-12 -20 -14 -14 -5 12 4 9 9 14 11 11 3 -2 0 -13 -6 -23z m-2556 -3
c10 -11 16 -20 13 -20 -3 0 -13 9 -23 20 -10 11 -16 20 -13 20 3 0 13 -9 23
-20z m1495 -25 c0 -5 -5 -3 -10 5 -5 8 -10 20 -10 25 0 6 5 3 10 -5 5 -8 10
-19 10 -25z m880 32 c0 -2 -19 -21 -42 -42 l-43 -40 40 43 c36 39 45 47 45 39z
m-2197 -24 c-13 -2 -33 -2 -45 0 -13 2 -3 4 22 4 25 0 35 -2 23 -4z m-1132
-20 c13 -16 12 -17 -3 -4 -17 13 -22 21 -14 21 2 0 10 -8 17 -17z m430 0 c13
-16 12 -17 -3 -4 -17 13 -22 21 -14 21 2 0 10 -8 17 -17z m602 10 c-7 -2 -19
-2 -25 0 -7 3 -2 5 12 5 14 0 19 -2 13 -5z m1324 -15 c-3 -8 -6 -5 -6 6 -1 11
2 17 5 13 3 -3 4 -12 1 -19z m1133 2 c-6 -11 -13 -20 -16 -20 -2 0 0 9 6 20 6
11 13 20 16 20 2 0 0 -9 -6 -20z m-2710 -25 c13 -14 21 -25 18 -25 -2 0 -15
11 -28 25 -13 14 -21 25 -18 25 2 0 15 -11 28 -25z m914 -10 c5 -22 4 -26 -4
-15 -5 8 -10 24 -10 34 0 26 6 18 14 -19z m1124 28 c-10 -2 -26 -2 -35 0 -10
3 -2 5 17 5 19 0 27 -2 18 -5z m102 -13 c11 -8 7 -9 -15 -4 -37 8 -45 14 -19
14 10 0 26 -5 34 -10z m-2820 -87 c0 -8 -9 0 -50 45 l-45 47 48 -45 c26 -24
47 -45 47 -47z m395 69 c-3 -3 -11 0 -18 7 -9 10 -8 11 6 5 10 -3 15 -9 12
-12z m1872 -4 c-3 -8 -6 -5 -6 6 -1 11 2 17 5 13 3 -3 4 -12 1 -19z m-500 -10
c-3 -8 -6 -5 -6 6 -1 11 2 17 5 13 3 -3 4 -12 1 -19z m612 -23 c0 -5 -4 -3 -9
5 -5 8 -9 22 -9 30 0 16 17 -16 18 -35z m112 22 c-10 -9 -11 -8 -5 6 3 10 9
15 12 12 3 -3 0 -11 -7 -18z m384 13 c3 -6 -1 -7 -9 -4 -18 7 -21 14 -7 14 6
0 13 -4 16 -10z m-2196 -14 c-2 -2 -15 -9 -29 -15 -24 -11 -24 -11 -6 3 16 13
49 24 35 12z m2247 -12 c18 -14 18 -14 -6 -3 -31 14 -36 19 -24 19 6 0 19 -7
30 -16z m-2735 -11 c13 -16 12 -17 -3 -4 -10 7 -18 15 -18 17 0 8 8 3 21 -13z
m296 11 c-3 -3 -12 -4 -19 -1 -8 3 -5 6 6 6 11 1 17 -2 13 -5z m2823 -39 c-24
-25 -46 -45 -49 -45 -3 0 15 20 39 45 24 25 46 45 49 45 3 0 -15 -20 -39 -45z
m-2783 29 c-3 -3 -12 -4 -19 -1 -8 3 -5 6 6 6 11 1 17 -2 13 -5z m1262 -24
c11 -24 11 -24 -3 -6 -9 11 -16 24 -16 30 0 12 5 7 19 -24z m-1181 13 c-10 -2
-26 -2 -35 0 -10 3 -2 5 17 5 19 0 27 -2 18 -5z m1005 -13 c3 -11 1 -18 -4
-14 -5 3 -9 12 -9 20 0 20 7 17 13 -6z m1358 3 c13 -16 12 -17 -3 -4 -17 13
-22 21 -14 21 2 0 10 -8 17 -17z m-694 -40 c-3 -10 -5 -2 -5 17 0 19 2 27 5
18 2 -10 2 -26 0 -35z m125 33 c7 4 8 2 4 -4 -11 -18 -26 -14 -25 6 0 10 3 12
6 4 2 -6 10 -9 15 -6z m-2157 -16 c10 -11 16 -20 13 -20 -3 0 -13 9 -23 20
-10 11 -16 20 -13 20 3 0 13 -9 23 -20z m-214 -7 c13 -16 12 -17 -3 -4 -10 7
-18 15 -18 17 0 8 8 3 21 -13z m1892 0 c-7 -2 -21 -2 -30 0 -10 3 -4 5 12 5
17 0 24 -2 18 -5z m-725 -10 c-32 -2 -84 -2 -115 0 -32 2 -6 3 57 3 63 0 89
-1 58 -3z m785 0 c-7 -2 -21 -2 -30 0 -10 3 -4 5 12 5 17 0 24 -2 18 -5z
m-1818 -71 c-4 -5 -76 33 -100 52 -11 9 8 2 42 -16 34 -18 60 -34 58 -36z
m834 64 c-2 -2 -29 -6 -59 -9 -36 -4 -46 -3 -30 3 25 8 97 13 89 6z m1081 -16
c18 -12 2 -12 -25 0 -13 6 -15 9 -5 9 8 0 22 -4 30 -9z m1165 0 c-3 -5 -16
-15 -28 -21 -19 -9 -19 -8 3 10 28 23 34 26 25 11z m-2920 -18 c-3 -3 -11 0
-18 7 -9 10 -8 11 6 5 10 -3 15 -9 12 -12z m1963 -58 c-3 -24 -4 -24 -23 -10
-16 13 -17 15 -2 10 14 -5 17 1 18 37 2 30 3 35 6 17 2 -16 3 -39 1 -54z m416
65 c-4 -8 4 -9 27 -4 23 4 29 3 20 -3 -11 -8 -10 -11 7 -16 32 -10 93 -83 85
-102 -4 -11 -13 -14 -32 -9 -134 32 -188 26 -251 -31 -31 -28 -41 -47 -50 -90
-9 -43 -15 -54 -31 -54 -38 0 -38 121 1 187 25 42 25 50 3 32 -15 -11 -15 -10
1 8 10 13 22 20 27 18 4 -3 12 3 18 12 6 10 11 14 11 9 0 -5 9 -1 20 9 29 26
158 57 144 34z m-564 -9 c18 -12 2 -12 -25 0 -13 6 -15 9 -5 9 8 0 22 -4 30
-9z m-1775 -18 c-3 -3 -11 0 -18 7 -9 10 -8 11 6 5 10 -3 15 -9 12 -12z m2445
8 c8 -5 11 -10 5 -10 -5 0 -17 5 -25 10 -8 5 -10 10 -5 10 6 0 17 -5 25 -10z
m-600 -20 c19 -11 31 -19 25 -19 -5 0 -26 8 -45 19 -19 11 -30 19 -25 19 6 0
26 -8 45 -19z m955 0 c-3 -5 -12 -10 -18 -10 -7 0 -6 4 3 10 19 12 23 12 15 0z
m-2725 -4 c0 -11 -19 -15 -25 -6 -3 5 1 10 9 10 9 0 16 -2 16 -4z m-200 -16
c18 -12 2 -12 -25 0 -13 6 -15 9 -5 9 8 0 22 -4 30 -9z m450 -5 c0 -2 -10 -9
-22 -15 -22 -11 -22 -10 -4 4 21 17 26 19 26 11z m715 -13 c-3 -3 -11 0 -18 7
-9 10 -8 11 6 5 10 -3 15 -9 12 -12z m1511 -14 l29 -33 -32 29 c-31 28 -38 36
-30 36 2 0 16 -15 33 -32z m194 22 c0 -5 -2 -10 -4 -10 -3 0 -8 5 -11 10 -3 6
-1 10 4 10 6 0 11 -4 11 -10z m-2813 -6 c-3 -3 -12 -4 -19 -1 -8 3 -5 6 6 6
11 1 17 -2 13 -5z m40 -10 c-3 -3 -12 -4 -19 -1 -8 3 -5 6 6 6 11 1 17 -2 13
-5z m1652 -35 c121 -28 316 -145 362 -218 16 -24 29 -49 29 -53 0 -13 -45 -9
-66 7 -10 8 -25 15 -32 15 -8 0 -26 9 -42 20 -15 11 -30 17 -34 13 -3 -3 -6
-1 -6 6 0 7 -4 9 -10 6 -5 -3 -10 -2 -10 4 0 6 -7 7 -17 4 -10 -4 -14 -2 -10
4 7 11 -74 50 -163 79 -41 13 -91 18 -195 18 -77 1 -146 5 -152 9 -7 5 -13 19
-13 32 0 27 32 53 83 66 39 10 215 3 276 -12z m-1389 -4 c-7 -9 -14 -28 -15
-43 -1 -15 -12 -54 -25 -87 -53 -143 -33 -267 67 -406 58 -82 212 -144 388
-158 100 -8 257 4 310 22 22 8 46 12 53 10 6 -3 12 0 12 6 0 6 7 7 17 4 10 -4
14 -2 10 4 -3 5 5 10 21 10 15 0 63 16 106 36 91 43 111 45 143 15 28 -27 31
-78 4 -102 -24 -22 -170 -81 -251 -101 -36 -9 -73 -21 -83 -26 -10 -5 -22 -7
-26 -4 -5 2 -58 -2 -117 -10 -111 -16 -352 -17 -330 -2 6 5 -1 6 -17 2 -21 -4
-27 -3 -21 6 5 9 -1 10 -20 5 -20 -5 -26 -4 -20 5 5 9 2 10 -9 6 -10 -4 -17
-2 -17 4 0 6 -7 9 -15 5 -8 -3 -15 -1 -15 5 0 6 -4 7 -10 4 -5 -3 -10 -2 -10
3 0 5 -6 9 -14 9 -20 0 -113 61 -120 79 -3 8 -10 13 -14 10 -5 -3 -24 11 -43
31 -19 20 -28 33 -21 29 18 -11 15 0 -12 42 -47 72 -69 158 -70 275 -1 59 2
107 6 107 5 0 8 8 8 18 0 31 58 119 107 161 51 43 64 51 43 26z m853 0 c-3 -9
-8 -14 -10 -11 -3 3 -2 9 2 15 9 16 15 13 8 -4z m-26 -67 c-3 -8 -6 -5 -6 6
-1 11 2 17 5 13 3 -3 4 -12 1 -19z m181 -3 c-6 -14 -13 -23 -15 -21 -5 5 15
46 22 46 3 0 -1 -11 -7 -25z m1581 -34 l26 -23 -32 18 c-18 10 -33 21 -33 25
0 4 -3 16 -6 26 -4 15 -3 14 6 -2 7 -11 24 -31 39 -44z m-199 14 c0 -5 -5 -3
-10 5 -5 8 -10 20 -10 25 0 6 5 3 10 -5 5 -8 10 -19 10 -25z m-563 3 c-3 -8
-6 -5 -6 6 -1 11 2 17 5 13 3 -3 4 -12 1 -19z m-1010 -65 c-3 -10 -5 -2 -5 17
0 19 2 27 5 18 2 -10 2 -26 0 -35z m1580 -25 c-2 -13 -4 -3 -4 22 0 25 2 35 4
23 2 -13 2 -33 0 -45z m273 32 c8 -5 11 -10 5 -10 -5 0 -17 5 -25 10 -8 5 -10
10 -5 10 6 0 17 -5 25 -10z m-843 -22 c-3 -8 -6 -5 -6 6 -1 11 2 17 5 13 3 -3
4 -12 1 -19z m918 2 c25 -11 -1 -11 -35 0 -20 6 -21 8 -5 8 11 0 29 -3 40 -8z
m62 -16 c-3 -3 -12 -4 -19 -1 -8 3 -5 6 6 6 11 1 17 -2 13 -5z m272 -48 l-34
-31 28 31 c15 16 27 37 28 45 0 11 2 11 6 0 3 -7 -10 -27 -28 -45z m-2252 12
c-3 -7 -5 -2 -5 12 0 14 2 19 5 13 2 -7 2 -19 0 -25z m183 -3 c0 -5 -5 -3 -10
5 -5 8 -10 20 -10 25 0 6 5 3 10 -5 5 -8 10 -19 10 -25z m839 -10 c0 -5 -4 -3
-9 5 -5 8 -9 22 -9 30 0 16 17 -16 18 -35z m1014 38 c-7 -2 -21 -2 -30 0 -10
3 -4 5 12 5 17 0 24 -2 18 -5z m90 -10 c-7 -2 -21 -2 -30 0 -10 3 -4 5 12 5
17 0 24 -2 18 -5z m-572 -40 c-12 -20 -14 -14 -5 12 4 9 9 14 11 11 3 -2 0
-13 -6 -23z m-2554 -15 c-3 -8 -6 -5 -6 6 -1 11 2 17 5 13 3 -3 4 -12 1 -19z
m2106 -81 c27 -27 40 -44 29 -38 -24 13 -87 83 -101 113 -11 21 -10 21 6 -2 9
-14 39 -47 66 -73z m627 79 c0 -3 -4 -8 -10 -11 -5 -3 -10 -1 -10 4 0 6 5 11
10 11 6 0 10 -2 10 -4z m-1494 -38 l29 -33 -32 29 c-31 28 -38 36 -30 36 2 0
16 -15 33 -32z m1534 22 c8 -5 11 -10 5 -10 -5 0 -17 5 -25 10 -8 5 -10 10 -5
10 6 0 17 -5 25 -10z m-2783 -32 c-3 -7 -5 -2 -5 12 0 14 2 19 5 13 2 -7 2
-19 0 -25z m2830 16 c-3 -3 -12 -4 -19 -1 -8 3 -5 6 6 6 11 1 17 -2 13 -5z
m308 -4 c-11 -5 -29 -8 -40 -8 -16 0 -15 2 5 8 34 11 60 11 35 0z m-605 -3 c0
-2 -12 -14 -27 -28 l-28 -24 24 28 c23 25 31 32 31 24z m343 -4 c-7 -2 -19 -2
-25 0 -7 3 -2 5 12 5 14 0 19 -2 13 -5z m145 -10 c-15 -2 -42 -2 -60 0 -18 2
-6 4 27 4 33 0 48 -2 33 -4z m-1163 -43 c21 -22 37 -40 34 -40 -3 0 -23 18
-44 40 -21 22 -37 40 -34 40 3 0 23 -18 44 -40z m865 10 c8 -5 11 -10 5 -10
-5 0 -17 5 -25 10 -8 5 -10 10 -5 10 6 0 17 -5 25 -10z m-1350 -36 c0 -2 -13
2 -30 11 -16 9 -30 18 -30 21 0 2 14 -2 30 -11 17 -9 30 -18 30 -21z m-279 9
c13 -16 12 -17 -3 -4 -17 13 -22 21 -14 21 2 0 10 -8 17 -17z m1369 12 c0 -2
-10 -9 -22 -15 -22 -11 -22 -10 -4 4 21 17 26 19 26 11z m-50 -29 c0 -2 -7 -7
-16 -10 -8 -3 -12 -2 -9 4 6 10 25 14 25 6z m-2402 -66 c0 -9 -3 -7 -8 5 -5
11 -8 29 -8 40 0 16 2 15 8 -5 4 -14 8 -32 8 -40z m1092 57 c0 -2 -10 -12 -22
-23 l-23 -19 19 23 c18 21 26 27 26 19z m1147 -13 c-3 -3 -12 -4 -19 -1 -8 3
-5 6 6 6 11 1 17 -2 13 -5z m93 -4 c-14 -4 -38 -8 -55 -8 -29 1 -29 1 5 8 50
11 83 11 50 0z m-1290 -24 c0 -2 -8 -10 -17 -17 -16 -13 -17 -12 -4 4 13 16
21 21 21 13z m557 -22 c-3 -3 -12 -4 -19 -1 -8 3 -5 6 6 6 11 1 17 -2 13 -5z
m-597 -9 c0 -2 -10 -9 -22 -15 -22 -11 -22 -10 -4 4 21 17 26 19 26 11z m687
-11 c-3 -3 -12 -4 -19 -1 -8 3 -5 6 6 6 11 1 17 -2 13 -5z m-437 -30 c0 -3 -8
-1 -17 5 -14 7 -24 4 -43 -12 l-25 -22 24 27 c19 22 28 25 42 17 11 -5 19 -12
19 -15z m498 19 c-10 -2 -26 -2 -35 0 -10 3 -2 5 17 5 19 0 27 -2 18 -5z m137
-3 c-3 -5 -27 -9 -53 -8 l-47 1 50 7 c28 4 51 8 53 8 2 1 0 -2 -3 -8z m-1856
-40 c11 -24 11 -24 -3 -6 -9 11 -16 24 -16 30 0 12 5 7 19 -24z m2507 -12 l29
-33 -30 26 c-16 15 -37 24 -45 22 -13 -4 -13 -3 0 6 8 6 15 11 16 11 0 0 13
-15 30 -32z m974 22 c11 -8 7 -9 -15 -4 -37 8 -45 14 -19 14 10 0 26 -5 34
-10z m-3215 -10 c25 -11 -1 -11 -35 0 -20 6 -21 8 -5 8 11 0 29 -3 40 -8z
m2170 -10 c-3 -5 -12 -10 -18 -10 -7 0 -6 4 3 10 19 12 23 12 15 0z m328 -39
c7 -8 -7 -2 -30 14 -24 15 -43 30 -43 32 0 7 61 -31 73 -46z m-2368 30 c34 -7
35 -9 10 -9 -16 0 -43 4 -60 8 -42 11 -1 11 50 1z m720 -1 c-3 -5 -16 -15 -28
-21 -19 -9 -19 -8 3 10 28 23 34 26 25 11z m-352 -7 c-7 -2 -19 -2 -25 0 -7 3
-2 5 12 5 14 0 19 -2 13 -5z m1935 -18 c-3 -3 -9 2 -12 12 -6 14 -5 15 5 6 7
-7 10 -15 7 -18z m857 5 c10 -11 16 -20 13 -20 -3 0 -13 9 -23 20 -10 11 -16
20 -13 20 3 0 13 -9 23 -20z m-3057 3 c-10 -2 -26 -2 -35 0 -10 3 -2 5 17 5
19 0 27 -2 18 -5z m210 0 c-10 -2 -26 -2 -35 0 -10 3 -2 5 17 5 19 0 27 -2 18
-5z m1449 1 c-3 -3 -12 -4 -19 -1 -8 3 -5 6 6 6 11 1 17 -2 13 -5z m210 0 c-3
-3 -12 -4 -19 -1 -8 3 -5 6 6 6 11 1 17 -2 13 -5z m880 0 c-3 -3 -12 -4 -19
-1 -8 3 -5 6 6 6 11 1 17 -2 13 -5z m-2639 -11 c-10 -2 -28 -2 -40 0 -13 2 -5
4 17 4 22 1 32 -1 23 -4z m782 3 c0 -3 -4 -8 -10 -11 -5 -3 -10 -1 -10 4 0 6
5 11 10 11 6 0 10 -2 10 -4z m898 -3 c-21 -2 -55 -2 -75 0 -21 2 -4 4 37 4 41
0 58 -2 38 -4z m919 1 c-3 -3 -12 -4 -19 -1 -8 3 -5 6 6 6 11 1 17 -2 13 -5z
m-2147 -9 c0 -2 -10 -9 -22 -15 -22 -11 -22 -10 -4 4 21 17 26 19 26 11z
m2100 1 c0 -2 -11 -6 -25 -8 -14 -3 -25 -1 -25 3 0 5 11 9 25 9 14 0 25 -2 25
-4z m-431 -76 c0 -8 -7 1 -14 20 -18 46 -17 64 0 25 8 -16 14 -37 14 -45z
m162 -54 c21 -32 39 -67 39 -77 0 -11 4 -19 10 -19 5 0 7 -14 4 -32 -3 -19 -2
-28 3 -21 5 6 8 -23 9 -70 0 -54 -2 -74 -8 -57 -6 18 -7 14 -4 -17 2 -25 0
-43 -6 -43 -6 0 -8 -7 -4 -15 3 -8 1 -15 -5 -15 -6 0 -8 -4 -5 -9 3 -5 -6 -33
-21 -61 -50 -96 -159 -198 -197 -184 -22 8 -20 19 12 67 91 136 108 286 53
472 l-30 100 -2 -55 -3 -55 -3 52 c-3 35 1 63 12 84 15 27 21 31 51 27 l34 -4
-28 31 c-22 25 -21 24 11 -5 21 -19 56 -61 78 -94z m709 70 c0 -12 -5 -7 -19
24 -11 24 -11 24 3 6 9 -11 16 -24 16 -30z m-2275 24 c-3 -5 -16 -15 -28 -21
-19 -9 -19 -8 3 10 28 23 34 26 25 11z m1815 -10 c6 -11 8 -20 6 -20 -3 0 -10
9 -16 20 -6 11 -8 20 -6 20 3 0 10 -9 16 -20z m-1533 -6 c-3 -3 -12 -4 -19 -1
-8 3 -5 6 6 6 11 1 17 -2 13 -5z m46 -11 c-7 -2 -19 -2 -25 0 -7 3 -2 5 12 5
14 0 19 -2 13 -5z m90 -10 c-13 -2 -33 -2 -45 0 -13 2 -3 4 22 4 25 0 35 -2
23 -4z m47 -13 c0 -5 -2 -10 -4 -10 -3 0 -8 5 -11 10 -3 6 -1 10 4 10 6 0 11
-4 11 -10z m1381 -7 c13 -16 12 -17 -3 -4 -10 7 -18 15 -18 17 0 8 8 3 21 -13z
m436 -65 c-2 -18 -4 -6 -4 27 0 33 2 48 4 33 2 -15 2 -42 0 -60z m-1650 50
c-3 -8 -6 -5 -6 6 -1 11 2 17 5 13 3 -3 4 -12 1 -19z m630 0 c-3 -8 -6 -5 -6
6 -1 11 2 17 5 13 3 -3 4 -12 1 -19z m-810 -35 c-3 -10 -5 -4 -5 12 0 17 2 24
5 18 2 -7 2 -21 0 -30z m1428 7 c10 -11 16 -20 13 -20 -3 0 -13 9 -23 20 -10
11 -16 20 -13 20 3 0 13 -9 23 -20z m-1258 -12 c-3 -8 -6 -5 -6 6 -1 11 2 17
5 13 3 -3 4 -12 1 -19z m-492 -4 c-26 -20 -55 -36 -55 -30 0 5 63 46 70 46 3
-1 -4 -8 -15 -16z m1152 -51 c-3 -10 -5 -4 -5 12 0 17 2 24 5 18 2 -7 2 -21 0
-30z m931 25 c18 -18 14 -59 -7 -92 -11 -17 -18 -33 -15 -37 2 -4 -1 -11 -7
-15 -8 -5 -10 -2 -5 7 4 8 0 5 -9 -6 -9 -11 -19 -20 -23 -21 -4 0 -20 -6 -35
-12 -49 -21 -156 -15 -212 12 -86 40 -170 125 -147 148 8 8 22 4 49 -15 52
-35 118 -52 176 -43 34 5 47 12 48 24 0 10 3 12 6 5 6 -15 32 -4 76 33 31 26
85 32 105 12z m-1771 -95 c-2 -16 -4 -3 -4 27 0 30 2 43 4 28 2 -16 2 -40 0
-55z m170 -5 c-2 -18 -4 -6 -4 27 0 33 2 48 4 33 2 -15 2 -42 0 -60z m1396 75
c-7 -2 -19 -2 -25 0 -7 3 -2 5 12 5 14 0 19 -2 13 -5z m-716 -100 c-2 -16 -4
-3 -4 27 0 30 2 43 4 28 2 -16 2 -40 0 -55z m963 58 c-5 -11 -15 -23 -21 -27
-6 -3 -3 5 6 20 20 30 30 35 15 7z m-2250 6 c0 -1 -24 -25 -52 -52 l-53 -50
50 53 c46 48 55 57 55 49z m1394 -31 c-3 -15 -8 -25 -11 -23 -2 3 -1 17 3 31
3 15 8 25 11 23 2 -3 1 -17 -3 -31z m-1907 18 c-3 -3 -12 -4 -19 -1 -8 3 -5 6
6 6 11 1 17 -2 13 -5z m-324 -11 c-7 -2 -19 -2 -25 0 -7 3 -2 5 12 5 14 0 19
-2 13 -5z m270 0 c-7 -2 -21 -2 -30 0 -10 3 -4 5 12 5 17 0 24 -2 18 -5z
m-100 -10 c-29 -2 -77 -2 -105 0 -29 2 -6 3 52 3 58 0 81 -1 53 -3z m1114
-100 c-3 -10 -5 -4 -5 12 0 17 2 24 5 18 2 -7 2 -21 0 -30z m830 -10 c-3 -10
-5 -2 -5 17 0 19 2 27 5 18 2 -10 2 -26 0 -35z m-1545 -25 c-5 -90 -11 -96
-10 -10 1 39 4 72 8 72 3 0 5 -28 2 -62z m885 40 c-3 -8 -6 -5 -6 6 -1 11 2
17 5 13 3 -3 4 -12 1 -19z m-1017 -28 c-8 -5 -24 -9 -35 -9 -16 1 -16 2 5 9
35 11 48 11 30 0z m1027 -12 c-3 -8 -6 -5 -6 6 -1 11 2 17 5 13 3 -3 4 -12 1
-19z m-770 -55 c-3 -10 -5 -4 -5 12 0 17 2 24 5 18 2 -7 2 -21 0 -30z m622
-18 c0 -5 -4 -3 -9 5 -5 8 -9 22 -9 30 0 16 17 -16 18 -35z m-962 -7 c-3 -7
-5 -2 -5 12 0 14 2 19 5 13 2 -7 2 -19 0 -25z m1152 -15 c12 -24 19 -43 16
-43 -5 0 -45 75 -45 86 0 11 6 2 29 -43z m-795 -64 c4 -8 0 -5 -8 5 -9 11 -16
31 -15 45 1 24 2 24 8 -5 4 -17 11 -37 15 -45z m-367 9 c-2 -13 -4 -5 -4 17
-1 22 1 32 4 23 2 -10 2 -28 0 -40z m1007 -5 c9 -18 14 -33 12 -33 -6 0 -36
55 -36 66 0 11 5 3 24 -33z m211 -33 c10 -11 16 -20 13 -20 -3 0 -13 9 -23 20
-10 11 -16 20 -13 20 3 0 13 -9 23 -20z m-1208 -22 c-3 -7 -5 -2 -5 12 0 14 2
19 5 13 2 -7 2 -19 0 -25z m392 -7 c-2 -6 -10 2 -17 17 -11 25 -11 25 4 10 9
-9 15 -21 13 -27z m650 -21 l23 -35 -26 30 c-14 17 -26 34 -26 39 0 11 0 11
29 -34z m-748 13 c13 -16 12 -17 -3 -4 -17 13 -22 21 -14 21 2 0 10 -8 17 -17z
m965 -25 l29 -33 -32 29 c-31 28 -38 36 -30 36 2 0 16 -15 33 -32z m-938 -31
c80 -52 138 -73 247 -89 98 -14 205 3 297 46 64 30 83 32 92 10 17 -44 -68
-107 -202 -150 -77 -25 -102 -29 -212 -28 -107 0 -133 3 -183 23 -105 42 -197
131 -197 193 0 61 58 59 158 -5z m763 -14 c13 -16 12 -17 -3 -4 -10 7 -18 15
-18 17 0 8 8 3 21 -13z m230 0 c13 -16 12 -17 -3 -4 -10 7 -18 15 -18 17 0 8
8 3 21 -13z m69 -43 c8 -5 11 -10 5 -10 -5 0 -21 10 -35 21 -24 20 -5 13 30
-11z m-1305 -10 c10 -11 16 -20 13 -20 -3 0 -13 9 -23 20 -10 11 -16 20 -13
20 3 0 13 -9 23 -20z m955 -65 c-24 -25 -46 -45 -49 -45 -3 0 15 20 39 45 24
25 46 45 49 45 3 0 -15 -20 -39 -45z m-905 15 c10 -11 16 -20 13 -20 -3 0 -13
9 -23 20 -10 11 -16 20 -13 20 3 0 13 -9 23 -20z m1564 -6 c8 -7 -134 -2 -164
6 -16 4 13 5 65 2 52 -3 97 -6 99 -8z m44 9 c-7 -2 -19 -2 -25 0 -7 3 -2 5 12
5 14 0 19 -2 13 -5z m-1457 -101 c-5 -4 -86 36 -86 43 0 3 20 -5 45 -17 24
-12 43 -23 41 -26z m44 -12 c8 -5 11 -10 5 -10 -5 0 -17 5 -25 10 -8 5 -10 10
-5 10 6 0 17 -5 25 -10z m575 0 c-3 -5 -12 -10 -18 -10 -7 0 -6 4 3 10 19 12
23 12 15 0z m-528 -16 c-3 -3 -12 -4 -19 -1 -8 3 -5 6 6 6 11 1 17 -2 13 -5z
m40 -10 c-3 -3 -12 -4 -19 -1 -8 3 -5 6 6 6 11 1 17 -2 13 -5z m408 -4 c-11
-5 -27 -9 -35 -9 -9 0 -8 4 5 9 11 5 27 9 35 9 9 0 8 -4 -5 -9z m-368 -6 c-3
-3 -12 -4 -19 -1 -8 3 -5 6 6 6 11 1 17 -2 13 -5z m81 -11 c-10 -2 -26 -2 -35
0 -10 3 -2 5 17 5 19 0 27 -2 18 -5z m210 0 c-10 -2 -26 -2 -35 0 -10 3 -2 5
17 5 19 0 27 -2 18 -5z m-91 -10 c-20 -2 -52 -2 -70 0 -17 2 0 4 38 4 39 0 53
-2 32 -4z m-680 -2559 c-3 -3 -12 -4 -19 -1 -8 3 -5 6 6 6 11 1 17 -2 13 -5z
m160 -40 c-3 -3 -12 -4 -19 -1 -8 3 -5 6 6 6 11 1 17 -2 13 -5z m160 -30 c-3
-3 -12 -4 -19 -1 -8 3 -5 6 6 6 11 1 17 -2 13 -5z m230 -30 c-3 -3 -12 -4 -19
-1 -8 3 -5 6 6 6 11 1 17 -2 13 -5z m70 -10 c-3 -3 -12 -4 -19 -1 -8 3 -5 6 6
6 11 1 17 -2 13 -5z"/>
<path d="M970 3808 c-50 -26 -84 -70 -101 -132 -23 -83 21 -195 91 -231 46
-24 136 -19 184 9 141 82 114 317 -40 364 -58 17 -84 15 -134 -10z"/>
<path d="M1167 3200 c-151 -38 -255 -165 -265 -326 -8 -124 25 -220 104 -304
92 -99 232 -130 347 -77 109 50 195 153 224 271 14 58 14 77 4 134 -24 128
-98 229 -206 278 -59 27 -152 38 -208 24z"/>
<path d="M6295 2871 c-45 -12 -107 -46 -132 -73 -50 -55 -68 -108 -68 -203 0
-78 4 -97 27 -140 69 -130 204 -180 326 -119 97 48 154 137 160 251 3 60 0 80
-21 125 -28 61 -75 111 -128 138 -42 22 -121 32 -164 21z"/>
<path d="M4312 2837 c-15 -16 -25 -46 -33 -102 -6 -44 -13 -81 -14 -82 -1 -2
-40 -10 -88 -18 -104 -18 -232 -63 -298 -105 -139 -90 -203 -241 -165 -390 40
-157 137 -255 389 -394 l176 -98 -5 -46 c-8 -88 -34 -510 -34 -566 l0 -56 -34
0 c-43 0 -201 33 -287 59 -124 39 -219 120 -263 224 -21 51 -46 176 -46 232 0
42 -2 45 -27 45 -82 0 -156 -48 -193 -126 -64 -131 41 -334 243 -468 139 -93
315 -165 501 -205 90 -20 106 -30 106 -67 0 -42 53 -128 92 -149 35 -18 40
-19 65 -5 43 24 62 60 69 128 l7 62 53 0 c140 0 324 45 464 113 111 54 188
128 219 212 49 130 10 280 -105 405 -66 70 -115 102 -386 249 l-208 113 0 91
c0 51 -7 173 -15 272 -8 99 -15 197 -15 217 0 37 1 37 33 31 50 -9 154 -59
226 -108 111 -75 237 -106 289 -69 72 50 -33 231 -175 299 -87 42 -216 84
-303 99 -43 7 -83 16 -89 20 -6 4 -11 30 -11 58 0 113 -80 186 -138 125z m-43
-607 c13 -202 14 -300 3 -300 -13 0 -205 111 -254 146 -57 42 -93 109 -83 155
9 39 56 93 109 123 53 31 194 69 207 57 3 -3 11 -85 18 -181z m408 -801 c90
-50 177 -102 194 -116 52 -44 75 -108 70 -195 -2 -48 -55 -96 -130 -118 -57
-17 -235 -40 -309 -40 l-24 0 6 208 c7 233 15 352 23 352 3 0 80 -41 170 -91z"/>
<path d="M3092 2752 c-108 -39 -172 -135 -172 -258 0 -121 44 -206 135 -260
102 -59 214 -37 304 62 104 114 108 267 10 378 -76 86 -175 114 -277 78z"/>
<path d="M2174 2665 c-189 -41 -338 -192 -390 -396 -46 -181 7 -397 129 -527
93 -97 194 -140 352 -149 121 -7 193 10 271 63 208 141 293 615 151 840 -91
145 -303 215 -513 169z"/>
<path d="M2165 1377 c-56 -22 -73 -37 -94 -80 -62 -127 32 -314 180 -358 114
-35 221 70 222 215 1 106 -62 190 -165 221 -60 18 -101 18 -143 2z"/>
<path d="M2085 3860 c10 -11 20 -20 23 -20 3 0 -3 9 -13 20 -10 11 -20 20 -23
20 -3 0 3 -9 13 -20z"/>
</g>
</svg>
